M48
; DRILL file {KiCad (5.1.4)-1} date 25/11/2019 10:45:23
; FORMAT={-:-/ absolute / inch / decimal}
; #@! TF.CreationDate,2019-11-25T10:45:23+01:00
; #@! TF.GenerationSoftware,Kicad,Pcbnew,(5.1.4)-1
; #@! TF.FileFunction,Plated,1,2,PTH
FMAT,2
INCH
T1C0.0157
T2C0.0197
T3C0.0984
%
G90
G05
T1
X1.0113Y-1.895
X1.02Y-1.545
X1.045Y-1.835
X1.05Y-0.945
X1.07Y-2.48
X1.071Y-2.404
X1.11Y-1.99
X1.12Y-1.695
X1.12Y-1.75
X1.13Y-1.7977
X1.1343Y-2.4298
X1.14Y-0.885
X1.14Y-1.47
X1.145Y-0.935
X1.1744Y-1.4807
X1.1838Y-2.4266
X1.19Y-2.04
X1.2Y-0.94
X1.205Y-1.25
X1.2126Y-2.5624
X1.225Y-2.065
X1.24Y-1.75
X1.24Y-1.84
X1.245Y-1.795
X1.2476Y-2.1217
X1.258Y-0.8568
X1.2624Y-2.0016
X1.265Y-1.195
X1.28Y-2.23
X1.2969Y-1.9053
X1.3Y-2.015
X1.31Y-1.63
X1.325Y-2.23
X1.3265Y-1.7715
X1.3376Y-2.46
X1.355Y-2.41
X1.365Y-0.9424
X1.38Y-1.565
X1.41Y-1.09
X1.415Y-1.49
X1.415Y-1.87
X1.42Y-1.94
X1.42Y-2.145
X1.4285Y-1.0138
X1.435Y-1.57
X1.45Y-1.805
X1.46Y-1.245
X1.46Y-1.76
X1.475Y-1.99
X1.4828Y-1.095
X1.485Y-2.19
X1.495Y-2.705
X1.515Y-1.525
X1.525Y-1.035
X1.525Y-1.92
X1.525Y-1.965
X1.53Y-0.93
X1.53Y-1.095
X1.53Y-1.175
X1.53Y-1.635
X1.535Y-0.855
X1.535Y-2.22
X1.535Y-2.26
X1.535Y-2.46
X1.54Y-1.29
X1.54Y-2.3
X1.545Y-2.005
X1.554Y-1.601
X1.5659Y-2.345
X1.57Y-1.9
X1.5785Y-1.5615
X1.5812Y-1.04
X1.5812Y-1.1029
X1.59Y-2.005
X1.605Y-1.5
X1.61Y-1.89
X1.6139Y-1.5598
X1.615Y-1.73
X1.62Y-1.63
X1.62Y-2.195
X1.63Y-1.4
X1.635Y-1.15
X1.646Y-1.0245
X1.65Y-1.76
X1.655Y-1.665
X1.66Y-1.38
X1.665Y-2.68
X1.67Y-2.41
X1.68Y-1.08
X1.685Y-1.86
X1.695Y-1.7324
X1.704Y-1.514
X1.705Y-1.12
X1.7064Y-2.4006
X1.715Y-2.465
X1.7182Y-1.815
X1.72Y-2.175
X1.73Y-1.75
X1.7432Y-2.4359
X1.745Y-1.63
X1.755Y-1.695
X1.755Y-1.79
X1.76Y-1.86
X1.775Y-0.995
X1.82Y-1.18
X1.8215Y-1.2165
X1.8448Y-1.0594
X1.8513Y-2.6323
X1.8526Y-2.4176
X1.855Y-1.83
X1.8698Y-1.6196
X1.87Y-1.695
X1.871Y-1.5526
X1.88Y-1.66
X1.905Y-1.595
X1.91Y-1.555
X1.945Y-2.45
X1.9602Y-1.1522
X2.015Y-1.07
X2.02Y-1.22
X2.025Y-2.47
X2.03Y-1.695
X2.035Y-2.705
X2.045Y-1.125
T2
X1.824Y-1.35
X1.8456Y-1.2978
X1.8456Y-1.4022
X1.8978Y-1.2762
X1.8978Y-1.4238
X1.95Y-1.2978
X1.95Y-1.4022
X1.9716Y-1.35
X1.8262Y-2.15
X1.8478Y-2.0978
X1.8478Y-2.2022
X1.9Y-2.0762
X1.9Y-2.2238
X1.9522Y-2.0978
X1.9522Y-2.2022
X1.9738Y-2.15
X1.0262Y-1.35
X1.0478Y-1.2978
X1.0478Y-1.4022
X1.1Y-1.2762
X1.1Y-1.4238
X1.1522Y-1.2978
X1.1522Y-1.4022
X1.1738Y-1.35
X1.0262Y-2.15
X1.0478Y-2.0978
X1.0478Y-2.2022
X1.1Y-2.0762
X1.1Y-2.2238
X1.1522Y-2.0978
X1.1522Y-2.2022
X1.1738Y-2.15
T3
X1.8978Y-1.35
X1.9Y-2.15
X1.1Y-1.35
X1.1Y-2.15
T0
M30
