G04 #@! TF.GenerationSoftware,KiCad,Pcbnew,(5.1.4)-1*
G04 #@! TF.CreationDate,2019-11-16T16:05:54+01:00*
G04 #@! TF.ProjectId,V3S_ESP32_Feather,5633535f-4553-4503-9332-5f4665617468,rev?*
G04 #@! TF.SameCoordinates,Original*
G04 #@! TF.FileFunction,Soldermask,Bot*
G04 #@! TF.FilePolarity,Negative*
%FSLAX46Y46*%
G04 Gerber Fmt 4.6, Leading zero omitted, Abs format (unit mm)*
G04 Created by KiCad (PCBNEW (5.1.4)-1) date 2019-11-16 16:05:54*
%MOMM*%
%LPD*%
G04 APERTURE LIST*
%ADD10C,0.100000*%
%ADD11C,0.800000*%
%ADD12C,1.600000*%
%ADD13C,1.000000*%
%ADD14R,2.200000X2.200000*%
%ADD15R,1.160000X0.670000*%
%ADD16R,0.670000X1.160000*%
%ADD17R,0.700000X3.000000*%
%ADD18R,1.900000X2.400000*%
%ADD19C,0.990000*%
%ADD20R,4.200000X2.400000*%
%ADD21C,1.400000*%
%ADD22C,1.200000*%
%ADD23C,5.400000*%
%ADD24R,0.600000X1.400000*%
%ADD25R,1.400000X0.600000*%
%ADD26R,1.800000X1.600000*%
%ADD27R,1.500000X2.300000*%
G04 APERTURE END LIST*
D10*
G36*
X37938603Y-61099963D02*
G01*
X37958018Y-61102843D01*
X37977057Y-61107612D01*
X37995537Y-61114224D01*
X38013279Y-61122616D01*
X38030114Y-61132706D01*
X38045879Y-61144398D01*
X38060421Y-61157579D01*
X38073602Y-61172121D01*
X38085294Y-61187886D01*
X38095384Y-61204721D01*
X38103776Y-61222463D01*
X38110388Y-61240943D01*
X38115157Y-61259982D01*
X38118037Y-61279397D01*
X38119000Y-61299000D01*
X38119000Y-61759000D01*
X38118037Y-61778603D01*
X38115157Y-61798018D01*
X38110388Y-61817057D01*
X38103776Y-61835537D01*
X38095384Y-61853279D01*
X38085294Y-61870114D01*
X38073602Y-61885879D01*
X38060421Y-61900421D01*
X38045879Y-61913602D01*
X38030114Y-61925294D01*
X38013279Y-61935384D01*
X37995537Y-61943776D01*
X37977057Y-61950388D01*
X37958018Y-61955157D01*
X37938603Y-61958037D01*
X37919000Y-61959000D01*
X37519000Y-61959000D01*
X37499397Y-61958037D01*
X37479982Y-61955157D01*
X37460943Y-61950388D01*
X37442463Y-61943776D01*
X37424721Y-61935384D01*
X37407886Y-61925294D01*
X37392121Y-61913602D01*
X37377579Y-61900421D01*
X37364398Y-61885879D01*
X37352706Y-61870114D01*
X37342616Y-61853279D01*
X37334224Y-61835537D01*
X37327612Y-61817057D01*
X37322843Y-61798018D01*
X37319963Y-61778603D01*
X37319000Y-61759000D01*
X37319000Y-61299000D01*
X37319963Y-61279397D01*
X37322843Y-61259982D01*
X37327612Y-61240943D01*
X37334224Y-61222463D01*
X37342616Y-61204721D01*
X37352706Y-61187886D01*
X37364398Y-61172121D01*
X37377579Y-61157579D01*
X37392121Y-61144398D01*
X37407886Y-61132706D01*
X37424721Y-61122616D01*
X37442463Y-61114224D01*
X37460943Y-61107612D01*
X37479982Y-61102843D01*
X37499397Y-61099963D01*
X37519000Y-61099000D01*
X37919000Y-61099000D01*
X37938603Y-61099963D01*
X37938603Y-61099963D01*
G37*
D11*
X37719000Y-61529000D03*
D10*
G36*
X37938603Y-61739963D02*
G01*
X37958018Y-61742843D01*
X37977057Y-61747612D01*
X37995537Y-61754224D01*
X38013279Y-61762616D01*
X38030114Y-61772706D01*
X38045879Y-61784398D01*
X38060421Y-61797579D01*
X38073602Y-61812121D01*
X38085294Y-61827886D01*
X38095384Y-61844721D01*
X38103776Y-61862463D01*
X38110388Y-61880943D01*
X38115157Y-61899982D01*
X38118037Y-61919397D01*
X38119000Y-61939000D01*
X38119000Y-62399000D01*
X38118037Y-62418603D01*
X38115157Y-62438018D01*
X38110388Y-62457057D01*
X38103776Y-62475537D01*
X38095384Y-62493279D01*
X38085294Y-62510114D01*
X38073602Y-62525879D01*
X38060421Y-62540421D01*
X38045879Y-62553602D01*
X38030114Y-62565294D01*
X38013279Y-62575384D01*
X37995537Y-62583776D01*
X37977057Y-62590388D01*
X37958018Y-62595157D01*
X37938603Y-62598037D01*
X37919000Y-62599000D01*
X37519000Y-62599000D01*
X37499397Y-62598037D01*
X37479982Y-62595157D01*
X37460943Y-62590388D01*
X37442463Y-62583776D01*
X37424721Y-62575384D01*
X37407886Y-62565294D01*
X37392121Y-62553602D01*
X37377579Y-62540421D01*
X37364398Y-62525879D01*
X37352706Y-62510114D01*
X37342616Y-62493279D01*
X37334224Y-62475537D01*
X37327612Y-62457057D01*
X37322843Y-62438018D01*
X37319963Y-62418603D01*
X37319000Y-62399000D01*
X37319000Y-61939000D01*
X37319963Y-61919397D01*
X37322843Y-61899982D01*
X37327612Y-61880943D01*
X37334224Y-61862463D01*
X37342616Y-61844721D01*
X37352706Y-61827886D01*
X37364398Y-61812121D01*
X37377579Y-61797579D01*
X37392121Y-61784398D01*
X37407886Y-61772706D01*
X37424721Y-61762616D01*
X37442463Y-61754224D01*
X37460943Y-61747612D01*
X37479982Y-61742843D01*
X37499397Y-61739963D01*
X37519000Y-61739000D01*
X37919000Y-61739000D01*
X37938603Y-61739963D01*
X37938603Y-61739963D01*
G37*
D11*
X37719000Y-62169000D03*
D10*
G36*
X52799340Y-39970605D02*
G01*
X52831698Y-39975405D01*
X52863429Y-39983353D01*
X52894229Y-39994373D01*
X52923800Y-40008359D01*
X52951857Y-40025177D01*
X52978132Y-40044663D01*
X53002369Y-40066631D01*
X53024337Y-40090868D01*
X53043823Y-40117143D01*
X53060641Y-40145200D01*
X53074627Y-40174771D01*
X53085647Y-40205571D01*
X53093595Y-40237302D01*
X53098395Y-40269660D01*
X53100000Y-40302332D01*
X53100000Y-41235668D01*
X53098395Y-41268340D01*
X53093595Y-41300698D01*
X53085647Y-41332429D01*
X53074627Y-41363229D01*
X53060641Y-41392800D01*
X53043823Y-41420857D01*
X53024337Y-41447132D01*
X53002369Y-41471369D01*
X52978132Y-41493337D01*
X52951857Y-41512823D01*
X52923800Y-41529641D01*
X52894229Y-41543627D01*
X52863429Y-41554647D01*
X52831698Y-41562595D01*
X52799340Y-41567395D01*
X52766668Y-41569000D01*
X51233332Y-41569000D01*
X51200660Y-41567395D01*
X51168302Y-41562595D01*
X51136571Y-41554647D01*
X51105771Y-41543627D01*
X51076200Y-41529641D01*
X51048143Y-41512823D01*
X51021868Y-41493337D01*
X50997631Y-41471369D01*
X50975663Y-41447132D01*
X50956177Y-41420857D01*
X50939359Y-41392800D01*
X50925373Y-41363229D01*
X50914353Y-41332429D01*
X50906405Y-41300698D01*
X50901605Y-41268340D01*
X50900000Y-41235668D01*
X50900000Y-40302332D01*
X50901605Y-40269660D01*
X50906405Y-40237302D01*
X50914353Y-40205571D01*
X50925373Y-40174771D01*
X50939359Y-40145200D01*
X50956177Y-40117143D01*
X50975663Y-40090868D01*
X50997631Y-40066631D01*
X51021868Y-40044663D01*
X51048143Y-40025177D01*
X51076200Y-40008359D01*
X51105771Y-39994373D01*
X51136571Y-39983353D01*
X51168302Y-39975405D01*
X51200660Y-39970605D01*
X51233332Y-39969000D01*
X52766668Y-39969000D01*
X52799340Y-39970605D01*
X52799340Y-39970605D01*
G37*
D12*
X52000000Y-40769000D03*
D10*
G36*
X52799340Y-46570605D02*
G01*
X52831698Y-46575405D01*
X52863429Y-46583353D01*
X52894229Y-46594373D01*
X52923800Y-46608359D01*
X52951857Y-46625177D01*
X52978132Y-46644663D01*
X53002369Y-46666631D01*
X53024337Y-46690868D01*
X53043823Y-46717143D01*
X53060641Y-46745200D01*
X53074627Y-46774771D01*
X53085647Y-46805571D01*
X53093595Y-46837302D01*
X53098395Y-46869660D01*
X53100000Y-46902332D01*
X53100000Y-47835668D01*
X53098395Y-47868340D01*
X53093595Y-47900698D01*
X53085647Y-47932429D01*
X53074627Y-47963229D01*
X53060641Y-47992800D01*
X53043823Y-48020857D01*
X53024337Y-48047132D01*
X53002369Y-48071369D01*
X52978132Y-48093337D01*
X52951857Y-48112823D01*
X52923800Y-48129641D01*
X52894229Y-48143627D01*
X52863429Y-48154647D01*
X52831698Y-48162595D01*
X52799340Y-48167395D01*
X52766668Y-48169000D01*
X51233332Y-48169000D01*
X51200660Y-48167395D01*
X51168302Y-48162595D01*
X51136571Y-48154647D01*
X51105771Y-48143627D01*
X51076200Y-48129641D01*
X51048143Y-48112823D01*
X51021868Y-48093337D01*
X50997631Y-48071369D01*
X50975663Y-48047132D01*
X50956177Y-48020857D01*
X50939359Y-47992800D01*
X50925373Y-47963229D01*
X50914353Y-47932429D01*
X50906405Y-47900698D01*
X50901605Y-47868340D01*
X50900000Y-47835668D01*
X50900000Y-46902332D01*
X50901605Y-46869660D01*
X50906405Y-46837302D01*
X50914353Y-46805571D01*
X50925373Y-46774771D01*
X50939359Y-46745200D01*
X50956177Y-46717143D01*
X50975663Y-46690868D01*
X50997631Y-46666631D01*
X51021868Y-46644663D01*
X51048143Y-46625177D01*
X51076200Y-46608359D01*
X51105771Y-46594373D01*
X51136571Y-46583353D01*
X51168302Y-46575405D01*
X51200660Y-46570605D01*
X51233332Y-46569000D01*
X52766668Y-46569000D01*
X52799340Y-46570605D01*
X52799340Y-46570605D01*
G37*
D12*
X52000000Y-47369000D03*
D10*
G36*
X50224504Y-41570204D02*
G01*
X50248773Y-41573804D01*
X50272571Y-41579765D01*
X50295671Y-41588030D01*
X50317849Y-41598520D01*
X50338893Y-41611133D01*
X50358598Y-41625747D01*
X50376777Y-41642223D01*
X50393253Y-41660402D01*
X50407867Y-41680107D01*
X50420480Y-41701151D01*
X50430970Y-41723329D01*
X50439235Y-41746429D01*
X50445196Y-41770227D01*
X50448796Y-41794496D01*
X50450000Y-41819000D01*
X50450000Y-42319000D01*
X50448796Y-42343504D01*
X50445196Y-42367773D01*
X50439235Y-42391571D01*
X50430970Y-42414671D01*
X50420480Y-42436849D01*
X50407867Y-42457893D01*
X50393253Y-42477598D01*
X50376777Y-42495777D01*
X50358598Y-42512253D01*
X50338893Y-42526867D01*
X50317849Y-42539480D01*
X50295671Y-42549970D01*
X50272571Y-42558235D01*
X50248773Y-42564196D01*
X50224504Y-42567796D01*
X50200000Y-42569000D01*
X48750000Y-42569000D01*
X48725496Y-42567796D01*
X48701227Y-42564196D01*
X48677429Y-42558235D01*
X48654329Y-42549970D01*
X48632151Y-42539480D01*
X48611107Y-42526867D01*
X48591402Y-42512253D01*
X48573223Y-42495777D01*
X48556747Y-42477598D01*
X48542133Y-42457893D01*
X48529520Y-42436849D01*
X48519030Y-42414671D01*
X48510765Y-42391571D01*
X48504804Y-42367773D01*
X48501204Y-42343504D01*
X48500000Y-42319000D01*
X48500000Y-41819000D01*
X48501204Y-41794496D01*
X48504804Y-41770227D01*
X48510765Y-41746429D01*
X48519030Y-41723329D01*
X48529520Y-41701151D01*
X48542133Y-41680107D01*
X48556747Y-41660402D01*
X48573223Y-41642223D01*
X48591402Y-41625747D01*
X48611107Y-41611133D01*
X48632151Y-41598520D01*
X48654329Y-41588030D01*
X48677429Y-41579765D01*
X48701227Y-41573804D01*
X48725496Y-41570204D01*
X48750000Y-41569000D01*
X50200000Y-41569000D01*
X50224504Y-41570204D01*
X50224504Y-41570204D01*
G37*
D13*
X49475000Y-42069000D03*
D10*
G36*
X50224504Y-42570204D02*
G01*
X50248773Y-42573804D01*
X50272571Y-42579765D01*
X50295671Y-42588030D01*
X50317849Y-42598520D01*
X50338893Y-42611133D01*
X50358598Y-42625747D01*
X50376777Y-42642223D01*
X50393253Y-42660402D01*
X50407867Y-42680107D01*
X50420480Y-42701151D01*
X50430970Y-42723329D01*
X50439235Y-42746429D01*
X50445196Y-42770227D01*
X50448796Y-42794496D01*
X50450000Y-42819000D01*
X50450000Y-43319000D01*
X50448796Y-43343504D01*
X50445196Y-43367773D01*
X50439235Y-43391571D01*
X50430970Y-43414671D01*
X50420480Y-43436849D01*
X50407867Y-43457893D01*
X50393253Y-43477598D01*
X50376777Y-43495777D01*
X50358598Y-43512253D01*
X50338893Y-43526867D01*
X50317849Y-43539480D01*
X50295671Y-43549970D01*
X50272571Y-43558235D01*
X50248773Y-43564196D01*
X50224504Y-43567796D01*
X50200000Y-43569000D01*
X48750000Y-43569000D01*
X48725496Y-43567796D01*
X48701227Y-43564196D01*
X48677429Y-43558235D01*
X48654329Y-43549970D01*
X48632151Y-43539480D01*
X48611107Y-43526867D01*
X48591402Y-43512253D01*
X48573223Y-43495777D01*
X48556747Y-43477598D01*
X48542133Y-43457893D01*
X48529520Y-43436849D01*
X48519030Y-43414671D01*
X48510765Y-43391571D01*
X48504804Y-43367773D01*
X48501204Y-43343504D01*
X48500000Y-43319000D01*
X48500000Y-42819000D01*
X48501204Y-42794496D01*
X48504804Y-42770227D01*
X48510765Y-42746429D01*
X48519030Y-42723329D01*
X48529520Y-42701151D01*
X48542133Y-42680107D01*
X48556747Y-42660402D01*
X48573223Y-42642223D01*
X48591402Y-42625747D01*
X48611107Y-42611133D01*
X48632151Y-42598520D01*
X48654329Y-42588030D01*
X48677429Y-42579765D01*
X48701227Y-42573804D01*
X48725496Y-42570204D01*
X48750000Y-42569000D01*
X50200000Y-42569000D01*
X50224504Y-42570204D01*
X50224504Y-42570204D01*
G37*
D13*
X49475000Y-43069000D03*
D10*
G36*
X50224504Y-43570204D02*
G01*
X50248773Y-43573804D01*
X50272571Y-43579765D01*
X50295671Y-43588030D01*
X50317849Y-43598520D01*
X50338893Y-43611133D01*
X50358598Y-43625747D01*
X50376777Y-43642223D01*
X50393253Y-43660402D01*
X50407867Y-43680107D01*
X50420480Y-43701151D01*
X50430970Y-43723329D01*
X50439235Y-43746429D01*
X50445196Y-43770227D01*
X50448796Y-43794496D01*
X50450000Y-43819000D01*
X50450000Y-44319000D01*
X50448796Y-44343504D01*
X50445196Y-44367773D01*
X50439235Y-44391571D01*
X50430970Y-44414671D01*
X50420480Y-44436849D01*
X50407867Y-44457893D01*
X50393253Y-44477598D01*
X50376777Y-44495777D01*
X50358598Y-44512253D01*
X50338893Y-44526867D01*
X50317849Y-44539480D01*
X50295671Y-44549970D01*
X50272571Y-44558235D01*
X50248773Y-44564196D01*
X50224504Y-44567796D01*
X50200000Y-44569000D01*
X48750000Y-44569000D01*
X48725496Y-44567796D01*
X48701227Y-44564196D01*
X48677429Y-44558235D01*
X48654329Y-44549970D01*
X48632151Y-44539480D01*
X48611107Y-44526867D01*
X48591402Y-44512253D01*
X48573223Y-44495777D01*
X48556747Y-44477598D01*
X48542133Y-44457893D01*
X48529520Y-44436849D01*
X48519030Y-44414671D01*
X48510765Y-44391571D01*
X48504804Y-44367773D01*
X48501204Y-44343504D01*
X48500000Y-44319000D01*
X48500000Y-43819000D01*
X48501204Y-43794496D01*
X48504804Y-43770227D01*
X48510765Y-43746429D01*
X48519030Y-43723329D01*
X48529520Y-43701151D01*
X48542133Y-43680107D01*
X48556747Y-43660402D01*
X48573223Y-43642223D01*
X48591402Y-43625747D01*
X48611107Y-43611133D01*
X48632151Y-43598520D01*
X48654329Y-43588030D01*
X48677429Y-43579765D01*
X48701227Y-43573804D01*
X48725496Y-43570204D01*
X48750000Y-43569000D01*
X50200000Y-43569000D01*
X50224504Y-43570204D01*
X50224504Y-43570204D01*
G37*
D13*
X49475000Y-44069000D03*
D10*
G36*
X50224504Y-44570204D02*
G01*
X50248773Y-44573804D01*
X50272571Y-44579765D01*
X50295671Y-44588030D01*
X50317849Y-44598520D01*
X50338893Y-44611133D01*
X50358598Y-44625747D01*
X50376777Y-44642223D01*
X50393253Y-44660402D01*
X50407867Y-44680107D01*
X50420480Y-44701151D01*
X50430970Y-44723329D01*
X50439235Y-44746429D01*
X50445196Y-44770227D01*
X50448796Y-44794496D01*
X50450000Y-44819000D01*
X50450000Y-45319000D01*
X50448796Y-45343504D01*
X50445196Y-45367773D01*
X50439235Y-45391571D01*
X50430970Y-45414671D01*
X50420480Y-45436849D01*
X50407867Y-45457893D01*
X50393253Y-45477598D01*
X50376777Y-45495777D01*
X50358598Y-45512253D01*
X50338893Y-45526867D01*
X50317849Y-45539480D01*
X50295671Y-45549970D01*
X50272571Y-45558235D01*
X50248773Y-45564196D01*
X50224504Y-45567796D01*
X50200000Y-45569000D01*
X48750000Y-45569000D01*
X48725496Y-45567796D01*
X48701227Y-45564196D01*
X48677429Y-45558235D01*
X48654329Y-45549970D01*
X48632151Y-45539480D01*
X48611107Y-45526867D01*
X48591402Y-45512253D01*
X48573223Y-45495777D01*
X48556747Y-45477598D01*
X48542133Y-45457893D01*
X48529520Y-45436849D01*
X48519030Y-45414671D01*
X48510765Y-45391571D01*
X48504804Y-45367773D01*
X48501204Y-45343504D01*
X48500000Y-45319000D01*
X48500000Y-44819000D01*
X48501204Y-44794496D01*
X48504804Y-44770227D01*
X48510765Y-44746429D01*
X48519030Y-44723329D01*
X48529520Y-44701151D01*
X48542133Y-44680107D01*
X48556747Y-44660402D01*
X48573223Y-44642223D01*
X48591402Y-44625747D01*
X48611107Y-44611133D01*
X48632151Y-44598520D01*
X48654329Y-44588030D01*
X48677429Y-44579765D01*
X48701227Y-44573804D01*
X48725496Y-44570204D01*
X48750000Y-44569000D01*
X50200000Y-44569000D01*
X50224504Y-44570204D01*
X50224504Y-44570204D01*
G37*
D13*
X49475000Y-45069000D03*
D10*
G36*
X50224504Y-45570204D02*
G01*
X50248773Y-45573804D01*
X50272571Y-45579765D01*
X50295671Y-45588030D01*
X50317849Y-45598520D01*
X50338893Y-45611133D01*
X50358598Y-45625747D01*
X50376777Y-45642223D01*
X50393253Y-45660402D01*
X50407867Y-45680107D01*
X50420480Y-45701151D01*
X50430970Y-45723329D01*
X50439235Y-45746429D01*
X50445196Y-45770227D01*
X50448796Y-45794496D01*
X50450000Y-45819000D01*
X50450000Y-46319000D01*
X50448796Y-46343504D01*
X50445196Y-46367773D01*
X50439235Y-46391571D01*
X50430970Y-46414671D01*
X50420480Y-46436849D01*
X50407867Y-46457893D01*
X50393253Y-46477598D01*
X50376777Y-46495777D01*
X50358598Y-46512253D01*
X50338893Y-46526867D01*
X50317849Y-46539480D01*
X50295671Y-46549970D01*
X50272571Y-46558235D01*
X50248773Y-46564196D01*
X50224504Y-46567796D01*
X50200000Y-46569000D01*
X48750000Y-46569000D01*
X48725496Y-46567796D01*
X48701227Y-46564196D01*
X48677429Y-46558235D01*
X48654329Y-46549970D01*
X48632151Y-46539480D01*
X48611107Y-46526867D01*
X48591402Y-46512253D01*
X48573223Y-46495777D01*
X48556747Y-46477598D01*
X48542133Y-46457893D01*
X48529520Y-46436849D01*
X48519030Y-46414671D01*
X48510765Y-46391571D01*
X48504804Y-46367773D01*
X48501204Y-46343504D01*
X48500000Y-46319000D01*
X48500000Y-45819000D01*
X48501204Y-45794496D01*
X48504804Y-45770227D01*
X48510765Y-45746429D01*
X48519030Y-45723329D01*
X48529520Y-45701151D01*
X48542133Y-45680107D01*
X48556747Y-45660402D01*
X48573223Y-45642223D01*
X48591402Y-45625747D01*
X48611107Y-45611133D01*
X48632151Y-45598520D01*
X48654329Y-45588030D01*
X48677429Y-45579765D01*
X48701227Y-45573804D01*
X48725496Y-45570204D01*
X48750000Y-45569000D01*
X50200000Y-45569000D01*
X50224504Y-45570204D01*
X50224504Y-45570204D01*
G37*
D13*
X49475000Y-46069000D03*
D14*
X34671000Y-24130000D03*
D15*
X36141000Y-24880000D03*
X36141000Y-24380000D03*
X36141000Y-23880000D03*
X36141000Y-23380000D03*
X33201000Y-23380000D03*
X33201000Y-23880000D03*
X33201000Y-24380000D03*
X33201000Y-24880000D03*
D16*
X33921000Y-25600000D03*
X34421000Y-25600000D03*
X34921000Y-25600000D03*
X35421000Y-25600000D03*
X35421000Y-22660000D03*
X34921000Y-22660000D03*
X34421000Y-22660000D03*
X33921000Y-22660000D03*
D10*
G36*
X31552603Y-23349963D02*
G01*
X31572018Y-23352843D01*
X31591057Y-23357612D01*
X31609537Y-23364224D01*
X31627279Y-23372616D01*
X31644114Y-23382706D01*
X31659879Y-23394398D01*
X31674421Y-23407579D01*
X31687602Y-23422121D01*
X31699294Y-23437886D01*
X31709384Y-23454721D01*
X31717776Y-23472463D01*
X31724388Y-23490943D01*
X31729157Y-23509982D01*
X31732037Y-23529397D01*
X31733000Y-23549000D01*
X31733000Y-23949000D01*
X31732037Y-23968603D01*
X31729157Y-23988018D01*
X31724388Y-24007057D01*
X31717776Y-24025537D01*
X31709384Y-24043279D01*
X31699294Y-24060114D01*
X31687602Y-24075879D01*
X31674421Y-24090421D01*
X31659879Y-24103602D01*
X31644114Y-24115294D01*
X31627279Y-24125384D01*
X31609537Y-24133776D01*
X31591057Y-24140388D01*
X31572018Y-24145157D01*
X31552603Y-24148037D01*
X31533000Y-24149000D01*
X31073000Y-24149000D01*
X31053397Y-24148037D01*
X31033982Y-24145157D01*
X31014943Y-24140388D01*
X30996463Y-24133776D01*
X30978721Y-24125384D01*
X30961886Y-24115294D01*
X30946121Y-24103602D01*
X30931579Y-24090421D01*
X30918398Y-24075879D01*
X30906706Y-24060114D01*
X30896616Y-24043279D01*
X30888224Y-24025537D01*
X30881612Y-24007057D01*
X30876843Y-23988018D01*
X30873963Y-23968603D01*
X30873000Y-23949000D01*
X30873000Y-23549000D01*
X30873963Y-23529397D01*
X30876843Y-23509982D01*
X30881612Y-23490943D01*
X30888224Y-23472463D01*
X30896616Y-23454721D01*
X30906706Y-23437886D01*
X30918398Y-23422121D01*
X30931579Y-23407579D01*
X30946121Y-23394398D01*
X30961886Y-23382706D01*
X30978721Y-23372616D01*
X30996463Y-23364224D01*
X31014943Y-23357612D01*
X31033982Y-23352843D01*
X31053397Y-23349963D01*
X31073000Y-23349000D01*
X31533000Y-23349000D01*
X31552603Y-23349963D01*
X31552603Y-23349963D01*
G37*
D11*
X31303000Y-23749000D03*
D10*
G36*
X32192603Y-23349963D02*
G01*
X32212018Y-23352843D01*
X32231057Y-23357612D01*
X32249537Y-23364224D01*
X32267279Y-23372616D01*
X32284114Y-23382706D01*
X32299879Y-23394398D01*
X32314421Y-23407579D01*
X32327602Y-23422121D01*
X32339294Y-23437886D01*
X32349384Y-23454721D01*
X32357776Y-23472463D01*
X32364388Y-23490943D01*
X32369157Y-23509982D01*
X32372037Y-23529397D01*
X32373000Y-23549000D01*
X32373000Y-23949000D01*
X32372037Y-23968603D01*
X32369157Y-23988018D01*
X32364388Y-24007057D01*
X32357776Y-24025537D01*
X32349384Y-24043279D01*
X32339294Y-24060114D01*
X32327602Y-24075879D01*
X32314421Y-24090421D01*
X32299879Y-24103602D01*
X32284114Y-24115294D01*
X32267279Y-24125384D01*
X32249537Y-24133776D01*
X32231057Y-24140388D01*
X32212018Y-24145157D01*
X32192603Y-24148037D01*
X32173000Y-24149000D01*
X31713000Y-24149000D01*
X31693397Y-24148037D01*
X31673982Y-24145157D01*
X31654943Y-24140388D01*
X31636463Y-24133776D01*
X31618721Y-24125384D01*
X31601886Y-24115294D01*
X31586121Y-24103602D01*
X31571579Y-24090421D01*
X31558398Y-24075879D01*
X31546706Y-24060114D01*
X31536616Y-24043279D01*
X31528224Y-24025537D01*
X31521612Y-24007057D01*
X31516843Y-23988018D01*
X31513963Y-23968603D01*
X31513000Y-23949000D01*
X31513000Y-23549000D01*
X31513963Y-23529397D01*
X31516843Y-23509982D01*
X31521612Y-23490943D01*
X31528224Y-23472463D01*
X31536616Y-23454721D01*
X31546706Y-23437886D01*
X31558398Y-23422121D01*
X31571579Y-23407579D01*
X31586121Y-23394398D01*
X31601886Y-23382706D01*
X31618721Y-23372616D01*
X31636463Y-23364224D01*
X31654943Y-23357612D01*
X31673982Y-23352843D01*
X31693397Y-23349963D01*
X31713000Y-23349000D01*
X32173000Y-23349000D01*
X32192603Y-23349963D01*
X32192603Y-23349963D01*
G37*
D11*
X31943000Y-23749000D03*
D10*
G36*
X25086340Y-36914605D02*
G01*
X25118698Y-36919405D01*
X25150429Y-36927353D01*
X25181229Y-36938373D01*
X25210800Y-36952359D01*
X25238857Y-36969177D01*
X25265132Y-36988663D01*
X25289369Y-37010631D01*
X25311337Y-37034868D01*
X25330823Y-37061143D01*
X25347641Y-37089200D01*
X25361627Y-37118771D01*
X25372647Y-37149571D01*
X25380595Y-37181302D01*
X25385395Y-37213660D01*
X25387000Y-37246332D01*
X25387000Y-38179668D01*
X25385395Y-38212340D01*
X25380595Y-38244698D01*
X25372647Y-38276429D01*
X25361627Y-38307229D01*
X25347641Y-38336800D01*
X25330823Y-38364857D01*
X25311337Y-38391132D01*
X25289369Y-38415369D01*
X25265132Y-38437337D01*
X25238857Y-38456823D01*
X25210800Y-38473641D01*
X25181229Y-38487627D01*
X25150429Y-38498647D01*
X25118698Y-38506595D01*
X25086340Y-38511395D01*
X25053668Y-38513000D01*
X23520332Y-38513000D01*
X23487660Y-38511395D01*
X23455302Y-38506595D01*
X23423571Y-38498647D01*
X23392771Y-38487627D01*
X23363200Y-38473641D01*
X23335143Y-38456823D01*
X23308868Y-38437337D01*
X23284631Y-38415369D01*
X23262663Y-38391132D01*
X23243177Y-38364857D01*
X23226359Y-38336800D01*
X23212373Y-38307229D01*
X23201353Y-38276429D01*
X23193405Y-38244698D01*
X23188605Y-38212340D01*
X23187000Y-38179668D01*
X23187000Y-37246332D01*
X23188605Y-37213660D01*
X23193405Y-37181302D01*
X23201353Y-37149571D01*
X23212373Y-37118771D01*
X23226359Y-37089200D01*
X23243177Y-37061143D01*
X23262663Y-37034868D01*
X23284631Y-37010631D01*
X23308868Y-36988663D01*
X23335143Y-36969177D01*
X23363200Y-36952359D01*
X23392771Y-36938373D01*
X23423571Y-36927353D01*
X23455302Y-36919405D01*
X23487660Y-36914605D01*
X23520332Y-36913000D01*
X25053668Y-36913000D01*
X25086340Y-36914605D01*
X25086340Y-36914605D01*
G37*
D12*
X24287000Y-37713000D03*
D10*
G36*
X25086340Y-42514605D02*
G01*
X25118698Y-42519405D01*
X25150429Y-42527353D01*
X25181229Y-42538373D01*
X25210800Y-42552359D01*
X25238857Y-42569177D01*
X25265132Y-42588663D01*
X25289369Y-42610631D01*
X25311337Y-42634868D01*
X25330823Y-42661143D01*
X25347641Y-42689200D01*
X25361627Y-42718771D01*
X25372647Y-42749571D01*
X25380595Y-42781302D01*
X25385395Y-42813660D01*
X25387000Y-42846332D01*
X25387000Y-43779668D01*
X25385395Y-43812340D01*
X25380595Y-43844698D01*
X25372647Y-43876429D01*
X25361627Y-43907229D01*
X25347641Y-43936800D01*
X25330823Y-43964857D01*
X25311337Y-43991132D01*
X25289369Y-44015369D01*
X25265132Y-44037337D01*
X25238857Y-44056823D01*
X25210800Y-44073641D01*
X25181229Y-44087627D01*
X25150429Y-44098647D01*
X25118698Y-44106595D01*
X25086340Y-44111395D01*
X25053668Y-44113000D01*
X23520332Y-44113000D01*
X23487660Y-44111395D01*
X23455302Y-44106595D01*
X23423571Y-44098647D01*
X23392771Y-44087627D01*
X23363200Y-44073641D01*
X23335143Y-44056823D01*
X23308868Y-44037337D01*
X23284631Y-44015369D01*
X23262663Y-43991132D01*
X23243177Y-43964857D01*
X23226359Y-43936800D01*
X23212373Y-43907229D01*
X23201353Y-43876429D01*
X23193405Y-43844698D01*
X23188605Y-43812340D01*
X23187000Y-43779668D01*
X23187000Y-42846332D01*
X23188605Y-42813660D01*
X23193405Y-42781302D01*
X23201353Y-42749571D01*
X23212373Y-42718771D01*
X23226359Y-42689200D01*
X23243177Y-42661143D01*
X23262663Y-42634868D01*
X23284631Y-42610631D01*
X23308868Y-42588663D01*
X23335143Y-42569177D01*
X23363200Y-42552359D01*
X23392771Y-42538373D01*
X23423571Y-42527353D01*
X23455302Y-42519405D01*
X23487660Y-42514605D01*
X23520332Y-42513000D01*
X25053668Y-42513000D01*
X25086340Y-42514605D01*
X25086340Y-42514605D01*
G37*
D12*
X24287000Y-43313000D03*
D10*
G36*
X28911504Y-38514204D02*
G01*
X28935773Y-38517804D01*
X28959571Y-38523765D01*
X28982671Y-38532030D01*
X29004849Y-38542520D01*
X29025893Y-38555133D01*
X29045598Y-38569747D01*
X29063777Y-38586223D01*
X29080253Y-38604402D01*
X29094867Y-38624107D01*
X29107480Y-38645151D01*
X29117970Y-38667329D01*
X29126235Y-38690429D01*
X29132196Y-38714227D01*
X29135796Y-38738496D01*
X29137000Y-38763000D01*
X29137000Y-39263000D01*
X29135796Y-39287504D01*
X29132196Y-39311773D01*
X29126235Y-39335571D01*
X29117970Y-39358671D01*
X29107480Y-39380849D01*
X29094867Y-39401893D01*
X29080253Y-39421598D01*
X29063777Y-39439777D01*
X29045598Y-39456253D01*
X29025893Y-39470867D01*
X29004849Y-39483480D01*
X28982671Y-39493970D01*
X28959571Y-39502235D01*
X28935773Y-39508196D01*
X28911504Y-39511796D01*
X28887000Y-39513000D01*
X27437000Y-39513000D01*
X27412496Y-39511796D01*
X27388227Y-39508196D01*
X27364429Y-39502235D01*
X27341329Y-39493970D01*
X27319151Y-39483480D01*
X27298107Y-39470867D01*
X27278402Y-39456253D01*
X27260223Y-39439777D01*
X27243747Y-39421598D01*
X27229133Y-39401893D01*
X27216520Y-39380849D01*
X27206030Y-39358671D01*
X27197765Y-39335571D01*
X27191804Y-39311773D01*
X27188204Y-39287504D01*
X27187000Y-39263000D01*
X27187000Y-38763000D01*
X27188204Y-38738496D01*
X27191804Y-38714227D01*
X27197765Y-38690429D01*
X27206030Y-38667329D01*
X27216520Y-38645151D01*
X27229133Y-38624107D01*
X27243747Y-38604402D01*
X27260223Y-38586223D01*
X27278402Y-38569747D01*
X27298107Y-38555133D01*
X27319151Y-38542520D01*
X27341329Y-38532030D01*
X27364429Y-38523765D01*
X27388227Y-38517804D01*
X27412496Y-38514204D01*
X27437000Y-38513000D01*
X28887000Y-38513000D01*
X28911504Y-38514204D01*
X28911504Y-38514204D01*
G37*
D13*
X28162000Y-39013000D03*
D10*
G36*
X28911504Y-39514204D02*
G01*
X28935773Y-39517804D01*
X28959571Y-39523765D01*
X28982671Y-39532030D01*
X29004849Y-39542520D01*
X29025893Y-39555133D01*
X29045598Y-39569747D01*
X29063777Y-39586223D01*
X29080253Y-39604402D01*
X29094867Y-39624107D01*
X29107480Y-39645151D01*
X29117970Y-39667329D01*
X29126235Y-39690429D01*
X29132196Y-39714227D01*
X29135796Y-39738496D01*
X29137000Y-39763000D01*
X29137000Y-40263000D01*
X29135796Y-40287504D01*
X29132196Y-40311773D01*
X29126235Y-40335571D01*
X29117970Y-40358671D01*
X29107480Y-40380849D01*
X29094867Y-40401893D01*
X29080253Y-40421598D01*
X29063777Y-40439777D01*
X29045598Y-40456253D01*
X29025893Y-40470867D01*
X29004849Y-40483480D01*
X28982671Y-40493970D01*
X28959571Y-40502235D01*
X28935773Y-40508196D01*
X28911504Y-40511796D01*
X28887000Y-40513000D01*
X27437000Y-40513000D01*
X27412496Y-40511796D01*
X27388227Y-40508196D01*
X27364429Y-40502235D01*
X27341329Y-40493970D01*
X27319151Y-40483480D01*
X27298107Y-40470867D01*
X27278402Y-40456253D01*
X27260223Y-40439777D01*
X27243747Y-40421598D01*
X27229133Y-40401893D01*
X27216520Y-40380849D01*
X27206030Y-40358671D01*
X27197765Y-40335571D01*
X27191804Y-40311773D01*
X27188204Y-40287504D01*
X27187000Y-40263000D01*
X27187000Y-39763000D01*
X27188204Y-39738496D01*
X27191804Y-39714227D01*
X27197765Y-39690429D01*
X27206030Y-39667329D01*
X27216520Y-39645151D01*
X27229133Y-39624107D01*
X27243747Y-39604402D01*
X27260223Y-39586223D01*
X27278402Y-39569747D01*
X27298107Y-39555133D01*
X27319151Y-39542520D01*
X27341329Y-39532030D01*
X27364429Y-39523765D01*
X27388227Y-39517804D01*
X27412496Y-39514204D01*
X27437000Y-39513000D01*
X28887000Y-39513000D01*
X28911504Y-39514204D01*
X28911504Y-39514204D01*
G37*
D13*
X28162000Y-40013000D03*
D10*
G36*
X28911504Y-40514204D02*
G01*
X28935773Y-40517804D01*
X28959571Y-40523765D01*
X28982671Y-40532030D01*
X29004849Y-40542520D01*
X29025893Y-40555133D01*
X29045598Y-40569747D01*
X29063777Y-40586223D01*
X29080253Y-40604402D01*
X29094867Y-40624107D01*
X29107480Y-40645151D01*
X29117970Y-40667329D01*
X29126235Y-40690429D01*
X29132196Y-40714227D01*
X29135796Y-40738496D01*
X29137000Y-40763000D01*
X29137000Y-41263000D01*
X29135796Y-41287504D01*
X29132196Y-41311773D01*
X29126235Y-41335571D01*
X29117970Y-41358671D01*
X29107480Y-41380849D01*
X29094867Y-41401893D01*
X29080253Y-41421598D01*
X29063777Y-41439777D01*
X29045598Y-41456253D01*
X29025893Y-41470867D01*
X29004849Y-41483480D01*
X28982671Y-41493970D01*
X28959571Y-41502235D01*
X28935773Y-41508196D01*
X28911504Y-41511796D01*
X28887000Y-41513000D01*
X27437000Y-41513000D01*
X27412496Y-41511796D01*
X27388227Y-41508196D01*
X27364429Y-41502235D01*
X27341329Y-41493970D01*
X27319151Y-41483480D01*
X27298107Y-41470867D01*
X27278402Y-41456253D01*
X27260223Y-41439777D01*
X27243747Y-41421598D01*
X27229133Y-41401893D01*
X27216520Y-41380849D01*
X27206030Y-41358671D01*
X27197765Y-41335571D01*
X27191804Y-41311773D01*
X27188204Y-41287504D01*
X27187000Y-41263000D01*
X27187000Y-40763000D01*
X27188204Y-40738496D01*
X27191804Y-40714227D01*
X27197765Y-40690429D01*
X27206030Y-40667329D01*
X27216520Y-40645151D01*
X27229133Y-40624107D01*
X27243747Y-40604402D01*
X27260223Y-40586223D01*
X27278402Y-40569747D01*
X27298107Y-40555133D01*
X27319151Y-40542520D01*
X27341329Y-40532030D01*
X27364429Y-40523765D01*
X27388227Y-40517804D01*
X27412496Y-40514204D01*
X27437000Y-40513000D01*
X28887000Y-40513000D01*
X28911504Y-40514204D01*
X28911504Y-40514204D01*
G37*
D13*
X28162000Y-41013000D03*
D10*
G36*
X28911504Y-41514204D02*
G01*
X28935773Y-41517804D01*
X28959571Y-41523765D01*
X28982671Y-41532030D01*
X29004849Y-41542520D01*
X29025893Y-41555133D01*
X29045598Y-41569747D01*
X29063777Y-41586223D01*
X29080253Y-41604402D01*
X29094867Y-41624107D01*
X29107480Y-41645151D01*
X29117970Y-41667329D01*
X29126235Y-41690429D01*
X29132196Y-41714227D01*
X29135796Y-41738496D01*
X29137000Y-41763000D01*
X29137000Y-42263000D01*
X29135796Y-42287504D01*
X29132196Y-42311773D01*
X29126235Y-42335571D01*
X29117970Y-42358671D01*
X29107480Y-42380849D01*
X29094867Y-42401893D01*
X29080253Y-42421598D01*
X29063777Y-42439777D01*
X29045598Y-42456253D01*
X29025893Y-42470867D01*
X29004849Y-42483480D01*
X28982671Y-42493970D01*
X28959571Y-42502235D01*
X28935773Y-42508196D01*
X28911504Y-42511796D01*
X28887000Y-42513000D01*
X27437000Y-42513000D01*
X27412496Y-42511796D01*
X27388227Y-42508196D01*
X27364429Y-42502235D01*
X27341329Y-42493970D01*
X27319151Y-42483480D01*
X27298107Y-42470867D01*
X27278402Y-42456253D01*
X27260223Y-42439777D01*
X27243747Y-42421598D01*
X27229133Y-42401893D01*
X27216520Y-42380849D01*
X27206030Y-42358671D01*
X27197765Y-42335571D01*
X27191804Y-42311773D01*
X27188204Y-42287504D01*
X27187000Y-42263000D01*
X27187000Y-41763000D01*
X27188204Y-41738496D01*
X27191804Y-41714227D01*
X27197765Y-41690429D01*
X27206030Y-41667329D01*
X27216520Y-41645151D01*
X27229133Y-41624107D01*
X27243747Y-41604402D01*
X27260223Y-41586223D01*
X27278402Y-41569747D01*
X27298107Y-41555133D01*
X27319151Y-41542520D01*
X27341329Y-41532030D01*
X27364429Y-41523765D01*
X27388227Y-41517804D01*
X27412496Y-41514204D01*
X27437000Y-41513000D01*
X28887000Y-41513000D01*
X28911504Y-41514204D01*
X28911504Y-41514204D01*
G37*
D13*
X28162000Y-42013000D03*
D10*
G36*
X25086340Y-44788605D02*
G01*
X25118698Y-44793405D01*
X25150429Y-44801353D01*
X25181229Y-44812373D01*
X25210800Y-44826359D01*
X25238857Y-44843177D01*
X25265132Y-44862663D01*
X25289369Y-44884631D01*
X25311337Y-44908868D01*
X25330823Y-44935143D01*
X25347641Y-44963200D01*
X25361627Y-44992771D01*
X25372647Y-45023571D01*
X25380595Y-45055302D01*
X25385395Y-45087660D01*
X25387000Y-45120332D01*
X25387000Y-46053668D01*
X25385395Y-46086340D01*
X25380595Y-46118698D01*
X25372647Y-46150429D01*
X25361627Y-46181229D01*
X25347641Y-46210800D01*
X25330823Y-46238857D01*
X25311337Y-46265132D01*
X25289369Y-46289369D01*
X25265132Y-46311337D01*
X25238857Y-46330823D01*
X25210800Y-46347641D01*
X25181229Y-46361627D01*
X25150429Y-46372647D01*
X25118698Y-46380595D01*
X25086340Y-46385395D01*
X25053668Y-46387000D01*
X23520332Y-46387000D01*
X23487660Y-46385395D01*
X23455302Y-46380595D01*
X23423571Y-46372647D01*
X23392771Y-46361627D01*
X23363200Y-46347641D01*
X23335143Y-46330823D01*
X23308868Y-46311337D01*
X23284631Y-46289369D01*
X23262663Y-46265132D01*
X23243177Y-46238857D01*
X23226359Y-46210800D01*
X23212373Y-46181229D01*
X23201353Y-46150429D01*
X23193405Y-46118698D01*
X23188605Y-46086340D01*
X23187000Y-46053668D01*
X23187000Y-45120332D01*
X23188605Y-45087660D01*
X23193405Y-45055302D01*
X23201353Y-45023571D01*
X23212373Y-44992771D01*
X23226359Y-44963200D01*
X23243177Y-44935143D01*
X23262663Y-44908868D01*
X23284631Y-44884631D01*
X23308868Y-44862663D01*
X23335143Y-44843177D01*
X23363200Y-44826359D01*
X23392771Y-44812373D01*
X23423571Y-44801353D01*
X23455302Y-44793405D01*
X23487660Y-44788605D01*
X23520332Y-44787000D01*
X25053668Y-44787000D01*
X25086340Y-44788605D01*
X25086340Y-44788605D01*
G37*
D12*
X24287000Y-45587000D03*
D10*
G36*
X25086340Y-50388605D02*
G01*
X25118698Y-50393405D01*
X25150429Y-50401353D01*
X25181229Y-50412373D01*
X25210800Y-50426359D01*
X25238857Y-50443177D01*
X25265132Y-50462663D01*
X25289369Y-50484631D01*
X25311337Y-50508868D01*
X25330823Y-50535143D01*
X25347641Y-50563200D01*
X25361627Y-50592771D01*
X25372647Y-50623571D01*
X25380595Y-50655302D01*
X25385395Y-50687660D01*
X25387000Y-50720332D01*
X25387000Y-51653668D01*
X25385395Y-51686340D01*
X25380595Y-51718698D01*
X25372647Y-51750429D01*
X25361627Y-51781229D01*
X25347641Y-51810800D01*
X25330823Y-51838857D01*
X25311337Y-51865132D01*
X25289369Y-51889369D01*
X25265132Y-51911337D01*
X25238857Y-51930823D01*
X25210800Y-51947641D01*
X25181229Y-51961627D01*
X25150429Y-51972647D01*
X25118698Y-51980595D01*
X25086340Y-51985395D01*
X25053668Y-51987000D01*
X23520332Y-51987000D01*
X23487660Y-51985395D01*
X23455302Y-51980595D01*
X23423571Y-51972647D01*
X23392771Y-51961627D01*
X23363200Y-51947641D01*
X23335143Y-51930823D01*
X23308868Y-51911337D01*
X23284631Y-51889369D01*
X23262663Y-51865132D01*
X23243177Y-51838857D01*
X23226359Y-51810800D01*
X23212373Y-51781229D01*
X23201353Y-51750429D01*
X23193405Y-51718698D01*
X23188605Y-51686340D01*
X23187000Y-51653668D01*
X23187000Y-50720332D01*
X23188605Y-50687660D01*
X23193405Y-50655302D01*
X23201353Y-50623571D01*
X23212373Y-50592771D01*
X23226359Y-50563200D01*
X23243177Y-50535143D01*
X23262663Y-50508868D01*
X23284631Y-50484631D01*
X23308868Y-50462663D01*
X23335143Y-50443177D01*
X23363200Y-50426359D01*
X23392771Y-50412373D01*
X23423571Y-50401353D01*
X23455302Y-50393405D01*
X23487660Y-50388605D01*
X23520332Y-50387000D01*
X25053668Y-50387000D01*
X25086340Y-50388605D01*
X25086340Y-50388605D01*
G37*
D12*
X24287000Y-51187000D03*
D10*
G36*
X28911504Y-46388204D02*
G01*
X28935773Y-46391804D01*
X28959571Y-46397765D01*
X28982671Y-46406030D01*
X29004849Y-46416520D01*
X29025893Y-46429133D01*
X29045598Y-46443747D01*
X29063777Y-46460223D01*
X29080253Y-46478402D01*
X29094867Y-46498107D01*
X29107480Y-46519151D01*
X29117970Y-46541329D01*
X29126235Y-46564429D01*
X29132196Y-46588227D01*
X29135796Y-46612496D01*
X29137000Y-46637000D01*
X29137000Y-47137000D01*
X29135796Y-47161504D01*
X29132196Y-47185773D01*
X29126235Y-47209571D01*
X29117970Y-47232671D01*
X29107480Y-47254849D01*
X29094867Y-47275893D01*
X29080253Y-47295598D01*
X29063777Y-47313777D01*
X29045598Y-47330253D01*
X29025893Y-47344867D01*
X29004849Y-47357480D01*
X28982671Y-47367970D01*
X28959571Y-47376235D01*
X28935773Y-47382196D01*
X28911504Y-47385796D01*
X28887000Y-47387000D01*
X27437000Y-47387000D01*
X27412496Y-47385796D01*
X27388227Y-47382196D01*
X27364429Y-47376235D01*
X27341329Y-47367970D01*
X27319151Y-47357480D01*
X27298107Y-47344867D01*
X27278402Y-47330253D01*
X27260223Y-47313777D01*
X27243747Y-47295598D01*
X27229133Y-47275893D01*
X27216520Y-47254849D01*
X27206030Y-47232671D01*
X27197765Y-47209571D01*
X27191804Y-47185773D01*
X27188204Y-47161504D01*
X27187000Y-47137000D01*
X27187000Y-46637000D01*
X27188204Y-46612496D01*
X27191804Y-46588227D01*
X27197765Y-46564429D01*
X27206030Y-46541329D01*
X27216520Y-46519151D01*
X27229133Y-46498107D01*
X27243747Y-46478402D01*
X27260223Y-46460223D01*
X27278402Y-46443747D01*
X27298107Y-46429133D01*
X27319151Y-46416520D01*
X27341329Y-46406030D01*
X27364429Y-46397765D01*
X27388227Y-46391804D01*
X27412496Y-46388204D01*
X27437000Y-46387000D01*
X28887000Y-46387000D01*
X28911504Y-46388204D01*
X28911504Y-46388204D01*
G37*
D13*
X28162000Y-46887000D03*
D10*
G36*
X28911504Y-47388204D02*
G01*
X28935773Y-47391804D01*
X28959571Y-47397765D01*
X28982671Y-47406030D01*
X29004849Y-47416520D01*
X29025893Y-47429133D01*
X29045598Y-47443747D01*
X29063777Y-47460223D01*
X29080253Y-47478402D01*
X29094867Y-47498107D01*
X29107480Y-47519151D01*
X29117970Y-47541329D01*
X29126235Y-47564429D01*
X29132196Y-47588227D01*
X29135796Y-47612496D01*
X29137000Y-47637000D01*
X29137000Y-48137000D01*
X29135796Y-48161504D01*
X29132196Y-48185773D01*
X29126235Y-48209571D01*
X29117970Y-48232671D01*
X29107480Y-48254849D01*
X29094867Y-48275893D01*
X29080253Y-48295598D01*
X29063777Y-48313777D01*
X29045598Y-48330253D01*
X29025893Y-48344867D01*
X29004849Y-48357480D01*
X28982671Y-48367970D01*
X28959571Y-48376235D01*
X28935773Y-48382196D01*
X28911504Y-48385796D01*
X28887000Y-48387000D01*
X27437000Y-48387000D01*
X27412496Y-48385796D01*
X27388227Y-48382196D01*
X27364429Y-48376235D01*
X27341329Y-48367970D01*
X27319151Y-48357480D01*
X27298107Y-48344867D01*
X27278402Y-48330253D01*
X27260223Y-48313777D01*
X27243747Y-48295598D01*
X27229133Y-48275893D01*
X27216520Y-48254849D01*
X27206030Y-48232671D01*
X27197765Y-48209571D01*
X27191804Y-48185773D01*
X27188204Y-48161504D01*
X27187000Y-48137000D01*
X27187000Y-47637000D01*
X27188204Y-47612496D01*
X27191804Y-47588227D01*
X27197765Y-47564429D01*
X27206030Y-47541329D01*
X27216520Y-47519151D01*
X27229133Y-47498107D01*
X27243747Y-47478402D01*
X27260223Y-47460223D01*
X27278402Y-47443747D01*
X27298107Y-47429133D01*
X27319151Y-47416520D01*
X27341329Y-47406030D01*
X27364429Y-47397765D01*
X27388227Y-47391804D01*
X27412496Y-47388204D01*
X27437000Y-47387000D01*
X28887000Y-47387000D01*
X28911504Y-47388204D01*
X28911504Y-47388204D01*
G37*
D13*
X28162000Y-47887000D03*
D10*
G36*
X28911504Y-48388204D02*
G01*
X28935773Y-48391804D01*
X28959571Y-48397765D01*
X28982671Y-48406030D01*
X29004849Y-48416520D01*
X29025893Y-48429133D01*
X29045598Y-48443747D01*
X29063777Y-48460223D01*
X29080253Y-48478402D01*
X29094867Y-48498107D01*
X29107480Y-48519151D01*
X29117970Y-48541329D01*
X29126235Y-48564429D01*
X29132196Y-48588227D01*
X29135796Y-48612496D01*
X29137000Y-48637000D01*
X29137000Y-49137000D01*
X29135796Y-49161504D01*
X29132196Y-49185773D01*
X29126235Y-49209571D01*
X29117970Y-49232671D01*
X29107480Y-49254849D01*
X29094867Y-49275893D01*
X29080253Y-49295598D01*
X29063777Y-49313777D01*
X29045598Y-49330253D01*
X29025893Y-49344867D01*
X29004849Y-49357480D01*
X28982671Y-49367970D01*
X28959571Y-49376235D01*
X28935773Y-49382196D01*
X28911504Y-49385796D01*
X28887000Y-49387000D01*
X27437000Y-49387000D01*
X27412496Y-49385796D01*
X27388227Y-49382196D01*
X27364429Y-49376235D01*
X27341329Y-49367970D01*
X27319151Y-49357480D01*
X27298107Y-49344867D01*
X27278402Y-49330253D01*
X27260223Y-49313777D01*
X27243747Y-49295598D01*
X27229133Y-49275893D01*
X27216520Y-49254849D01*
X27206030Y-49232671D01*
X27197765Y-49209571D01*
X27191804Y-49185773D01*
X27188204Y-49161504D01*
X27187000Y-49137000D01*
X27187000Y-48637000D01*
X27188204Y-48612496D01*
X27191804Y-48588227D01*
X27197765Y-48564429D01*
X27206030Y-48541329D01*
X27216520Y-48519151D01*
X27229133Y-48498107D01*
X27243747Y-48478402D01*
X27260223Y-48460223D01*
X27278402Y-48443747D01*
X27298107Y-48429133D01*
X27319151Y-48416520D01*
X27341329Y-48406030D01*
X27364429Y-48397765D01*
X27388227Y-48391804D01*
X27412496Y-48388204D01*
X27437000Y-48387000D01*
X28887000Y-48387000D01*
X28911504Y-48388204D01*
X28911504Y-48388204D01*
G37*
D13*
X28162000Y-48887000D03*
D10*
G36*
X28911504Y-49388204D02*
G01*
X28935773Y-49391804D01*
X28959571Y-49397765D01*
X28982671Y-49406030D01*
X29004849Y-49416520D01*
X29025893Y-49429133D01*
X29045598Y-49443747D01*
X29063777Y-49460223D01*
X29080253Y-49478402D01*
X29094867Y-49498107D01*
X29107480Y-49519151D01*
X29117970Y-49541329D01*
X29126235Y-49564429D01*
X29132196Y-49588227D01*
X29135796Y-49612496D01*
X29137000Y-49637000D01*
X29137000Y-50137000D01*
X29135796Y-50161504D01*
X29132196Y-50185773D01*
X29126235Y-50209571D01*
X29117970Y-50232671D01*
X29107480Y-50254849D01*
X29094867Y-50275893D01*
X29080253Y-50295598D01*
X29063777Y-50313777D01*
X29045598Y-50330253D01*
X29025893Y-50344867D01*
X29004849Y-50357480D01*
X28982671Y-50367970D01*
X28959571Y-50376235D01*
X28935773Y-50382196D01*
X28911504Y-50385796D01*
X28887000Y-50387000D01*
X27437000Y-50387000D01*
X27412496Y-50385796D01*
X27388227Y-50382196D01*
X27364429Y-50376235D01*
X27341329Y-50367970D01*
X27319151Y-50357480D01*
X27298107Y-50344867D01*
X27278402Y-50330253D01*
X27260223Y-50313777D01*
X27243747Y-50295598D01*
X27229133Y-50275893D01*
X27216520Y-50254849D01*
X27206030Y-50232671D01*
X27197765Y-50209571D01*
X27191804Y-50185773D01*
X27188204Y-50161504D01*
X27187000Y-50137000D01*
X27187000Y-49637000D01*
X27188204Y-49612496D01*
X27191804Y-49588227D01*
X27197765Y-49564429D01*
X27206030Y-49541329D01*
X27216520Y-49519151D01*
X27229133Y-49498107D01*
X27243747Y-49478402D01*
X27260223Y-49460223D01*
X27278402Y-49443747D01*
X27298107Y-49429133D01*
X27319151Y-49416520D01*
X27341329Y-49406030D01*
X27364429Y-49397765D01*
X27388227Y-49391804D01*
X27412496Y-49388204D01*
X27437000Y-49387000D01*
X28887000Y-49387000D01*
X28911504Y-49388204D01*
X28911504Y-49388204D01*
G37*
D13*
X28162000Y-49887000D03*
D17*
X43850000Y-66040000D03*
X43350000Y-66040000D03*
X42850000Y-66040000D03*
X42350000Y-66040000D03*
X41850000Y-66040000D03*
X41350000Y-66040000D03*
X40850000Y-66040000D03*
X40350000Y-66040000D03*
X39850000Y-66040000D03*
X39350000Y-66040000D03*
X38850000Y-66040000D03*
X38350000Y-66040000D03*
X37850000Y-66040000D03*
X37350000Y-66040000D03*
X36850000Y-66040000D03*
X36350000Y-66040000D03*
X35850000Y-66040000D03*
X35350000Y-66040000D03*
X34850000Y-66040000D03*
X34350000Y-66040000D03*
X33850000Y-66040000D03*
X33350000Y-66040000D03*
X32850000Y-66040000D03*
X32350000Y-66040000D03*
D18*
X45450000Y-67340000D03*
X30750000Y-67340000D03*
D10*
G36*
X28636603Y-29699963D02*
G01*
X28656018Y-29702843D01*
X28675057Y-29707612D01*
X28693537Y-29714224D01*
X28711279Y-29722616D01*
X28728114Y-29732706D01*
X28743879Y-29744398D01*
X28758421Y-29757579D01*
X28771602Y-29772121D01*
X28783294Y-29787886D01*
X28793384Y-29804721D01*
X28801776Y-29822463D01*
X28808388Y-29840943D01*
X28813157Y-29859982D01*
X28816037Y-29879397D01*
X28817000Y-29899000D01*
X28817000Y-30299000D01*
X28816037Y-30318603D01*
X28813157Y-30338018D01*
X28808388Y-30357057D01*
X28801776Y-30375537D01*
X28793384Y-30393279D01*
X28783294Y-30410114D01*
X28771602Y-30425879D01*
X28758421Y-30440421D01*
X28743879Y-30453602D01*
X28728114Y-30465294D01*
X28711279Y-30475384D01*
X28693537Y-30483776D01*
X28675057Y-30490388D01*
X28656018Y-30495157D01*
X28636603Y-30498037D01*
X28617000Y-30499000D01*
X28157000Y-30499000D01*
X28137397Y-30498037D01*
X28117982Y-30495157D01*
X28098943Y-30490388D01*
X28080463Y-30483776D01*
X28062721Y-30475384D01*
X28045886Y-30465294D01*
X28030121Y-30453602D01*
X28015579Y-30440421D01*
X28002398Y-30425879D01*
X27990706Y-30410114D01*
X27980616Y-30393279D01*
X27972224Y-30375537D01*
X27965612Y-30357057D01*
X27960843Y-30338018D01*
X27957963Y-30318603D01*
X27957000Y-30299000D01*
X27957000Y-29899000D01*
X27957963Y-29879397D01*
X27960843Y-29859982D01*
X27965612Y-29840943D01*
X27972224Y-29822463D01*
X27980616Y-29804721D01*
X27990706Y-29787886D01*
X28002398Y-29772121D01*
X28015579Y-29757579D01*
X28030121Y-29744398D01*
X28045886Y-29732706D01*
X28062721Y-29722616D01*
X28080463Y-29714224D01*
X28098943Y-29707612D01*
X28117982Y-29702843D01*
X28137397Y-29699963D01*
X28157000Y-29699000D01*
X28617000Y-29699000D01*
X28636603Y-29699963D01*
X28636603Y-29699963D01*
G37*
D11*
X28387000Y-30099000D03*
D10*
G36*
X27996603Y-29699963D02*
G01*
X28016018Y-29702843D01*
X28035057Y-29707612D01*
X28053537Y-29714224D01*
X28071279Y-29722616D01*
X28088114Y-29732706D01*
X28103879Y-29744398D01*
X28118421Y-29757579D01*
X28131602Y-29772121D01*
X28143294Y-29787886D01*
X28153384Y-29804721D01*
X28161776Y-29822463D01*
X28168388Y-29840943D01*
X28173157Y-29859982D01*
X28176037Y-29879397D01*
X28177000Y-29899000D01*
X28177000Y-30299000D01*
X28176037Y-30318603D01*
X28173157Y-30338018D01*
X28168388Y-30357057D01*
X28161776Y-30375537D01*
X28153384Y-30393279D01*
X28143294Y-30410114D01*
X28131602Y-30425879D01*
X28118421Y-30440421D01*
X28103879Y-30453602D01*
X28088114Y-30465294D01*
X28071279Y-30475384D01*
X28053537Y-30483776D01*
X28035057Y-30490388D01*
X28016018Y-30495157D01*
X27996603Y-30498037D01*
X27977000Y-30499000D01*
X27517000Y-30499000D01*
X27497397Y-30498037D01*
X27477982Y-30495157D01*
X27458943Y-30490388D01*
X27440463Y-30483776D01*
X27422721Y-30475384D01*
X27405886Y-30465294D01*
X27390121Y-30453602D01*
X27375579Y-30440421D01*
X27362398Y-30425879D01*
X27350706Y-30410114D01*
X27340616Y-30393279D01*
X27332224Y-30375537D01*
X27325612Y-30357057D01*
X27320843Y-30338018D01*
X27317963Y-30318603D01*
X27317000Y-30299000D01*
X27317000Y-29899000D01*
X27317963Y-29879397D01*
X27320843Y-29859982D01*
X27325612Y-29840943D01*
X27332224Y-29822463D01*
X27340616Y-29804721D01*
X27350706Y-29787886D01*
X27362398Y-29772121D01*
X27375579Y-29757579D01*
X27390121Y-29744398D01*
X27405886Y-29732706D01*
X27422721Y-29722616D01*
X27440463Y-29714224D01*
X27458943Y-29707612D01*
X27477982Y-29702843D01*
X27497397Y-29699963D01*
X27517000Y-29699000D01*
X27977000Y-29699000D01*
X27996603Y-29699963D01*
X27996603Y-29699963D01*
G37*
D11*
X27747000Y-30099000D03*
D10*
G36*
X30572603Y-30370963D02*
G01*
X30592018Y-30373843D01*
X30611057Y-30378612D01*
X30629537Y-30385224D01*
X30647279Y-30393616D01*
X30664114Y-30403706D01*
X30679879Y-30415398D01*
X30694421Y-30428579D01*
X30707602Y-30443121D01*
X30719294Y-30458886D01*
X30729384Y-30475721D01*
X30737776Y-30493463D01*
X30744388Y-30511943D01*
X30749157Y-30530982D01*
X30752037Y-30550397D01*
X30753000Y-30570000D01*
X30753000Y-31030000D01*
X30752037Y-31049603D01*
X30749157Y-31069018D01*
X30744388Y-31088057D01*
X30737776Y-31106537D01*
X30729384Y-31124279D01*
X30719294Y-31141114D01*
X30707602Y-31156879D01*
X30694421Y-31171421D01*
X30679879Y-31184602D01*
X30664114Y-31196294D01*
X30647279Y-31206384D01*
X30629537Y-31214776D01*
X30611057Y-31221388D01*
X30592018Y-31226157D01*
X30572603Y-31229037D01*
X30553000Y-31230000D01*
X30153000Y-31230000D01*
X30133397Y-31229037D01*
X30113982Y-31226157D01*
X30094943Y-31221388D01*
X30076463Y-31214776D01*
X30058721Y-31206384D01*
X30041886Y-31196294D01*
X30026121Y-31184602D01*
X30011579Y-31171421D01*
X29998398Y-31156879D01*
X29986706Y-31141114D01*
X29976616Y-31124279D01*
X29968224Y-31106537D01*
X29961612Y-31088057D01*
X29956843Y-31069018D01*
X29953963Y-31049603D01*
X29953000Y-31030000D01*
X29953000Y-30570000D01*
X29953963Y-30550397D01*
X29956843Y-30530982D01*
X29961612Y-30511943D01*
X29968224Y-30493463D01*
X29976616Y-30475721D01*
X29986706Y-30458886D01*
X29998398Y-30443121D01*
X30011579Y-30428579D01*
X30026121Y-30415398D01*
X30041886Y-30403706D01*
X30058721Y-30393616D01*
X30076463Y-30385224D01*
X30094943Y-30378612D01*
X30113982Y-30373843D01*
X30133397Y-30370963D01*
X30153000Y-30370000D01*
X30553000Y-30370000D01*
X30572603Y-30370963D01*
X30572603Y-30370963D01*
G37*
D11*
X30353000Y-30800000D03*
D10*
G36*
X30572603Y-29730963D02*
G01*
X30592018Y-29733843D01*
X30611057Y-29738612D01*
X30629537Y-29745224D01*
X30647279Y-29753616D01*
X30664114Y-29763706D01*
X30679879Y-29775398D01*
X30694421Y-29788579D01*
X30707602Y-29803121D01*
X30719294Y-29818886D01*
X30729384Y-29835721D01*
X30737776Y-29853463D01*
X30744388Y-29871943D01*
X30749157Y-29890982D01*
X30752037Y-29910397D01*
X30753000Y-29930000D01*
X30753000Y-30390000D01*
X30752037Y-30409603D01*
X30749157Y-30429018D01*
X30744388Y-30448057D01*
X30737776Y-30466537D01*
X30729384Y-30484279D01*
X30719294Y-30501114D01*
X30707602Y-30516879D01*
X30694421Y-30531421D01*
X30679879Y-30544602D01*
X30664114Y-30556294D01*
X30647279Y-30566384D01*
X30629537Y-30574776D01*
X30611057Y-30581388D01*
X30592018Y-30586157D01*
X30572603Y-30589037D01*
X30553000Y-30590000D01*
X30153000Y-30590000D01*
X30133397Y-30589037D01*
X30113982Y-30586157D01*
X30094943Y-30581388D01*
X30076463Y-30574776D01*
X30058721Y-30566384D01*
X30041886Y-30556294D01*
X30026121Y-30544602D01*
X30011579Y-30531421D01*
X29998398Y-30516879D01*
X29986706Y-30501114D01*
X29976616Y-30484279D01*
X29968224Y-30466537D01*
X29961612Y-30448057D01*
X29956843Y-30429018D01*
X29953963Y-30409603D01*
X29953000Y-30390000D01*
X29953000Y-29930000D01*
X29953963Y-29910397D01*
X29956843Y-29890982D01*
X29961612Y-29871943D01*
X29968224Y-29853463D01*
X29976616Y-29835721D01*
X29986706Y-29818886D01*
X29998398Y-29803121D01*
X30011579Y-29788579D01*
X30026121Y-29775398D01*
X30041886Y-29763706D01*
X30058721Y-29753616D01*
X30076463Y-29745224D01*
X30094943Y-29738612D01*
X30113982Y-29733843D01*
X30133397Y-29730963D01*
X30153000Y-29730000D01*
X30553000Y-29730000D01*
X30572603Y-29730963D01*
X30572603Y-29730963D01*
G37*
D11*
X30353000Y-30160000D03*
D10*
G36*
X26537759Y-30342192D02*
G01*
X26561785Y-30345756D01*
X26585345Y-30351657D01*
X26608214Y-30359840D01*
X26630171Y-30370224D01*
X26651004Y-30382711D01*
X26670512Y-30397180D01*
X26688509Y-30413491D01*
X26704820Y-30431488D01*
X26719289Y-30450996D01*
X26731776Y-30471829D01*
X26742160Y-30493786D01*
X26750343Y-30516655D01*
X26756244Y-30540215D01*
X26759808Y-30564241D01*
X26761000Y-30588500D01*
X26761000Y-31133500D01*
X26759808Y-31157759D01*
X26756244Y-31181785D01*
X26750343Y-31205345D01*
X26742160Y-31228214D01*
X26731776Y-31250171D01*
X26719289Y-31271004D01*
X26704820Y-31290512D01*
X26688509Y-31308509D01*
X26670512Y-31324820D01*
X26651004Y-31339289D01*
X26630171Y-31351776D01*
X26608214Y-31362160D01*
X26585345Y-31370343D01*
X26561785Y-31376244D01*
X26537759Y-31379808D01*
X26513500Y-31381000D01*
X26018500Y-31381000D01*
X25994241Y-31379808D01*
X25970215Y-31376244D01*
X25946655Y-31370343D01*
X25923786Y-31362160D01*
X25901829Y-31351776D01*
X25880996Y-31339289D01*
X25861488Y-31324820D01*
X25843491Y-31308509D01*
X25827180Y-31290512D01*
X25812711Y-31271004D01*
X25800224Y-31250171D01*
X25789840Y-31228214D01*
X25781657Y-31205345D01*
X25775756Y-31181785D01*
X25772192Y-31157759D01*
X25771000Y-31133500D01*
X25771000Y-30588500D01*
X25772192Y-30564241D01*
X25775756Y-30540215D01*
X25781657Y-30516655D01*
X25789840Y-30493786D01*
X25800224Y-30471829D01*
X25812711Y-30450996D01*
X25827180Y-30431488D01*
X25843491Y-30413491D01*
X25861488Y-30397180D01*
X25880996Y-30382711D01*
X25901829Y-30370224D01*
X25923786Y-30359840D01*
X25946655Y-30351657D01*
X25970215Y-30345756D01*
X25994241Y-30342192D01*
X26018500Y-30341000D01*
X26513500Y-30341000D01*
X26537759Y-30342192D01*
X26537759Y-30342192D01*
G37*
D19*
X26266000Y-30861000D03*
D10*
G36*
X25567759Y-30342192D02*
G01*
X25591785Y-30345756D01*
X25615345Y-30351657D01*
X25638214Y-30359840D01*
X25660171Y-30370224D01*
X25681004Y-30382711D01*
X25700512Y-30397180D01*
X25718509Y-30413491D01*
X25734820Y-30431488D01*
X25749289Y-30450996D01*
X25761776Y-30471829D01*
X25772160Y-30493786D01*
X25780343Y-30516655D01*
X25786244Y-30540215D01*
X25789808Y-30564241D01*
X25791000Y-30588500D01*
X25791000Y-31133500D01*
X25789808Y-31157759D01*
X25786244Y-31181785D01*
X25780343Y-31205345D01*
X25772160Y-31228214D01*
X25761776Y-31250171D01*
X25749289Y-31271004D01*
X25734820Y-31290512D01*
X25718509Y-31308509D01*
X25700512Y-31324820D01*
X25681004Y-31339289D01*
X25660171Y-31351776D01*
X25638214Y-31362160D01*
X25615345Y-31370343D01*
X25591785Y-31376244D01*
X25567759Y-31379808D01*
X25543500Y-31381000D01*
X25048500Y-31381000D01*
X25024241Y-31379808D01*
X25000215Y-31376244D01*
X24976655Y-31370343D01*
X24953786Y-31362160D01*
X24931829Y-31351776D01*
X24910996Y-31339289D01*
X24891488Y-31324820D01*
X24873491Y-31308509D01*
X24857180Y-31290512D01*
X24842711Y-31271004D01*
X24830224Y-31250171D01*
X24819840Y-31228214D01*
X24811657Y-31205345D01*
X24805756Y-31181785D01*
X24802192Y-31157759D01*
X24801000Y-31133500D01*
X24801000Y-30588500D01*
X24802192Y-30564241D01*
X24805756Y-30540215D01*
X24811657Y-30516655D01*
X24819840Y-30493786D01*
X24830224Y-30471829D01*
X24842711Y-30450996D01*
X24857180Y-30431488D01*
X24873491Y-30413491D01*
X24891488Y-30397180D01*
X24910996Y-30382711D01*
X24931829Y-30370224D01*
X24953786Y-30359840D01*
X24976655Y-30351657D01*
X25000215Y-30345756D01*
X25024241Y-30342192D01*
X25048500Y-30341000D01*
X25543500Y-30341000D01*
X25567759Y-30342192D01*
X25567759Y-30342192D01*
G37*
D19*
X25296000Y-30861000D03*
D10*
G36*
X31665759Y-25945192D02*
G01*
X31689785Y-25948756D01*
X31713345Y-25954657D01*
X31736214Y-25962840D01*
X31758171Y-25973224D01*
X31779004Y-25985711D01*
X31798512Y-26000180D01*
X31816509Y-26016491D01*
X31832820Y-26034488D01*
X31847289Y-26053996D01*
X31859776Y-26074829D01*
X31870160Y-26096786D01*
X31878343Y-26119655D01*
X31884244Y-26143215D01*
X31887808Y-26167241D01*
X31889000Y-26191500D01*
X31889000Y-26686500D01*
X31887808Y-26710759D01*
X31884244Y-26734785D01*
X31878343Y-26758345D01*
X31870160Y-26781214D01*
X31859776Y-26803171D01*
X31847289Y-26824004D01*
X31832820Y-26843512D01*
X31816509Y-26861509D01*
X31798512Y-26877820D01*
X31779004Y-26892289D01*
X31758171Y-26904776D01*
X31736214Y-26915160D01*
X31713345Y-26923343D01*
X31689785Y-26929244D01*
X31665759Y-26932808D01*
X31641500Y-26934000D01*
X31096500Y-26934000D01*
X31072241Y-26932808D01*
X31048215Y-26929244D01*
X31024655Y-26923343D01*
X31001786Y-26915160D01*
X30979829Y-26904776D01*
X30958996Y-26892289D01*
X30939488Y-26877820D01*
X30921491Y-26861509D01*
X30905180Y-26843512D01*
X30890711Y-26824004D01*
X30878224Y-26803171D01*
X30867840Y-26781214D01*
X30859657Y-26758345D01*
X30853756Y-26734785D01*
X30850192Y-26710759D01*
X30849000Y-26686500D01*
X30849000Y-26191500D01*
X30850192Y-26167241D01*
X30853756Y-26143215D01*
X30859657Y-26119655D01*
X30867840Y-26096786D01*
X30878224Y-26074829D01*
X30890711Y-26053996D01*
X30905180Y-26034488D01*
X30921491Y-26016491D01*
X30939488Y-26000180D01*
X30958996Y-25985711D01*
X30979829Y-25973224D01*
X31001786Y-25962840D01*
X31024655Y-25954657D01*
X31048215Y-25948756D01*
X31072241Y-25945192D01*
X31096500Y-25944000D01*
X31641500Y-25944000D01*
X31665759Y-25945192D01*
X31665759Y-25945192D01*
G37*
D19*
X31369000Y-26439000D03*
D10*
G36*
X31665759Y-26915192D02*
G01*
X31689785Y-26918756D01*
X31713345Y-26924657D01*
X31736214Y-26932840D01*
X31758171Y-26943224D01*
X31779004Y-26955711D01*
X31798512Y-26970180D01*
X31816509Y-26986491D01*
X31832820Y-27004488D01*
X31847289Y-27023996D01*
X31859776Y-27044829D01*
X31870160Y-27066786D01*
X31878343Y-27089655D01*
X31884244Y-27113215D01*
X31887808Y-27137241D01*
X31889000Y-27161500D01*
X31889000Y-27656500D01*
X31887808Y-27680759D01*
X31884244Y-27704785D01*
X31878343Y-27728345D01*
X31870160Y-27751214D01*
X31859776Y-27773171D01*
X31847289Y-27794004D01*
X31832820Y-27813512D01*
X31816509Y-27831509D01*
X31798512Y-27847820D01*
X31779004Y-27862289D01*
X31758171Y-27874776D01*
X31736214Y-27885160D01*
X31713345Y-27893343D01*
X31689785Y-27899244D01*
X31665759Y-27902808D01*
X31641500Y-27904000D01*
X31096500Y-27904000D01*
X31072241Y-27902808D01*
X31048215Y-27899244D01*
X31024655Y-27893343D01*
X31001786Y-27885160D01*
X30979829Y-27874776D01*
X30958996Y-27862289D01*
X30939488Y-27847820D01*
X30921491Y-27831509D01*
X30905180Y-27813512D01*
X30890711Y-27794004D01*
X30878224Y-27773171D01*
X30867840Y-27751214D01*
X30859657Y-27728345D01*
X30853756Y-27704785D01*
X30850192Y-27680759D01*
X30849000Y-27656500D01*
X30849000Y-27161500D01*
X30850192Y-27137241D01*
X30853756Y-27113215D01*
X30859657Y-27089655D01*
X30867840Y-27066786D01*
X30878224Y-27044829D01*
X30890711Y-27023996D01*
X30905180Y-27004488D01*
X30921491Y-26986491D01*
X30939488Y-26970180D01*
X30958996Y-26955711D01*
X30979829Y-26943224D01*
X31001786Y-26932840D01*
X31024655Y-26924657D01*
X31048215Y-26918756D01*
X31072241Y-26915192D01*
X31096500Y-26914000D01*
X31641500Y-26914000D01*
X31665759Y-26915192D01*
X31665759Y-26915192D01*
G37*
D19*
X31369000Y-27409000D03*
D10*
G36*
X49464603Y-68561963D02*
G01*
X49484018Y-68564843D01*
X49503057Y-68569612D01*
X49521537Y-68576224D01*
X49539279Y-68584616D01*
X49556114Y-68594706D01*
X49571879Y-68606398D01*
X49586421Y-68619579D01*
X49599602Y-68634121D01*
X49611294Y-68649886D01*
X49621384Y-68666721D01*
X49629776Y-68684463D01*
X49636388Y-68702943D01*
X49641157Y-68721982D01*
X49644037Y-68741397D01*
X49645000Y-68761000D01*
X49645000Y-69161000D01*
X49644037Y-69180603D01*
X49641157Y-69200018D01*
X49636388Y-69219057D01*
X49629776Y-69237537D01*
X49621384Y-69255279D01*
X49611294Y-69272114D01*
X49599602Y-69287879D01*
X49586421Y-69302421D01*
X49571879Y-69315602D01*
X49556114Y-69327294D01*
X49539279Y-69337384D01*
X49521537Y-69345776D01*
X49503057Y-69352388D01*
X49484018Y-69357157D01*
X49464603Y-69360037D01*
X49445000Y-69361000D01*
X48985000Y-69361000D01*
X48965397Y-69360037D01*
X48945982Y-69357157D01*
X48926943Y-69352388D01*
X48908463Y-69345776D01*
X48890721Y-69337384D01*
X48873886Y-69327294D01*
X48858121Y-69315602D01*
X48843579Y-69302421D01*
X48830398Y-69287879D01*
X48818706Y-69272114D01*
X48808616Y-69255279D01*
X48800224Y-69237537D01*
X48793612Y-69219057D01*
X48788843Y-69200018D01*
X48785963Y-69180603D01*
X48785000Y-69161000D01*
X48785000Y-68761000D01*
X48785963Y-68741397D01*
X48788843Y-68721982D01*
X48793612Y-68702943D01*
X48800224Y-68684463D01*
X48808616Y-68666721D01*
X48818706Y-68649886D01*
X48830398Y-68634121D01*
X48843579Y-68619579D01*
X48858121Y-68606398D01*
X48873886Y-68594706D01*
X48890721Y-68584616D01*
X48908463Y-68576224D01*
X48926943Y-68569612D01*
X48945982Y-68564843D01*
X48965397Y-68561963D01*
X48985000Y-68561000D01*
X49445000Y-68561000D01*
X49464603Y-68561963D01*
X49464603Y-68561963D01*
G37*
D11*
X49215000Y-68961000D03*
D10*
G36*
X48824603Y-68561963D02*
G01*
X48844018Y-68564843D01*
X48863057Y-68569612D01*
X48881537Y-68576224D01*
X48899279Y-68584616D01*
X48916114Y-68594706D01*
X48931879Y-68606398D01*
X48946421Y-68619579D01*
X48959602Y-68634121D01*
X48971294Y-68649886D01*
X48981384Y-68666721D01*
X48989776Y-68684463D01*
X48996388Y-68702943D01*
X49001157Y-68721982D01*
X49004037Y-68741397D01*
X49005000Y-68761000D01*
X49005000Y-69161000D01*
X49004037Y-69180603D01*
X49001157Y-69200018D01*
X48996388Y-69219057D01*
X48989776Y-69237537D01*
X48981384Y-69255279D01*
X48971294Y-69272114D01*
X48959602Y-69287879D01*
X48946421Y-69302421D01*
X48931879Y-69315602D01*
X48916114Y-69327294D01*
X48899279Y-69337384D01*
X48881537Y-69345776D01*
X48863057Y-69352388D01*
X48844018Y-69357157D01*
X48824603Y-69360037D01*
X48805000Y-69361000D01*
X48345000Y-69361000D01*
X48325397Y-69360037D01*
X48305982Y-69357157D01*
X48286943Y-69352388D01*
X48268463Y-69345776D01*
X48250721Y-69337384D01*
X48233886Y-69327294D01*
X48218121Y-69315602D01*
X48203579Y-69302421D01*
X48190398Y-69287879D01*
X48178706Y-69272114D01*
X48168616Y-69255279D01*
X48160224Y-69237537D01*
X48153612Y-69219057D01*
X48148843Y-69200018D01*
X48145963Y-69180603D01*
X48145000Y-69161000D01*
X48145000Y-68761000D01*
X48145963Y-68741397D01*
X48148843Y-68721982D01*
X48153612Y-68702943D01*
X48160224Y-68684463D01*
X48168616Y-68666721D01*
X48178706Y-68649886D01*
X48190398Y-68634121D01*
X48203579Y-68619579D01*
X48218121Y-68606398D01*
X48233886Y-68594706D01*
X48250721Y-68584616D01*
X48268463Y-68576224D01*
X48286943Y-68569612D01*
X48305982Y-68564843D01*
X48325397Y-68561963D01*
X48345000Y-68561000D01*
X48805000Y-68561000D01*
X48824603Y-68561963D01*
X48824603Y-68561963D01*
G37*
D11*
X48575000Y-68961000D03*
D18*
X29224000Y-28296000D03*
X24624000Y-28296000D03*
X26924000Y-28296000D03*
D20*
X26924000Y-21996000D03*
D21*
X52070000Y-38100000D03*
D10*
G36*
X33457603Y-20936963D02*
G01*
X33477018Y-20939843D01*
X33496057Y-20944612D01*
X33514537Y-20951224D01*
X33532279Y-20959616D01*
X33549114Y-20969706D01*
X33564879Y-20981398D01*
X33579421Y-20994579D01*
X33592602Y-21009121D01*
X33604294Y-21024886D01*
X33614384Y-21041721D01*
X33622776Y-21059463D01*
X33629388Y-21077943D01*
X33634157Y-21096982D01*
X33637037Y-21116397D01*
X33638000Y-21136000D01*
X33638000Y-21536000D01*
X33637037Y-21555603D01*
X33634157Y-21575018D01*
X33629388Y-21594057D01*
X33622776Y-21612537D01*
X33614384Y-21630279D01*
X33604294Y-21647114D01*
X33592602Y-21662879D01*
X33579421Y-21677421D01*
X33564879Y-21690602D01*
X33549114Y-21702294D01*
X33532279Y-21712384D01*
X33514537Y-21720776D01*
X33496057Y-21727388D01*
X33477018Y-21732157D01*
X33457603Y-21735037D01*
X33438000Y-21736000D01*
X32978000Y-21736000D01*
X32958397Y-21735037D01*
X32938982Y-21732157D01*
X32919943Y-21727388D01*
X32901463Y-21720776D01*
X32883721Y-21712384D01*
X32866886Y-21702294D01*
X32851121Y-21690602D01*
X32836579Y-21677421D01*
X32823398Y-21662879D01*
X32811706Y-21647114D01*
X32801616Y-21630279D01*
X32793224Y-21612537D01*
X32786612Y-21594057D01*
X32781843Y-21575018D01*
X32778963Y-21555603D01*
X32778000Y-21536000D01*
X32778000Y-21136000D01*
X32778963Y-21116397D01*
X32781843Y-21096982D01*
X32786612Y-21077943D01*
X32793224Y-21059463D01*
X32801616Y-21041721D01*
X32811706Y-21024886D01*
X32823398Y-21009121D01*
X32836579Y-20994579D01*
X32851121Y-20981398D01*
X32866886Y-20969706D01*
X32883721Y-20959616D01*
X32901463Y-20951224D01*
X32919943Y-20944612D01*
X32938982Y-20939843D01*
X32958397Y-20936963D01*
X32978000Y-20936000D01*
X33438000Y-20936000D01*
X33457603Y-20936963D01*
X33457603Y-20936963D01*
G37*
D11*
X33208000Y-21336000D03*
D10*
G36*
X34097603Y-20936963D02*
G01*
X34117018Y-20939843D01*
X34136057Y-20944612D01*
X34154537Y-20951224D01*
X34172279Y-20959616D01*
X34189114Y-20969706D01*
X34204879Y-20981398D01*
X34219421Y-20994579D01*
X34232602Y-21009121D01*
X34244294Y-21024886D01*
X34254384Y-21041721D01*
X34262776Y-21059463D01*
X34269388Y-21077943D01*
X34274157Y-21096982D01*
X34277037Y-21116397D01*
X34278000Y-21136000D01*
X34278000Y-21536000D01*
X34277037Y-21555603D01*
X34274157Y-21575018D01*
X34269388Y-21594057D01*
X34262776Y-21612537D01*
X34254384Y-21630279D01*
X34244294Y-21647114D01*
X34232602Y-21662879D01*
X34219421Y-21677421D01*
X34204879Y-21690602D01*
X34189114Y-21702294D01*
X34172279Y-21712384D01*
X34154537Y-21720776D01*
X34136057Y-21727388D01*
X34117018Y-21732157D01*
X34097603Y-21735037D01*
X34078000Y-21736000D01*
X33618000Y-21736000D01*
X33598397Y-21735037D01*
X33578982Y-21732157D01*
X33559943Y-21727388D01*
X33541463Y-21720776D01*
X33523721Y-21712384D01*
X33506886Y-21702294D01*
X33491121Y-21690602D01*
X33476579Y-21677421D01*
X33463398Y-21662879D01*
X33451706Y-21647114D01*
X33441616Y-21630279D01*
X33433224Y-21612537D01*
X33426612Y-21594057D01*
X33421843Y-21575018D01*
X33418963Y-21555603D01*
X33418000Y-21536000D01*
X33418000Y-21136000D01*
X33418963Y-21116397D01*
X33421843Y-21096982D01*
X33426612Y-21077943D01*
X33433224Y-21059463D01*
X33441616Y-21041721D01*
X33451706Y-21024886D01*
X33463398Y-21009121D01*
X33476579Y-20994579D01*
X33491121Y-20981398D01*
X33506886Y-20969706D01*
X33523721Y-20959616D01*
X33541463Y-20951224D01*
X33559943Y-20944612D01*
X33578982Y-20939843D01*
X33598397Y-20936963D01*
X33618000Y-20936000D01*
X34078000Y-20936000D01*
X34097603Y-20936963D01*
X34097603Y-20936963D01*
G37*
D11*
X33848000Y-21336000D03*
D10*
G36*
X31552603Y-22079963D02*
G01*
X31572018Y-22082843D01*
X31591057Y-22087612D01*
X31609537Y-22094224D01*
X31627279Y-22102616D01*
X31644114Y-22112706D01*
X31659879Y-22124398D01*
X31674421Y-22137579D01*
X31687602Y-22152121D01*
X31699294Y-22167886D01*
X31709384Y-22184721D01*
X31717776Y-22202463D01*
X31724388Y-22220943D01*
X31729157Y-22239982D01*
X31732037Y-22259397D01*
X31733000Y-22279000D01*
X31733000Y-22679000D01*
X31732037Y-22698603D01*
X31729157Y-22718018D01*
X31724388Y-22737057D01*
X31717776Y-22755537D01*
X31709384Y-22773279D01*
X31699294Y-22790114D01*
X31687602Y-22805879D01*
X31674421Y-22820421D01*
X31659879Y-22833602D01*
X31644114Y-22845294D01*
X31627279Y-22855384D01*
X31609537Y-22863776D01*
X31591057Y-22870388D01*
X31572018Y-22875157D01*
X31552603Y-22878037D01*
X31533000Y-22879000D01*
X31073000Y-22879000D01*
X31053397Y-22878037D01*
X31033982Y-22875157D01*
X31014943Y-22870388D01*
X30996463Y-22863776D01*
X30978721Y-22855384D01*
X30961886Y-22845294D01*
X30946121Y-22833602D01*
X30931579Y-22820421D01*
X30918398Y-22805879D01*
X30906706Y-22790114D01*
X30896616Y-22773279D01*
X30888224Y-22755537D01*
X30881612Y-22737057D01*
X30876843Y-22718018D01*
X30873963Y-22698603D01*
X30873000Y-22679000D01*
X30873000Y-22279000D01*
X30873963Y-22259397D01*
X30876843Y-22239982D01*
X30881612Y-22220943D01*
X30888224Y-22202463D01*
X30896616Y-22184721D01*
X30906706Y-22167886D01*
X30918398Y-22152121D01*
X30931579Y-22137579D01*
X30946121Y-22124398D01*
X30961886Y-22112706D01*
X30978721Y-22102616D01*
X30996463Y-22094224D01*
X31014943Y-22087612D01*
X31033982Y-22082843D01*
X31053397Y-22079963D01*
X31073000Y-22079000D01*
X31533000Y-22079000D01*
X31552603Y-22079963D01*
X31552603Y-22079963D01*
G37*
D11*
X31303000Y-22479000D03*
D10*
G36*
X32192603Y-22079963D02*
G01*
X32212018Y-22082843D01*
X32231057Y-22087612D01*
X32249537Y-22094224D01*
X32267279Y-22102616D01*
X32284114Y-22112706D01*
X32299879Y-22124398D01*
X32314421Y-22137579D01*
X32327602Y-22152121D01*
X32339294Y-22167886D01*
X32349384Y-22184721D01*
X32357776Y-22202463D01*
X32364388Y-22220943D01*
X32369157Y-22239982D01*
X32372037Y-22259397D01*
X32373000Y-22279000D01*
X32373000Y-22679000D01*
X32372037Y-22698603D01*
X32369157Y-22718018D01*
X32364388Y-22737057D01*
X32357776Y-22755537D01*
X32349384Y-22773279D01*
X32339294Y-22790114D01*
X32327602Y-22805879D01*
X32314421Y-22820421D01*
X32299879Y-22833602D01*
X32284114Y-22845294D01*
X32267279Y-22855384D01*
X32249537Y-22863776D01*
X32231057Y-22870388D01*
X32212018Y-22875157D01*
X32192603Y-22878037D01*
X32173000Y-22879000D01*
X31713000Y-22879000D01*
X31693397Y-22878037D01*
X31673982Y-22875157D01*
X31654943Y-22870388D01*
X31636463Y-22863776D01*
X31618721Y-22855384D01*
X31601886Y-22845294D01*
X31586121Y-22833602D01*
X31571579Y-22820421D01*
X31558398Y-22805879D01*
X31546706Y-22790114D01*
X31536616Y-22773279D01*
X31528224Y-22755537D01*
X31521612Y-22737057D01*
X31516843Y-22718018D01*
X31513963Y-22698603D01*
X31513000Y-22679000D01*
X31513000Y-22279000D01*
X31513963Y-22259397D01*
X31516843Y-22239982D01*
X31521612Y-22220943D01*
X31528224Y-22202463D01*
X31536616Y-22184721D01*
X31546706Y-22167886D01*
X31558398Y-22152121D01*
X31571579Y-22137579D01*
X31586121Y-22124398D01*
X31601886Y-22112706D01*
X31618721Y-22102616D01*
X31636463Y-22094224D01*
X31654943Y-22087612D01*
X31673982Y-22082843D01*
X31693397Y-22079963D01*
X31713000Y-22079000D01*
X32173000Y-22079000D01*
X32192603Y-22079963D01*
X32192603Y-22079963D01*
G37*
D11*
X31943000Y-22479000D03*
D10*
G36*
X36891603Y-20936963D02*
G01*
X36911018Y-20939843D01*
X36930057Y-20944612D01*
X36948537Y-20951224D01*
X36966279Y-20959616D01*
X36983114Y-20969706D01*
X36998879Y-20981398D01*
X37013421Y-20994579D01*
X37026602Y-21009121D01*
X37038294Y-21024886D01*
X37048384Y-21041721D01*
X37056776Y-21059463D01*
X37063388Y-21077943D01*
X37068157Y-21096982D01*
X37071037Y-21116397D01*
X37072000Y-21136000D01*
X37072000Y-21536000D01*
X37071037Y-21555603D01*
X37068157Y-21575018D01*
X37063388Y-21594057D01*
X37056776Y-21612537D01*
X37048384Y-21630279D01*
X37038294Y-21647114D01*
X37026602Y-21662879D01*
X37013421Y-21677421D01*
X36998879Y-21690602D01*
X36983114Y-21702294D01*
X36966279Y-21712384D01*
X36948537Y-21720776D01*
X36930057Y-21727388D01*
X36911018Y-21732157D01*
X36891603Y-21735037D01*
X36872000Y-21736000D01*
X36412000Y-21736000D01*
X36392397Y-21735037D01*
X36372982Y-21732157D01*
X36353943Y-21727388D01*
X36335463Y-21720776D01*
X36317721Y-21712384D01*
X36300886Y-21702294D01*
X36285121Y-21690602D01*
X36270579Y-21677421D01*
X36257398Y-21662879D01*
X36245706Y-21647114D01*
X36235616Y-21630279D01*
X36227224Y-21612537D01*
X36220612Y-21594057D01*
X36215843Y-21575018D01*
X36212963Y-21555603D01*
X36212000Y-21536000D01*
X36212000Y-21136000D01*
X36212963Y-21116397D01*
X36215843Y-21096982D01*
X36220612Y-21077943D01*
X36227224Y-21059463D01*
X36235616Y-21041721D01*
X36245706Y-21024886D01*
X36257398Y-21009121D01*
X36270579Y-20994579D01*
X36285121Y-20981398D01*
X36300886Y-20969706D01*
X36317721Y-20959616D01*
X36335463Y-20951224D01*
X36353943Y-20944612D01*
X36372982Y-20939843D01*
X36392397Y-20936963D01*
X36412000Y-20936000D01*
X36872000Y-20936000D01*
X36891603Y-20936963D01*
X36891603Y-20936963D01*
G37*
D11*
X36642000Y-21336000D03*
D10*
G36*
X36251603Y-20936963D02*
G01*
X36271018Y-20939843D01*
X36290057Y-20944612D01*
X36308537Y-20951224D01*
X36326279Y-20959616D01*
X36343114Y-20969706D01*
X36358879Y-20981398D01*
X36373421Y-20994579D01*
X36386602Y-21009121D01*
X36398294Y-21024886D01*
X36408384Y-21041721D01*
X36416776Y-21059463D01*
X36423388Y-21077943D01*
X36428157Y-21096982D01*
X36431037Y-21116397D01*
X36432000Y-21136000D01*
X36432000Y-21536000D01*
X36431037Y-21555603D01*
X36428157Y-21575018D01*
X36423388Y-21594057D01*
X36416776Y-21612537D01*
X36408384Y-21630279D01*
X36398294Y-21647114D01*
X36386602Y-21662879D01*
X36373421Y-21677421D01*
X36358879Y-21690602D01*
X36343114Y-21702294D01*
X36326279Y-21712384D01*
X36308537Y-21720776D01*
X36290057Y-21727388D01*
X36271018Y-21732157D01*
X36251603Y-21735037D01*
X36232000Y-21736000D01*
X35772000Y-21736000D01*
X35752397Y-21735037D01*
X35732982Y-21732157D01*
X35713943Y-21727388D01*
X35695463Y-21720776D01*
X35677721Y-21712384D01*
X35660886Y-21702294D01*
X35645121Y-21690602D01*
X35630579Y-21677421D01*
X35617398Y-21662879D01*
X35605706Y-21647114D01*
X35595616Y-21630279D01*
X35587224Y-21612537D01*
X35580612Y-21594057D01*
X35575843Y-21575018D01*
X35572963Y-21555603D01*
X35572000Y-21536000D01*
X35572000Y-21136000D01*
X35572963Y-21116397D01*
X35575843Y-21096982D01*
X35580612Y-21077943D01*
X35587224Y-21059463D01*
X35595616Y-21041721D01*
X35605706Y-21024886D01*
X35617398Y-21009121D01*
X35630579Y-20994579D01*
X35645121Y-20981398D01*
X35660886Y-20969706D01*
X35677721Y-20959616D01*
X35695463Y-20951224D01*
X35713943Y-20944612D01*
X35732982Y-20939843D01*
X35752397Y-20936963D01*
X35772000Y-20936000D01*
X36232000Y-20936000D01*
X36251603Y-20936963D01*
X36251603Y-20936963D01*
G37*
D11*
X36002000Y-21336000D03*
D22*
X49530025Y-32964175D03*
X48204200Y-32415000D03*
X46878375Y-32964175D03*
X46329200Y-34290000D03*
X46878375Y-35615825D03*
X48204200Y-36165000D03*
X49530025Y-35615825D03*
X50079200Y-34290000D03*
D23*
X48204200Y-34290000D03*
D22*
X49585825Y-53284175D03*
X48260000Y-52735000D03*
X46934175Y-53284175D03*
X46385000Y-54610000D03*
X46934175Y-55935825D03*
X48260000Y-56485000D03*
X49585825Y-55935825D03*
X50135000Y-54610000D03*
D23*
X48260000Y-54610000D03*
D22*
X29265825Y-32964175D03*
X27940000Y-32415000D03*
X26614175Y-32964175D03*
X26065000Y-34290000D03*
X26614175Y-35615825D03*
X27940000Y-36165000D03*
X29265825Y-35615825D03*
X29815000Y-34290000D03*
D23*
X27940000Y-34290000D03*
D22*
X29265825Y-53284175D03*
X27940000Y-52735000D03*
X26614175Y-53284175D03*
X26065000Y-54610000D03*
X26614175Y-55935825D03*
X27940000Y-56485000D03*
X29265825Y-55935825D03*
X29815000Y-54610000D03*
D23*
X27940000Y-54610000D03*
D10*
G36*
X48443603Y-48876963D02*
G01*
X48463018Y-48879843D01*
X48482057Y-48884612D01*
X48500537Y-48891224D01*
X48518279Y-48899616D01*
X48535114Y-48909706D01*
X48550879Y-48921398D01*
X48565421Y-48934579D01*
X48578602Y-48949121D01*
X48590294Y-48964886D01*
X48600384Y-48981721D01*
X48608776Y-48999463D01*
X48615388Y-49017943D01*
X48620157Y-49036982D01*
X48623037Y-49056397D01*
X48624000Y-49076000D01*
X48624000Y-49476000D01*
X48623037Y-49495603D01*
X48620157Y-49515018D01*
X48615388Y-49534057D01*
X48608776Y-49552537D01*
X48600384Y-49570279D01*
X48590294Y-49587114D01*
X48578602Y-49602879D01*
X48565421Y-49617421D01*
X48550879Y-49630602D01*
X48535114Y-49642294D01*
X48518279Y-49652384D01*
X48500537Y-49660776D01*
X48482057Y-49667388D01*
X48463018Y-49672157D01*
X48443603Y-49675037D01*
X48424000Y-49676000D01*
X47964000Y-49676000D01*
X47944397Y-49675037D01*
X47924982Y-49672157D01*
X47905943Y-49667388D01*
X47887463Y-49660776D01*
X47869721Y-49652384D01*
X47852886Y-49642294D01*
X47837121Y-49630602D01*
X47822579Y-49617421D01*
X47809398Y-49602879D01*
X47797706Y-49587114D01*
X47787616Y-49570279D01*
X47779224Y-49552537D01*
X47772612Y-49534057D01*
X47767843Y-49515018D01*
X47764963Y-49495603D01*
X47764000Y-49476000D01*
X47764000Y-49076000D01*
X47764963Y-49056397D01*
X47767843Y-49036982D01*
X47772612Y-49017943D01*
X47779224Y-48999463D01*
X47787616Y-48981721D01*
X47797706Y-48964886D01*
X47809398Y-48949121D01*
X47822579Y-48934579D01*
X47837121Y-48921398D01*
X47852886Y-48909706D01*
X47869721Y-48899616D01*
X47887463Y-48891224D01*
X47905943Y-48884612D01*
X47924982Y-48879843D01*
X47944397Y-48876963D01*
X47964000Y-48876000D01*
X48424000Y-48876000D01*
X48443603Y-48876963D01*
X48443603Y-48876963D01*
G37*
D11*
X48194000Y-49276000D03*
D10*
G36*
X49083603Y-48876963D02*
G01*
X49103018Y-48879843D01*
X49122057Y-48884612D01*
X49140537Y-48891224D01*
X49158279Y-48899616D01*
X49175114Y-48909706D01*
X49190879Y-48921398D01*
X49205421Y-48934579D01*
X49218602Y-48949121D01*
X49230294Y-48964886D01*
X49240384Y-48981721D01*
X49248776Y-48999463D01*
X49255388Y-49017943D01*
X49260157Y-49036982D01*
X49263037Y-49056397D01*
X49264000Y-49076000D01*
X49264000Y-49476000D01*
X49263037Y-49495603D01*
X49260157Y-49515018D01*
X49255388Y-49534057D01*
X49248776Y-49552537D01*
X49240384Y-49570279D01*
X49230294Y-49587114D01*
X49218602Y-49602879D01*
X49205421Y-49617421D01*
X49190879Y-49630602D01*
X49175114Y-49642294D01*
X49158279Y-49652384D01*
X49140537Y-49660776D01*
X49122057Y-49667388D01*
X49103018Y-49672157D01*
X49083603Y-49675037D01*
X49064000Y-49676000D01*
X48604000Y-49676000D01*
X48584397Y-49675037D01*
X48564982Y-49672157D01*
X48545943Y-49667388D01*
X48527463Y-49660776D01*
X48509721Y-49652384D01*
X48492886Y-49642294D01*
X48477121Y-49630602D01*
X48462579Y-49617421D01*
X48449398Y-49602879D01*
X48437706Y-49587114D01*
X48427616Y-49570279D01*
X48419224Y-49552537D01*
X48412612Y-49534057D01*
X48407843Y-49515018D01*
X48404963Y-49495603D01*
X48404000Y-49476000D01*
X48404000Y-49076000D01*
X48404963Y-49056397D01*
X48407843Y-49036982D01*
X48412612Y-49017943D01*
X48419224Y-48999463D01*
X48427616Y-48981721D01*
X48437706Y-48964886D01*
X48449398Y-48949121D01*
X48462579Y-48934579D01*
X48477121Y-48921398D01*
X48492886Y-48909706D01*
X48509721Y-48899616D01*
X48527463Y-48891224D01*
X48545943Y-48884612D01*
X48564982Y-48879843D01*
X48584397Y-48876963D01*
X48604000Y-48876000D01*
X49064000Y-48876000D01*
X49083603Y-48876963D01*
X49083603Y-48876963D01*
G37*
D11*
X48834000Y-49276000D03*
D10*
G36*
X38415603Y-26270963D02*
G01*
X38435018Y-26273843D01*
X38454057Y-26278612D01*
X38472537Y-26285224D01*
X38490279Y-26293616D01*
X38507114Y-26303706D01*
X38522879Y-26315398D01*
X38537421Y-26328579D01*
X38550602Y-26343121D01*
X38562294Y-26358886D01*
X38572384Y-26375721D01*
X38580776Y-26393463D01*
X38587388Y-26411943D01*
X38592157Y-26430982D01*
X38595037Y-26450397D01*
X38596000Y-26470000D01*
X38596000Y-26870000D01*
X38595037Y-26889603D01*
X38592157Y-26909018D01*
X38587388Y-26928057D01*
X38580776Y-26946537D01*
X38572384Y-26964279D01*
X38562294Y-26981114D01*
X38550602Y-26996879D01*
X38537421Y-27011421D01*
X38522879Y-27024602D01*
X38507114Y-27036294D01*
X38490279Y-27046384D01*
X38472537Y-27054776D01*
X38454057Y-27061388D01*
X38435018Y-27066157D01*
X38415603Y-27069037D01*
X38396000Y-27070000D01*
X37936000Y-27070000D01*
X37916397Y-27069037D01*
X37896982Y-27066157D01*
X37877943Y-27061388D01*
X37859463Y-27054776D01*
X37841721Y-27046384D01*
X37824886Y-27036294D01*
X37809121Y-27024602D01*
X37794579Y-27011421D01*
X37781398Y-26996879D01*
X37769706Y-26981114D01*
X37759616Y-26964279D01*
X37751224Y-26946537D01*
X37744612Y-26928057D01*
X37739843Y-26909018D01*
X37736963Y-26889603D01*
X37736000Y-26870000D01*
X37736000Y-26470000D01*
X37736963Y-26450397D01*
X37739843Y-26430982D01*
X37744612Y-26411943D01*
X37751224Y-26393463D01*
X37759616Y-26375721D01*
X37769706Y-26358886D01*
X37781398Y-26343121D01*
X37794579Y-26328579D01*
X37809121Y-26315398D01*
X37824886Y-26303706D01*
X37841721Y-26293616D01*
X37859463Y-26285224D01*
X37877943Y-26278612D01*
X37896982Y-26273843D01*
X37916397Y-26270963D01*
X37936000Y-26270000D01*
X38396000Y-26270000D01*
X38415603Y-26270963D01*
X38415603Y-26270963D01*
G37*
D11*
X38166000Y-26670000D03*
D10*
G36*
X37775603Y-26270963D02*
G01*
X37795018Y-26273843D01*
X37814057Y-26278612D01*
X37832537Y-26285224D01*
X37850279Y-26293616D01*
X37867114Y-26303706D01*
X37882879Y-26315398D01*
X37897421Y-26328579D01*
X37910602Y-26343121D01*
X37922294Y-26358886D01*
X37932384Y-26375721D01*
X37940776Y-26393463D01*
X37947388Y-26411943D01*
X37952157Y-26430982D01*
X37955037Y-26450397D01*
X37956000Y-26470000D01*
X37956000Y-26870000D01*
X37955037Y-26889603D01*
X37952157Y-26909018D01*
X37947388Y-26928057D01*
X37940776Y-26946537D01*
X37932384Y-26964279D01*
X37922294Y-26981114D01*
X37910602Y-26996879D01*
X37897421Y-27011421D01*
X37882879Y-27024602D01*
X37867114Y-27036294D01*
X37850279Y-27046384D01*
X37832537Y-27054776D01*
X37814057Y-27061388D01*
X37795018Y-27066157D01*
X37775603Y-27069037D01*
X37756000Y-27070000D01*
X37296000Y-27070000D01*
X37276397Y-27069037D01*
X37256982Y-27066157D01*
X37237943Y-27061388D01*
X37219463Y-27054776D01*
X37201721Y-27046384D01*
X37184886Y-27036294D01*
X37169121Y-27024602D01*
X37154579Y-27011421D01*
X37141398Y-26996879D01*
X37129706Y-26981114D01*
X37119616Y-26964279D01*
X37111224Y-26946537D01*
X37104612Y-26928057D01*
X37099843Y-26909018D01*
X37096963Y-26889603D01*
X37096000Y-26870000D01*
X37096000Y-26470000D01*
X37096963Y-26450397D01*
X37099843Y-26430982D01*
X37104612Y-26411943D01*
X37111224Y-26393463D01*
X37119616Y-26375721D01*
X37129706Y-26358886D01*
X37141398Y-26343121D01*
X37154579Y-26328579D01*
X37169121Y-26315398D01*
X37184886Y-26303706D01*
X37201721Y-26293616D01*
X37219463Y-26285224D01*
X37237943Y-26278612D01*
X37256982Y-26273843D01*
X37276397Y-26270963D01*
X37296000Y-26270000D01*
X37756000Y-26270000D01*
X37775603Y-26270963D01*
X37775603Y-26270963D01*
G37*
D11*
X37526000Y-26670000D03*
D10*
G36*
X36637603Y-26270963D02*
G01*
X36657018Y-26273843D01*
X36676057Y-26278612D01*
X36694537Y-26285224D01*
X36712279Y-26293616D01*
X36729114Y-26303706D01*
X36744879Y-26315398D01*
X36759421Y-26328579D01*
X36772602Y-26343121D01*
X36784294Y-26358886D01*
X36794384Y-26375721D01*
X36802776Y-26393463D01*
X36809388Y-26411943D01*
X36814157Y-26430982D01*
X36817037Y-26450397D01*
X36818000Y-26470000D01*
X36818000Y-26870000D01*
X36817037Y-26889603D01*
X36814157Y-26909018D01*
X36809388Y-26928057D01*
X36802776Y-26946537D01*
X36794384Y-26964279D01*
X36784294Y-26981114D01*
X36772602Y-26996879D01*
X36759421Y-27011421D01*
X36744879Y-27024602D01*
X36729114Y-27036294D01*
X36712279Y-27046384D01*
X36694537Y-27054776D01*
X36676057Y-27061388D01*
X36657018Y-27066157D01*
X36637603Y-27069037D01*
X36618000Y-27070000D01*
X36158000Y-27070000D01*
X36138397Y-27069037D01*
X36118982Y-27066157D01*
X36099943Y-27061388D01*
X36081463Y-27054776D01*
X36063721Y-27046384D01*
X36046886Y-27036294D01*
X36031121Y-27024602D01*
X36016579Y-27011421D01*
X36003398Y-26996879D01*
X35991706Y-26981114D01*
X35981616Y-26964279D01*
X35973224Y-26946537D01*
X35966612Y-26928057D01*
X35961843Y-26909018D01*
X35958963Y-26889603D01*
X35958000Y-26870000D01*
X35958000Y-26470000D01*
X35958963Y-26450397D01*
X35961843Y-26430982D01*
X35966612Y-26411943D01*
X35973224Y-26393463D01*
X35981616Y-26375721D01*
X35991706Y-26358886D01*
X36003398Y-26343121D01*
X36016579Y-26328579D01*
X36031121Y-26315398D01*
X36046886Y-26303706D01*
X36063721Y-26293616D01*
X36081463Y-26285224D01*
X36099943Y-26278612D01*
X36118982Y-26273843D01*
X36138397Y-26270963D01*
X36158000Y-26270000D01*
X36618000Y-26270000D01*
X36637603Y-26270963D01*
X36637603Y-26270963D01*
G37*
D11*
X36388000Y-26670000D03*
D10*
G36*
X35997603Y-26270963D02*
G01*
X36017018Y-26273843D01*
X36036057Y-26278612D01*
X36054537Y-26285224D01*
X36072279Y-26293616D01*
X36089114Y-26303706D01*
X36104879Y-26315398D01*
X36119421Y-26328579D01*
X36132602Y-26343121D01*
X36144294Y-26358886D01*
X36154384Y-26375721D01*
X36162776Y-26393463D01*
X36169388Y-26411943D01*
X36174157Y-26430982D01*
X36177037Y-26450397D01*
X36178000Y-26470000D01*
X36178000Y-26870000D01*
X36177037Y-26889603D01*
X36174157Y-26909018D01*
X36169388Y-26928057D01*
X36162776Y-26946537D01*
X36154384Y-26964279D01*
X36144294Y-26981114D01*
X36132602Y-26996879D01*
X36119421Y-27011421D01*
X36104879Y-27024602D01*
X36089114Y-27036294D01*
X36072279Y-27046384D01*
X36054537Y-27054776D01*
X36036057Y-27061388D01*
X36017018Y-27066157D01*
X35997603Y-27069037D01*
X35978000Y-27070000D01*
X35518000Y-27070000D01*
X35498397Y-27069037D01*
X35478982Y-27066157D01*
X35459943Y-27061388D01*
X35441463Y-27054776D01*
X35423721Y-27046384D01*
X35406886Y-27036294D01*
X35391121Y-27024602D01*
X35376579Y-27011421D01*
X35363398Y-26996879D01*
X35351706Y-26981114D01*
X35341616Y-26964279D01*
X35333224Y-26946537D01*
X35326612Y-26928057D01*
X35321843Y-26909018D01*
X35318963Y-26889603D01*
X35318000Y-26870000D01*
X35318000Y-26470000D01*
X35318963Y-26450397D01*
X35321843Y-26430982D01*
X35326612Y-26411943D01*
X35333224Y-26393463D01*
X35341616Y-26375721D01*
X35351706Y-26358886D01*
X35363398Y-26343121D01*
X35376579Y-26328579D01*
X35391121Y-26315398D01*
X35406886Y-26303706D01*
X35423721Y-26293616D01*
X35441463Y-26285224D01*
X35459943Y-26278612D01*
X35478982Y-26273843D01*
X35498397Y-26270963D01*
X35518000Y-26270000D01*
X35978000Y-26270000D01*
X35997603Y-26270963D01*
X35997603Y-26270963D01*
G37*
D11*
X35748000Y-26670000D03*
D10*
G36*
X48031603Y-37192963D02*
G01*
X48051018Y-37195843D01*
X48070057Y-37200612D01*
X48088537Y-37207224D01*
X48106279Y-37215616D01*
X48123114Y-37225706D01*
X48138879Y-37237398D01*
X48153421Y-37250579D01*
X48166602Y-37265121D01*
X48178294Y-37280886D01*
X48188384Y-37297721D01*
X48196776Y-37315463D01*
X48203388Y-37333943D01*
X48208157Y-37352982D01*
X48211037Y-37372397D01*
X48212000Y-37392000D01*
X48212000Y-37792000D01*
X48211037Y-37811603D01*
X48208157Y-37831018D01*
X48203388Y-37850057D01*
X48196776Y-37868537D01*
X48188384Y-37886279D01*
X48178294Y-37903114D01*
X48166602Y-37918879D01*
X48153421Y-37933421D01*
X48138879Y-37946602D01*
X48123114Y-37958294D01*
X48106279Y-37968384D01*
X48088537Y-37976776D01*
X48070057Y-37983388D01*
X48051018Y-37988157D01*
X48031603Y-37991037D01*
X48012000Y-37992000D01*
X47552000Y-37992000D01*
X47532397Y-37991037D01*
X47512982Y-37988157D01*
X47493943Y-37983388D01*
X47475463Y-37976776D01*
X47457721Y-37968384D01*
X47440886Y-37958294D01*
X47425121Y-37946602D01*
X47410579Y-37933421D01*
X47397398Y-37918879D01*
X47385706Y-37903114D01*
X47375616Y-37886279D01*
X47367224Y-37868537D01*
X47360612Y-37850057D01*
X47355843Y-37831018D01*
X47352963Y-37811603D01*
X47352000Y-37792000D01*
X47352000Y-37392000D01*
X47352963Y-37372397D01*
X47355843Y-37352982D01*
X47360612Y-37333943D01*
X47367224Y-37315463D01*
X47375616Y-37297721D01*
X47385706Y-37280886D01*
X47397398Y-37265121D01*
X47410579Y-37250579D01*
X47425121Y-37237398D01*
X47440886Y-37225706D01*
X47457721Y-37215616D01*
X47475463Y-37207224D01*
X47493943Y-37200612D01*
X47512982Y-37195843D01*
X47532397Y-37192963D01*
X47552000Y-37192000D01*
X48012000Y-37192000D01*
X48031603Y-37192963D01*
X48031603Y-37192963D01*
G37*
D11*
X47782000Y-37592000D03*
D10*
G36*
X47391603Y-37192963D02*
G01*
X47411018Y-37195843D01*
X47430057Y-37200612D01*
X47448537Y-37207224D01*
X47466279Y-37215616D01*
X47483114Y-37225706D01*
X47498879Y-37237398D01*
X47513421Y-37250579D01*
X47526602Y-37265121D01*
X47538294Y-37280886D01*
X47548384Y-37297721D01*
X47556776Y-37315463D01*
X47563388Y-37333943D01*
X47568157Y-37352982D01*
X47571037Y-37372397D01*
X47572000Y-37392000D01*
X47572000Y-37792000D01*
X47571037Y-37811603D01*
X47568157Y-37831018D01*
X47563388Y-37850057D01*
X47556776Y-37868537D01*
X47548384Y-37886279D01*
X47538294Y-37903114D01*
X47526602Y-37918879D01*
X47513421Y-37933421D01*
X47498879Y-37946602D01*
X47483114Y-37958294D01*
X47466279Y-37968384D01*
X47448537Y-37976776D01*
X47430057Y-37983388D01*
X47411018Y-37988157D01*
X47391603Y-37991037D01*
X47372000Y-37992000D01*
X46912000Y-37992000D01*
X46892397Y-37991037D01*
X46872982Y-37988157D01*
X46853943Y-37983388D01*
X46835463Y-37976776D01*
X46817721Y-37968384D01*
X46800886Y-37958294D01*
X46785121Y-37946602D01*
X46770579Y-37933421D01*
X46757398Y-37918879D01*
X46745706Y-37903114D01*
X46735616Y-37886279D01*
X46727224Y-37868537D01*
X46720612Y-37850057D01*
X46715843Y-37831018D01*
X46712963Y-37811603D01*
X46712000Y-37792000D01*
X46712000Y-37392000D01*
X46712963Y-37372397D01*
X46715843Y-37352982D01*
X46720612Y-37333943D01*
X46727224Y-37315463D01*
X46735616Y-37297721D01*
X46745706Y-37280886D01*
X46757398Y-37265121D01*
X46770579Y-37250579D01*
X46785121Y-37237398D01*
X46800886Y-37225706D01*
X46817721Y-37215616D01*
X46835463Y-37207224D01*
X46853943Y-37200612D01*
X46872982Y-37195843D01*
X46892397Y-37192963D01*
X46912000Y-37192000D01*
X47372000Y-37192000D01*
X47391603Y-37192963D01*
X47391603Y-37192963D01*
G37*
D11*
X47142000Y-37592000D03*
D10*
G36*
X37354403Y-32067763D02*
G01*
X37373818Y-32070643D01*
X37392857Y-32075412D01*
X37411337Y-32082024D01*
X37429079Y-32090416D01*
X37445914Y-32100506D01*
X37461679Y-32112198D01*
X37476221Y-32125379D01*
X37489402Y-32139921D01*
X37501094Y-32155686D01*
X37511184Y-32172521D01*
X37519576Y-32190263D01*
X37526188Y-32208743D01*
X37530957Y-32227782D01*
X37533837Y-32247197D01*
X37534800Y-32266800D01*
X37534800Y-32726800D01*
X37533837Y-32746403D01*
X37530957Y-32765818D01*
X37526188Y-32784857D01*
X37519576Y-32803337D01*
X37511184Y-32821079D01*
X37501094Y-32837914D01*
X37489402Y-32853679D01*
X37476221Y-32868221D01*
X37461679Y-32881402D01*
X37445914Y-32893094D01*
X37429079Y-32903184D01*
X37411337Y-32911576D01*
X37392857Y-32918188D01*
X37373818Y-32922957D01*
X37354403Y-32925837D01*
X37334800Y-32926800D01*
X36934800Y-32926800D01*
X36915197Y-32925837D01*
X36895782Y-32922957D01*
X36876743Y-32918188D01*
X36858263Y-32911576D01*
X36840521Y-32903184D01*
X36823686Y-32893094D01*
X36807921Y-32881402D01*
X36793379Y-32868221D01*
X36780198Y-32853679D01*
X36768506Y-32837914D01*
X36758416Y-32821079D01*
X36750024Y-32803337D01*
X36743412Y-32784857D01*
X36738643Y-32765818D01*
X36735763Y-32746403D01*
X36734800Y-32726800D01*
X36734800Y-32266800D01*
X36735763Y-32247197D01*
X36738643Y-32227782D01*
X36743412Y-32208743D01*
X36750024Y-32190263D01*
X36758416Y-32172521D01*
X36768506Y-32155686D01*
X36780198Y-32139921D01*
X36793379Y-32125379D01*
X36807921Y-32112198D01*
X36823686Y-32100506D01*
X36840521Y-32090416D01*
X36858263Y-32082024D01*
X36876743Y-32075412D01*
X36895782Y-32070643D01*
X36915197Y-32067763D01*
X36934800Y-32066800D01*
X37334800Y-32066800D01*
X37354403Y-32067763D01*
X37354403Y-32067763D01*
G37*
D11*
X37134800Y-32496800D03*
D10*
G36*
X37354403Y-32707763D02*
G01*
X37373818Y-32710643D01*
X37392857Y-32715412D01*
X37411337Y-32722024D01*
X37429079Y-32730416D01*
X37445914Y-32740506D01*
X37461679Y-32752198D01*
X37476221Y-32765379D01*
X37489402Y-32779921D01*
X37501094Y-32795686D01*
X37511184Y-32812521D01*
X37519576Y-32830263D01*
X37526188Y-32848743D01*
X37530957Y-32867782D01*
X37533837Y-32887197D01*
X37534800Y-32906800D01*
X37534800Y-33366800D01*
X37533837Y-33386403D01*
X37530957Y-33405818D01*
X37526188Y-33424857D01*
X37519576Y-33443337D01*
X37511184Y-33461079D01*
X37501094Y-33477914D01*
X37489402Y-33493679D01*
X37476221Y-33508221D01*
X37461679Y-33521402D01*
X37445914Y-33533094D01*
X37429079Y-33543184D01*
X37411337Y-33551576D01*
X37392857Y-33558188D01*
X37373818Y-33562957D01*
X37354403Y-33565837D01*
X37334800Y-33566800D01*
X36934800Y-33566800D01*
X36915197Y-33565837D01*
X36895782Y-33562957D01*
X36876743Y-33558188D01*
X36858263Y-33551576D01*
X36840521Y-33543184D01*
X36823686Y-33533094D01*
X36807921Y-33521402D01*
X36793379Y-33508221D01*
X36780198Y-33493679D01*
X36768506Y-33477914D01*
X36758416Y-33461079D01*
X36750024Y-33443337D01*
X36743412Y-33424857D01*
X36738643Y-33405818D01*
X36735763Y-33386403D01*
X36734800Y-33366800D01*
X36734800Y-32906800D01*
X36735763Y-32887197D01*
X36738643Y-32867782D01*
X36743412Y-32848743D01*
X36750024Y-32830263D01*
X36758416Y-32812521D01*
X36768506Y-32795686D01*
X36780198Y-32779921D01*
X36793379Y-32765379D01*
X36807921Y-32752198D01*
X36823686Y-32740506D01*
X36840521Y-32730416D01*
X36858263Y-32722024D01*
X36876743Y-32715412D01*
X36895782Y-32710643D01*
X36915197Y-32707763D01*
X36934800Y-32706800D01*
X37334800Y-32706800D01*
X37354403Y-32707763D01*
X37354403Y-32707763D01*
G37*
D11*
X37134800Y-33136800D03*
D10*
G36*
X32147403Y-31559763D02*
G01*
X32166818Y-31562643D01*
X32185857Y-31567412D01*
X32204337Y-31574024D01*
X32222079Y-31582416D01*
X32238914Y-31592506D01*
X32254679Y-31604198D01*
X32269221Y-31617379D01*
X32282402Y-31631921D01*
X32294094Y-31647686D01*
X32304184Y-31664521D01*
X32312576Y-31682263D01*
X32319188Y-31700743D01*
X32323957Y-31719782D01*
X32326837Y-31739197D01*
X32327800Y-31758800D01*
X32327800Y-32218800D01*
X32326837Y-32238403D01*
X32323957Y-32257818D01*
X32319188Y-32276857D01*
X32312576Y-32295337D01*
X32304184Y-32313079D01*
X32294094Y-32329914D01*
X32282402Y-32345679D01*
X32269221Y-32360221D01*
X32254679Y-32373402D01*
X32238914Y-32385094D01*
X32222079Y-32395184D01*
X32204337Y-32403576D01*
X32185857Y-32410188D01*
X32166818Y-32414957D01*
X32147403Y-32417837D01*
X32127800Y-32418800D01*
X31727800Y-32418800D01*
X31708197Y-32417837D01*
X31688782Y-32414957D01*
X31669743Y-32410188D01*
X31651263Y-32403576D01*
X31633521Y-32395184D01*
X31616686Y-32385094D01*
X31600921Y-32373402D01*
X31586379Y-32360221D01*
X31573198Y-32345679D01*
X31561506Y-32329914D01*
X31551416Y-32313079D01*
X31543024Y-32295337D01*
X31536412Y-32276857D01*
X31531643Y-32257818D01*
X31528763Y-32238403D01*
X31527800Y-32218800D01*
X31527800Y-31758800D01*
X31528763Y-31739197D01*
X31531643Y-31719782D01*
X31536412Y-31700743D01*
X31543024Y-31682263D01*
X31551416Y-31664521D01*
X31561506Y-31647686D01*
X31573198Y-31631921D01*
X31586379Y-31617379D01*
X31600921Y-31604198D01*
X31616686Y-31592506D01*
X31633521Y-31582416D01*
X31651263Y-31574024D01*
X31669743Y-31567412D01*
X31688782Y-31562643D01*
X31708197Y-31559763D01*
X31727800Y-31558800D01*
X32127800Y-31558800D01*
X32147403Y-31559763D01*
X32147403Y-31559763D01*
G37*
D11*
X31927800Y-31988800D03*
D10*
G36*
X32147403Y-32199763D02*
G01*
X32166818Y-32202643D01*
X32185857Y-32207412D01*
X32204337Y-32214024D01*
X32222079Y-32222416D01*
X32238914Y-32232506D01*
X32254679Y-32244198D01*
X32269221Y-32257379D01*
X32282402Y-32271921D01*
X32294094Y-32287686D01*
X32304184Y-32304521D01*
X32312576Y-32322263D01*
X32319188Y-32340743D01*
X32323957Y-32359782D01*
X32326837Y-32379197D01*
X32327800Y-32398800D01*
X32327800Y-32858800D01*
X32326837Y-32878403D01*
X32323957Y-32897818D01*
X32319188Y-32916857D01*
X32312576Y-32935337D01*
X32304184Y-32953079D01*
X32294094Y-32969914D01*
X32282402Y-32985679D01*
X32269221Y-33000221D01*
X32254679Y-33013402D01*
X32238914Y-33025094D01*
X32222079Y-33035184D01*
X32204337Y-33043576D01*
X32185857Y-33050188D01*
X32166818Y-33054957D01*
X32147403Y-33057837D01*
X32127800Y-33058800D01*
X31727800Y-33058800D01*
X31708197Y-33057837D01*
X31688782Y-33054957D01*
X31669743Y-33050188D01*
X31651263Y-33043576D01*
X31633521Y-33035184D01*
X31616686Y-33025094D01*
X31600921Y-33013402D01*
X31586379Y-33000221D01*
X31573198Y-32985679D01*
X31561506Y-32969914D01*
X31551416Y-32953079D01*
X31543024Y-32935337D01*
X31536412Y-32916857D01*
X31531643Y-32897818D01*
X31528763Y-32878403D01*
X31527800Y-32858800D01*
X31527800Y-32398800D01*
X31528763Y-32379197D01*
X31531643Y-32359782D01*
X31536412Y-32340743D01*
X31543024Y-32322263D01*
X31551416Y-32304521D01*
X31561506Y-32287686D01*
X31573198Y-32271921D01*
X31586379Y-32257379D01*
X31600921Y-32244198D01*
X31616686Y-32232506D01*
X31633521Y-32222416D01*
X31651263Y-32214024D01*
X31669743Y-32207412D01*
X31688782Y-32202643D01*
X31708197Y-32199763D01*
X31727800Y-32198800D01*
X32127800Y-32198800D01*
X32147403Y-32199763D01*
X32147403Y-32199763D01*
G37*
D11*
X31927800Y-32628800D03*
D10*
G36*
X52639603Y-36176963D02*
G01*
X52659018Y-36179843D01*
X52678057Y-36184612D01*
X52696537Y-36191224D01*
X52714279Y-36199616D01*
X52731114Y-36209706D01*
X52746879Y-36221398D01*
X52761421Y-36234579D01*
X52774602Y-36249121D01*
X52786294Y-36264886D01*
X52796384Y-36281721D01*
X52804776Y-36299463D01*
X52811388Y-36317943D01*
X52816157Y-36336982D01*
X52819037Y-36356397D01*
X52820000Y-36376000D01*
X52820000Y-36776000D01*
X52819037Y-36795603D01*
X52816157Y-36815018D01*
X52811388Y-36834057D01*
X52804776Y-36852537D01*
X52796384Y-36870279D01*
X52786294Y-36887114D01*
X52774602Y-36902879D01*
X52761421Y-36917421D01*
X52746879Y-36930602D01*
X52731114Y-36942294D01*
X52714279Y-36952384D01*
X52696537Y-36960776D01*
X52678057Y-36967388D01*
X52659018Y-36972157D01*
X52639603Y-36975037D01*
X52620000Y-36976000D01*
X52160000Y-36976000D01*
X52140397Y-36975037D01*
X52120982Y-36972157D01*
X52101943Y-36967388D01*
X52083463Y-36960776D01*
X52065721Y-36952384D01*
X52048886Y-36942294D01*
X52033121Y-36930602D01*
X52018579Y-36917421D01*
X52005398Y-36902879D01*
X51993706Y-36887114D01*
X51983616Y-36870279D01*
X51975224Y-36852537D01*
X51968612Y-36834057D01*
X51963843Y-36815018D01*
X51960963Y-36795603D01*
X51960000Y-36776000D01*
X51960000Y-36376000D01*
X51960963Y-36356397D01*
X51963843Y-36336982D01*
X51968612Y-36317943D01*
X51975224Y-36299463D01*
X51983616Y-36281721D01*
X51993706Y-36264886D01*
X52005398Y-36249121D01*
X52018579Y-36234579D01*
X52033121Y-36221398D01*
X52048886Y-36209706D01*
X52065721Y-36199616D01*
X52083463Y-36191224D01*
X52101943Y-36184612D01*
X52120982Y-36179843D01*
X52140397Y-36176963D01*
X52160000Y-36176000D01*
X52620000Y-36176000D01*
X52639603Y-36176963D01*
X52639603Y-36176963D01*
G37*
D11*
X52390000Y-36576000D03*
D10*
G36*
X51999603Y-36176963D02*
G01*
X52019018Y-36179843D01*
X52038057Y-36184612D01*
X52056537Y-36191224D01*
X52074279Y-36199616D01*
X52091114Y-36209706D01*
X52106879Y-36221398D01*
X52121421Y-36234579D01*
X52134602Y-36249121D01*
X52146294Y-36264886D01*
X52156384Y-36281721D01*
X52164776Y-36299463D01*
X52171388Y-36317943D01*
X52176157Y-36336982D01*
X52179037Y-36356397D01*
X52180000Y-36376000D01*
X52180000Y-36776000D01*
X52179037Y-36795603D01*
X52176157Y-36815018D01*
X52171388Y-36834057D01*
X52164776Y-36852537D01*
X52156384Y-36870279D01*
X52146294Y-36887114D01*
X52134602Y-36902879D01*
X52121421Y-36917421D01*
X52106879Y-36930602D01*
X52091114Y-36942294D01*
X52074279Y-36952384D01*
X52056537Y-36960776D01*
X52038057Y-36967388D01*
X52019018Y-36972157D01*
X51999603Y-36975037D01*
X51980000Y-36976000D01*
X51520000Y-36976000D01*
X51500397Y-36975037D01*
X51480982Y-36972157D01*
X51461943Y-36967388D01*
X51443463Y-36960776D01*
X51425721Y-36952384D01*
X51408886Y-36942294D01*
X51393121Y-36930602D01*
X51378579Y-36917421D01*
X51365398Y-36902879D01*
X51353706Y-36887114D01*
X51343616Y-36870279D01*
X51335224Y-36852537D01*
X51328612Y-36834057D01*
X51323843Y-36815018D01*
X51320963Y-36795603D01*
X51320000Y-36776000D01*
X51320000Y-36376000D01*
X51320963Y-36356397D01*
X51323843Y-36336982D01*
X51328612Y-36317943D01*
X51335224Y-36299463D01*
X51343616Y-36281721D01*
X51353706Y-36264886D01*
X51365398Y-36249121D01*
X51378579Y-36234579D01*
X51393121Y-36221398D01*
X51408886Y-36209706D01*
X51425721Y-36199616D01*
X51443463Y-36191224D01*
X51461943Y-36184612D01*
X51480982Y-36179843D01*
X51500397Y-36176963D01*
X51520000Y-36176000D01*
X51980000Y-36176000D01*
X51999603Y-36176963D01*
X51999603Y-36176963D01*
G37*
D11*
X51750000Y-36576000D03*
D10*
G36*
X44003603Y-30334963D02*
G01*
X44023018Y-30337843D01*
X44042057Y-30342612D01*
X44060537Y-30349224D01*
X44078279Y-30357616D01*
X44095114Y-30367706D01*
X44110879Y-30379398D01*
X44125421Y-30392579D01*
X44138602Y-30407121D01*
X44150294Y-30422886D01*
X44160384Y-30439721D01*
X44168776Y-30457463D01*
X44175388Y-30475943D01*
X44180157Y-30494982D01*
X44183037Y-30514397D01*
X44184000Y-30534000D01*
X44184000Y-30934000D01*
X44183037Y-30953603D01*
X44180157Y-30973018D01*
X44175388Y-30992057D01*
X44168776Y-31010537D01*
X44160384Y-31028279D01*
X44150294Y-31045114D01*
X44138602Y-31060879D01*
X44125421Y-31075421D01*
X44110879Y-31088602D01*
X44095114Y-31100294D01*
X44078279Y-31110384D01*
X44060537Y-31118776D01*
X44042057Y-31125388D01*
X44023018Y-31130157D01*
X44003603Y-31133037D01*
X43984000Y-31134000D01*
X43524000Y-31134000D01*
X43504397Y-31133037D01*
X43484982Y-31130157D01*
X43465943Y-31125388D01*
X43447463Y-31118776D01*
X43429721Y-31110384D01*
X43412886Y-31100294D01*
X43397121Y-31088602D01*
X43382579Y-31075421D01*
X43369398Y-31060879D01*
X43357706Y-31045114D01*
X43347616Y-31028279D01*
X43339224Y-31010537D01*
X43332612Y-30992057D01*
X43327843Y-30973018D01*
X43324963Y-30953603D01*
X43324000Y-30934000D01*
X43324000Y-30534000D01*
X43324963Y-30514397D01*
X43327843Y-30494982D01*
X43332612Y-30475943D01*
X43339224Y-30457463D01*
X43347616Y-30439721D01*
X43357706Y-30422886D01*
X43369398Y-30407121D01*
X43382579Y-30392579D01*
X43397121Y-30379398D01*
X43412886Y-30367706D01*
X43429721Y-30357616D01*
X43447463Y-30349224D01*
X43465943Y-30342612D01*
X43484982Y-30337843D01*
X43504397Y-30334963D01*
X43524000Y-30334000D01*
X43984000Y-30334000D01*
X44003603Y-30334963D01*
X44003603Y-30334963D01*
G37*
D11*
X43754000Y-30734000D03*
D10*
G36*
X43363603Y-30334963D02*
G01*
X43383018Y-30337843D01*
X43402057Y-30342612D01*
X43420537Y-30349224D01*
X43438279Y-30357616D01*
X43455114Y-30367706D01*
X43470879Y-30379398D01*
X43485421Y-30392579D01*
X43498602Y-30407121D01*
X43510294Y-30422886D01*
X43520384Y-30439721D01*
X43528776Y-30457463D01*
X43535388Y-30475943D01*
X43540157Y-30494982D01*
X43543037Y-30514397D01*
X43544000Y-30534000D01*
X43544000Y-30934000D01*
X43543037Y-30953603D01*
X43540157Y-30973018D01*
X43535388Y-30992057D01*
X43528776Y-31010537D01*
X43520384Y-31028279D01*
X43510294Y-31045114D01*
X43498602Y-31060879D01*
X43485421Y-31075421D01*
X43470879Y-31088602D01*
X43455114Y-31100294D01*
X43438279Y-31110384D01*
X43420537Y-31118776D01*
X43402057Y-31125388D01*
X43383018Y-31130157D01*
X43363603Y-31133037D01*
X43344000Y-31134000D01*
X42884000Y-31134000D01*
X42864397Y-31133037D01*
X42844982Y-31130157D01*
X42825943Y-31125388D01*
X42807463Y-31118776D01*
X42789721Y-31110384D01*
X42772886Y-31100294D01*
X42757121Y-31088602D01*
X42742579Y-31075421D01*
X42729398Y-31060879D01*
X42717706Y-31045114D01*
X42707616Y-31028279D01*
X42699224Y-31010537D01*
X42692612Y-30992057D01*
X42687843Y-30973018D01*
X42684963Y-30953603D01*
X42684000Y-30934000D01*
X42684000Y-30534000D01*
X42684963Y-30514397D01*
X42687843Y-30494982D01*
X42692612Y-30475943D01*
X42699224Y-30457463D01*
X42707616Y-30439721D01*
X42717706Y-30422886D01*
X42729398Y-30407121D01*
X42742579Y-30392579D01*
X42757121Y-30379398D01*
X42772886Y-30367706D01*
X42789721Y-30357616D01*
X42807463Y-30349224D01*
X42825943Y-30342612D01*
X42844982Y-30337843D01*
X42864397Y-30334963D01*
X42884000Y-30334000D01*
X43344000Y-30334000D01*
X43363603Y-30334963D01*
X43363603Y-30334963D01*
G37*
D11*
X43114000Y-30734000D03*
D10*
G36*
X40950603Y-30334963D02*
G01*
X40970018Y-30337843D01*
X40989057Y-30342612D01*
X41007537Y-30349224D01*
X41025279Y-30357616D01*
X41042114Y-30367706D01*
X41057879Y-30379398D01*
X41072421Y-30392579D01*
X41085602Y-30407121D01*
X41097294Y-30422886D01*
X41107384Y-30439721D01*
X41115776Y-30457463D01*
X41122388Y-30475943D01*
X41127157Y-30494982D01*
X41130037Y-30514397D01*
X41131000Y-30534000D01*
X41131000Y-30934000D01*
X41130037Y-30953603D01*
X41127157Y-30973018D01*
X41122388Y-30992057D01*
X41115776Y-31010537D01*
X41107384Y-31028279D01*
X41097294Y-31045114D01*
X41085602Y-31060879D01*
X41072421Y-31075421D01*
X41057879Y-31088602D01*
X41042114Y-31100294D01*
X41025279Y-31110384D01*
X41007537Y-31118776D01*
X40989057Y-31125388D01*
X40970018Y-31130157D01*
X40950603Y-31133037D01*
X40931000Y-31134000D01*
X40471000Y-31134000D01*
X40451397Y-31133037D01*
X40431982Y-31130157D01*
X40412943Y-31125388D01*
X40394463Y-31118776D01*
X40376721Y-31110384D01*
X40359886Y-31100294D01*
X40344121Y-31088602D01*
X40329579Y-31075421D01*
X40316398Y-31060879D01*
X40304706Y-31045114D01*
X40294616Y-31028279D01*
X40286224Y-31010537D01*
X40279612Y-30992057D01*
X40274843Y-30973018D01*
X40271963Y-30953603D01*
X40271000Y-30934000D01*
X40271000Y-30534000D01*
X40271963Y-30514397D01*
X40274843Y-30494982D01*
X40279612Y-30475943D01*
X40286224Y-30457463D01*
X40294616Y-30439721D01*
X40304706Y-30422886D01*
X40316398Y-30407121D01*
X40329579Y-30392579D01*
X40344121Y-30379398D01*
X40359886Y-30367706D01*
X40376721Y-30357616D01*
X40394463Y-30349224D01*
X40412943Y-30342612D01*
X40431982Y-30337843D01*
X40451397Y-30334963D01*
X40471000Y-30334000D01*
X40931000Y-30334000D01*
X40950603Y-30334963D01*
X40950603Y-30334963D01*
G37*
D11*
X40701000Y-30734000D03*
D10*
G36*
X41590603Y-30334963D02*
G01*
X41610018Y-30337843D01*
X41629057Y-30342612D01*
X41647537Y-30349224D01*
X41665279Y-30357616D01*
X41682114Y-30367706D01*
X41697879Y-30379398D01*
X41712421Y-30392579D01*
X41725602Y-30407121D01*
X41737294Y-30422886D01*
X41747384Y-30439721D01*
X41755776Y-30457463D01*
X41762388Y-30475943D01*
X41767157Y-30494982D01*
X41770037Y-30514397D01*
X41771000Y-30534000D01*
X41771000Y-30934000D01*
X41770037Y-30953603D01*
X41767157Y-30973018D01*
X41762388Y-30992057D01*
X41755776Y-31010537D01*
X41747384Y-31028279D01*
X41737294Y-31045114D01*
X41725602Y-31060879D01*
X41712421Y-31075421D01*
X41697879Y-31088602D01*
X41682114Y-31100294D01*
X41665279Y-31110384D01*
X41647537Y-31118776D01*
X41629057Y-31125388D01*
X41610018Y-31130157D01*
X41590603Y-31133037D01*
X41571000Y-31134000D01*
X41111000Y-31134000D01*
X41091397Y-31133037D01*
X41071982Y-31130157D01*
X41052943Y-31125388D01*
X41034463Y-31118776D01*
X41016721Y-31110384D01*
X40999886Y-31100294D01*
X40984121Y-31088602D01*
X40969579Y-31075421D01*
X40956398Y-31060879D01*
X40944706Y-31045114D01*
X40934616Y-31028279D01*
X40926224Y-31010537D01*
X40919612Y-30992057D01*
X40914843Y-30973018D01*
X40911963Y-30953603D01*
X40911000Y-30934000D01*
X40911000Y-30534000D01*
X40911963Y-30514397D01*
X40914843Y-30494982D01*
X40919612Y-30475943D01*
X40926224Y-30457463D01*
X40934616Y-30439721D01*
X40944706Y-30422886D01*
X40956398Y-30407121D01*
X40969579Y-30392579D01*
X40984121Y-30379398D01*
X40999886Y-30367706D01*
X41016721Y-30357616D01*
X41034463Y-30349224D01*
X41052943Y-30342612D01*
X41071982Y-30337843D01*
X41091397Y-30334963D01*
X41111000Y-30334000D01*
X41571000Y-30334000D01*
X41590603Y-30334963D01*
X41590603Y-30334963D01*
G37*
D11*
X41341000Y-30734000D03*
D10*
G36*
X32223603Y-33926963D02*
G01*
X32243018Y-33929843D01*
X32262057Y-33934612D01*
X32280537Y-33941224D01*
X32298279Y-33949616D01*
X32315114Y-33959706D01*
X32330879Y-33971398D01*
X32345421Y-33984579D01*
X32358602Y-33999121D01*
X32370294Y-34014886D01*
X32380384Y-34031721D01*
X32388776Y-34049463D01*
X32395388Y-34067943D01*
X32400157Y-34086982D01*
X32403037Y-34106397D01*
X32404000Y-34126000D01*
X32404000Y-34586000D01*
X32403037Y-34605603D01*
X32400157Y-34625018D01*
X32395388Y-34644057D01*
X32388776Y-34662537D01*
X32380384Y-34680279D01*
X32370294Y-34697114D01*
X32358602Y-34712879D01*
X32345421Y-34727421D01*
X32330879Y-34740602D01*
X32315114Y-34752294D01*
X32298279Y-34762384D01*
X32280537Y-34770776D01*
X32262057Y-34777388D01*
X32243018Y-34782157D01*
X32223603Y-34785037D01*
X32204000Y-34786000D01*
X31804000Y-34786000D01*
X31784397Y-34785037D01*
X31764982Y-34782157D01*
X31745943Y-34777388D01*
X31727463Y-34770776D01*
X31709721Y-34762384D01*
X31692886Y-34752294D01*
X31677121Y-34740602D01*
X31662579Y-34727421D01*
X31649398Y-34712879D01*
X31637706Y-34697114D01*
X31627616Y-34680279D01*
X31619224Y-34662537D01*
X31612612Y-34644057D01*
X31607843Y-34625018D01*
X31604963Y-34605603D01*
X31604000Y-34586000D01*
X31604000Y-34126000D01*
X31604963Y-34106397D01*
X31607843Y-34086982D01*
X31612612Y-34067943D01*
X31619224Y-34049463D01*
X31627616Y-34031721D01*
X31637706Y-34014886D01*
X31649398Y-33999121D01*
X31662579Y-33984579D01*
X31677121Y-33971398D01*
X31692886Y-33959706D01*
X31709721Y-33949616D01*
X31727463Y-33941224D01*
X31745943Y-33934612D01*
X31764982Y-33929843D01*
X31784397Y-33926963D01*
X31804000Y-33926000D01*
X32204000Y-33926000D01*
X32223603Y-33926963D01*
X32223603Y-33926963D01*
G37*
D11*
X32004000Y-34356000D03*
D10*
G36*
X32223603Y-33286963D02*
G01*
X32243018Y-33289843D01*
X32262057Y-33294612D01*
X32280537Y-33301224D01*
X32298279Y-33309616D01*
X32315114Y-33319706D01*
X32330879Y-33331398D01*
X32345421Y-33344579D01*
X32358602Y-33359121D01*
X32370294Y-33374886D01*
X32380384Y-33391721D01*
X32388776Y-33409463D01*
X32395388Y-33427943D01*
X32400157Y-33446982D01*
X32403037Y-33466397D01*
X32404000Y-33486000D01*
X32404000Y-33946000D01*
X32403037Y-33965603D01*
X32400157Y-33985018D01*
X32395388Y-34004057D01*
X32388776Y-34022537D01*
X32380384Y-34040279D01*
X32370294Y-34057114D01*
X32358602Y-34072879D01*
X32345421Y-34087421D01*
X32330879Y-34100602D01*
X32315114Y-34112294D01*
X32298279Y-34122384D01*
X32280537Y-34130776D01*
X32262057Y-34137388D01*
X32243018Y-34142157D01*
X32223603Y-34145037D01*
X32204000Y-34146000D01*
X31804000Y-34146000D01*
X31784397Y-34145037D01*
X31764982Y-34142157D01*
X31745943Y-34137388D01*
X31727463Y-34130776D01*
X31709721Y-34122384D01*
X31692886Y-34112294D01*
X31677121Y-34100602D01*
X31662579Y-34087421D01*
X31649398Y-34072879D01*
X31637706Y-34057114D01*
X31627616Y-34040279D01*
X31619224Y-34022537D01*
X31612612Y-34004057D01*
X31607843Y-33985018D01*
X31604963Y-33965603D01*
X31604000Y-33946000D01*
X31604000Y-33486000D01*
X31604963Y-33466397D01*
X31607843Y-33446982D01*
X31612612Y-33427943D01*
X31619224Y-33409463D01*
X31627616Y-33391721D01*
X31637706Y-33374886D01*
X31649398Y-33359121D01*
X31662579Y-33344579D01*
X31677121Y-33331398D01*
X31692886Y-33319706D01*
X31709721Y-33309616D01*
X31727463Y-33301224D01*
X31745943Y-33294612D01*
X31764982Y-33289843D01*
X31784397Y-33286963D01*
X31804000Y-33286000D01*
X32204000Y-33286000D01*
X32223603Y-33286963D01*
X32223603Y-33286963D01*
G37*
D11*
X32004000Y-33716000D03*
D10*
G36*
X43109603Y-63100963D02*
G01*
X43129018Y-63103843D01*
X43148057Y-63108612D01*
X43166537Y-63115224D01*
X43184279Y-63123616D01*
X43201114Y-63133706D01*
X43216879Y-63145398D01*
X43231421Y-63158579D01*
X43244602Y-63173121D01*
X43256294Y-63188886D01*
X43266384Y-63205721D01*
X43274776Y-63223463D01*
X43281388Y-63241943D01*
X43286157Y-63260982D01*
X43289037Y-63280397D01*
X43290000Y-63300000D01*
X43290000Y-63700000D01*
X43289037Y-63719603D01*
X43286157Y-63739018D01*
X43281388Y-63758057D01*
X43274776Y-63776537D01*
X43266384Y-63794279D01*
X43256294Y-63811114D01*
X43244602Y-63826879D01*
X43231421Y-63841421D01*
X43216879Y-63854602D01*
X43201114Y-63866294D01*
X43184279Y-63876384D01*
X43166537Y-63884776D01*
X43148057Y-63891388D01*
X43129018Y-63896157D01*
X43109603Y-63899037D01*
X43090000Y-63900000D01*
X42630000Y-63900000D01*
X42610397Y-63899037D01*
X42590982Y-63896157D01*
X42571943Y-63891388D01*
X42553463Y-63884776D01*
X42535721Y-63876384D01*
X42518886Y-63866294D01*
X42503121Y-63854602D01*
X42488579Y-63841421D01*
X42475398Y-63826879D01*
X42463706Y-63811114D01*
X42453616Y-63794279D01*
X42445224Y-63776537D01*
X42438612Y-63758057D01*
X42433843Y-63739018D01*
X42430963Y-63719603D01*
X42430000Y-63700000D01*
X42430000Y-63300000D01*
X42430963Y-63280397D01*
X42433843Y-63260982D01*
X42438612Y-63241943D01*
X42445224Y-63223463D01*
X42453616Y-63205721D01*
X42463706Y-63188886D01*
X42475398Y-63173121D01*
X42488579Y-63158579D01*
X42503121Y-63145398D01*
X42518886Y-63133706D01*
X42535721Y-63123616D01*
X42553463Y-63115224D01*
X42571943Y-63108612D01*
X42590982Y-63103843D01*
X42610397Y-63100963D01*
X42630000Y-63100000D01*
X43090000Y-63100000D01*
X43109603Y-63100963D01*
X43109603Y-63100963D01*
G37*
D11*
X42860000Y-63500000D03*
D10*
G36*
X43749603Y-63100963D02*
G01*
X43769018Y-63103843D01*
X43788057Y-63108612D01*
X43806537Y-63115224D01*
X43824279Y-63123616D01*
X43841114Y-63133706D01*
X43856879Y-63145398D01*
X43871421Y-63158579D01*
X43884602Y-63173121D01*
X43896294Y-63188886D01*
X43906384Y-63205721D01*
X43914776Y-63223463D01*
X43921388Y-63241943D01*
X43926157Y-63260982D01*
X43929037Y-63280397D01*
X43930000Y-63300000D01*
X43930000Y-63700000D01*
X43929037Y-63719603D01*
X43926157Y-63739018D01*
X43921388Y-63758057D01*
X43914776Y-63776537D01*
X43906384Y-63794279D01*
X43896294Y-63811114D01*
X43884602Y-63826879D01*
X43871421Y-63841421D01*
X43856879Y-63854602D01*
X43841114Y-63866294D01*
X43824279Y-63876384D01*
X43806537Y-63884776D01*
X43788057Y-63891388D01*
X43769018Y-63896157D01*
X43749603Y-63899037D01*
X43730000Y-63900000D01*
X43270000Y-63900000D01*
X43250397Y-63899037D01*
X43230982Y-63896157D01*
X43211943Y-63891388D01*
X43193463Y-63884776D01*
X43175721Y-63876384D01*
X43158886Y-63866294D01*
X43143121Y-63854602D01*
X43128579Y-63841421D01*
X43115398Y-63826879D01*
X43103706Y-63811114D01*
X43093616Y-63794279D01*
X43085224Y-63776537D01*
X43078612Y-63758057D01*
X43073843Y-63739018D01*
X43070963Y-63719603D01*
X43070000Y-63700000D01*
X43070000Y-63300000D01*
X43070963Y-63280397D01*
X43073843Y-63260982D01*
X43078612Y-63241943D01*
X43085224Y-63223463D01*
X43093616Y-63205721D01*
X43103706Y-63188886D01*
X43115398Y-63173121D01*
X43128579Y-63158579D01*
X43143121Y-63145398D01*
X43158886Y-63133706D01*
X43175721Y-63123616D01*
X43193463Y-63115224D01*
X43211943Y-63108612D01*
X43230982Y-63103843D01*
X43250397Y-63100963D01*
X43270000Y-63100000D01*
X43730000Y-63100000D01*
X43749603Y-63100963D01*
X43749603Y-63100963D01*
G37*
D11*
X43500000Y-63500000D03*
D10*
G36*
X42987603Y-59544963D02*
G01*
X43007018Y-59547843D01*
X43026057Y-59552612D01*
X43044537Y-59559224D01*
X43062279Y-59567616D01*
X43079114Y-59577706D01*
X43094879Y-59589398D01*
X43109421Y-59602579D01*
X43122602Y-59617121D01*
X43134294Y-59632886D01*
X43144384Y-59649721D01*
X43152776Y-59667463D01*
X43159388Y-59685943D01*
X43164157Y-59704982D01*
X43167037Y-59724397D01*
X43168000Y-59744000D01*
X43168000Y-60144000D01*
X43167037Y-60163603D01*
X43164157Y-60183018D01*
X43159388Y-60202057D01*
X43152776Y-60220537D01*
X43144384Y-60238279D01*
X43134294Y-60255114D01*
X43122602Y-60270879D01*
X43109421Y-60285421D01*
X43094879Y-60298602D01*
X43079114Y-60310294D01*
X43062279Y-60320384D01*
X43044537Y-60328776D01*
X43026057Y-60335388D01*
X43007018Y-60340157D01*
X42987603Y-60343037D01*
X42968000Y-60344000D01*
X42508000Y-60344000D01*
X42488397Y-60343037D01*
X42468982Y-60340157D01*
X42449943Y-60335388D01*
X42431463Y-60328776D01*
X42413721Y-60320384D01*
X42396886Y-60310294D01*
X42381121Y-60298602D01*
X42366579Y-60285421D01*
X42353398Y-60270879D01*
X42341706Y-60255114D01*
X42331616Y-60238279D01*
X42323224Y-60220537D01*
X42316612Y-60202057D01*
X42311843Y-60183018D01*
X42308963Y-60163603D01*
X42308000Y-60144000D01*
X42308000Y-59744000D01*
X42308963Y-59724397D01*
X42311843Y-59704982D01*
X42316612Y-59685943D01*
X42323224Y-59667463D01*
X42331616Y-59649721D01*
X42341706Y-59632886D01*
X42353398Y-59617121D01*
X42366579Y-59602579D01*
X42381121Y-59589398D01*
X42396886Y-59577706D01*
X42413721Y-59567616D01*
X42431463Y-59559224D01*
X42449943Y-59552612D01*
X42468982Y-59547843D01*
X42488397Y-59544963D01*
X42508000Y-59544000D01*
X42968000Y-59544000D01*
X42987603Y-59544963D01*
X42987603Y-59544963D01*
G37*
D11*
X42738000Y-59944000D03*
D10*
G36*
X42347603Y-59544963D02*
G01*
X42367018Y-59547843D01*
X42386057Y-59552612D01*
X42404537Y-59559224D01*
X42422279Y-59567616D01*
X42439114Y-59577706D01*
X42454879Y-59589398D01*
X42469421Y-59602579D01*
X42482602Y-59617121D01*
X42494294Y-59632886D01*
X42504384Y-59649721D01*
X42512776Y-59667463D01*
X42519388Y-59685943D01*
X42524157Y-59704982D01*
X42527037Y-59724397D01*
X42528000Y-59744000D01*
X42528000Y-60144000D01*
X42527037Y-60163603D01*
X42524157Y-60183018D01*
X42519388Y-60202057D01*
X42512776Y-60220537D01*
X42504384Y-60238279D01*
X42494294Y-60255114D01*
X42482602Y-60270879D01*
X42469421Y-60285421D01*
X42454879Y-60298602D01*
X42439114Y-60310294D01*
X42422279Y-60320384D01*
X42404537Y-60328776D01*
X42386057Y-60335388D01*
X42367018Y-60340157D01*
X42347603Y-60343037D01*
X42328000Y-60344000D01*
X41868000Y-60344000D01*
X41848397Y-60343037D01*
X41828982Y-60340157D01*
X41809943Y-60335388D01*
X41791463Y-60328776D01*
X41773721Y-60320384D01*
X41756886Y-60310294D01*
X41741121Y-60298602D01*
X41726579Y-60285421D01*
X41713398Y-60270879D01*
X41701706Y-60255114D01*
X41691616Y-60238279D01*
X41683224Y-60220537D01*
X41676612Y-60202057D01*
X41671843Y-60183018D01*
X41668963Y-60163603D01*
X41668000Y-60144000D01*
X41668000Y-59744000D01*
X41668963Y-59724397D01*
X41671843Y-59704982D01*
X41676612Y-59685943D01*
X41683224Y-59667463D01*
X41691616Y-59649721D01*
X41701706Y-59632886D01*
X41713398Y-59617121D01*
X41726579Y-59602579D01*
X41741121Y-59589398D01*
X41756886Y-59577706D01*
X41773721Y-59567616D01*
X41791463Y-59559224D01*
X41809943Y-59552612D01*
X41828982Y-59547843D01*
X41848397Y-59544963D01*
X41868000Y-59544000D01*
X42328000Y-59544000D01*
X42347603Y-59544963D01*
X42347603Y-59544963D01*
G37*
D11*
X42098000Y-59944000D03*
D10*
G36*
X43907603Y-53479963D02*
G01*
X43927018Y-53482843D01*
X43946057Y-53487612D01*
X43964537Y-53494224D01*
X43982279Y-53502616D01*
X43999114Y-53512706D01*
X44014879Y-53524398D01*
X44029421Y-53537579D01*
X44042602Y-53552121D01*
X44054294Y-53567886D01*
X44064384Y-53584721D01*
X44072776Y-53602463D01*
X44079388Y-53620943D01*
X44084157Y-53639982D01*
X44087037Y-53659397D01*
X44088000Y-53679000D01*
X44088000Y-54139000D01*
X44087037Y-54158603D01*
X44084157Y-54178018D01*
X44079388Y-54197057D01*
X44072776Y-54215537D01*
X44064384Y-54233279D01*
X44054294Y-54250114D01*
X44042602Y-54265879D01*
X44029421Y-54280421D01*
X44014879Y-54293602D01*
X43999114Y-54305294D01*
X43982279Y-54315384D01*
X43964537Y-54323776D01*
X43946057Y-54330388D01*
X43927018Y-54335157D01*
X43907603Y-54338037D01*
X43888000Y-54339000D01*
X43488000Y-54339000D01*
X43468397Y-54338037D01*
X43448982Y-54335157D01*
X43429943Y-54330388D01*
X43411463Y-54323776D01*
X43393721Y-54315384D01*
X43376886Y-54305294D01*
X43361121Y-54293602D01*
X43346579Y-54280421D01*
X43333398Y-54265879D01*
X43321706Y-54250114D01*
X43311616Y-54233279D01*
X43303224Y-54215537D01*
X43296612Y-54197057D01*
X43291843Y-54178018D01*
X43288963Y-54158603D01*
X43288000Y-54139000D01*
X43288000Y-53679000D01*
X43288963Y-53659397D01*
X43291843Y-53639982D01*
X43296612Y-53620943D01*
X43303224Y-53602463D01*
X43311616Y-53584721D01*
X43321706Y-53567886D01*
X43333398Y-53552121D01*
X43346579Y-53537579D01*
X43361121Y-53524398D01*
X43376886Y-53512706D01*
X43393721Y-53502616D01*
X43411463Y-53494224D01*
X43429943Y-53487612D01*
X43448982Y-53482843D01*
X43468397Y-53479963D01*
X43488000Y-53479000D01*
X43888000Y-53479000D01*
X43907603Y-53479963D01*
X43907603Y-53479963D01*
G37*
D11*
X43688000Y-53909000D03*
D10*
G36*
X43907603Y-54119963D02*
G01*
X43927018Y-54122843D01*
X43946057Y-54127612D01*
X43964537Y-54134224D01*
X43982279Y-54142616D01*
X43999114Y-54152706D01*
X44014879Y-54164398D01*
X44029421Y-54177579D01*
X44042602Y-54192121D01*
X44054294Y-54207886D01*
X44064384Y-54224721D01*
X44072776Y-54242463D01*
X44079388Y-54260943D01*
X44084157Y-54279982D01*
X44087037Y-54299397D01*
X44088000Y-54319000D01*
X44088000Y-54779000D01*
X44087037Y-54798603D01*
X44084157Y-54818018D01*
X44079388Y-54837057D01*
X44072776Y-54855537D01*
X44064384Y-54873279D01*
X44054294Y-54890114D01*
X44042602Y-54905879D01*
X44029421Y-54920421D01*
X44014879Y-54933602D01*
X43999114Y-54945294D01*
X43982279Y-54955384D01*
X43964537Y-54963776D01*
X43946057Y-54970388D01*
X43927018Y-54975157D01*
X43907603Y-54978037D01*
X43888000Y-54979000D01*
X43488000Y-54979000D01*
X43468397Y-54978037D01*
X43448982Y-54975157D01*
X43429943Y-54970388D01*
X43411463Y-54963776D01*
X43393721Y-54955384D01*
X43376886Y-54945294D01*
X43361121Y-54933602D01*
X43346579Y-54920421D01*
X43333398Y-54905879D01*
X43321706Y-54890114D01*
X43311616Y-54873279D01*
X43303224Y-54855537D01*
X43296612Y-54837057D01*
X43291843Y-54818018D01*
X43288963Y-54798603D01*
X43288000Y-54779000D01*
X43288000Y-54319000D01*
X43288963Y-54299397D01*
X43291843Y-54279982D01*
X43296612Y-54260943D01*
X43303224Y-54242463D01*
X43311616Y-54224721D01*
X43321706Y-54207886D01*
X43333398Y-54192121D01*
X43346579Y-54177579D01*
X43361121Y-54164398D01*
X43376886Y-54152706D01*
X43393721Y-54142616D01*
X43411463Y-54134224D01*
X43429943Y-54127612D01*
X43448982Y-54122843D01*
X43468397Y-54119963D01*
X43488000Y-54119000D01*
X43888000Y-54119000D01*
X43907603Y-54119963D01*
X43907603Y-54119963D01*
G37*
D11*
X43688000Y-54549000D03*
D10*
G36*
X44796603Y-54246963D02*
G01*
X44816018Y-54249843D01*
X44835057Y-54254612D01*
X44853537Y-54261224D01*
X44871279Y-54269616D01*
X44888114Y-54279706D01*
X44903879Y-54291398D01*
X44918421Y-54304579D01*
X44931602Y-54319121D01*
X44943294Y-54334886D01*
X44953384Y-54351721D01*
X44961776Y-54369463D01*
X44968388Y-54387943D01*
X44973157Y-54406982D01*
X44976037Y-54426397D01*
X44977000Y-54446000D01*
X44977000Y-54906000D01*
X44976037Y-54925603D01*
X44973157Y-54945018D01*
X44968388Y-54964057D01*
X44961776Y-54982537D01*
X44953384Y-55000279D01*
X44943294Y-55017114D01*
X44931602Y-55032879D01*
X44918421Y-55047421D01*
X44903879Y-55060602D01*
X44888114Y-55072294D01*
X44871279Y-55082384D01*
X44853537Y-55090776D01*
X44835057Y-55097388D01*
X44816018Y-55102157D01*
X44796603Y-55105037D01*
X44777000Y-55106000D01*
X44377000Y-55106000D01*
X44357397Y-55105037D01*
X44337982Y-55102157D01*
X44318943Y-55097388D01*
X44300463Y-55090776D01*
X44282721Y-55082384D01*
X44265886Y-55072294D01*
X44250121Y-55060602D01*
X44235579Y-55047421D01*
X44222398Y-55032879D01*
X44210706Y-55017114D01*
X44200616Y-55000279D01*
X44192224Y-54982537D01*
X44185612Y-54964057D01*
X44180843Y-54945018D01*
X44177963Y-54925603D01*
X44177000Y-54906000D01*
X44177000Y-54446000D01*
X44177963Y-54426397D01*
X44180843Y-54406982D01*
X44185612Y-54387943D01*
X44192224Y-54369463D01*
X44200616Y-54351721D01*
X44210706Y-54334886D01*
X44222398Y-54319121D01*
X44235579Y-54304579D01*
X44250121Y-54291398D01*
X44265886Y-54279706D01*
X44282721Y-54269616D01*
X44300463Y-54261224D01*
X44318943Y-54254612D01*
X44337982Y-54249843D01*
X44357397Y-54246963D01*
X44377000Y-54246000D01*
X44777000Y-54246000D01*
X44796603Y-54246963D01*
X44796603Y-54246963D01*
G37*
D11*
X44577000Y-54676000D03*
D10*
G36*
X44796603Y-53606963D02*
G01*
X44816018Y-53609843D01*
X44835057Y-53614612D01*
X44853537Y-53621224D01*
X44871279Y-53629616D01*
X44888114Y-53639706D01*
X44903879Y-53651398D01*
X44918421Y-53664579D01*
X44931602Y-53679121D01*
X44943294Y-53694886D01*
X44953384Y-53711721D01*
X44961776Y-53729463D01*
X44968388Y-53747943D01*
X44973157Y-53766982D01*
X44976037Y-53786397D01*
X44977000Y-53806000D01*
X44977000Y-54266000D01*
X44976037Y-54285603D01*
X44973157Y-54305018D01*
X44968388Y-54324057D01*
X44961776Y-54342537D01*
X44953384Y-54360279D01*
X44943294Y-54377114D01*
X44931602Y-54392879D01*
X44918421Y-54407421D01*
X44903879Y-54420602D01*
X44888114Y-54432294D01*
X44871279Y-54442384D01*
X44853537Y-54450776D01*
X44835057Y-54457388D01*
X44816018Y-54462157D01*
X44796603Y-54465037D01*
X44777000Y-54466000D01*
X44377000Y-54466000D01*
X44357397Y-54465037D01*
X44337982Y-54462157D01*
X44318943Y-54457388D01*
X44300463Y-54450776D01*
X44282721Y-54442384D01*
X44265886Y-54432294D01*
X44250121Y-54420602D01*
X44235579Y-54407421D01*
X44222398Y-54392879D01*
X44210706Y-54377114D01*
X44200616Y-54360279D01*
X44192224Y-54342537D01*
X44185612Y-54324057D01*
X44180843Y-54305018D01*
X44177963Y-54285603D01*
X44177000Y-54266000D01*
X44177000Y-53806000D01*
X44177963Y-53786397D01*
X44180843Y-53766982D01*
X44185612Y-53747943D01*
X44192224Y-53729463D01*
X44200616Y-53711721D01*
X44210706Y-53694886D01*
X44222398Y-53679121D01*
X44235579Y-53664579D01*
X44250121Y-53651398D01*
X44265886Y-53639706D01*
X44282721Y-53629616D01*
X44300463Y-53621224D01*
X44318943Y-53614612D01*
X44337982Y-53609843D01*
X44357397Y-53606963D01*
X44377000Y-53606000D01*
X44777000Y-53606000D01*
X44796603Y-53606963D01*
X44796603Y-53606963D01*
G37*
D11*
X44577000Y-54036000D03*
D10*
G36*
X48443603Y-50781963D02*
G01*
X48463018Y-50784843D01*
X48482057Y-50789612D01*
X48500537Y-50796224D01*
X48518279Y-50804616D01*
X48535114Y-50814706D01*
X48550879Y-50826398D01*
X48565421Y-50839579D01*
X48578602Y-50854121D01*
X48590294Y-50869886D01*
X48600384Y-50886721D01*
X48608776Y-50904463D01*
X48615388Y-50922943D01*
X48620157Y-50941982D01*
X48623037Y-50961397D01*
X48624000Y-50981000D01*
X48624000Y-51381000D01*
X48623037Y-51400603D01*
X48620157Y-51420018D01*
X48615388Y-51439057D01*
X48608776Y-51457537D01*
X48600384Y-51475279D01*
X48590294Y-51492114D01*
X48578602Y-51507879D01*
X48565421Y-51522421D01*
X48550879Y-51535602D01*
X48535114Y-51547294D01*
X48518279Y-51557384D01*
X48500537Y-51565776D01*
X48482057Y-51572388D01*
X48463018Y-51577157D01*
X48443603Y-51580037D01*
X48424000Y-51581000D01*
X47964000Y-51581000D01*
X47944397Y-51580037D01*
X47924982Y-51577157D01*
X47905943Y-51572388D01*
X47887463Y-51565776D01*
X47869721Y-51557384D01*
X47852886Y-51547294D01*
X47837121Y-51535602D01*
X47822579Y-51522421D01*
X47809398Y-51507879D01*
X47797706Y-51492114D01*
X47787616Y-51475279D01*
X47779224Y-51457537D01*
X47772612Y-51439057D01*
X47767843Y-51420018D01*
X47764963Y-51400603D01*
X47764000Y-51381000D01*
X47764000Y-50981000D01*
X47764963Y-50961397D01*
X47767843Y-50941982D01*
X47772612Y-50922943D01*
X47779224Y-50904463D01*
X47787616Y-50886721D01*
X47797706Y-50869886D01*
X47809398Y-50854121D01*
X47822579Y-50839579D01*
X47837121Y-50826398D01*
X47852886Y-50814706D01*
X47869721Y-50804616D01*
X47887463Y-50796224D01*
X47905943Y-50789612D01*
X47924982Y-50784843D01*
X47944397Y-50781963D01*
X47964000Y-50781000D01*
X48424000Y-50781000D01*
X48443603Y-50781963D01*
X48443603Y-50781963D01*
G37*
D11*
X48194000Y-51181000D03*
D10*
G36*
X49083603Y-50781963D02*
G01*
X49103018Y-50784843D01*
X49122057Y-50789612D01*
X49140537Y-50796224D01*
X49158279Y-50804616D01*
X49175114Y-50814706D01*
X49190879Y-50826398D01*
X49205421Y-50839579D01*
X49218602Y-50854121D01*
X49230294Y-50869886D01*
X49240384Y-50886721D01*
X49248776Y-50904463D01*
X49255388Y-50922943D01*
X49260157Y-50941982D01*
X49263037Y-50961397D01*
X49264000Y-50981000D01*
X49264000Y-51381000D01*
X49263037Y-51400603D01*
X49260157Y-51420018D01*
X49255388Y-51439057D01*
X49248776Y-51457537D01*
X49240384Y-51475279D01*
X49230294Y-51492114D01*
X49218602Y-51507879D01*
X49205421Y-51522421D01*
X49190879Y-51535602D01*
X49175114Y-51547294D01*
X49158279Y-51557384D01*
X49140537Y-51565776D01*
X49122057Y-51572388D01*
X49103018Y-51577157D01*
X49083603Y-51580037D01*
X49064000Y-51581000D01*
X48604000Y-51581000D01*
X48584397Y-51580037D01*
X48564982Y-51577157D01*
X48545943Y-51572388D01*
X48527463Y-51565776D01*
X48509721Y-51557384D01*
X48492886Y-51547294D01*
X48477121Y-51535602D01*
X48462579Y-51522421D01*
X48449398Y-51507879D01*
X48437706Y-51492114D01*
X48427616Y-51475279D01*
X48419224Y-51457537D01*
X48412612Y-51439057D01*
X48407843Y-51420018D01*
X48404963Y-51400603D01*
X48404000Y-51381000D01*
X48404000Y-50981000D01*
X48404963Y-50961397D01*
X48407843Y-50941982D01*
X48412612Y-50922943D01*
X48419224Y-50904463D01*
X48427616Y-50886721D01*
X48437706Y-50869886D01*
X48449398Y-50854121D01*
X48462579Y-50839579D01*
X48477121Y-50826398D01*
X48492886Y-50814706D01*
X48509721Y-50804616D01*
X48527463Y-50796224D01*
X48545943Y-50789612D01*
X48564982Y-50784843D01*
X48584397Y-50781963D01*
X48604000Y-50781000D01*
X49064000Y-50781000D01*
X49083603Y-50781963D01*
X49083603Y-50781963D01*
G37*
D11*
X48834000Y-51181000D03*
D10*
G36*
X48443603Y-49892963D02*
G01*
X48463018Y-49895843D01*
X48482057Y-49900612D01*
X48500537Y-49907224D01*
X48518279Y-49915616D01*
X48535114Y-49925706D01*
X48550879Y-49937398D01*
X48565421Y-49950579D01*
X48578602Y-49965121D01*
X48590294Y-49980886D01*
X48600384Y-49997721D01*
X48608776Y-50015463D01*
X48615388Y-50033943D01*
X48620157Y-50052982D01*
X48623037Y-50072397D01*
X48624000Y-50092000D01*
X48624000Y-50492000D01*
X48623037Y-50511603D01*
X48620157Y-50531018D01*
X48615388Y-50550057D01*
X48608776Y-50568537D01*
X48600384Y-50586279D01*
X48590294Y-50603114D01*
X48578602Y-50618879D01*
X48565421Y-50633421D01*
X48550879Y-50646602D01*
X48535114Y-50658294D01*
X48518279Y-50668384D01*
X48500537Y-50676776D01*
X48482057Y-50683388D01*
X48463018Y-50688157D01*
X48443603Y-50691037D01*
X48424000Y-50692000D01*
X47964000Y-50692000D01*
X47944397Y-50691037D01*
X47924982Y-50688157D01*
X47905943Y-50683388D01*
X47887463Y-50676776D01*
X47869721Y-50668384D01*
X47852886Y-50658294D01*
X47837121Y-50646602D01*
X47822579Y-50633421D01*
X47809398Y-50618879D01*
X47797706Y-50603114D01*
X47787616Y-50586279D01*
X47779224Y-50568537D01*
X47772612Y-50550057D01*
X47767843Y-50531018D01*
X47764963Y-50511603D01*
X47764000Y-50492000D01*
X47764000Y-50092000D01*
X47764963Y-50072397D01*
X47767843Y-50052982D01*
X47772612Y-50033943D01*
X47779224Y-50015463D01*
X47787616Y-49997721D01*
X47797706Y-49980886D01*
X47809398Y-49965121D01*
X47822579Y-49950579D01*
X47837121Y-49937398D01*
X47852886Y-49925706D01*
X47869721Y-49915616D01*
X47887463Y-49907224D01*
X47905943Y-49900612D01*
X47924982Y-49895843D01*
X47944397Y-49892963D01*
X47964000Y-49892000D01*
X48424000Y-49892000D01*
X48443603Y-49892963D01*
X48443603Y-49892963D01*
G37*
D11*
X48194000Y-50292000D03*
D10*
G36*
X49083603Y-49892963D02*
G01*
X49103018Y-49895843D01*
X49122057Y-49900612D01*
X49140537Y-49907224D01*
X49158279Y-49915616D01*
X49175114Y-49925706D01*
X49190879Y-49937398D01*
X49205421Y-49950579D01*
X49218602Y-49965121D01*
X49230294Y-49980886D01*
X49240384Y-49997721D01*
X49248776Y-50015463D01*
X49255388Y-50033943D01*
X49260157Y-50052982D01*
X49263037Y-50072397D01*
X49264000Y-50092000D01*
X49264000Y-50492000D01*
X49263037Y-50511603D01*
X49260157Y-50531018D01*
X49255388Y-50550057D01*
X49248776Y-50568537D01*
X49240384Y-50586279D01*
X49230294Y-50603114D01*
X49218602Y-50618879D01*
X49205421Y-50633421D01*
X49190879Y-50646602D01*
X49175114Y-50658294D01*
X49158279Y-50668384D01*
X49140537Y-50676776D01*
X49122057Y-50683388D01*
X49103018Y-50688157D01*
X49083603Y-50691037D01*
X49064000Y-50692000D01*
X48604000Y-50692000D01*
X48584397Y-50691037D01*
X48564982Y-50688157D01*
X48545943Y-50683388D01*
X48527463Y-50676776D01*
X48509721Y-50668384D01*
X48492886Y-50658294D01*
X48477121Y-50646602D01*
X48462579Y-50633421D01*
X48449398Y-50618879D01*
X48437706Y-50603114D01*
X48427616Y-50586279D01*
X48419224Y-50568537D01*
X48412612Y-50550057D01*
X48407843Y-50531018D01*
X48404963Y-50511603D01*
X48404000Y-50492000D01*
X48404000Y-50092000D01*
X48404963Y-50072397D01*
X48407843Y-50052982D01*
X48412612Y-50033943D01*
X48419224Y-50015463D01*
X48427616Y-49997721D01*
X48437706Y-49980886D01*
X48449398Y-49965121D01*
X48462579Y-49950579D01*
X48477121Y-49937398D01*
X48492886Y-49925706D01*
X48509721Y-49915616D01*
X48527463Y-49907224D01*
X48545943Y-49900612D01*
X48564982Y-49895843D01*
X48584397Y-49892963D01*
X48604000Y-49892000D01*
X49064000Y-49892000D01*
X49083603Y-49892963D01*
X49083603Y-49892963D01*
G37*
D11*
X48834000Y-50292000D03*
D10*
G36*
X43018603Y-54246963D02*
G01*
X43038018Y-54249843D01*
X43057057Y-54254612D01*
X43075537Y-54261224D01*
X43093279Y-54269616D01*
X43110114Y-54279706D01*
X43125879Y-54291398D01*
X43140421Y-54304579D01*
X43153602Y-54319121D01*
X43165294Y-54334886D01*
X43175384Y-54351721D01*
X43183776Y-54369463D01*
X43190388Y-54387943D01*
X43195157Y-54406982D01*
X43198037Y-54426397D01*
X43199000Y-54446000D01*
X43199000Y-54906000D01*
X43198037Y-54925603D01*
X43195157Y-54945018D01*
X43190388Y-54964057D01*
X43183776Y-54982537D01*
X43175384Y-55000279D01*
X43165294Y-55017114D01*
X43153602Y-55032879D01*
X43140421Y-55047421D01*
X43125879Y-55060602D01*
X43110114Y-55072294D01*
X43093279Y-55082384D01*
X43075537Y-55090776D01*
X43057057Y-55097388D01*
X43038018Y-55102157D01*
X43018603Y-55105037D01*
X42999000Y-55106000D01*
X42599000Y-55106000D01*
X42579397Y-55105037D01*
X42559982Y-55102157D01*
X42540943Y-55097388D01*
X42522463Y-55090776D01*
X42504721Y-55082384D01*
X42487886Y-55072294D01*
X42472121Y-55060602D01*
X42457579Y-55047421D01*
X42444398Y-55032879D01*
X42432706Y-55017114D01*
X42422616Y-55000279D01*
X42414224Y-54982537D01*
X42407612Y-54964057D01*
X42402843Y-54945018D01*
X42399963Y-54925603D01*
X42399000Y-54906000D01*
X42399000Y-54446000D01*
X42399963Y-54426397D01*
X42402843Y-54406982D01*
X42407612Y-54387943D01*
X42414224Y-54369463D01*
X42422616Y-54351721D01*
X42432706Y-54334886D01*
X42444398Y-54319121D01*
X42457579Y-54304579D01*
X42472121Y-54291398D01*
X42487886Y-54279706D01*
X42504721Y-54269616D01*
X42522463Y-54261224D01*
X42540943Y-54254612D01*
X42559982Y-54249843D01*
X42579397Y-54246963D01*
X42599000Y-54246000D01*
X42999000Y-54246000D01*
X43018603Y-54246963D01*
X43018603Y-54246963D01*
G37*
D11*
X42799000Y-54676000D03*
D10*
G36*
X43018603Y-53606963D02*
G01*
X43038018Y-53609843D01*
X43057057Y-53614612D01*
X43075537Y-53621224D01*
X43093279Y-53629616D01*
X43110114Y-53639706D01*
X43125879Y-53651398D01*
X43140421Y-53664579D01*
X43153602Y-53679121D01*
X43165294Y-53694886D01*
X43175384Y-53711721D01*
X43183776Y-53729463D01*
X43190388Y-53747943D01*
X43195157Y-53766982D01*
X43198037Y-53786397D01*
X43199000Y-53806000D01*
X43199000Y-54266000D01*
X43198037Y-54285603D01*
X43195157Y-54305018D01*
X43190388Y-54324057D01*
X43183776Y-54342537D01*
X43175384Y-54360279D01*
X43165294Y-54377114D01*
X43153602Y-54392879D01*
X43140421Y-54407421D01*
X43125879Y-54420602D01*
X43110114Y-54432294D01*
X43093279Y-54442384D01*
X43075537Y-54450776D01*
X43057057Y-54457388D01*
X43038018Y-54462157D01*
X43018603Y-54465037D01*
X42999000Y-54466000D01*
X42599000Y-54466000D01*
X42579397Y-54465037D01*
X42559982Y-54462157D01*
X42540943Y-54457388D01*
X42522463Y-54450776D01*
X42504721Y-54442384D01*
X42487886Y-54432294D01*
X42472121Y-54420602D01*
X42457579Y-54407421D01*
X42444398Y-54392879D01*
X42432706Y-54377114D01*
X42422616Y-54360279D01*
X42414224Y-54342537D01*
X42407612Y-54324057D01*
X42402843Y-54305018D01*
X42399963Y-54285603D01*
X42399000Y-54266000D01*
X42399000Y-53806000D01*
X42399963Y-53786397D01*
X42402843Y-53766982D01*
X42407612Y-53747943D01*
X42414224Y-53729463D01*
X42422616Y-53711721D01*
X42432706Y-53694886D01*
X42444398Y-53679121D01*
X42457579Y-53664579D01*
X42472121Y-53651398D01*
X42487886Y-53639706D01*
X42504721Y-53629616D01*
X42522463Y-53621224D01*
X42540943Y-53614612D01*
X42559982Y-53609843D01*
X42579397Y-53606963D01*
X42599000Y-53606000D01*
X42999000Y-53606000D01*
X43018603Y-53606963D01*
X43018603Y-53606963D01*
G37*
D11*
X42799000Y-54036000D03*
D10*
G36*
X52639603Y-35160963D02*
G01*
X52659018Y-35163843D01*
X52678057Y-35168612D01*
X52696537Y-35175224D01*
X52714279Y-35183616D01*
X52731114Y-35193706D01*
X52746879Y-35205398D01*
X52761421Y-35218579D01*
X52774602Y-35233121D01*
X52786294Y-35248886D01*
X52796384Y-35265721D01*
X52804776Y-35283463D01*
X52811388Y-35301943D01*
X52816157Y-35320982D01*
X52819037Y-35340397D01*
X52820000Y-35360000D01*
X52820000Y-35760000D01*
X52819037Y-35779603D01*
X52816157Y-35799018D01*
X52811388Y-35818057D01*
X52804776Y-35836537D01*
X52796384Y-35854279D01*
X52786294Y-35871114D01*
X52774602Y-35886879D01*
X52761421Y-35901421D01*
X52746879Y-35914602D01*
X52731114Y-35926294D01*
X52714279Y-35936384D01*
X52696537Y-35944776D01*
X52678057Y-35951388D01*
X52659018Y-35956157D01*
X52639603Y-35959037D01*
X52620000Y-35960000D01*
X52160000Y-35960000D01*
X52140397Y-35959037D01*
X52120982Y-35956157D01*
X52101943Y-35951388D01*
X52083463Y-35944776D01*
X52065721Y-35936384D01*
X52048886Y-35926294D01*
X52033121Y-35914602D01*
X52018579Y-35901421D01*
X52005398Y-35886879D01*
X51993706Y-35871114D01*
X51983616Y-35854279D01*
X51975224Y-35836537D01*
X51968612Y-35818057D01*
X51963843Y-35799018D01*
X51960963Y-35779603D01*
X51960000Y-35760000D01*
X51960000Y-35360000D01*
X51960963Y-35340397D01*
X51963843Y-35320982D01*
X51968612Y-35301943D01*
X51975224Y-35283463D01*
X51983616Y-35265721D01*
X51993706Y-35248886D01*
X52005398Y-35233121D01*
X52018579Y-35218579D01*
X52033121Y-35205398D01*
X52048886Y-35193706D01*
X52065721Y-35183616D01*
X52083463Y-35175224D01*
X52101943Y-35168612D01*
X52120982Y-35163843D01*
X52140397Y-35160963D01*
X52160000Y-35160000D01*
X52620000Y-35160000D01*
X52639603Y-35160963D01*
X52639603Y-35160963D01*
G37*
D11*
X52390000Y-35560000D03*
D10*
G36*
X51999603Y-35160963D02*
G01*
X52019018Y-35163843D01*
X52038057Y-35168612D01*
X52056537Y-35175224D01*
X52074279Y-35183616D01*
X52091114Y-35193706D01*
X52106879Y-35205398D01*
X52121421Y-35218579D01*
X52134602Y-35233121D01*
X52146294Y-35248886D01*
X52156384Y-35265721D01*
X52164776Y-35283463D01*
X52171388Y-35301943D01*
X52176157Y-35320982D01*
X52179037Y-35340397D01*
X52180000Y-35360000D01*
X52180000Y-35760000D01*
X52179037Y-35779603D01*
X52176157Y-35799018D01*
X52171388Y-35818057D01*
X52164776Y-35836537D01*
X52156384Y-35854279D01*
X52146294Y-35871114D01*
X52134602Y-35886879D01*
X52121421Y-35901421D01*
X52106879Y-35914602D01*
X52091114Y-35926294D01*
X52074279Y-35936384D01*
X52056537Y-35944776D01*
X52038057Y-35951388D01*
X52019018Y-35956157D01*
X51999603Y-35959037D01*
X51980000Y-35960000D01*
X51520000Y-35960000D01*
X51500397Y-35959037D01*
X51480982Y-35956157D01*
X51461943Y-35951388D01*
X51443463Y-35944776D01*
X51425721Y-35936384D01*
X51408886Y-35926294D01*
X51393121Y-35914602D01*
X51378579Y-35901421D01*
X51365398Y-35886879D01*
X51353706Y-35871114D01*
X51343616Y-35854279D01*
X51335224Y-35836537D01*
X51328612Y-35818057D01*
X51323843Y-35799018D01*
X51320963Y-35779603D01*
X51320000Y-35760000D01*
X51320000Y-35360000D01*
X51320963Y-35340397D01*
X51323843Y-35320982D01*
X51328612Y-35301943D01*
X51335224Y-35283463D01*
X51343616Y-35265721D01*
X51353706Y-35248886D01*
X51365398Y-35233121D01*
X51378579Y-35218579D01*
X51393121Y-35205398D01*
X51408886Y-35193706D01*
X51425721Y-35183616D01*
X51443463Y-35175224D01*
X51461943Y-35168612D01*
X51480982Y-35163843D01*
X51500397Y-35160963D01*
X51520000Y-35160000D01*
X51980000Y-35160000D01*
X51999603Y-35160963D01*
X51999603Y-35160963D01*
G37*
D11*
X51750000Y-35560000D03*
D10*
G36*
X41209603Y-33890963D02*
G01*
X41229018Y-33893843D01*
X41248057Y-33898612D01*
X41266537Y-33905224D01*
X41284279Y-33913616D01*
X41301114Y-33923706D01*
X41316879Y-33935398D01*
X41331421Y-33948579D01*
X41344602Y-33963121D01*
X41356294Y-33978886D01*
X41366384Y-33995721D01*
X41374776Y-34013463D01*
X41381388Y-34031943D01*
X41386157Y-34050982D01*
X41389037Y-34070397D01*
X41390000Y-34090000D01*
X41390000Y-34490000D01*
X41389037Y-34509603D01*
X41386157Y-34529018D01*
X41381388Y-34548057D01*
X41374776Y-34566537D01*
X41366384Y-34584279D01*
X41356294Y-34601114D01*
X41344602Y-34616879D01*
X41331421Y-34631421D01*
X41316879Y-34644602D01*
X41301114Y-34656294D01*
X41284279Y-34666384D01*
X41266537Y-34674776D01*
X41248057Y-34681388D01*
X41229018Y-34686157D01*
X41209603Y-34689037D01*
X41190000Y-34690000D01*
X40730000Y-34690000D01*
X40710397Y-34689037D01*
X40690982Y-34686157D01*
X40671943Y-34681388D01*
X40653463Y-34674776D01*
X40635721Y-34666384D01*
X40618886Y-34656294D01*
X40603121Y-34644602D01*
X40588579Y-34631421D01*
X40575398Y-34616879D01*
X40563706Y-34601114D01*
X40553616Y-34584279D01*
X40545224Y-34566537D01*
X40538612Y-34548057D01*
X40533843Y-34529018D01*
X40530963Y-34509603D01*
X40530000Y-34490000D01*
X40530000Y-34090000D01*
X40530963Y-34070397D01*
X40533843Y-34050982D01*
X40538612Y-34031943D01*
X40545224Y-34013463D01*
X40553616Y-33995721D01*
X40563706Y-33978886D01*
X40575398Y-33963121D01*
X40588579Y-33948579D01*
X40603121Y-33935398D01*
X40618886Y-33923706D01*
X40635721Y-33913616D01*
X40653463Y-33905224D01*
X40671943Y-33898612D01*
X40690982Y-33893843D01*
X40710397Y-33890963D01*
X40730000Y-33890000D01*
X41190000Y-33890000D01*
X41209603Y-33890963D01*
X41209603Y-33890963D01*
G37*
D11*
X40960000Y-34290000D03*
D10*
G36*
X40569603Y-33890963D02*
G01*
X40589018Y-33893843D01*
X40608057Y-33898612D01*
X40626537Y-33905224D01*
X40644279Y-33913616D01*
X40661114Y-33923706D01*
X40676879Y-33935398D01*
X40691421Y-33948579D01*
X40704602Y-33963121D01*
X40716294Y-33978886D01*
X40726384Y-33995721D01*
X40734776Y-34013463D01*
X40741388Y-34031943D01*
X40746157Y-34050982D01*
X40749037Y-34070397D01*
X40750000Y-34090000D01*
X40750000Y-34490000D01*
X40749037Y-34509603D01*
X40746157Y-34529018D01*
X40741388Y-34548057D01*
X40734776Y-34566537D01*
X40726384Y-34584279D01*
X40716294Y-34601114D01*
X40704602Y-34616879D01*
X40691421Y-34631421D01*
X40676879Y-34644602D01*
X40661114Y-34656294D01*
X40644279Y-34666384D01*
X40626537Y-34674776D01*
X40608057Y-34681388D01*
X40589018Y-34686157D01*
X40569603Y-34689037D01*
X40550000Y-34690000D01*
X40090000Y-34690000D01*
X40070397Y-34689037D01*
X40050982Y-34686157D01*
X40031943Y-34681388D01*
X40013463Y-34674776D01*
X39995721Y-34666384D01*
X39978886Y-34656294D01*
X39963121Y-34644602D01*
X39948579Y-34631421D01*
X39935398Y-34616879D01*
X39923706Y-34601114D01*
X39913616Y-34584279D01*
X39905224Y-34566537D01*
X39898612Y-34548057D01*
X39893843Y-34529018D01*
X39890963Y-34509603D01*
X39890000Y-34490000D01*
X39890000Y-34090000D01*
X39890963Y-34070397D01*
X39893843Y-34050982D01*
X39898612Y-34031943D01*
X39905224Y-34013463D01*
X39913616Y-33995721D01*
X39923706Y-33978886D01*
X39935398Y-33963121D01*
X39948579Y-33948579D01*
X39963121Y-33935398D01*
X39978886Y-33923706D01*
X39995721Y-33913616D01*
X40013463Y-33905224D01*
X40031943Y-33898612D01*
X40050982Y-33893843D01*
X40070397Y-33890963D01*
X40090000Y-33890000D01*
X40550000Y-33890000D01*
X40569603Y-33890963D01*
X40569603Y-33890963D01*
G37*
D11*
X40320000Y-34290000D03*
D10*
G36*
X29683603Y-30370963D02*
G01*
X29703018Y-30373843D01*
X29722057Y-30378612D01*
X29740537Y-30385224D01*
X29758279Y-30393616D01*
X29775114Y-30403706D01*
X29790879Y-30415398D01*
X29805421Y-30428579D01*
X29818602Y-30443121D01*
X29830294Y-30458886D01*
X29840384Y-30475721D01*
X29848776Y-30493463D01*
X29855388Y-30511943D01*
X29860157Y-30530982D01*
X29863037Y-30550397D01*
X29864000Y-30570000D01*
X29864000Y-31030000D01*
X29863037Y-31049603D01*
X29860157Y-31069018D01*
X29855388Y-31088057D01*
X29848776Y-31106537D01*
X29840384Y-31124279D01*
X29830294Y-31141114D01*
X29818602Y-31156879D01*
X29805421Y-31171421D01*
X29790879Y-31184602D01*
X29775114Y-31196294D01*
X29758279Y-31206384D01*
X29740537Y-31214776D01*
X29722057Y-31221388D01*
X29703018Y-31226157D01*
X29683603Y-31229037D01*
X29664000Y-31230000D01*
X29264000Y-31230000D01*
X29244397Y-31229037D01*
X29224982Y-31226157D01*
X29205943Y-31221388D01*
X29187463Y-31214776D01*
X29169721Y-31206384D01*
X29152886Y-31196294D01*
X29137121Y-31184602D01*
X29122579Y-31171421D01*
X29109398Y-31156879D01*
X29097706Y-31141114D01*
X29087616Y-31124279D01*
X29079224Y-31106537D01*
X29072612Y-31088057D01*
X29067843Y-31069018D01*
X29064963Y-31049603D01*
X29064000Y-31030000D01*
X29064000Y-30570000D01*
X29064963Y-30550397D01*
X29067843Y-30530982D01*
X29072612Y-30511943D01*
X29079224Y-30493463D01*
X29087616Y-30475721D01*
X29097706Y-30458886D01*
X29109398Y-30443121D01*
X29122579Y-30428579D01*
X29137121Y-30415398D01*
X29152886Y-30403706D01*
X29169721Y-30393616D01*
X29187463Y-30385224D01*
X29205943Y-30378612D01*
X29224982Y-30373843D01*
X29244397Y-30370963D01*
X29264000Y-30370000D01*
X29664000Y-30370000D01*
X29683603Y-30370963D01*
X29683603Y-30370963D01*
G37*
D11*
X29464000Y-30800000D03*
D10*
G36*
X29683603Y-29730963D02*
G01*
X29703018Y-29733843D01*
X29722057Y-29738612D01*
X29740537Y-29745224D01*
X29758279Y-29753616D01*
X29775114Y-29763706D01*
X29790879Y-29775398D01*
X29805421Y-29788579D01*
X29818602Y-29803121D01*
X29830294Y-29818886D01*
X29840384Y-29835721D01*
X29848776Y-29853463D01*
X29855388Y-29871943D01*
X29860157Y-29890982D01*
X29863037Y-29910397D01*
X29864000Y-29930000D01*
X29864000Y-30390000D01*
X29863037Y-30409603D01*
X29860157Y-30429018D01*
X29855388Y-30448057D01*
X29848776Y-30466537D01*
X29840384Y-30484279D01*
X29830294Y-30501114D01*
X29818602Y-30516879D01*
X29805421Y-30531421D01*
X29790879Y-30544602D01*
X29775114Y-30556294D01*
X29758279Y-30566384D01*
X29740537Y-30574776D01*
X29722057Y-30581388D01*
X29703018Y-30586157D01*
X29683603Y-30589037D01*
X29664000Y-30590000D01*
X29264000Y-30590000D01*
X29244397Y-30589037D01*
X29224982Y-30586157D01*
X29205943Y-30581388D01*
X29187463Y-30574776D01*
X29169721Y-30566384D01*
X29152886Y-30556294D01*
X29137121Y-30544602D01*
X29122579Y-30531421D01*
X29109398Y-30516879D01*
X29097706Y-30501114D01*
X29087616Y-30484279D01*
X29079224Y-30466537D01*
X29072612Y-30448057D01*
X29067843Y-30429018D01*
X29064963Y-30409603D01*
X29064000Y-30390000D01*
X29064000Y-29930000D01*
X29064963Y-29910397D01*
X29067843Y-29890982D01*
X29072612Y-29871943D01*
X29079224Y-29853463D01*
X29087616Y-29835721D01*
X29097706Y-29818886D01*
X29109398Y-29803121D01*
X29122579Y-29788579D01*
X29137121Y-29775398D01*
X29152886Y-29763706D01*
X29169721Y-29753616D01*
X29187463Y-29745224D01*
X29205943Y-29738612D01*
X29224982Y-29733843D01*
X29244397Y-29730963D01*
X29264000Y-29730000D01*
X29664000Y-29730000D01*
X29683603Y-29730963D01*
X29683603Y-29730963D01*
G37*
D11*
X29464000Y-30160000D03*
D10*
G36*
X27996603Y-30588963D02*
G01*
X28016018Y-30591843D01*
X28035057Y-30596612D01*
X28053537Y-30603224D01*
X28071279Y-30611616D01*
X28088114Y-30621706D01*
X28103879Y-30633398D01*
X28118421Y-30646579D01*
X28131602Y-30661121D01*
X28143294Y-30676886D01*
X28153384Y-30693721D01*
X28161776Y-30711463D01*
X28168388Y-30729943D01*
X28173157Y-30748982D01*
X28176037Y-30768397D01*
X28177000Y-30788000D01*
X28177000Y-31188000D01*
X28176037Y-31207603D01*
X28173157Y-31227018D01*
X28168388Y-31246057D01*
X28161776Y-31264537D01*
X28153384Y-31282279D01*
X28143294Y-31299114D01*
X28131602Y-31314879D01*
X28118421Y-31329421D01*
X28103879Y-31342602D01*
X28088114Y-31354294D01*
X28071279Y-31364384D01*
X28053537Y-31372776D01*
X28035057Y-31379388D01*
X28016018Y-31384157D01*
X27996603Y-31387037D01*
X27977000Y-31388000D01*
X27517000Y-31388000D01*
X27497397Y-31387037D01*
X27477982Y-31384157D01*
X27458943Y-31379388D01*
X27440463Y-31372776D01*
X27422721Y-31364384D01*
X27405886Y-31354294D01*
X27390121Y-31342602D01*
X27375579Y-31329421D01*
X27362398Y-31314879D01*
X27350706Y-31299114D01*
X27340616Y-31282279D01*
X27332224Y-31264537D01*
X27325612Y-31246057D01*
X27320843Y-31227018D01*
X27317963Y-31207603D01*
X27317000Y-31188000D01*
X27317000Y-30788000D01*
X27317963Y-30768397D01*
X27320843Y-30748982D01*
X27325612Y-30729943D01*
X27332224Y-30711463D01*
X27340616Y-30693721D01*
X27350706Y-30676886D01*
X27362398Y-30661121D01*
X27375579Y-30646579D01*
X27390121Y-30633398D01*
X27405886Y-30621706D01*
X27422721Y-30611616D01*
X27440463Y-30603224D01*
X27458943Y-30596612D01*
X27477982Y-30591843D01*
X27497397Y-30588963D01*
X27517000Y-30588000D01*
X27977000Y-30588000D01*
X27996603Y-30588963D01*
X27996603Y-30588963D01*
G37*
D11*
X27747000Y-30988000D03*
D10*
G36*
X28636603Y-30588963D02*
G01*
X28656018Y-30591843D01*
X28675057Y-30596612D01*
X28693537Y-30603224D01*
X28711279Y-30611616D01*
X28728114Y-30621706D01*
X28743879Y-30633398D01*
X28758421Y-30646579D01*
X28771602Y-30661121D01*
X28783294Y-30676886D01*
X28793384Y-30693721D01*
X28801776Y-30711463D01*
X28808388Y-30729943D01*
X28813157Y-30748982D01*
X28816037Y-30768397D01*
X28817000Y-30788000D01*
X28817000Y-31188000D01*
X28816037Y-31207603D01*
X28813157Y-31227018D01*
X28808388Y-31246057D01*
X28801776Y-31264537D01*
X28793384Y-31282279D01*
X28783294Y-31299114D01*
X28771602Y-31314879D01*
X28758421Y-31329421D01*
X28743879Y-31342602D01*
X28728114Y-31354294D01*
X28711279Y-31364384D01*
X28693537Y-31372776D01*
X28675057Y-31379388D01*
X28656018Y-31384157D01*
X28636603Y-31387037D01*
X28617000Y-31388000D01*
X28157000Y-31388000D01*
X28137397Y-31387037D01*
X28117982Y-31384157D01*
X28098943Y-31379388D01*
X28080463Y-31372776D01*
X28062721Y-31364384D01*
X28045886Y-31354294D01*
X28030121Y-31342602D01*
X28015579Y-31329421D01*
X28002398Y-31314879D01*
X27990706Y-31299114D01*
X27980616Y-31282279D01*
X27972224Y-31264537D01*
X27965612Y-31246057D01*
X27960843Y-31227018D01*
X27957963Y-31207603D01*
X27957000Y-31188000D01*
X27957000Y-30788000D01*
X27957963Y-30768397D01*
X27960843Y-30748982D01*
X27965612Y-30729943D01*
X27972224Y-30711463D01*
X27980616Y-30693721D01*
X27990706Y-30676886D01*
X28002398Y-30661121D01*
X28015579Y-30646579D01*
X28030121Y-30633398D01*
X28045886Y-30621706D01*
X28062721Y-30611616D01*
X28080463Y-30603224D01*
X28098943Y-30596612D01*
X28117982Y-30591843D01*
X28137397Y-30588963D01*
X28157000Y-30588000D01*
X28617000Y-30588000D01*
X28636603Y-30588963D01*
X28636603Y-30588963D01*
G37*
D11*
X28387000Y-30988000D03*
D24*
X44300000Y-52150000D03*
X43900000Y-52150000D03*
X43500000Y-52150000D03*
X43100000Y-52150000D03*
X42700000Y-52150000D03*
X42300000Y-52150000D03*
X41900000Y-52150000D03*
X41500000Y-52150000D03*
X41100000Y-52150000D03*
X40700000Y-52150000D03*
X40300000Y-52150000D03*
X39900000Y-52150000D03*
X39500000Y-52150000D03*
X39100000Y-52150000D03*
X38700000Y-52150000D03*
X38300000Y-52150000D03*
X37900000Y-52150000D03*
X37500000Y-52150000D03*
X37100000Y-52150000D03*
X36700000Y-52150000D03*
X36300000Y-52150000D03*
X35900000Y-52150000D03*
X35500000Y-52150000D03*
X35100000Y-52150000D03*
X34700000Y-52150000D03*
X34300000Y-52150000D03*
X33900000Y-52150000D03*
X33500000Y-52150000D03*
X33100000Y-52150000D03*
X32700000Y-52150000D03*
X32300000Y-52150000D03*
X31900000Y-52150000D03*
D25*
X30400000Y-50650000D03*
X30400000Y-50250000D03*
X30400000Y-49850000D03*
X30400000Y-49450000D03*
X30400000Y-49050000D03*
X30400000Y-48650000D03*
X30400000Y-48250000D03*
X30400000Y-47850000D03*
X30400000Y-47450000D03*
X30400000Y-47050000D03*
X30400000Y-46650000D03*
X30400000Y-46250000D03*
X30400000Y-45850000D03*
X30400000Y-45450000D03*
X30400000Y-45050000D03*
X30400000Y-44650000D03*
X30400000Y-44250000D03*
X30400000Y-43850000D03*
X30400000Y-43450000D03*
X30400000Y-43050000D03*
X30400000Y-42650000D03*
X30400000Y-42250000D03*
X30400000Y-41850000D03*
X30400000Y-41450000D03*
X30400000Y-41050000D03*
X30400000Y-40650000D03*
X30400000Y-40250000D03*
X30400000Y-39850000D03*
X30400000Y-39450000D03*
X30400000Y-39050000D03*
X30400000Y-38650000D03*
X30400000Y-38250000D03*
D24*
X31900000Y-36750000D03*
X32300000Y-36750000D03*
X32700000Y-36750000D03*
X33100000Y-36750000D03*
X33500000Y-36750000D03*
X33900000Y-36750000D03*
X34300000Y-36750000D03*
X34700000Y-36750000D03*
X35100000Y-36750000D03*
X35500000Y-36750000D03*
X35900000Y-36750000D03*
X36300000Y-36750000D03*
X36700000Y-36750000D03*
X37100000Y-36750000D03*
X37500000Y-36750000D03*
X37900000Y-36750000D03*
X38300000Y-36750000D03*
X38700000Y-36750000D03*
X39100000Y-36750000D03*
X39500000Y-36750000D03*
X39900000Y-36750000D03*
X40300000Y-36750000D03*
X40700000Y-36750000D03*
X41100000Y-36750000D03*
X41500000Y-36750000D03*
X41900000Y-36750000D03*
X42300000Y-36750000D03*
X42700000Y-36750000D03*
X43100000Y-36750000D03*
X43500000Y-36750000D03*
X43900000Y-36750000D03*
X44300000Y-36750000D03*
D25*
X45800000Y-38250000D03*
X45800000Y-38650000D03*
X45800000Y-39050000D03*
X45800000Y-39450000D03*
X45800000Y-39850000D03*
X45800000Y-40250000D03*
X45800000Y-40650000D03*
X45800000Y-41050000D03*
X45800000Y-41450000D03*
X45800000Y-41850000D03*
X45800000Y-42250000D03*
X45800000Y-42650000D03*
X45800000Y-43050000D03*
X45800000Y-43450000D03*
X45800000Y-43850000D03*
X45800000Y-44250000D03*
X45800000Y-44650000D03*
X45800000Y-45050000D03*
X45800000Y-45450000D03*
X45800000Y-45850000D03*
X45800000Y-46250000D03*
X45800000Y-46650000D03*
X45800000Y-47050000D03*
X45800000Y-47450000D03*
X45800000Y-47850000D03*
X45800000Y-48250000D03*
X45800000Y-48650000D03*
X45800000Y-49050000D03*
X45800000Y-49450000D03*
X45800000Y-49850000D03*
X45800000Y-50250000D03*
X45800000Y-50650000D03*
D26*
X33494800Y-31966800D03*
X35694800Y-31966800D03*
X35694800Y-33666800D03*
X33494800Y-33666800D03*
D27*
X40260000Y-32512000D03*
X43560000Y-32512000D03*
M02*
