G04 #@! TF.GenerationSoftware,KiCad,Pcbnew,(5.1.4)-1*
G04 #@! TF.CreationDate,2019-11-17T15:41:10+01:00*
G04 #@! TF.ProjectId,V3S_ESP32_Feather,5633535f-4553-4503-9332-5f4665617468,rev?*
G04 #@! TF.SameCoordinates,Original*
G04 #@! TF.FileFunction,Paste,Bot*
G04 #@! TF.FilePolarity,Positive*
%FSLAX46Y46*%
G04 Gerber Fmt 4.6, Leading zero omitted, Abs format (unit mm)*
G04 Created by KiCad (PCBNEW (5.1.4)-1) date 2019-11-17 15:41:10*
%MOMM*%
%LPD*%
G04 APERTURE LIST*
%ADD10C,0.100000*%
%ADD11C,0.318000*%
%ADD12C,1.200000*%
%ADD13C,0.600000*%
%ADD14R,1.800000X1.800000*%
%ADD15R,0.760000X0.270000*%
%ADD16R,0.270000X0.760000*%
%ADD17R,0.300000X2.600000*%
%ADD18R,1.500000X2.000000*%
%ADD19C,0.590000*%
%ADD20R,3.800000X2.000000*%
%ADD21R,0.200000X1.000000*%
%ADD22R,1.000000X0.200000*%
%ADD23R,1.400000X1.200000*%
%ADD24R,1.100000X1.900000*%
G04 APERTURE END LIST*
D10*
G36*
X34101000Y-24700000D02*
G01*
X35241000Y-24700000D01*
X35241000Y-23560000D01*
X34101000Y-23560000D01*
X34101000Y-24700000D01*
G37*
G36*
X37827292Y-61345383D02*
G01*
X37835010Y-61346528D01*
X37842578Y-61348423D01*
X37849923Y-61351052D01*
X37856976Y-61354387D01*
X37863668Y-61358398D01*
X37869934Y-61363046D01*
X37875715Y-61368285D01*
X37880954Y-61374066D01*
X37885602Y-61380332D01*
X37889613Y-61387024D01*
X37892948Y-61394077D01*
X37895577Y-61401422D01*
X37897472Y-61408990D01*
X37898617Y-61416708D01*
X37899000Y-61424500D01*
X37899000Y-61583500D01*
X37898617Y-61591292D01*
X37897472Y-61599010D01*
X37895577Y-61606578D01*
X37892948Y-61613923D01*
X37889613Y-61620976D01*
X37885602Y-61627668D01*
X37880954Y-61633934D01*
X37875715Y-61639715D01*
X37869934Y-61644954D01*
X37863668Y-61649602D01*
X37856976Y-61653613D01*
X37849923Y-61656948D01*
X37842578Y-61659577D01*
X37835010Y-61661472D01*
X37827292Y-61662617D01*
X37819500Y-61663000D01*
X37618500Y-61663000D01*
X37610708Y-61662617D01*
X37602990Y-61661472D01*
X37595422Y-61659577D01*
X37588077Y-61656948D01*
X37581024Y-61653613D01*
X37574332Y-61649602D01*
X37568066Y-61644954D01*
X37562285Y-61639715D01*
X37557046Y-61633934D01*
X37552398Y-61627668D01*
X37548387Y-61620976D01*
X37545052Y-61613923D01*
X37542423Y-61606578D01*
X37540528Y-61599010D01*
X37539383Y-61591292D01*
X37539000Y-61583500D01*
X37539000Y-61424500D01*
X37539383Y-61416708D01*
X37540528Y-61408990D01*
X37542423Y-61401422D01*
X37545052Y-61394077D01*
X37548387Y-61387024D01*
X37552398Y-61380332D01*
X37557046Y-61374066D01*
X37562285Y-61368285D01*
X37568066Y-61363046D01*
X37574332Y-61358398D01*
X37581024Y-61354387D01*
X37588077Y-61351052D01*
X37595422Y-61348423D01*
X37602990Y-61346528D01*
X37610708Y-61345383D01*
X37618500Y-61345000D01*
X37819500Y-61345000D01*
X37827292Y-61345383D01*
X37827292Y-61345383D01*
G37*
D11*
X37719000Y-61504000D03*
D10*
G36*
X37827292Y-62035383D02*
G01*
X37835010Y-62036528D01*
X37842578Y-62038423D01*
X37849923Y-62041052D01*
X37856976Y-62044387D01*
X37863668Y-62048398D01*
X37869934Y-62053046D01*
X37875715Y-62058285D01*
X37880954Y-62064066D01*
X37885602Y-62070332D01*
X37889613Y-62077024D01*
X37892948Y-62084077D01*
X37895577Y-62091422D01*
X37897472Y-62098990D01*
X37898617Y-62106708D01*
X37899000Y-62114500D01*
X37899000Y-62273500D01*
X37898617Y-62281292D01*
X37897472Y-62289010D01*
X37895577Y-62296578D01*
X37892948Y-62303923D01*
X37889613Y-62310976D01*
X37885602Y-62317668D01*
X37880954Y-62323934D01*
X37875715Y-62329715D01*
X37869934Y-62334954D01*
X37863668Y-62339602D01*
X37856976Y-62343613D01*
X37849923Y-62346948D01*
X37842578Y-62349577D01*
X37835010Y-62351472D01*
X37827292Y-62352617D01*
X37819500Y-62353000D01*
X37618500Y-62353000D01*
X37610708Y-62352617D01*
X37602990Y-62351472D01*
X37595422Y-62349577D01*
X37588077Y-62346948D01*
X37581024Y-62343613D01*
X37574332Y-62339602D01*
X37568066Y-62334954D01*
X37562285Y-62329715D01*
X37557046Y-62323934D01*
X37552398Y-62317668D01*
X37548387Y-62310976D01*
X37545052Y-62303923D01*
X37542423Y-62296578D01*
X37540528Y-62289010D01*
X37539383Y-62281292D01*
X37539000Y-62273500D01*
X37539000Y-62114500D01*
X37539383Y-62106708D01*
X37540528Y-62098990D01*
X37542423Y-62091422D01*
X37545052Y-62084077D01*
X37548387Y-62077024D01*
X37552398Y-62070332D01*
X37557046Y-62064066D01*
X37562285Y-62058285D01*
X37568066Y-62053046D01*
X37574332Y-62048398D01*
X37581024Y-62044387D01*
X37588077Y-62041052D01*
X37595422Y-62038423D01*
X37602990Y-62036528D01*
X37610708Y-62035383D01*
X37618500Y-62035000D01*
X37819500Y-62035000D01*
X37827292Y-62035383D01*
X37827292Y-62035383D01*
G37*
D11*
X37719000Y-62194000D03*
D10*
G36*
X52674505Y-40170204D02*
G01*
X52698773Y-40173804D01*
X52722572Y-40179765D01*
X52745671Y-40188030D01*
X52767850Y-40198520D01*
X52788893Y-40211132D01*
X52808599Y-40225747D01*
X52826777Y-40242223D01*
X52843253Y-40260401D01*
X52857868Y-40280107D01*
X52870480Y-40301150D01*
X52880970Y-40323329D01*
X52889235Y-40346428D01*
X52895196Y-40370227D01*
X52898796Y-40394495D01*
X52900000Y-40418999D01*
X52900000Y-41119001D01*
X52898796Y-41143505D01*
X52895196Y-41167773D01*
X52889235Y-41191572D01*
X52880970Y-41214671D01*
X52870480Y-41236850D01*
X52857868Y-41257893D01*
X52843253Y-41277599D01*
X52826777Y-41295777D01*
X52808599Y-41312253D01*
X52788893Y-41326868D01*
X52767850Y-41339480D01*
X52745671Y-41349970D01*
X52722572Y-41358235D01*
X52698773Y-41364196D01*
X52674505Y-41367796D01*
X52650001Y-41369000D01*
X51349999Y-41369000D01*
X51325495Y-41367796D01*
X51301227Y-41364196D01*
X51277428Y-41358235D01*
X51254329Y-41349970D01*
X51232150Y-41339480D01*
X51211107Y-41326868D01*
X51191401Y-41312253D01*
X51173223Y-41295777D01*
X51156747Y-41277599D01*
X51142132Y-41257893D01*
X51129520Y-41236850D01*
X51119030Y-41214671D01*
X51110765Y-41191572D01*
X51104804Y-41167773D01*
X51101204Y-41143505D01*
X51100000Y-41119001D01*
X51100000Y-40418999D01*
X51101204Y-40394495D01*
X51104804Y-40370227D01*
X51110765Y-40346428D01*
X51119030Y-40323329D01*
X51129520Y-40301150D01*
X51142132Y-40280107D01*
X51156747Y-40260401D01*
X51173223Y-40242223D01*
X51191401Y-40225747D01*
X51211107Y-40211132D01*
X51232150Y-40198520D01*
X51254329Y-40188030D01*
X51277428Y-40179765D01*
X51301227Y-40173804D01*
X51325495Y-40170204D01*
X51349999Y-40169000D01*
X52650001Y-40169000D01*
X52674505Y-40170204D01*
X52674505Y-40170204D01*
G37*
D12*
X52000000Y-40769000D03*
D10*
G36*
X52674505Y-46770204D02*
G01*
X52698773Y-46773804D01*
X52722572Y-46779765D01*
X52745671Y-46788030D01*
X52767850Y-46798520D01*
X52788893Y-46811132D01*
X52808599Y-46825747D01*
X52826777Y-46842223D01*
X52843253Y-46860401D01*
X52857868Y-46880107D01*
X52870480Y-46901150D01*
X52880970Y-46923329D01*
X52889235Y-46946428D01*
X52895196Y-46970227D01*
X52898796Y-46994495D01*
X52900000Y-47018999D01*
X52900000Y-47719001D01*
X52898796Y-47743505D01*
X52895196Y-47767773D01*
X52889235Y-47791572D01*
X52880970Y-47814671D01*
X52870480Y-47836850D01*
X52857868Y-47857893D01*
X52843253Y-47877599D01*
X52826777Y-47895777D01*
X52808599Y-47912253D01*
X52788893Y-47926868D01*
X52767850Y-47939480D01*
X52745671Y-47949970D01*
X52722572Y-47958235D01*
X52698773Y-47964196D01*
X52674505Y-47967796D01*
X52650001Y-47969000D01*
X51349999Y-47969000D01*
X51325495Y-47967796D01*
X51301227Y-47964196D01*
X51277428Y-47958235D01*
X51254329Y-47949970D01*
X51232150Y-47939480D01*
X51211107Y-47926868D01*
X51191401Y-47912253D01*
X51173223Y-47895777D01*
X51156747Y-47877599D01*
X51142132Y-47857893D01*
X51129520Y-47836850D01*
X51119030Y-47814671D01*
X51110765Y-47791572D01*
X51104804Y-47767773D01*
X51101204Y-47743505D01*
X51100000Y-47719001D01*
X51100000Y-47018999D01*
X51101204Y-46994495D01*
X51104804Y-46970227D01*
X51110765Y-46946428D01*
X51119030Y-46923329D01*
X51129520Y-46901150D01*
X51142132Y-46880107D01*
X51156747Y-46860401D01*
X51173223Y-46842223D01*
X51191401Y-46825747D01*
X51211107Y-46811132D01*
X51232150Y-46798520D01*
X51254329Y-46788030D01*
X51277428Y-46779765D01*
X51301227Y-46773804D01*
X51325495Y-46770204D01*
X51349999Y-46769000D01*
X52650001Y-46769000D01*
X52674505Y-46770204D01*
X52674505Y-46770204D01*
G37*
D12*
X52000000Y-47369000D03*
D10*
G36*
X50114703Y-41769722D02*
G01*
X50129264Y-41771882D01*
X50143543Y-41775459D01*
X50157403Y-41780418D01*
X50170710Y-41786712D01*
X50183336Y-41794280D01*
X50195159Y-41803048D01*
X50206066Y-41812934D01*
X50215952Y-41823841D01*
X50224720Y-41835664D01*
X50232288Y-41848290D01*
X50238582Y-41861597D01*
X50243541Y-41875457D01*
X50247118Y-41889736D01*
X50249278Y-41904297D01*
X50250000Y-41919000D01*
X50250000Y-42219000D01*
X50249278Y-42233703D01*
X50247118Y-42248264D01*
X50243541Y-42262543D01*
X50238582Y-42276403D01*
X50232288Y-42289710D01*
X50224720Y-42302336D01*
X50215952Y-42314159D01*
X50206066Y-42325066D01*
X50195159Y-42334952D01*
X50183336Y-42343720D01*
X50170710Y-42351288D01*
X50157403Y-42357582D01*
X50143543Y-42362541D01*
X50129264Y-42366118D01*
X50114703Y-42368278D01*
X50100000Y-42369000D01*
X48850000Y-42369000D01*
X48835297Y-42368278D01*
X48820736Y-42366118D01*
X48806457Y-42362541D01*
X48792597Y-42357582D01*
X48779290Y-42351288D01*
X48766664Y-42343720D01*
X48754841Y-42334952D01*
X48743934Y-42325066D01*
X48734048Y-42314159D01*
X48725280Y-42302336D01*
X48717712Y-42289710D01*
X48711418Y-42276403D01*
X48706459Y-42262543D01*
X48702882Y-42248264D01*
X48700722Y-42233703D01*
X48700000Y-42219000D01*
X48700000Y-41919000D01*
X48700722Y-41904297D01*
X48702882Y-41889736D01*
X48706459Y-41875457D01*
X48711418Y-41861597D01*
X48717712Y-41848290D01*
X48725280Y-41835664D01*
X48734048Y-41823841D01*
X48743934Y-41812934D01*
X48754841Y-41803048D01*
X48766664Y-41794280D01*
X48779290Y-41786712D01*
X48792597Y-41780418D01*
X48806457Y-41775459D01*
X48820736Y-41771882D01*
X48835297Y-41769722D01*
X48850000Y-41769000D01*
X50100000Y-41769000D01*
X50114703Y-41769722D01*
X50114703Y-41769722D01*
G37*
D13*
X49475000Y-42069000D03*
D10*
G36*
X50114703Y-42769722D02*
G01*
X50129264Y-42771882D01*
X50143543Y-42775459D01*
X50157403Y-42780418D01*
X50170710Y-42786712D01*
X50183336Y-42794280D01*
X50195159Y-42803048D01*
X50206066Y-42812934D01*
X50215952Y-42823841D01*
X50224720Y-42835664D01*
X50232288Y-42848290D01*
X50238582Y-42861597D01*
X50243541Y-42875457D01*
X50247118Y-42889736D01*
X50249278Y-42904297D01*
X50250000Y-42919000D01*
X50250000Y-43219000D01*
X50249278Y-43233703D01*
X50247118Y-43248264D01*
X50243541Y-43262543D01*
X50238582Y-43276403D01*
X50232288Y-43289710D01*
X50224720Y-43302336D01*
X50215952Y-43314159D01*
X50206066Y-43325066D01*
X50195159Y-43334952D01*
X50183336Y-43343720D01*
X50170710Y-43351288D01*
X50157403Y-43357582D01*
X50143543Y-43362541D01*
X50129264Y-43366118D01*
X50114703Y-43368278D01*
X50100000Y-43369000D01*
X48850000Y-43369000D01*
X48835297Y-43368278D01*
X48820736Y-43366118D01*
X48806457Y-43362541D01*
X48792597Y-43357582D01*
X48779290Y-43351288D01*
X48766664Y-43343720D01*
X48754841Y-43334952D01*
X48743934Y-43325066D01*
X48734048Y-43314159D01*
X48725280Y-43302336D01*
X48717712Y-43289710D01*
X48711418Y-43276403D01*
X48706459Y-43262543D01*
X48702882Y-43248264D01*
X48700722Y-43233703D01*
X48700000Y-43219000D01*
X48700000Y-42919000D01*
X48700722Y-42904297D01*
X48702882Y-42889736D01*
X48706459Y-42875457D01*
X48711418Y-42861597D01*
X48717712Y-42848290D01*
X48725280Y-42835664D01*
X48734048Y-42823841D01*
X48743934Y-42812934D01*
X48754841Y-42803048D01*
X48766664Y-42794280D01*
X48779290Y-42786712D01*
X48792597Y-42780418D01*
X48806457Y-42775459D01*
X48820736Y-42771882D01*
X48835297Y-42769722D01*
X48850000Y-42769000D01*
X50100000Y-42769000D01*
X50114703Y-42769722D01*
X50114703Y-42769722D01*
G37*
D13*
X49475000Y-43069000D03*
D10*
G36*
X50114703Y-43769722D02*
G01*
X50129264Y-43771882D01*
X50143543Y-43775459D01*
X50157403Y-43780418D01*
X50170710Y-43786712D01*
X50183336Y-43794280D01*
X50195159Y-43803048D01*
X50206066Y-43812934D01*
X50215952Y-43823841D01*
X50224720Y-43835664D01*
X50232288Y-43848290D01*
X50238582Y-43861597D01*
X50243541Y-43875457D01*
X50247118Y-43889736D01*
X50249278Y-43904297D01*
X50250000Y-43919000D01*
X50250000Y-44219000D01*
X50249278Y-44233703D01*
X50247118Y-44248264D01*
X50243541Y-44262543D01*
X50238582Y-44276403D01*
X50232288Y-44289710D01*
X50224720Y-44302336D01*
X50215952Y-44314159D01*
X50206066Y-44325066D01*
X50195159Y-44334952D01*
X50183336Y-44343720D01*
X50170710Y-44351288D01*
X50157403Y-44357582D01*
X50143543Y-44362541D01*
X50129264Y-44366118D01*
X50114703Y-44368278D01*
X50100000Y-44369000D01*
X48850000Y-44369000D01*
X48835297Y-44368278D01*
X48820736Y-44366118D01*
X48806457Y-44362541D01*
X48792597Y-44357582D01*
X48779290Y-44351288D01*
X48766664Y-44343720D01*
X48754841Y-44334952D01*
X48743934Y-44325066D01*
X48734048Y-44314159D01*
X48725280Y-44302336D01*
X48717712Y-44289710D01*
X48711418Y-44276403D01*
X48706459Y-44262543D01*
X48702882Y-44248264D01*
X48700722Y-44233703D01*
X48700000Y-44219000D01*
X48700000Y-43919000D01*
X48700722Y-43904297D01*
X48702882Y-43889736D01*
X48706459Y-43875457D01*
X48711418Y-43861597D01*
X48717712Y-43848290D01*
X48725280Y-43835664D01*
X48734048Y-43823841D01*
X48743934Y-43812934D01*
X48754841Y-43803048D01*
X48766664Y-43794280D01*
X48779290Y-43786712D01*
X48792597Y-43780418D01*
X48806457Y-43775459D01*
X48820736Y-43771882D01*
X48835297Y-43769722D01*
X48850000Y-43769000D01*
X50100000Y-43769000D01*
X50114703Y-43769722D01*
X50114703Y-43769722D01*
G37*
D13*
X49475000Y-44069000D03*
D10*
G36*
X50114703Y-44769722D02*
G01*
X50129264Y-44771882D01*
X50143543Y-44775459D01*
X50157403Y-44780418D01*
X50170710Y-44786712D01*
X50183336Y-44794280D01*
X50195159Y-44803048D01*
X50206066Y-44812934D01*
X50215952Y-44823841D01*
X50224720Y-44835664D01*
X50232288Y-44848290D01*
X50238582Y-44861597D01*
X50243541Y-44875457D01*
X50247118Y-44889736D01*
X50249278Y-44904297D01*
X50250000Y-44919000D01*
X50250000Y-45219000D01*
X50249278Y-45233703D01*
X50247118Y-45248264D01*
X50243541Y-45262543D01*
X50238582Y-45276403D01*
X50232288Y-45289710D01*
X50224720Y-45302336D01*
X50215952Y-45314159D01*
X50206066Y-45325066D01*
X50195159Y-45334952D01*
X50183336Y-45343720D01*
X50170710Y-45351288D01*
X50157403Y-45357582D01*
X50143543Y-45362541D01*
X50129264Y-45366118D01*
X50114703Y-45368278D01*
X50100000Y-45369000D01*
X48850000Y-45369000D01*
X48835297Y-45368278D01*
X48820736Y-45366118D01*
X48806457Y-45362541D01*
X48792597Y-45357582D01*
X48779290Y-45351288D01*
X48766664Y-45343720D01*
X48754841Y-45334952D01*
X48743934Y-45325066D01*
X48734048Y-45314159D01*
X48725280Y-45302336D01*
X48717712Y-45289710D01*
X48711418Y-45276403D01*
X48706459Y-45262543D01*
X48702882Y-45248264D01*
X48700722Y-45233703D01*
X48700000Y-45219000D01*
X48700000Y-44919000D01*
X48700722Y-44904297D01*
X48702882Y-44889736D01*
X48706459Y-44875457D01*
X48711418Y-44861597D01*
X48717712Y-44848290D01*
X48725280Y-44835664D01*
X48734048Y-44823841D01*
X48743934Y-44812934D01*
X48754841Y-44803048D01*
X48766664Y-44794280D01*
X48779290Y-44786712D01*
X48792597Y-44780418D01*
X48806457Y-44775459D01*
X48820736Y-44771882D01*
X48835297Y-44769722D01*
X48850000Y-44769000D01*
X50100000Y-44769000D01*
X50114703Y-44769722D01*
X50114703Y-44769722D01*
G37*
D13*
X49475000Y-45069000D03*
D10*
G36*
X50114703Y-45769722D02*
G01*
X50129264Y-45771882D01*
X50143543Y-45775459D01*
X50157403Y-45780418D01*
X50170710Y-45786712D01*
X50183336Y-45794280D01*
X50195159Y-45803048D01*
X50206066Y-45812934D01*
X50215952Y-45823841D01*
X50224720Y-45835664D01*
X50232288Y-45848290D01*
X50238582Y-45861597D01*
X50243541Y-45875457D01*
X50247118Y-45889736D01*
X50249278Y-45904297D01*
X50250000Y-45919000D01*
X50250000Y-46219000D01*
X50249278Y-46233703D01*
X50247118Y-46248264D01*
X50243541Y-46262543D01*
X50238582Y-46276403D01*
X50232288Y-46289710D01*
X50224720Y-46302336D01*
X50215952Y-46314159D01*
X50206066Y-46325066D01*
X50195159Y-46334952D01*
X50183336Y-46343720D01*
X50170710Y-46351288D01*
X50157403Y-46357582D01*
X50143543Y-46362541D01*
X50129264Y-46366118D01*
X50114703Y-46368278D01*
X50100000Y-46369000D01*
X48850000Y-46369000D01*
X48835297Y-46368278D01*
X48820736Y-46366118D01*
X48806457Y-46362541D01*
X48792597Y-46357582D01*
X48779290Y-46351288D01*
X48766664Y-46343720D01*
X48754841Y-46334952D01*
X48743934Y-46325066D01*
X48734048Y-46314159D01*
X48725280Y-46302336D01*
X48717712Y-46289710D01*
X48711418Y-46276403D01*
X48706459Y-46262543D01*
X48702882Y-46248264D01*
X48700722Y-46233703D01*
X48700000Y-46219000D01*
X48700000Y-45919000D01*
X48700722Y-45904297D01*
X48702882Y-45889736D01*
X48706459Y-45875457D01*
X48711418Y-45861597D01*
X48717712Y-45848290D01*
X48725280Y-45835664D01*
X48734048Y-45823841D01*
X48743934Y-45812934D01*
X48754841Y-45803048D01*
X48766664Y-45794280D01*
X48779290Y-45786712D01*
X48792597Y-45780418D01*
X48806457Y-45775459D01*
X48820736Y-45771882D01*
X48835297Y-45769722D01*
X48850000Y-45769000D01*
X50100000Y-45769000D01*
X50114703Y-45769722D01*
X50114703Y-45769722D01*
G37*
D13*
X49475000Y-46069000D03*
D14*
X34671000Y-24130000D03*
D15*
X36141000Y-24880000D03*
X36141000Y-24380000D03*
X36141000Y-23880000D03*
X36141000Y-23380000D03*
X33201000Y-23380000D03*
X33201000Y-23880000D03*
X33201000Y-24380000D03*
X33201000Y-24880000D03*
D16*
X33921000Y-25600000D03*
X34421000Y-25600000D03*
X34921000Y-25600000D03*
X35421000Y-25600000D03*
X35421000Y-22660000D03*
X34921000Y-22660000D03*
X34421000Y-22660000D03*
X33921000Y-22660000D03*
D10*
G36*
X31365292Y-23569383D02*
G01*
X31373010Y-23570528D01*
X31380578Y-23572423D01*
X31387923Y-23575052D01*
X31394976Y-23578387D01*
X31401668Y-23582398D01*
X31407934Y-23587046D01*
X31413715Y-23592285D01*
X31418954Y-23598066D01*
X31423602Y-23604332D01*
X31427613Y-23611024D01*
X31430948Y-23618077D01*
X31433577Y-23625422D01*
X31435472Y-23632990D01*
X31436617Y-23640708D01*
X31437000Y-23648500D01*
X31437000Y-23849500D01*
X31436617Y-23857292D01*
X31435472Y-23865010D01*
X31433577Y-23872578D01*
X31430948Y-23879923D01*
X31427613Y-23886976D01*
X31423602Y-23893668D01*
X31418954Y-23899934D01*
X31413715Y-23905715D01*
X31407934Y-23910954D01*
X31401668Y-23915602D01*
X31394976Y-23919613D01*
X31387923Y-23922948D01*
X31380578Y-23925577D01*
X31373010Y-23927472D01*
X31365292Y-23928617D01*
X31357500Y-23929000D01*
X31198500Y-23929000D01*
X31190708Y-23928617D01*
X31182990Y-23927472D01*
X31175422Y-23925577D01*
X31168077Y-23922948D01*
X31161024Y-23919613D01*
X31154332Y-23915602D01*
X31148066Y-23910954D01*
X31142285Y-23905715D01*
X31137046Y-23899934D01*
X31132398Y-23893668D01*
X31128387Y-23886976D01*
X31125052Y-23879923D01*
X31122423Y-23872578D01*
X31120528Y-23865010D01*
X31119383Y-23857292D01*
X31119000Y-23849500D01*
X31119000Y-23648500D01*
X31119383Y-23640708D01*
X31120528Y-23632990D01*
X31122423Y-23625422D01*
X31125052Y-23618077D01*
X31128387Y-23611024D01*
X31132398Y-23604332D01*
X31137046Y-23598066D01*
X31142285Y-23592285D01*
X31148066Y-23587046D01*
X31154332Y-23582398D01*
X31161024Y-23578387D01*
X31168077Y-23575052D01*
X31175422Y-23572423D01*
X31182990Y-23570528D01*
X31190708Y-23569383D01*
X31198500Y-23569000D01*
X31357500Y-23569000D01*
X31365292Y-23569383D01*
X31365292Y-23569383D01*
G37*
D11*
X31278000Y-23749000D03*
D10*
G36*
X32055292Y-23569383D02*
G01*
X32063010Y-23570528D01*
X32070578Y-23572423D01*
X32077923Y-23575052D01*
X32084976Y-23578387D01*
X32091668Y-23582398D01*
X32097934Y-23587046D01*
X32103715Y-23592285D01*
X32108954Y-23598066D01*
X32113602Y-23604332D01*
X32117613Y-23611024D01*
X32120948Y-23618077D01*
X32123577Y-23625422D01*
X32125472Y-23632990D01*
X32126617Y-23640708D01*
X32127000Y-23648500D01*
X32127000Y-23849500D01*
X32126617Y-23857292D01*
X32125472Y-23865010D01*
X32123577Y-23872578D01*
X32120948Y-23879923D01*
X32117613Y-23886976D01*
X32113602Y-23893668D01*
X32108954Y-23899934D01*
X32103715Y-23905715D01*
X32097934Y-23910954D01*
X32091668Y-23915602D01*
X32084976Y-23919613D01*
X32077923Y-23922948D01*
X32070578Y-23925577D01*
X32063010Y-23927472D01*
X32055292Y-23928617D01*
X32047500Y-23929000D01*
X31888500Y-23929000D01*
X31880708Y-23928617D01*
X31872990Y-23927472D01*
X31865422Y-23925577D01*
X31858077Y-23922948D01*
X31851024Y-23919613D01*
X31844332Y-23915602D01*
X31838066Y-23910954D01*
X31832285Y-23905715D01*
X31827046Y-23899934D01*
X31822398Y-23893668D01*
X31818387Y-23886976D01*
X31815052Y-23879923D01*
X31812423Y-23872578D01*
X31810528Y-23865010D01*
X31809383Y-23857292D01*
X31809000Y-23849500D01*
X31809000Y-23648500D01*
X31809383Y-23640708D01*
X31810528Y-23632990D01*
X31812423Y-23625422D01*
X31815052Y-23618077D01*
X31818387Y-23611024D01*
X31822398Y-23604332D01*
X31827046Y-23598066D01*
X31832285Y-23592285D01*
X31838066Y-23587046D01*
X31844332Y-23582398D01*
X31851024Y-23578387D01*
X31858077Y-23575052D01*
X31865422Y-23572423D01*
X31872990Y-23570528D01*
X31880708Y-23569383D01*
X31888500Y-23569000D01*
X32047500Y-23569000D01*
X32055292Y-23569383D01*
X32055292Y-23569383D01*
G37*
D11*
X31968000Y-23749000D03*
D10*
G36*
X24961505Y-37114204D02*
G01*
X24985773Y-37117804D01*
X25009572Y-37123765D01*
X25032671Y-37132030D01*
X25054850Y-37142520D01*
X25075893Y-37155132D01*
X25095599Y-37169747D01*
X25113777Y-37186223D01*
X25130253Y-37204401D01*
X25144868Y-37224107D01*
X25157480Y-37245150D01*
X25167970Y-37267329D01*
X25176235Y-37290428D01*
X25182196Y-37314227D01*
X25185796Y-37338495D01*
X25187000Y-37362999D01*
X25187000Y-38063001D01*
X25185796Y-38087505D01*
X25182196Y-38111773D01*
X25176235Y-38135572D01*
X25167970Y-38158671D01*
X25157480Y-38180850D01*
X25144868Y-38201893D01*
X25130253Y-38221599D01*
X25113777Y-38239777D01*
X25095599Y-38256253D01*
X25075893Y-38270868D01*
X25054850Y-38283480D01*
X25032671Y-38293970D01*
X25009572Y-38302235D01*
X24985773Y-38308196D01*
X24961505Y-38311796D01*
X24937001Y-38313000D01*
X23636999Y-38313000D01*
X23612495Y-38311796D01*
X23588227Y-38308196D01*
X23564428Y-38302235D01*
X23541329Y-38293970D01*
X23519150Y-38283480D01*
X23498107Y-38270868D01*
X23478401Y-38256253D01*
X23460223Y-38239777D01*
X23443747Y-38221599D01*
X23429132Y-38201893D01*
X23416520Y-38180850D01*
X23406030Y-38158671D01*
X23397765Y-38135572D01*
X23391804Y-38111773D01*
X23388204Y-38087505D01*
X23387000Y-38063001D01*
X23387000Y-37362999D01*
X23388204Y-37338495D01*
X23391804Y-37314227D01*
X23397765Y-37290428D01*
X23406030Y-37267329D01*
X23416520Y-37245150D01*
X23429132Y-37224107D01*
X23443747Y-37204401D01*
X23460223Y-37186223D01*
X23478401Y-37169747D01*
X23498107Y-37155132D01*
X23519150Y-37142520D01*
X23541329Y-37132030D01*
X23564428Y-37123765D01*
X23588227Y-37117804D01*
X23612495Y-37114204D01*
X23636999Y-37113000D01*
X24937001Y-37113000D01*
X24961505Y-37114204D01*
X24961505Y-37114204D01*
G37*
D12*
X24287000Y-37713000D03*
D10*
G36*
X24961505Y-42714204D02*
G01*
X24985773Y-42717804D01*
X25009572Y-42723765D01*
X25032671Y-42732030D01*
X25054850Y-42742520D01*
X25075893Y-42755132D01*
X25095599Y-42769747D01*
X25113777Y-42786223D01*
X25130253Y-42804401D01*
X25144868Y-42824107D01*
X25157480Y-42845150D01*
X25167970Y-42867329D01*
X25176235Y-42890428D01*
X25182196Y-42914227D01*
X25185796Y-42938495D01*
X25187000Y-42962999D01*
X25187000Y-43663001D01*
X25185796Y-43687505D01*
X25182196Y-43711773D01*
X25176235Y-43735572D01*
X25167970Y-43758671D01*
X25157480Y-43780850D01*
X25144868Y-43801893D01*
X25130253Y-43821599D01*
X25113777Y-43839777D01*
X25095599Y-43856253D01*
X25075893Y-43870868D01*
X25054850Y-43883480D01*
X25032671Y-43893970D01*
X25009572Y-43902235D01*
X24985773Y-43908196D01*
X24961505Y-43911796D01*
X24937001Y-43913000D01*
X23636999Y-43913000D01*
X23612495Y-43911796D01*
X23588227Y-43908196D01*
X23564428Y-43902235D01*
X23541329Y-43893970D01*
X23519150Y-43883480D01*
X23498107Y-43870868D01*
X23478401Y-43856253D01*
X23460223Y-43839777D01*
X23443747Y-43821599D01*
X23429132Y-43801893D01*
X23416520Y-43780850D01*
X23406030Y-43758671D01*
X23397765Y-43735572D01*
X23391804Y-43711773D01*
X23388204Y-43687505D01*
X23387000Y-43663001D01*
X23387000Y-42962999D01*
X23388204Y-42938495D01*
X23391804Y-42914227D01*
X23397765Y-42890428D01*
X23406030Y-42867329D01*
X23416520Y-42845150D01*
X23429132Y-42824107D01*
X23443747Y-42804401D01*
X23460223Y-42786223D01*
X23478401Y-42769747D01*
X23498107Y-42755132D01*
X23519150Y-42742520D01*
X23541329Y-42732030D01*
X23564428Y-42723765D01*
X23588227Y-42717804D01*
X23612495Y-42714204D01*
X23636999Y-42713000D01*
X24937001Y-42713000D01*
X24961505Y-42714204D01*
X24961505Y-42714204D01*
G37*
D12*
X24287000Y-43313000D03*
D10*
G36*
X28801703Y-38713722D02*
G01*
X28816264Y-38715882D01*
X28830543Y-38719459D01*
X28844403Y-38724418D01*
X28857710Y-38730712D01*
X28870336Y-38738280D01*
X28882159Y-38747048D01*
X28893066Y-38756934D01*
X28902952Y-38767841D01*
X28911720Y-38779664D01*
X28919288Y-38792290D01*
X28925582Y-38805597D01*
X28930541Y-38819457D01*
X28934118Y-38833736D01*
X28936278Y-38848297D01*
X28937000Y-38863000D01*
X28937000Y-39163000D01*
X28936278Y-39177703D01*
X28934118Y-39192264D01*
X28930541Y-39206543D01*
X28925582Y-39220403D01*
X28919288Y-39233710D01*
X28911720Y-39246336D01*
X28902952Y-39258159D01*
X28893066Y-39269066D01*
X28882159Y-39278952D01*
X28870336Y-39287720D01*
X28857710Y-39295288D01*
X28844403Y-39301582D01*
X28830543Y-39306541D01*
X28816264Y-39310118D01*
X28801703Y-39312278D01*
X28787000Y-39313000D01*
X27537000Y-39313000D01*
X27522297Y-39312278D01*
X27507736Y-39310118D01*
X27493457Y-39306541D01*
X27479597Y-39301582D01*
X27466290Y-39295288D01*
X27453664Y-39287720D01*
X27441841Y-39278952D01*
X27430934Y-39269066D01*
X27421048Y-39258159D01*
X27412280Y-39246336D01*
X27404712Y-39233710D01*
X27398418Y-39220403D01*
X27393459Y-39206543D01*
X27389882Y-39192264D01*
X27387722Y-39177703D01*
X27387000Y-39163000D01*
X27387000Y-38863000D01*
X27387722Y-38848297D01*
X27389882Y-38833736D01*
X27393459Y-38819457D01*
X27398418Y-38805597D01*
X27404712Y-38792290D01*
X27412280Y-38779664D01*
X27421048Y-38767841D01*
X27430934Y-38756934D01*
X27441841Y-38747048D01*
X27453664Y-38738280D01*
X27466290Y-38730712D01*
X27479597Y-38724418D01*
X27493457Y-38719459D01*
X27507736Y-38715882D01*
X27522297Y-38713722D01*
X27537000Y-38713000D01*
X28787000Y-38713000D01*
X28801703Y-38713722D01*
X28801703Y-38713722D01*
G37*
D13*
X28162000Y-39013000D03*
D10*
G36*
X28801703Y-39713722D02*
G01*
X28816264Y-39715882D01*
X28830543Y-39719459D01*
X28844403Y-39724418D01*
X28857710Y-39730712D01*
X28870336Y-39738280D01*
X28882159Y-39747048D01*
X28893066Y-39756934D01*
X28902952Y-39767841D01*
X28911720Y-39779664D01*
X28919288Y-39792290D01*
X28925582Y-39805597D01*
X28930541Y-39819457D01*
X28934118Y-39833736D01*
X28936278Y-39848297D01*
X28937000Y-39863000D01*
X28937000Y-40163000D01*
X28936278Y-40177703D01*
X28934118Y-40192264D01*
X28930541Y-40206543D01*
X28925582Y-40220403D01*
X28919288Y-40233710D01*
X28911720Y-40246336D01*
X28902952Y-40258159D01*
X28893066Y-40269066D01*
X28882159Y-40278952D01*
X28870336Y-40287720D01*
X28857710Y-40295288D01*
X28844403Y-40301582D01*
X28830543Y-40306541D01*
X28816264Y-40310118D01*
X28801703Y-40312278D01*
X28787000Y-40313000D01*
X27537000Y-40313000D01*
X27522297Y-40312278D01*
X27507736Y-40310118D01*
X27493457Y-40306541D01*
X27479597Y-40301582D01*
X27466290Y-40295288D01*
X27453664Y-40287720D01*
X27441841Y-40278952D01*
X27430934Y-40269066D01*
X27421048Y-40258159D01*
X27412280Y-40246336D01*
X27404712Y-40233710D01*
X27398418Y-40220403D01*
X27393459Y-40206543D01*
X27389882Y-40192264D01*
X27387722Y-40177703D01*
X27387000Y-40163000D01*
X27387000Y-39863000D01*
X27387722Y-39848297D01*
X27389882Y-39833736D01*
X27393459Y-39819457D01*
X27398418Y-39805597D01*
X27404712Y-39792290D01*
X27412280Y-39779664D01*
X27421048Y-39767841D01*
X27430934Y-39756934D01*
X27441841Y-39747048D01*
X27453664Y-39738280D01*
X27466290Y-39730712D01*
X27479597Y-39724418D01*
X27493457Y-39719459D01*
X27507736Y-39715882D01*
X27522297Y-39713722D01*
X27537000Y-39713000D01*
X28787000Y-39713000D01*
X28801703Y-39713722D01*
X28801703Y-39713722D01*
G37*
D13*
X28162000Y-40013000D03*
D10*
G36*
X28801703Y-40713722D02*
G01*
X28816264Y-40715882D01*
X28830543Y-40719459D01*
X28844403Y-40724418D01*
X28857710Y-40730712D01*
X28870336Y-40738280D01*
X28882159Y-40747048D01*
X28893066Y-40756934D01*
X28902952Y-40767841D01*
X28911720Y-40779664D01*
X28919288Y-40792290D01*
X28925582Y-40805597D01*
X28930541Y-40819457D01*
X28934118Y-40833736D01*
X28936278Y-40848297D01*
X28937000Y-40863000D01*
X28937000Y-41163000D01*
X28936278Y-41177703D01*
X28934118Y-41192264D01*
X28930541Y-41206543D01*
X28925582Y-41220403D01*
X28919288Y-41233710D01*
X28911720Y-41246336D01*
X28902952Y-41258159D01*
X28893066Y-41269066D01*
X28882159Y-41278952D01*
X28870336Y-41287720D01*
X28857710Y-41295288D01*
X28844403Y-41301582D01*
X28830543Y-41306541D01*
X28816264Y-41310118D01*
X28801703Y-41312278D01*
X28787000Y-41313000D01*
X27537000Y-41313000D01*
X27522297Y-41312278D01*
X27507736Y-41310118D01*
X27493457Y-41306541D01*
X27479597Y-41301582D01*
X27466290Y-41295288D01*
X27453664Y-41287720D01*
X27441841Y-41278952D01*
X27430934Y-41269066D01*
X27421048Y-41258159D01*
X27412280Y-41246336D01*
X27404712Y-41233710D01*
X27398418Y-41220403D01*
X27393459Y-41206543D01*
X27389882Y-41192264D01*
X27387722Y-41177703D01*
X27387000Y-41163000D01*
X27387000Y-40863000D01*
X27387722Y-40848297D01*
X27389882Y-40833736D01*
X27393459Y-40819457D01*
X27398418Y-40805597D01*
X27404712Y-40792290D01*
X27412280Y-40779664D01*
X27421048Y-40767841D01*
X27430934Y-40756934D01*
X27441841Y-40747048D01*
X27453664Y-40738280D01*
X27466290Y-40730712D01*
X27479597Y-40724418D01*
X27493457Y-40719459D01*
X27507736Y-40715882D01*
X27522297Y-40713722D01*
X27537000Y-40713000D01*
X28787000Y-40713000D01*
X28801703Y-40713722D01*
X28801703Y-40713722D01*
G37*
D13*
X28162000Y-41013000D03*
D10*
G36*
X28801703Y-41713722D02*
G01*
X28816264Y-41715882D01*
X28830543Y-41719459D01*
X28844403Y-41724418D01*
X28857710Y-41730712D01*
X28870336Y-41738280D01*
X28882159Y-41747048D01*
X28893066Y-41756934D01*
X28902952Y-41767841D01*
X28911720Y-41779664D01*
X28919288Y-41792290D01*
X28925582Y-41805597D01*
X28930541Y-41819457D01*
X28934118Y-41833736D01*
X28936278Y-41848297D01*
X28937000Y-41863000D01*
X28937000Y-42163000D01*
X28936278Y-42177703D01*
X28934118Y-42192264D01*
X28930541Y-42206543D01*
X28925582Y-42220403D01*
X28919288Y-42233710D01*
X28911720Y-42246336D01*
X28902952Y-42258159D01*
X28893066Y-42269066D01*
X28882159Y-42278952D01*
X28870336Y-42287720D01*
X28857710Y-42295288D01*
X28844403Y-42301582D01*
X28830543Y-42306541D01*
X28816264Y-42310118D01*
X28801703Y-42312278D01*
X28787000Y-42313000D01*
X27537000Y-42313000D01*
X27522297Y-42312278D01*
X27507736Y-42310118D01*
X27493457Y-42306541D01*
X27479597Y-42301582D01*
X27466290Y-42295288D01*
X27453664Y-42287720D01*
X27441841Y-42278952D01*
X27430934Y-42269066D01*
X27421048Y-42258159D01*
X27412280Y-42246336D01*
X27404712Y-42233710D01*
X27398418Y-42220403D01*
X27393459Y-42206543D01*
X27389882Y-42192264D01*
X27387722Y-42177703D01*
X27387000Y-42163000D01*
X27387000Y-41863000D01*
X27387722Y-41848297D01*
X27389882Y-41833736D01*
X27393459Y-41819457D01*
X27398418Y-41805597D01*
X27404712Y-41792290D01*
X27412280Y-41779664D01*
X27421048Y-41767841D01*
X27430934Y-41756934D01*
X27441841Y-41747048D01*
X27453664Y-41738280D01*
X27466290Y-41730712D01*
X27479597Y-41724418D01*
X27493457Y-41719459D01*
X27507736Y-41715882D01*
X27522297Y-41713722D01*
X27537000Y-41713000D01*
X28787000Y-41713000D01*
X28801703Y-41713722D01*
X28801703Y-41713722D01*
G37*
D13*
X28162000Y-42013000D03*
D10*
G36*
X24961505Y-44988204D02*
G01*
X24985773Y-44991804D01*
X25009572Y-44997765D01*
X25032671Y-45006030D01*
X25054850Y-45016520D01*
X25075893Y-45029132D01*
X25095599Y-45043747D01*
X25113777Y-45060223D01*
X25130253Y-45078401D01*
X25144868Y-45098107D01*
X25157480Y-45119150D01*
X25167970Y-45141329D01*
X25176235Y-45164428D01*
X25182196Y-45188227D01*
X25185796Y-45212495D01*
X25187000Y-45236999D01*
X25187000Y-45937001D01*
X25185796Y-45961505D01*
X25182196Y-45985773D01*
X25176235Y-46009572D01*
X25167970Y-46032671D01*
X25157480Y-46054850D01*
X25144868Y-46075893D01*
X25130253Y-46095599D01*
X25113777Y-46113777D01*
X25095599Y-46130253D01*
X25075893Y-46144868D01*
X25054850Y-46157480D01*
X25032671Y-46167970D01*
X25009572Y-46176235D01*
X24985773Y-46182196D01*
X24961505Y-46185796D01*
X24937001Y-46187000D01*
X23636999Y-46187000D01*
X23612495Y-46185796D01*
X23588227Y-46182196D01*
X23564428Y-46176235D01*
X23541329Y-46167970D01*
X23519150Y-46157480D01*
X23498107Y-46144868D01*
X23478401Y-46130253D01*
X23460223Y-46113777D01*
X23443747Y-46095599D01*
X23429132Y-46075893D01*
X23416520Y-46054850D01*
X23406030Y-46032671D01*
X23397765Y-46009572D01*
X23391804Y-45985773D01*
X23388204Y-45961505D01*
X23387000Y-45937001D01*
X23387000Y-45236999D01*
X23388204Y-45212495D01*
X23391804Y-45188227D01*
X23397765Y-45164428D01*
X23406030Y-45141329D01*
X23416520Y-45119150D01*
X23429132Y-45098107D01*
X23443747Y-45078401D01*
X23460223Y-45060223D01*
X23478401Y-45043747D01*
X23498107Y-45029132D01*
X23519150Y-45016520D01*
X23541329Y-45006030D01*
X23564428Y-44997765D01*
X23588227Y-44991804D01*
X23612495Y-44988204D01*
X23636999Y-44987000D01*
X24937001Y-44987000D01*
X24961505Y-44988204D01*
X24961505Y-44988204D01*
G37*
D12*
X24287000Y-45587000D03*
D10*
G36*
X24961505Y-50588204D02*
G01*
X24985773Y-50591804D01*
X25009572Y-50597765D01*
X25032671Y-50606030D01*
X25054850Y-50616520D01*
X25075893Y-50629132D01*
X25095599Y-50643747D01*
X25113777Y-50660223D01*
X25130253Y-50678401D01*
X25144868Y-50698107D01*
X25157480Y-50719150D01*
X25167970Y-50741329D01*
X25176235Y-50764428D01*
X25182196Y-50788227D01*
X25185796Y-50812495D01*
X25187000Y-50836999D01*
X25187000Y-51537001D01*
X25185796Y-51561505D01*
X25182196Y-51585773D01*
X25176235Y-51609572D01*
X25167970Y-51632671D01*
X25157480Y-51654850D01*
X25144868Y-51675893D01*
X25130253Y-51695599D01*
X25113777Y-51713777D01*
X25095599Y-51730253D01*
X25075893Y-51744868D01*
X25054850Y-51757480D01*
X25032671Y-51767970D01*
X25009572Y-51776235D01*
X24985773Y-51782196D01*
X24961505Y-51785796D01*
X24937001Y-51787000D01*
X23636999Y-51787000D01*
X23612495Y-51785796D01*
X23588227Y-51782196D01*
X23564428Y-51776235D01*
X23541329Y-51767970D01*
X23519150Y-51757480D01*
X23498107Y-51744868D01*
X23478401Y-51730253D01*
X23460223Y-51713777D01*
X23443747Y-51695599D01*
X23429132Y-51675893D01*
X23416520Y-51654850D01*
X23406030Y-51632671D01*
X23397765Y-51609572D01*
X23391804Y-51585773D01*
X23388204Y-51561505D01*
X23387000Y-51537001D01*
X23387000Y-50836999D01*
X23388204Y-50812495D01*
X23391804Y-50788227D01*
X23397765Y-50764428D01*
X23406030Y-50741329D01*
X23416520Y-50719150D01*
X23429132Y-50698107D01*
X23443747Y-50678401D01*
X23460223Y-50660223D01*
X23478401Y-50643747D01*
X23498107Y-50629132D01*
X23519150Y-50616520D01*
X23541329Y-50606030D01*
X23564428Y-50597765D01*
X23588227Y-50591804D01*
X23612495Y-50588204D01*
X23636999Y-50587000D01*
X24937001Y-50587000D01*
X24961505Y-50588204D01*
X24961505Y-50588204D01*
G37*
D12*
X24287000Y-51187000D03*
D10*
G36*
X28801703Y-46587722D02*
G01*
X28816264Y-46589882D01*
X28830543Y-46593459D01*
X28844403Y-46598418D01*
X28857710Y-46604712D01*
X28870336Y-46612280D01*
X28882159Y-46621048D01*
X28893066Y-46630934D01*
X28902952Y-46641841D01*
X28911720Y-46653664D01*
X28919288Y-46666290D01*
X28925582Y-46679597D01*
X28930541Y-46693457D01*
X28934118Y-46707736D01*
X28936278Y-46722297D01*
X28937000Y-46737000D01*
X28937000Y-47037000D01*
X28936278Y-47051703D01*
X28934118Y-47066264D01*
X28930541Y-47080543D01*
X28925582Y-47094403D01*
X28919288Y-47107710D01*
X28911720Y-47120336D01*
X28902952Y-47132159D01*
X28893066Y-47143066D01*
X28882159Y-47152952D01*
X28870336Y-47161720D01*
X28857710Y-47169288D01*
X28844403Y-47175582D01*
X28830543Y-47180541D01*
X28816264Y-47184118D01*
X28801703Y-47186278D01*
X28787000Y-47187000D01*
X27537000Y-47187000D01*
X27522297Y-47186278D01*
X27507736Y-47184118D01*
X27493457Y-47180541D01*
X27479597Y-47175582D01*
X27466290Y-47169288D01*
X27453664Y-47161720D01*
X27441841Y-47152952D01*
X27430934Y-47143066D01*
X27421048Y-47132159D01*
X27412280Y-47120336D01*
X27404712Y-47107710D01*
X27398418Y-47094403D01*
X27393459Y-47080543D01*
X27389882Y-47066264D01*
X27387722Y-47051703D01*
X27387000Y-47037000D01*
X27387000Y-46737000D01*
X27387722Y-46722297D01*
X27389882Y-46707736D01*
X27393459Y-46693457D01*
X27398418Y-46679597D01*
X27404712Y-46666290D01*
X27412280Y-46653664D01*
X27421048Y-46641841D01*
X27430934Y-46630934D01*
X27441841Y-46621048D01*
X27453664Y-46612280D01*
X27466290Y-46604712D01*
X27479597Y-46598418D01*
X27493457Y-46593459D01*
X27507736Y-46589882D01*
X27522297Y-46587722D01*
X27537000Y-46587000D01*
X28787000Y-46587000D01*
X28801703Y-46587722D01*
X28801703Y-46587722D01*
G37*
D13*
X28162000Y-46887000D03*
D10*
G36*
X28801703Y-47587722D02*
G01*
X28816264Y-47589882D01*
X28830543Y-47593459D01*
X28844403Y-47598418D01*
X28857710Y-47604712D01*
X28870336Y-47612280D01*
X28882159Y-47621048D01*
X28893066Y-47630934D01*
X28902952Y-47641841D01*
X28911720Y-47653664D01*
X28919288Y-47666290D01*
X28925582Y-47679597D01*
X28930541Y-47693457D01*
X28934118Y-47707736D01*
X28936278Y-47722297D01*
X28937000Y-47737000D01*
X28937000Y-48037000D01*
X28936278Y-48051703D01*
X28934118Y-48066264D01*
X28930541Y-48080543D01*
X28925582Y-48094403D01*
X28919288Y-48107710D01*
X28911720Y-48120336D01*
X28902952Y-48132159D01*
X28893066Y-48143066D01*
X28882159Y-48152952D01*
X28870336Y-48161720D01*
X28857710Y-48169288D01*
X28844403Y-48175582D01*
X28830543Y-48180541D01*
X28816264Y-48184118D01*
X28801703Y-48186278D01*
X28787000Y-48187000D01*
X27537000Y-48187000D01*
X27522297Y-48186278D01*
X27507736Y-48184118D01*
X27493457Y-48180541D01*
X27479597Y-48175582D01*
X27466290Y-48169288D01*
X27453664Y-48161720D01*
X27441841Y-48152952D01*
X27430934Y-48143066D01*
X27421048Y-48132159D01*
X27412280Y-48120336D01*
X27404712Y-48107710D01*
X27398418Y-48094403D01*
X27393459Y-48080543D01*
X27389882Y-48066264D01*
X27387722Y-48051703D01*
X27387000Y-48037000D01*
X27387000Y-47737000D01*
X27387722Y-47722297D01*
X27389882Y-47707736D01*
X27393459Y-47693457D01*
X27398418Y-47679597D01*
X27404712Y-47666290D01*
X27412280Y-47653664D01*
X27421048Y-47641841D01*
X27430934Y-47630934D01*
X27441841Y-47621048D01*
X27453664Y-47612280D01*
X27466290Y-47604712D01*
X27479597Y-47598418D01*
X27493457Y-47593459D01*
X27507736Y-47589882D01*
X27522297Y-47587722D01*
X27537000Y-47587000D01*
X28787000Y-47587000D01*
X28801703Y-47587722D01*
X28801703Y-47587722D01*
G37*
D13*
X28162000Y-47887000D03*
D10*
G36*
X28801703Y-48587722D02*
G01*
X28816264Y-48589882D01*
X28830543Y-48593459D01*
X28844403Y-48598418D01*
X28857710Y-48604712D01*
X28870336Y-48612280D01*
X28882159Y-48621048D01*
X28893066Y-48630934D01*
X28902952Y-48641841D01*
X28911720Y-48653664D01*
X28919288Y-48666290D01*
X28925582Y-48679597D01*
X28930541Y-48693457D01*
X28934118Y-48707736D01*
X28936278Y-48722297D01*
X28937000Y-48737000D01*
X28937000Y-49037000D01*
X28936278Y-49051703D01*
X28934118Y-49066264D01*
X28930541Y-49080543D01*
X28925582Y-49094403D01*
X28919288Y-49107710D01*
X28911720Y-49120336D01*
X28902952Y-49132159D01*
X28893066Y-49143066D01*
X28882159Y-49152952D01*
X28870336Y-49161720D01*
X28857710Y-49169288D01*
X28844403Y-49175582D01*
X28830543Y-49180541D01*
X28816264Y-49184118D01*
X28801703Y-49186278D01*
X28787000Y-49187000D01*
X27537000Y-49187000D01*
X27522297Y-49186278D01*
X27507736Y-49184118D01*
X27493457Y-49180541D01*
X27479597Y-49175582D01*
X27466290Y-49169288D01*
X27453664Y-49161720D01*
X27441841Y-49152952D01*
X27430934Y-49143066D01*
X27421048Y-49132159D01*
X27412280Y-49120336D01*
X27404712Y-49107710D01*
X27398418Y-49094403D01*
X27393459Y-49080543D01*
X27389882Y-49066264D01*
X27387722Y-49051703D01*
X27387000Y-49037000D01*
X27387000Y-48737000D01*
X27387722Y-48722297D01*
X27389882Y-48707736D01*
X27393459Y-48693457D01*
X27398418Y-48679597D01*
X27404712Y-48666290D01*
X27412280Y-48653664D01*
X27421048Y-48641841D01*
X27430934Y-48630934D01*
X27441841Y-48621048D01*
X27453664Y-48612280D01*
X27466290Y-48604712D01*
X27479597Y-48598418D01*
X27493457Y-48593459D01*
X27507736Y-48589882D01*
X27522297Y-48587722D01*
X27537000Y-48587000D01*
X28787000Y-48587000D01*
X28801703Y-48587722D01*
X28801703Y-48587722D01*
G37*
D13*
X28162000Y-48887000D03*
D10*
G36*
X28801703Y-49587722D02*
G01*
X28816264Y-49589882D01*
X28830543Y-49593459D01*
X28844403Y-49598418D01*
X28857710Y-49604712D01*
X28870336Y-49612280D01*
X28882159Y-49621048D01*
X28893066Y-49630934D01*
X28902952Y-49641841D01*
X28911720Y-49653664D01*
X28919288Y-49666290D01*
X28925582Y-49679597D01*
X28930541Y-49693457D01*
X28934118Y-49707736D01*
X28936278Y-49722297D01*
X28937000Y-49737000D01*
X28937000Y-50037000D01*
X28936278Y-50051703D01*
X28934118Y-50066264D01*
X28930541Y-50080543D01*
X28925582Y-50094403D01*
X28919288Y-50107710D01*
X28911720Y-50120336D01*
X28902952Y-50132159D01*
X28893066Y-50143066D01*
X28882159Y-50152952D01*
X28870336Y-50161720D01*
X28857710Y-50169288D01*
X28844403Y-50175582D01*
X28830543Y-50180541D01*
X28816264Y-50184118D01*
X28801703Y-50186278D01*
X28787000Y-50187000D01*
X27537000Y-50187000D01*
X27522297Y-50186278D01*
X27507736Y-50184118D01*
X27493457Y-50180541D01*
X27479597Y-50175582D01*
X27466290Y-50169288D01*
X27453664Y-50161720D01*
X27441841Y-50152952D01*
X27430934Y-50143066D01*
X27421048Y-50132159D01*
X27412280Y-50120336D01*
X27404712Y-50107710D01*
X27398418Y-50094403D01*
X27393459Y-50080543D01*
X27389882Y-50066264D01*
X27387722Y-50051703D01*
X27387000Y-50037000D01*
X27387000Y-49737000D01*
X27387722Y-49722297D01*
X27389882Y-49707736D01*
X27393459Y-49693457D01*
X27398418Y-49679597D01*
X27404712Y-49666290D01*
X27412280Y-49653664D01*
X27421048Y-49641841D01*
X27430934Y-49630934D01*
X27441841Y-49621048D01*
X27453664Y-49612280D01*
X27466290Y-49604712D01*
X27479597Y-49598418D01*
X27493457Y-49593459D01*
X27507736Y-49589882D01*
X27522297Y-49587722D01*
X27537000Y-49587000D01*
X28787000Y-49587000D01*
X28801703Y-49587722D01*
X28801703Y-49587722D01*
G37*
D13*
X28162000Y-49887000D03*
D17*
X43850000Y-66040000D03*
X43350000Y-66040000D03*
X42850000Y-66040000D03*
X42350000Y-66040000D03*
X41850000Y-66040000D03*
X41350000Y-66040000D03*
X40850000Y-66040000D03*
X40350000Y-66040000D03*
X39850000Y-66040000D03*
X39350000Y-66040000D03*
X38850000Y-66040000D03*
X38350000Y-66040000D03*
X37850000Y-66040000D03*
X37350000Y-66040000D03*
X36850000Y-66040000D03*
X36350000Y-66040000D03*
X35850000Y-66040000D03*
X35350000Y-66040000D03*
X34850000Y-66040000D03*
X34350000Y-66040000D03*
X33850000Y-66040000D03*
X33350000Y-66040000D03*
X32850000Y-66040000D03*
X32350000Y-66040000D03*
D18*
X45450000Y-67340000D03*
X30750000Y-67340000D03*
D10*
G36*
X28499292Y-29919383D02*
G01*
X28507010Y-29920528D01*
X28514578Y-29922423D01*
X28521923Y-29925052D01*
X28528976Y-29928387D01*
X28535668Y-29932398D01*
X28541934Y-29937046D01*
X28547715Y-29942285D01*
X28552954Y-29948066D01*
X28557602Y-29954332D01*
X28561613Y-29961024D01*
X28564948Y-29968077D01*
X28567577Y-29975422D01*
X28569472Y-29982990D01*
X28570617Y-29990708D01*
X28571000Y-29998500D01*
X28571000Y-30199500D01*
X28570617Y-30207292D01*
X28569472Y-30215010D01*
X28567577Y-30222578D01*
X28564948Y-30229923D01*
X28561613Y-30236976D01*
X28557602Y-30243668D01*
X28552954Y-30249934D01*
X28547715Y-30255715D01*
X28541934Y-30260954D01*
X28535668Y-30265602D01*
X28528976Y-30269613D01*
X28521923Y-30272948D01*
X28514578Y-30275577D01*
X28507010Y-30277472D01*
X28499292Y-30278617D01*
X28491500Y-30279000D01*
X28332500Y-30279000D01*
X28324708Y-30278617D01*
X28316990Y-30277472D01*
X28309422Y-30275577D01*
X28302077Y-30272948D01*
X28295024Y-30269613D01*
X28288332Y-30265602D01*
X28282066Y-30260954D01*
X28276285Y-30255715D01*
X28271046Y-30249934D01*
X28266398Y-30243668D01*
X28262387Y-30236976D01*
X28259052Y-30229923D01*
X28256423Y-30222578D01*
X28254528Y-30215010D01*
X28253383Y-30207292D01*
X28253000Y-30199500D01*
X28253000Y-29998500D01*
X28253383Y-29990708D01*
X28254528Y-29982990D01*
X28256423Y-29975422D01*
X28259052Y-29968077D01*
X28262387Y-29961024D01*
X28266398Y-29954332D01*
X28271046Y-29948066D01*
X28276285Y-29942285D01*
X28282066Y-29937046D01*
X28288332Y-29932398D01*
X28295024Y-29928387D01*
X28302077Y-29925052D01*
X28309422Y-29922423D01*
X28316990Y-29920528D01*
X28324708Y-29919383D01*
X28332500Y-29919000D01*
X28491500Y-29919000D01*
X28499292Y-29919383D01*
X28499292Y-29919383D01*
G37*
D11*
X28412000Y-30099000D03*
D10*
G36*
X27809292Y-29919383D02*
G01*
X27817010Y-29920528D01*
X27824578Y-29922423D01*
X27831923Y-29925052D01*
X27838976Y-29928387D01*
X27845668Y-29932398D01*
X27851934Y-29937046D01*
X27857715Y-29942285D01*
X27862954Y-29948066D01*
X27867602Y-29954332D01*
X27871613Y-29961024D01*
X27874948Y-29968077D01*
X27877577Y-29975422D01*
X27879472Y-29982990D01*
X27880617Y-29990708D01*
X27881000Y-29998500D01*
X27881000Y-30199500D01*
X27880617Y-30207292D01*
X27879472Y-30215010D01*
X27877577Y-30222578D01*
X27874948Y-30229923D01*
X27871613Y-30236976D01*
X27867602Y-30243668D01*
X27862954Y-30249934D01*
X27857715Y-30255715D01*
X27851934Y-30260954D01*
X27845668Y-30265602D01*
X27838976Y-30269613D01*
X27831923Y-30272948D01*
X27824578Y-30275577D01*
X27817010Y-30277472D01*
X27809292Y-30278617D01*
X27801500Y-30279000D01*
X27642500Y-30279000D01*
X27634708Y-30278617D01*
X27626990Y-30277472D01*
X27619422Y-30275577D01*
X27612077Y-30272948D01*
X27605024Y-30269613D01*
X27598332Y-30265602D01*
X27592066Y-30260954D01*
X27586285Y-30255715D01*
X27581046Y-30249934D01*
X27576398Y-30243668D01*
X27572387Y-30236976D01*
X27569052Y-30229923D01*
X27566423Y-30222578D01*
X27564528Y-30215010D01*
X27563383Y-30207292D01*
X27563000Y-30199500D01*
X27563000Y-29998500D01*
X27563383Y-29990708D01*
X27564528Y-29982990D01*
X27566423Y-29975422D01*
X27569052Y-29968077D01*
X27572387Y-29961024D01*
X27576398Y-29954332D01*
X27581046Y-29948066D01*
X27586285Y-29942285D01*
X27592066Y-29937046D01*
X27598332Y-29932398D01*
X27605024Y-29928387D01*
X27612077Y-29925052D01*
X27619422Y-29922423D01*
X27626990Y-29920528D01*
X27634708Y-29919383D01*
X27642500Y-29919000D01*
X27801500Y-29919000D01*
X27809292Y-29919383D01*
X27809292Y-29919383D01*
G37*
D11*
X27722000Y-30099000D03*
D10*
G36*
X30461292Y-30666383D02*
G01*
X30469010Y-30667528D01*
X30476578Y-30669423D01*
X30483923Y-30672052D01*
X30490976Y-30675387D01*
X30497668Y-30679398D01*
X30503934Y-30684046D01*
X30509715Y-30689285D01*
X30514954Y-30695066D01*
X30519602Y-30701332D01*
X30523613Y-30708024D01*
X30526948Y-30715077D01*
X30529577Y-30722422D01*
X30531472Y-30729990D01*
X30532617Y-30737708D01*
X30533000Y-30745500D01*
X30533000Y-30904500D01*
X30532617Y-30912292D01*
X30531472Y-30920010D01*
X30529577Y-30927578D01*
X30526948Y-30934923D01*
X30523613Y-30941976D01*
X30519602Y-30948668D01*
X30514954Y-30954934D01*
X30509715Y-30960715D01*
X30503934Y-30965954D01*
X30497668Y-30970602D01*
X30490976Y-30974613D01*
X30483923Y-30977948D01*
X30476578Y-30980577D01*
X30469010Y-30982472D01*
X30461292Y-30983617D01*
X30453500Y-30984000D01*
X30252500Y-30984000D01*
X30244708Y-30983617D01*
X30236990Y-30982472D01*
X30229422Y-30980577D01*
X30222077Y-30977948D01*
X30215024Y-30974613D01*
X30208332Y-30970602D01*
X30202066Y-30965954D01*
X30196285Y-30960715D01*
X30191046Y-30954934D01*
X30186398Y-30948668D01*
X30182387Y-30941976D01*
X30179052Y-30934923D01*
X30176423Y-30927578D01*
X30174528Y-30920010D01*
X30173383Y-30912292D01*
X30173000Y-30904500D01*
X30173000Y-30745500D01*
X30173383Y-30737708D01*
X30174528Y-30729990D01*
X30176423Y-30722422D01*
X30179052Y-30715077D01*
X30182387Y-30708024D01*
X30186398Y-30701332D01*
X30191046Y-30695066D01*
X30196285Y-30689285D01*
X30202066Y-30684046D01*
X30208332Y-30679398D01*
X30215024Y-30675387D01*
X30222077Y-30672052D01*
X30229422Y-30669423D01*
X30236990Y-30667528D01*
X30244708Y-30666383D01*
X30252500Y-30666000D01*
X30453500Y-30666000D01*
X30461292Y-30666383D01*
X30461292Y-30666383D01*
G37*
D11*
X30353000Y-30825000D03*
D10*
G36*
X30461292Y-29976383D02*
G01*
X30469010Y-29977528D01*
X30476578Y-29979423D01*
X30483923Y-29982052D01*
X30490976Y-29985387D01*
X30497668Y-29989398D01*
X30503934Y-29994046D01*
X30509715Y-29999285D01*
X30514954Y-30005066D01*
X30519602Y-30011332D01*
X30523613Y-30018024D01*
X30526948Y-30025077D01*
X30529577Y-30032422D01*
X30531472Y-30039990D01*
X30532617Y-30047708D01*
X30533000Y-30055500D01*
X30533000Y-30214500D01*
X30532617Y-30222292D01*
X30531472Y-30230010D01*
X30529577Y-30237578D01*
X30526948Y-30244923D01*
X30523613Y-30251976D01*
X30519602Y-30258668D01*
X30514954Y-30264934D01*
X30509715Y-30270715D01*
X30503934Y-30275954D01*
X30497668Y-30280602D01*
X30490976Y-30284613D01*
X30483923Y-30287948D01*
X30476578Y-30290577D01*
X30469010Y-30292472D01*
X30461292Y-30293617D01*
X30453500Y-30294000D01*
X30252500Y-30294000D01*
X30244708Y-30293617D01*
X30236990Y-30292472D01*
X30229422Y-30290577D01*
X30222077Y-30287948D01*
X30215024Y-30284613D01*
X30208332Y-30280602D01*
X30202066Y-30275954D01*
X30196285Y-30270715D01*
X30191046Y-30264934D01*
X30186398Y-30258668D01*
X30182387Y-30251976D01*
X30179052Y-30244923D01*
X30176423Y-30237578D01*
X30174528Y-30230010D01*
X30173383Y-30222292D01*
X30173000Y-30214500D01*
X30173000Y-30055500D01*
X30173383Y-30047708D01*
X30174528Y-30039990D01*
X30176423Y-30032422D01*
X30179052Y-30025077D01*
X30182387Y-30018024D01*
X30186398Y-30011332D01*
X30191046Y-30005066D01*
X30196285Y-29999285D01*
X30202066Y-29994046D01*
X30208332Y-29989398D01*
X30215024Y-29985387D01*
X30222077Y-29982052D01*
X30229422Y-29979423D01*
X30236990Y-29977528D01*
X30244708Y-29976383D01*
X30252500Y-29976000D01*
X30453500Y-29976000D01*
X30461292Y-29976383D01*
X30461292Y-29976383D01*
G37*
D11*
X30353000Y-30135000D03*
D10*
G36*
X26427958Y-30541710D02*
G01*
X26442276Y-30543834D01*
X26456317Y-30547351D01*
X26469946Y-30552228D01*
X26483031Y-30558417D01*
X26495447Y-30565858D01*
X26507073Y-30574481D01*
X26517798Y-30584202D01*
X26527519Y-30594927D01*
X26536142Y-30606553D01*
X26543583Y-30618969D01*
X26549772Y-30632054D01*
X26554649Y-30645683D01*
X26558166Y-30659724D01*
X26560290Y-30674042D01*
X26561000Y-30688500D01*
X26561000Y-31033500D01*
X26560290Y-31047958D01*
X26558166Y-31062276D01*
X26554649Y-31076317D01*
X26549772Y-31089946D01*
X26543583Y-31103031D01*
X26536142Y-31115447D01*
X26527519Y-31127073D01*
X26517798Y-31137798D01*
X26507073Y-31147519D01*
X26495447Y-31156142D01*
X26483031Y-31163583D01*
X26469946Y-31169772D01*
X26456317Y-31174649D01*
X26442276Y-31178166D01*
X26427958Y-31180290D01*
X26413500Y-31181000D01*
X26118500Y-31181000D01*
X26104042Y-31180290D01*
X26089724Y-31178166D01*
X26075683Y-31174649D01*
X26062054Y-31169772D01*
X26048969Y-31163583D01*
X26036553Y-31156142D01*
X26024927Y-31147519D01*
X26014202Y-31137798D01*
X26004481Y-31127073D01*
X25995858Y-31115447D01*
X25988417Y-31103031D01*
X25982228Y-31089946D01*
X25977351Y-31076317D01*
X25973834Y-31062276D01*
X25971710Y-31047958D01*
X25971000Y-31033500D01*
X25971000Y-30688500D01*
X25971710Y-30674042D01*
X25973834Y-30659724D01*
X25977351Y-30645683D01*
X25982228Y-30632054D01*
X25988417Y-30618969D01*
X25995858Y-30606553D01*
X26004481Y-30594927D01*
X26014202Y-30584202D01*
X26024927Y-30574481D01*
X26036553Y-30565858D01*
X26048969Y-30558417D01*
X26062054Y-30552228D01*
X26075683Y-30547351D01*
X26089724Y-30543834D01*
X26104042Y-30541710D01*
X26118500Y-30541000D01*
X26413500Y-30541000D01*
X26427958Y-30541710D01*
X26427958Y-30541710D01*
G37*
D19*
X26266000Y-30861000D03*
D10*
G36*
X25457958Y-30541710D02*
G01*
X25472276Y-30543834D01*
X25486317Y-30547351D01*
X25499946Y-30552228D01*
X25513031Y-30558417D01*
X25525447Y-30565858D01*
X25537073Y-30574481D01*
X25547798Y-30584202D01*
X25557519Y-30594927D01*
X25566142Y-30606553D01*
X25573583Y-30618969D01*
X25579772Y-30632054D01*
X25584649Y-30645683D01*
X25588166Y-30659724D01*
X25590290Y-30674042D01*
X25591000Y-30688500D01*
X25591000Y-31033500D01*
X25590290Y-31047958D01*
X25588166Y-31062276D01*
X25584649Y-31076317D01*
X25579772Y-31089946D01*
X25573583Y-31103031D01*
X25566142Y-31115447D01*
X25557519Y-31127073D01*
X25547798Y-31137798D01*
X25537073Y-31147519D01*
X25525447Y-31156142D01*
X25513031Y-31163583D01*
X25499946Y-31169772D01*
X25486317Y-31174649D01*
X25472276Y-31178166D01*
X25457958Y-31180290D01*
X25443500Y-31181000D01*
X25148500Y-31181000D01*
X25134042Y-31180290D01*
X25119724Y-31178166D01*
X25105683Y-31174649D01*
X25092054Y-31169772D01*
X25078969Y-31163583D01*
X25066553Y-31156142D01*
X25054927Y-31147519D01*
X25044202Y-31137798D01*
X25034481Y-31127073D01*
X25025858Y-31115447D01*
X25018417Y-31103031D01*
X25012228Y-31089946D01*
X25007351Y-31076317D01*
X25003834Y-31062276D01*
X25001710Y-31047958D01*
X25001000Y-31033500D01*
X25001000Y-30688500D01*
X25001710Y-30674042D01*
X25003834Y-30659724D01*
X25007351Y-30645683D01*
X25012228Y-30632054D01*
X25018417Y-30618969D01*
X25025858Y-30606553D01*
X25034481Y-30594927D01*
X25044202Y-30584202D01*
X25054927Y-30574481D01*
X25066553Y-30565858D01*
X25078969Y-30558417D01*
X25092054Y-30552228D01*
X25105683Y-30547351D01*
X25119724Y-30543834D01*
X25134042Y-30541710D01*
X25148500Y-30541000D01*
X25443500Y-30541000D01*
X25457958Y-30541710D01*
X25457958Y-30541710D01*
G37*
D19*
X25296000Y-30861000D03*
D10*
G36*
X31555958Y-26144710D02*
G01*
X31570276Y-26146834D01*
X31584317Y-26150351D01*
X31597946Y-26155228D01*
X31611031Y-26161417D01*
X31623447Y-26168858D01*
X31635073Y-26177481D01*
X31645798Y-26187202D01*
X31655519Y-26197927D01*
X31664142Y-26209553D01*
X31671583Y-26221969D01*
X31677772Y-26235054D01*
X31682649Y-26248683D01*
X31686166Y-26262724D01*
X31688290Y-26277042D01*
X31689000Y-26291500D01*
X31689000Y-26586500D01*
X31688290Y-26600958D01*
X31686166Y-26615276D01*
X31682649Y-26629317D01*
X31677772Y-26642946D01*
X31671583Y-26656031D01*
X31664142Y-26668447D01*
X31655519Y-26680073D01*
X31645798Y-26690798D01*
X31635073Y-26700519D01*
X31623447Y-26709142D01*
X31611031Y-26716583D01*
X31597946Y-26722772D01*
X31584317Y-26727649D01*
X31570276Y-26731166D01*
X31555958Y-26733290D01*
X31541500Y-26734000D01*
X31196500Y-26734000D01*
X31182042Y-26733290D01*
X31167724Y-26731166D01*
X31153683Y-26727649D01*
X31140054Y-26722772D01*
X31126969Y-26716583D01*
X31114553Y-26709142D01*
X31102927Y-26700519D01*
X31092202Y-26690798D01*
X31082481Y-26680073D01*
X31073858Y-26668447D01*
X31066417Y-26656031D01*
X31060228Y-26642946D01*
X31055351Y-26629317D01*
X31051834Y-26615276D01*
X31049710Y-26600958D01*
X31049000Y-26586500D01*
X31049000Y-26291500D01*
X31049710Y-26277042D01*
X31051834Y-26262724D01*
X31055351Y-26248683D01*
X31060228Y-26235054D01*
X31066417Y-26221969D01*
X31073858Y-26209553D01*
X31082481Y-26197927D01*
X31092202Y-26187202D01*
X31102927Y-26177481D01*
X31114553Y-26168858D01*
X31126969Y-26161417D01*
X31140054Y-26155228D01*
X31153683Y-26150351D01*
X31167724Y-26146834D01*
X31182042Y-26144710D01*
X31196500Y-26144000D01*
X31541500Y-26144000D01*
X31555958Y-26144710D01*
X31555958Y-26144710D01*
G37*
D19*
X31369000Y-26439000D03*
D10*
G36*
X31555958Y-27114710D02*
G01*
X31570276Y-27116834D01*
X31584317Y-27120351D01*
X31597946Y-27125228D01*
X31611031Y-27131417D01*
X31623447Y-27138858D01*
X31635073Y-27147481D01*
X31645798Y-27157202D01*
X31655519Y-27167927D01*
X31664142Y-27179553D01*
X31671583Y-27191969D01*
X31677772Y-27205054D01*
X31682649Y-27218683D01*
X31686166Y-27232724D01*
X31688290Y-27247042D01*
X31689000Y-27261500D01*
X31689000Y-27556500D01*
X31688290Y-27570958D01*
X31686166Y-27585276D01*
X31682649Y-27599317D01*
X31677772Y-27612946D01*
X31671583Y-27626031D01*
X31664142Y-27638447D01*
X31655519Y-27650073D01*
X31645798Y-27660798D01*
X31635073Y-27670519D01*
X31623447Y-27679142D01*
X31611031Y-27686583D01*
X31597946Y-27692772D01*
X31584317Y-27697649D01*
X31570276Y-27701166D01*
X31555958Y-27703290D01*
X31541500Y-27704000D01*
X31196500Y-27704000D01*
X31182042Y-27703290D01*
X31167724Y-27701166D01*
X31153683Y-27697649D01*
X31140054Y-27692772D01*
X31126969Y-27686583D01*
X31114553Y-27679142D01*
X31102927Y-27670519D01*
X31092202Y-27660798D01*
X31082481Y-27650073D01*
X31073858Y-27638447D01*
X31066417Y-27626031D01*
X31060228Y-27612946D01*
X31055351Y-27599317D01*
X31051834Y-27585276D01*
X31049710Y-27570958D01*
X31049000Y-27556500D01*
X31049000Y-27261500D01*
X31049710Y-27247042D01*
X31051834Y-27232724D01*
X31055351Y-27218683D01*
X31060228Y-27205054D01*
X31066417Y-27191969D01*
X31073858Y-27179553D01*
X31082481Y-27167927D01*
X31092202Y-27157202D01*
X31102927Y-27147481D01*
X31114553Y-27138858D01*
X31126969Y-27131417D01*
X31140054Y-27125228D01*
X31153683Y-27120351D01*
X31167724Y-27116834D01*
X31182042Y-27114710D01*
X31196500Y-27114000D01*
X31541500Y-27114000D01*
X31555958Y-27114710D01*
X31555958Y-27114710D01*
G37*
D19*
X31369000Y-27409000D03*
D10*
G36*
X49327292Y-68781383D02*
G01*
X49335010Y-68782528D01*
X49342578Y-68784423D01*
X49349923Y-68787052D01*
X49356976Y-68790387D01*
X49363668Y-68794398D01*
X49369934Y-68799046D01*
X49375715Y-68804285D01*
X49380954Y-68810066D01*
X49385602Y-68816332D01*
X49389613Y-68823024D01*
X49392948Y-68830077D01*
X49395577Y-68837422D01*
X49397472Y-68844990D01*
X49398617Y-68852708D01*
X49399000Y-68860500D01*
X49399000Y-69061500D01*
X49398617Y-69069292D01*
X49397472Y-69077010D01*
X49395577Y-69084578D01*
X49392948Y-69091923D01*
X49389613Y-69098976D01*
X49385602Y-69105668D01*
X49380954Y-69111934D01*
X49375715Y-69117715D01*
X49369934Y-69122954D01*
X49363668Y-69127602D01*
X49356976Y-69131613D01*
X49349923Y-69134948D01*
X49342578Y-69137577D01*
X49335010Y-69139472D01*
X49327292Y-69140617D01*
X49319500Y-69141000D01*
X49160500Y-69141000D01*
X49152708Y-69140617D01*
X49144990Y-69139472D01*
X49137422Y-69137577D01*
X49130077Y-69134948D01*
X49123024Y-69131613D01*
X49116332Y-69127602D01*
X49110066Y-69122954D01*
X49104285Y-69117715D01*
X49099046Y-69111934D01*
X49094398Y-69105668D01*
X49090387Y-69098976D01*
X49087052Y-69091923D01*
X49084423Y-69084578D01*
X49082528Y-69077010D01*
X49081383Y-69069292D01*
X49081000Y-69061500D01*
X49081000Y-68860500D01*
X49081383Y-68852708D01*
X49082528Y-68844990D01*
X49084423Y-68837422D01*
X49087052Y-68830077D01*
X49090387Y-68823024D01*
X49094398Y-68816332D01*
X49099046Y-68810066D01*
X49104285Y-68804285D01*
X49110066Y-68799046D01*
X49116332Y-68794398D01*
X49123024Y-68790387D01*
X49130077Y-68787052D01*
X49137422Y-68784423D01*
X49144990Y-68782528D01*
X49152708Y-68781383D01*
X49160500Y-68781000D01*
X49319500Y-68781000D01*
X49327292Y-68781383D01*
X49327292Y-68781383D01*
G37*
D11*
X49240000Y-68961000D03*
D10*
G36*
X48637292Y-68781383D02*
G01*
X48645010Y-68782528D01*
X48652578Y-68784423D01*
X48659923Y-68787052D01*
X48666976Y-68790387D01*
X48673668Y-68794398D01*
X48679934Y-68799046D01*
X48685715Y-68804285D01*
X48690954Y-68810066D01*
X48695602Y-68816332D01*
X48699613Y-68823024D01*
X48702948Y-68830077D01*
X48705577Y-68837422D01*
X48707472Y-68844990D01*
X48708617Y-68852708D01*
X48709000Y-68860500D01*
X48709000Y-69061500D01*
X48708617Y-69069292D01*
X48707472Y-69077010D01*
X48705577Y-69084578D01*
X48702948Y-69091923D01*
X48699613Y-69098976D01*
X48695602Y-69105668D01*
X48690954Y-69111934D01*
X48685715Y-69117715D01*
X48679934Y-69122954D01*
X48673668Y-69127602D01*
X48666976Y-69131613D01*
X48659923Y-69134948D01*
X48652578Y-69137577D01*
X48645010Y-69139472D01*
X48637292Y-69140617D01*
X48629500Y-69141000D01*
X48470500Y-69141000D01*
X48462708Y-69140617D01*
X48454990Y-69139472D01*
X48447422Y-69137577D01*
X48440077Y-69134948D01*
X48433024Y-69131613D01*
X48426332Y-69127602D01*
X48420066Y-69122954D01*
X48414285Y-69117715D01*
X48409046Y-69111934D01*
X48404398Y-69105668D01*
X48400387Y-69098976D01*
X48397052Y-69091923D01*
X48394423Y-69084578D01*
X48392528Y-69077010D01*
X48391383Y-69069292D01*
X48391000Y-69061500D01*
X48391000Y-68860500D01*
X48391383Y-68852708D01*
X48392528Y-68844990D01*
X48394423Y-68837422D01*
X48397052Y-68830077D01*
X48400387Y-68823024D01*
X48404398Y-68816332D01*
X48409046Y-68810066D01*
X48414285Y-68804285D01*
X48420066Y-68799046D01*
X48426332Y-68794398D01*
X48433024Y-68790387D01*
X48440077Y-68787052D01*
X48447422Y-68784423D01*
X48454990Y-68782528D01*
X48462708Y-68781383D01*
X48470500Y-68781000D01*
X48629500Y-68781000D01*
X48637292Y-68781383D01*
X48637292Y-68781383D01*
G37*
D11*
X48550000Y-68961000D03*
D18*
X29224000Y-28296000D03*
X24624000Y-28296000D03*
X26924000Y-28296000D03*
D20*
X26924000Y-21996000D03*
D10*
G36*
X33270292Y-21156383D02*
G01*
X33278010Y-21157528D01*
X33285578Y-21159423D01*
X33292923Y-21162052D01*
X33299976Y-21165387D01*
X33306668Y-21169398D01*
X33312934Y-21174046D01*
X33318715Y-21179285D01*
X33323954Y-21185066D01*
X33328602Y-21191332D01*
X33332613Y-21198024D01*
X33335948Y-21205077D01*
X33338577Y-21212422D01*
X33340472Y-21219990D01*
X33341617Y-21227708D01*
X33342000Y-21235500D01*
X33342000Y-21436500D01*
X33341617Y-21444292D01*
X33340472Y-21452010D01*
X33338577Y-21459578D01*
X33335948Y-21466923D01*
X33332613Y-21473976D01*
X33328602Y-21480668D01*
X33323954Y-21486934D01*
X33318715Y-21492715D01*
X33312934Y-21497954D01*
X33306668Y-21502602D01*
X33299976Y-21506613D01*
X33292923Y-21509948D01*
X33285578Y-21512577D01*
X33278010Y-21514472D01*
X33270292Y-21515617D01*
X33262500Y-21516000D01*
X33103500Y-21516000D01*
X33095708Y-21515617D01*
X33087990Y-21514472D01*
X33080422Y-21512577D01*
X33073077Y-21509948D01*
X33066024Y-21506613D01*
X33059332Y-21502602D01*
X33053066Y-21497954D01*
X33047285Y-21492715D01*
X33042046Y-21486934D01*
X33037398Y-21480668D01*
X33033387Y-21473976D01*
X33030052Y-21466923D01*
X33027423Y-21459578D01*
X33025528Y-21452010D01*
X33024383Y-21444292D01*
X33024000Y-21436500D01*
X33024000Y-21235500D01*
X33024383Y-21227708D01*
X33025528Y-21219990D01*
X33027423Y-21212422D01*
X33030052Y-21205077D01*
X33033387Y-21198024D01*
X33037398Y-21191332D01*
X33042046Y-21185066D01*
X33047285Y-21179285D01*
X33053066Y-21174046D01*
X33059332Y-21169398D01*
X33066024Y-21165387D01*
X33073077Y-21162052D01*
X33080422Y-21159423D01*
X33087990Y-21157528D01*
X33095708Y-21156383D01*
X33103500Y-21156000D01*
X33262500Y-21156000D01*
X33270292Y-21156383D01*
X33270292Y-21156383D01*
G37*
D11*
X33183000Y-21336000D03*
D10*
G36*
X33960292Y-21156383D02*
G01*
X33968010Y-21157528D01*
X33975578Y-21159423D01*
X33982923Y-21162052D01*
X33989976Y-21165387D01*
X33996668Y-21169398D01*
X34002934Y-21174046D01*
X34008715Y-21179285D01*
X34013954Y-21185066D01*
X34018602Y-21191332D01*
X34022613Y-21198024D01*
X34025948Y-21205077D01*
X34028577Y-21212422D01*
X34030472Y-21219990D01*
X34031617Y-21227708D01*
X34032000Y-21235500D01*
X34032000Y-21436500D01*
X34031617Y-21444292D01*
X34030472Y-21452010D01*
X34028577Y-21459578D01*
X34025948Y-21466923D01*
X34022613Y-21473976D01*
X34018602Y-21480668D01*
X34013954Y-21486934D01*
X34008715Y-21492715D01*
X34002934Y-21497954D01*
X33996668Y-21502602D01*
X33989976Y-21506613D01*
X33982923Y-21509948D01*
X33975578Y-21512577D01*
X33968010Y-21514472D01*
X33960292Y-21515617D01*
X33952500Y-21516000D01*
X33793500Y-21516000D01*
X33785708Y-21515617D01*
X33777990Y-21514472D01*
X33770422Y-21512577D01*
X33763077Y-21509948D01*
X33756024Y-21506613D01*
X33749332Y-21502602D01*
X33743066Y-21497954D01*
X33737285Y-21492715D01*
X33732046Y-21486934D01*
X33727398Y-21480668D01*
X33723387Y-21473976D01*
X33720052Y-21466923D01*
X33717423Y-21459578D01*
X33715528Y-21452010D01*
X33714383Y-21444292D01*
X33714000Y-21436500D01*
X33714000Y-21235500D01*
X33714383Y-21227708D01*
X33715528Y-21219990D01*
X33717423Y-21212422D01*
X33720052Y-21205077D01*
X33723387Y-21198024D01*
X33727398Y-21191332D01*
X33732046Y-21185066D01*
X33737285Y-21179285D01*
X33743066Y-21174046D01*
X33749332Y-21169398D01*
X33756024Y-21165387D01*
X33763077Y-21162052D01*
X33770422Y-21159423D01*
X33777990Y-21157528D01*
X33785708Y-21156383D01*
X33793500Y-21156000D01*
X33952500Y-21156000D01*
X33960292Y-21156383D01*
X33960292Y-21156383D01*
G37*
D11*
X33873000Y-21336000D03*
D10*
G36*
X31365292Y-22299383D02*
G01*
X31373010Y-22300528D01*
X31380578Y-22302423D01*
X31387923Y-22305052D01*
X31394976Y-22308387D01*
X31401668Y-22312398D01*
X31407934Y-22317046D01*
X31413715Y-22322285D01*
X31418954Y-22328066D01*
X31423602Y-22334332D01*
X31427613Y-22341024D01*
X31430948Y-22348077D01*
X31433577Y-22355422D01*
X31435472Y-22362990D01*
X31436617Y-22370708D01*
X31437000Y-22378500D01*
X31437000Y-22579500D01*
X31436617Y-22587292D01*
X31435472Y-22595010D01*
X31433577Y-22602578D01*
X31430948Y-22609923D01*
X31427613Y-22616976D01*
X31423602Y-22623668D01*
X31418954Y-22629934D01*
X31413715Y-22635715D01*
X31407934Y-22640954D01*
X31401668Y-22645602D01*
X31394976Y-22649613D01*
X31387923Y-22652948D01*
X31380578Y-22655577D01*
X31373010Y-22657472D01*
X31365292Y-22658617D01*
X31357500Y-22659000D01*
X31198500Y-22659000D01*
X31190708Y-22658617D01*
X31182990Y-22657472D01*
X31175422Y-22655577D01*
X31168077Y-22652948D01*
X31161024Y-22649613D01*
X31154332Y-22645602D01*
X31148066Y-22640954D01*
X31142285Y-22635715D01*
X31137046Y-22629934D01*
X31132398Y-22623668D01*
X31128387Y-22616976D01*
X31125052Y-22609923D01*
X31122423Y-22602578D01*
X31120528Y-22595010D01*
X31119383Y-22587292D01*
X31119000Y-22579500D01*
X31119000Y-22378500D01*
X31119383Y-22370708D01*
X31120528Y-22362990D01*
X31122423Y-22355422D01*
X31125052Y-22348077D01*
X31128387Y-22341024D01*
X31132398Y-22334332D01*
X31137046Y-22328066D01*
X31142285Y-22322285D01*
X31148066Y-22317046D01*
X31154332Y-22312398D01*
X31161024Y-22308387D01*
X31168077Y-22305052D01*
X31175422Y-22302423D01*
X31182990Y-22300528D01*
X31190708Y-22299383D01*
X31198500Y-22299000D01*
X31357500Y-22299000D01*
X31365292Y-22299383D01*
X31365292Y-22299383D01*
G37*
D11*
X31278000Y-22479000D03*
D10*
G36*
X32055292Y-22299383D02*
G01*
X32063010Y-22300528D01*
X32070578Y-22302423D01*
X32077923Y-22305052D01*
X32084976Y-22308387D01*
X32091668Y-22312398D01*
X32097934Y-22317046D01*
X32103715Y-22322285D01*
X32108954Y-22328066D01*
X32113602Y-22334332D01*
X32117613Y-22341024D01*
X32120948Y-22348077D01*
X32123577Y-22355422D01*
X32125472Y-22362990D01*
X32126617Y-22370708D01*
X32127000Y-22378500D01*
X32127000Y-22579500D01*
X32126617Y-22587292D01*
X32125472Y-22595010D01*
X32123577Y-22602578D01*
X32120948Y-22609923D01*
X32117613Y-22616976D01*
X32113602Y-22623668D01*
X32108954Y-22629934D01*
X32103715Y-22635715D01*
X32097934Y-22640954D01*
X32091668Y-22645602D01*
X32084976Y-22649613D01*
X32077923Y-22652948D01*
X32070578Y-22655577D01*
X32063010Y-22657472D01*
X32055292Y-22658617D01*
X32047500Y-22659000D01*
X31888500Y-22659000D01*
X31880708Y-22658617D01*
X31872990Y-22657472D01*
X31865422Y-22655577D01*
X31858077Y-22652948D01*
X31851024Y-22649613D01*
X31844332Y-22645602D01*
X31838066Y-22640954D01*
X31832285Y-22635715D01*
X31827046Y-22629934D01*
X31822398Y-22623668D01*
X31818387Y-22616976D01*
X31815052Y-22609923D01*
X31812423Y-22602578D01*
X31810528Y-22595010D01*
X31809383Y-22587292D01*
X31809000Y-22579500D01*
X31809000Y-22378500D01*
X31809383Y-22370708D01*
X31810528Y-22362990D01*
X31812423Y-22355422D01*
X31815052Y-22348077D01*
X31818387Y-22341024D01*
X31822398Y-22334332D01*
X31827046Y-22328066D01*
X31832285Y-22322285D01*
X31838066Y-22317046D01*
X31844332Y-22312398D01*
X31851024Y-22308387D01*
X31858077Y-22305052D01*
X31865422Y-22302423D01*
X31872990Y-22300528D01*
X31880708Y-22299383D01*
X31888500Y-22299000D01*
X32047500Y-22299000D01*
X32055292Y-22299383D01*
X32055292Y-22299383D01*
G37*
D11*
X31968000Y-22479000D03*
D10*
G36*
X36754292Y-21156383D02*
G01*
X36762010Y-21157528D01*
X36769578Y-21159423D01*
X36776923Y-21162052D01*
X36783976Y-21165387D01*
X36790668Y-21169398D01*
X36796934Y-21174046D01*
X36802715Y-21179285D01*
X36807954Y-21185066D01*
X36812602Y-21191332D01*
X36816613Y-21198024D01*
X36819948Y-21205077D01*
X36822577Y-21212422D01*
X36824472Y-21219990D01*
X36825617Y-21227708D01*
X36826000Y-21235500D01*
X36826000Y-21436500D01*
X36825617Y-21444292D01*
X36824472Y-21452010D01*
X36822577Y-21459578D01*
X36819948Y-21466923D01*
X36816613Y-21473976D01*
X36812602Y-21480668D01*
X36807954Y-21486934D01*
X36802715Y-21492715D01*
X36796934Y-21497954D01*
X36790668Y-21502602D01*
X36783976Y-21506613D01*
X36776923Y-21509948D01*
X36769578Y-21512577D01*
X36762010Y-21514472D01*
X36754292Y-21515617D01*
X36746500Y-21516000D01*
X36587500Y-21516000D01*
X36579708Y-21515617D01*
X36571990Y-21514472D01*
X36564422Y-21512577D01*
X36557077Y-21509948D01*
X36550024Y-21506613D01*
X36543332Y-21502602D01*
X36537066Y-21497954D01*
X36531285Y-21492715D01*
X36526046Y-21486934D01*
X36521398Y-21480668D01*
X36517387Y-21473976D01*
X36514052Y-21466923D01*
X36511423Y-21459578D01*
X36509528Y-21452010D01*
X36508383Y-21444292D01*
X36508000Y-21436500D01*
X36508000Y-21235500D01*
X36508383Y-21227708D01*
X36509528Y-21219990D01*
X36511423Y-21212422D01*
X36514052Y-21205077D01*
X36517387Y-21198024D01*
X36521398Y-21191332D01*
X36526046Y-21185066D01*
X36531285Y-21179285D01*
X36537066Y-21174046D01*
X36543332Y-21169398D01*
X36550024Y-21165387D01*
X36557077Y-21162052D01*
X36564422Y-21159423D01*
X36571990Y-21157528D01*
X36579708Y-21156383D01*
X36587500Y-21156000D01*
X36746500Y-21156000D01*
X36754292Y-21156383D01*
X36754292Y-21156383D01*
G37*
D11*
X36667000Y-21336000D03*
D10*
G36*
X36064292Y-21156383D02*
G01*
X36072010Y-21157528D01*
X36079578Y-21159423D01*
X36086923Y-21162052D01*
X36093976Y-21165387D01*
X36100668Y-21169398D01*
X36106934Y-21174046D01*
X36112715Y-21179285D01*
X36117954Y-21185066D01*
X36122602Y-21191332D01*
X36126613Y-21198024D01*
X36129948Y-21205077D01*
X36132577Y-21212422D01*
X36134472Y-21219990D01*
X36135617Y-21227708D01*
X36136000Y-21235500D01*
X36136000Y-21436500D01*
X36135617Y-21444292D01*
X36134472Y-21452010D01*
X36132577Y-21459578D01*
X36129948Y-21466923D01*
X36126613Y-21473976D01*
X36122602Y-21480668D01*
X36117954Y-21486934D01*
X36112715Y-21492715D01*
X36106934Y-21497954D01*
X36100668Y-21502602D01*
X36093976Y-21506613D01*
X36086923Y-21509948D01*
X36079578Y-21512577D01*
X36072010Y-21514472D01*
X36064292Y-21515617D01*
X36056500Y-21516000D01*
X35897500Y-21516000D01*
X35889708Y-21515617D01*
X35881990Y-21514472D01*
X35874422Y-21512577D01*
X35867077Y-21509948D01*
X35860024Y-21506613D01*
X35853332Y-21502602D01*
X35847066Y-21497954D01*
X35841285Y-21492715D01*
X35836046Y-21486934D01*
X35831398Y-21480668D01*
X35827387Y-21473976D01*
X35824052Y-21466923D01*
X35821423Y-21459578D01*
X35819528Y-21452010D01*
X35818383Y-21444292D01*
X35818000Y-21436500D01*
X35818000Y-21235500D01*
X35818383Y-21227708D01*
X35819528Y-21219990D01*
X35821423Y-21212422D01*
X35824052Y-21205077D01*
X35827387Y-21198024D01*
X35831398Y-21191332D01*
X35836046Y-21185066D01*
X35841285Y-21179285D01*
X35847066Y-21174046D01*
X35853332Y-21169398D01*
X35860024Y-21165387D01*
X35867077Y-21162052D01*
X35874422Y-21159423D01*
X35881990Y-21157528D01*
X35889708Y-21156383D01*
X35897500Y-21156000D01*
X36056500Y-21156000D01*
X36064292Y-21156383D01*
X36064292Y-21156383D01*
G37*
D11*
X35977000Y-21336000D03*
D10*
G36*
X48256292Y-49096383D02*
G01*
X48264010Y-49097528D01*
X48271578Y-49099423D01*
X48278923Y-49102052D01*
X48285976Y-49105387D01*
X48292668Y-49109398D01*
X48298934Y-49114046D01*
X48304715Y-49119285D01*
X48309954Y-49125066D01*
X48314602Y-49131332D01*
X48318613Y-49138024D01*
X48321948Y-49145077D01*
X48324577Y-49152422D01*
X48326472Y-49159990D01*
X48327617Y-49167708D01*
X48328000Y-49175500D01*
X48328000Y-49376500D01*
X48327617Y-49384292D01*
X48326472Y-49392010D01*
X48324577Y-49399578D01*
X48321948Y-49406923D01*
X48318613Y-49413976D01*
X48314602Y-49420668D01*
X48309954Y-49426934D01*
X48304715Y-49432715D01*
X48298934Y-49437954D01*
X48292668Y-49442602D01*
X48285976Y-49446613D01*
X48278923Y-49449948D01*
X48271578Y-49452577D01*
X48264010Y-49454472D01*
X48256292Y-49455617D01*
X48248500Y-49456000D01*
X48089500Y-49456000D01*
X48081708Y-49455617D01*
X48073990Y-49454472D01*
X48066422Y-49452577D01*
X48059077Y-49449948D01*
X48052024Y-49446613D01*
X48045332Y-49442602D01*
X48039066Y-49437954D01*
X48033285Y-49432715D01*
X48028046Y-49426934D01*
X48023398Y-49420668D01*
X48019387Y-49413976D01*
X48016052Y-49406923D01*
X48013423Y-49399578D01*
X48011528Y-49392010D01*
X48010383Y-49384292D01*
X48010000Y-49376500D01*
X48010000Y-49175500D01*
X48010383Y-49167708D01*
X48011528Y-49159990D01*
X48013423Y-49152422D01*
X48016052Y-49145077D01*
X48019387Y-49138024D01*
X48023398Y-49131332D01*
X48028046Y-49125066D01*
X48033285Y-49119285D01*
X48039066Y-49114046D01*
X48045332Y-49109398D01*
X48052024Y-49105387D01*
X48059077Y-49102052D01*
X48066422Y-49099423D01*
X48073990Y-49097528D01*
X48081708Y-49096383D01*
X48089500Y-49096000D01*
X48248500Y-49096000D01*
X48256292Y-49096383D01*
X48256292Y-49096383D01*
G37*
D11*
X48169000Y-49276000D03*
D10*
G36*
X48946292Y-49096383D02*
G01*
X48954010Y-49097528D01*
X48961578Y-49099423D01*
X48968923Y-49102052D01*
X48975976Y-49105387D01*
X48982668Y-49109398D01*
X48988934Y-49114046D01*
X48994715Y-49119285D01*
X48999954Y-49125066D01*
X49004602Y-49131332D01*
X49008613Y-49138024D01*
X49011948Y-49145077D01*
X49014577Y-49152422D01*
X49016472Y-49159990D01*
X49017617Y-49167708D01*
X49018000Y-49175500D01*
X49018000Y-49376500D01*
X49017617Y-49384292D01*
X49016472Y-49392010D01*
X49014577Y-49399578D01*
X49011948Y-49406923D01*
X49008613Y-49413976D01*
X49004602Y-49420668D01*
X48999954Y-49426934D01*
X48994715Y-49432715D01*
X48988934Y-49437954D01*
X48982668Y-49442602D01*
X48975976Y-49446613D01*
X48968923Y-49449948D01*
X48961578Y-49452577D01*
X48954010Y-49454472D01*
X48946292Y-49455617D01*
X48938500Y-49456000D01*
X48779500Y-49456000D01*
X48771708Y-49455617D01*
X48763990Y-49454472D01*
X48756422Y-49452577D01*
X48749077Y-49449948D01*
X48742024Y-49446613D01*
X48735332Y-49442602D01*
X48729066Y-49437954D01*
X48723285Y-49432715D01*
X48718046Y-49426934D01*
X48713398Y-49420668D01*
X48709387Y-49413976D01*
X48706052Y-49406923D01*
X48703423Y-49399578D01*
X48701528Y-49392010D01*
X48700383Y-49384292D01*
X48700000Y-49376500D01*
X48700000Y-49175500D01*
X48700383Y-49167708D01*
X48701528Y-49159990D01*
X48703423Y-49152422D01*
X48706052Y-49145077D01*
X48709387Y-49138024D01*
X48713398Y-49131332D01*
X48718046Y-49125066D01*
X48723285Y-49119285D01*
X48729066Y-49114046D01*
X48735332Y-49109398D01*
X48742024Y-49105387D01*
X48749077Y-49102052D01*
X48756422Y-49099423D01*
X48763990Y-49097528D01*
X48771708Y-49096383D01*
X48779500Y-49096000D01*
X48938500Y-49096000D01*
X48946292Y-49096383D01*
X48946292Y-49096383D01*
G37*
D11*
X48859000Y-49276000D03*
D10*
G36*
X38278292Y-26490383D02*
G01*
X38286010Y-26491528D01*
X38293578Y-26493423D01*
X38300923Y-26496052D01*
X38307976Y-26499387D01*
X38314668Y-26503398D01*
X38320934Y-26508046D01*
X38326715Y-26513285D01*
X38331954Y-26519066D01*
X38336602Y-26525332D01*
X38340613Y-26532024D01*
X38343948Y-26539077D01*
X38346577Y-26546422D01*
X38348472Y-26553990D01*
X38349617Y-26561708D01*
X38350000Y-26569500D01*
X38350000Y-26770500D01*
X38349617Y-26778292D01*
X38348472Y-26786010D01*
X38346577Y-26793578D01*
X38343948Y-26800923D01*
X38340613Y-26807976D01*
X38336602Y-26814668D01*
X38331954Y-26820934D01*
X38326715Y-26826715D01*
X38320934Y-26831954D01*
X38314668Y-26836602D01*
X38307976Y-26840613D01*
X38300923Y-26843948D01*
X38293578Y-26846577D01*
X38286010Y-26848472D01*
X38278292Y-26849617D01*
X38270500Y-26850000D01*
X38111500Y-26850000D01*
X38103708Y-26849617D01*
X38095990Y-26848472D01*
X38088422Y-26846577D01*
X38081077Y-26843948D01*
X38074024Y-26840613D01*
X38067332Y-26836602D01*
X38061066Y-26831954D01*
X38055285Y-26826715D01*
X38050046Y-26820934D01*
X38045398Y-26814668D01*
X38041387Y-26807976D01*
X38038052Y-26800923D01*
X38035423Y-26793578D01*
X38033528Y-26786010D01*
X38032383Y-26778292D01*
X38032000Y-26770500D01*
X38032000Y-26569500D01*
X38032383Y-26561708D01*
X38033528Y-26553990D01*
X38035423Y-26546422D01*
X38038052Y-26539077D01*
X38041387Y-26532024D01*
X38045398Y-26525332D01*
X38050046Y-26519066D01*
X38055285Y-26513285D01*
X38061066Y-26508046D01*
X38067332Y-26503398D01*
X38074024Y-26499387D01*
X38081077Y-26496052D01*
X38088422Y-26493423D01*
X38095990Y-26491528D01*
X38103708Y-26490383D01*
X38111500Y-26490000D01*
X38270500Y-26490000D01*
X38278292Y-26490383D01*
X38278292Y-26490383D01*
G37*
D11*
X38191000Y-26670000D03*
D10*
G36*
X37588292Y-26490383D02*
G01*
X37596010Y-26491528D01*
X37603578Y-26493423D01*
X37610923Y-26496052D01*
X37617976Y-26499387D01*
X37624668Y-26503398D01*
X37630934Y-26508046D01*
X37636715Y-26513285D01*
X37641954Y-26519066D01*
X37646602Y-26525332D01*
X37650613Y-26532024D01*
X37653948Y-26539077D01*
X37656577Y-26546422D01*
X37658472Y-26553990D01*
X37659617Y-26561708D01*
X37660000Y-26569500D01*
X37660000Y-26770500D01*
X37659617Y-26778292D01*
X37658472Y-26786010D01*
X37656577Y-26793578D01*
X37653948Y-26800923D01*
X37650613Y-26807976D01*
X37646602Y-26814668D01*
X37641954Y-26820934D01*
X37636715Y-26826715D01*
X37630934Y-26831954D01*
X37624668Y-26836602D01*
X37617976Y-26840613D01*
X37610923Y-26843948D01*
X37603578Y-26846577D01*
X37596010Y-26848472D01*
X37588292Y-26849617D01*
X37580500Y-26850000D01*
X37421500Y-26850000D01*
X37413708Y-26849617D01*
X37405990Y-26848472D01*
X37398422Y-26846577D01*
X37391077Y-26843948D01*
X37384024Y-26840613D01*
X37377332Y-26836602D01*
X37371066Y-26831954D01*
X37365285Y-26826715D01*
X37360046Y-26820934D01*
X37355398Y-26814668D01*
X37351387Y-26807976D01*
X37348052Y-26800923D01*
X37345423Y-26793578D01*
X37343528Y-26786010D01*
X37342383Y-26778292D01*
X37342000Y-26770500D01*
X37342000Y-26569500D01*
X37342383Y-26561708D01*
X37343528Y-26553990D01*
X37345423Y-26546422D01*
X37348052Y-26539077D01*
X37351387Y-26532024D01*
X37355398Y-26525332D01*
X37360046Y-26519066D01*
X37365285Y-26513285D01*
X37371066Y-26508046D01*
X37377332Y-26503398D01*
X37384024Y-26499387D01*
X37391077Y-26496052D01*
X37398422Y-26493423D01*
X37405990Y-26491528D01*
X37413708Y-26490383D01*
X37421500Y-26490000D01*
X37580500Y-26490000D01*
X37588292Y-26490383D01*
X37588292Y-26490383D01*
G37*
D11*
X37501000Y-26670000D03*
D10*
G36*
X36500292Y-26490383D02*
G01*
X36508010Y-26491528D01*
X36515578Y-26493423D01*
X36522923Y-26496052D01*
X36529976Y-26499387D01*
X36536668Y-26503398D01*
X36542934Y-26508046D01*
X36548715Y-26513285D01*
X36553954Y-26519066D01*
X36558602Y-26525332D01*
X36562613Y-26532024D01*
X36565948Y-26539077D01*
X36568577Y-26546422D01*
X36570472Y-26553990D01*
X36571617Y-26561708D01*
X36572000Y-26569500D01*
X36572000Y-26770500D01*
X36571617Y-26778292D01*
X36570472Y-26786010D01*
X36568577Y-26793578D01*
X36565948Y-26800923D01*
X36562613Y-26807976D01*
X36558602Y-26814668D01*
X36553954Y-26820934D01*
X36548715Y-26826715D01*
X36542934Y-26831954D01*
X36536668Y-26836602D01*
X36529976Y-26840613D01*
X36522923Y-26843948D01*
X36515578Y-26846577D01*
X36508010Y-26848472D01*
X36500292Y-26849617D01*
X36492500Y-26850000D01*
X36333500Y-26850000D01*
X36325708Y-26849617D01*
X36317990Y-26848472D01*
X36310422Y-26846577D01*
X36303077Y-26843948D01*
X36296024Y-26840613D01*
X36289332Y-26836602D01*
X36283066Y-26831954D01*
X36277285Y-26826715D01*
X36272046Y-26820934D01*
X36267398Y-26814668D01*
X36263387Y-26807976D01*
X36260052Y-26800923D01*
X36257423Y-26793578D01*
X36255528Y-26786010D01*
X36254383Y-26778292D01*
X36254000Y-26770500D01*
X36254000Y-26569500D01*
X36254383Y-26561708D01*
X36255528Y-26553990D01*
X36257423Y-26546422D01*
X36260052Y-26539077D01*
X36263387Y-26532024D01*
X36267398Y-26525332D01*
X36272046Y-26519066D01*
X36277285Y-26513285D01*
X36283066Y-26508046D01*
X36289332Y-26503398D01*
X36296024Y-26499387D01*
X36303077Y-26496052D01*
X36310422Y-26493423D01*
X36317990Y-26491528D01*
X36325708Y-26490383D01*
X36333500Y-26490000D01*
X36492500Y-26490000D01*
X36500292Y-26490383D01*
X36500292Y-26490383D01*
G37*
D11*
X36413000Y-26670000D03*
D10*
G36*
X35810292Y-26490383D02*
G01*
X35818010Y-26491528D01*
X35825578Y-26493423D01*
X35832923Y-26496052D01*
X35839976Y-26499387D01*
X35846668Y-26503398D01*
X35852934Y-26508046D01*
X35858715Y-26513285D01*
X35863954Y-26519066D01*
X35868602Y-26525332D01*
X35872613Y-26532024D01*
X35875948Y-26539077D01*
X35878577Y-26546422D01*
X35880472Y-26553990D01*
X35881617Y-26561708D01*
X35882000Y-26569500D01*
X35882000Y-26770500D01*
X35881617Y-26778292D01*
X35880472Y-26786010D01*
X35878577Y-26793578D01*
X35875948Y-26800923D01*
X35872613Y-26807976D01*
X35868602Y-26814668D01*
X35863954Y-26820934D01*
X35858715Y-26826715D01*
X35852934Y-26831954D01*
X35846668Y-26836602D01*
X35839976Y-26840613D01*
X35832923Y-26843948D01*
X35825578Y-26846577D01*
X35818010Y-26848472D01*
X35810292Y-26849617D01*
X35802500Y-26850000D01*
X35643500Y-26850000D01*
X35635708Y-26849617D01*
X35627990Y-26848472D01*
X35620422Y-26846577D01*
X35613077Y-26843948D01*
X35606024Y-26840613D01*
X35599332Y-26836602D01*
X35593066Y-26831954D01*
X35587285Y-26826715D01*
X35582046Y-26820934D01*
X35577398Y-26814668D01*
X35573387Y-26807976D01*
X35570052Y-26800923D01*
X35567423Y-26793578D01*
X35565528Y-26786010D01*
X35564383Y-26778292D01*
X35564000Y-26770500D01*
X35564000Y-26569500D01*
X35564383Y-26561708D01*
X35565528Y-26553990D01*
X35567423Y-26546422D01*
X35570052Y-26539077D01*
X35573387Y-26532024D01*
X35577398Y-26525332D01*
X35582046Y-26519066D01*
X35587285Y-26513285D01*
X35593066Y-26508046D01*
X35599332Y-26503398D01*
X35606024Y-26499387D01*
X35613077Y-26496052D01*
X35620422Y-26493423D01*
X35627990Y-26491528D01*
X35635708Y-26490383D01*
X35643500Y-26490000D01*
X35802500Y-26490000D01*
X35810292Y-26490383D01*
X35810292Y-26490383D01*
G37*
D11*
X35723000Y-26670000D03*
D10*
G36*
X47894292Y-37412383D02*
G01*
X47902010Y-37413528D01*
X47909578Y-37415423D01*
X47916923Y-37418052D01*
X47923976Y-37421387D01*
X47930668Y-37425398D01*
X47936934Y-37430046D01*
X47942715Y-37435285D01*
X47947954Y-37441066D01*
X47952602Y-37447332D01*
X47956613Y-37454024D01*
X47959948Y-37461077D01*
X47962577Y-37468422D01*
X47964472Y-37475990D01*
X47965617Y-37483708D01*
X47966000Y-37491500D01*
X47966000Y-37692500D01*
X47965617Y-37700292D01*
X47964472Y-37708010D01*
X47962577Y-37715578D01*
X47959948Y-37722923D01*
X47956613Y-37729976D01*
X47952602Y-37736668D01*
X47947954Y-37742934D01*
X47942715Y-37748715D01*
X47936934Y-37753954D01*
X47930668Y-37758602D01*
X47923976Y-37762613D01*
X47916923Y-37765948D01*
X47909578Y-37768577D01*
X47902010Y-37770472D01*
X47894292Y-37771617D01*
X47886500Y-37772000D01*
X47727500Y-37772000D01*
X47719708Y-37771617D01*
X47711990Y-37770472D01*
X47704422Y-37768577D01*
X47697077Y-37765948D01*
X47690024Y-37762613D01*
X47683332Y-37758602D01*
X47677066Y-37753954D01*
X47671285Y-37748715D01*
X47666046Y-37742934D01*
X47661398Y-37736668D01*
X47657387Y-37729976D01*
X47654052Y-37722923D01*
X47651423Y-37715578D01*
X47649528Y-37708010D01*
X47648383Y-37700292D01*
X47648000Y-37692500D01*
X47648000Y-37491500D01*
X47648383Y-37483708D01*
X47649528Y-37475990D01*
X47651423Y-37468422D01*
X47654052Y-37461077D01*
X47657387Y-37454024D01*
X47661398Y-37447332D01*
X47666046Y-37441066D01*
X47671285Y-37435285D01*
X47677066Y-37430046D01*
X47683332Y-37425398D01*
X47690024Y-37421387D01*
X47697077Y-37418052D01*
X47704422Y-37415423D01*
X47711990Y-37413528D01*
X47719708Y-37412383D01*
X47727500Y-37412000D01*
X47886500Y-37412000D01*
X47894292Y-37412383D01*
X47894292Y-37412383D01*
G37*
D11*
X47807000Y-37592000D03*
D10*
G36*
X47204292Y-37412383D02*
G01*
X47212010Y-37413528D01*
X47219578Y-37415423D01*
X47226923Y-37418052D01*
X47233976Y-37421387D01*
X47240668Y-37425398D01*
X47246934Y-37430046D01*
X47252715Y-37435285D01*
X47257954Y-37441066D01*
X47262602Y-37447332D01*
X47266613Y-37454024D01*
X47269948Y-37461077D01*
X47272577Y-37468422D01*
X47274472Y-37475990D01*
X47275617Y-37483708D01*
X47276000Y-37491500D01*
X47276000Y-37692500D01*
X47275617Y-37700292D01*
X47274472Y-37708010D01*
X47272577Y-37715578D01*
X47269948Y-37722923D01*
X47266613Y-37729976D01*
X47262602Y-37736668D01*
X47257954Y-37742934D01*
X47252715Y-37748715D01*
X47246934Y-37753954D01*
X47240668Y-37758602D01*
X47233976Y-37762613D01*
X47226923Y-37765948D01*
X47219578Y-37768577D01*
X47212010Y-37770472D01*
X47204292Y-37771617D01*
X47196500Y-37772000D01*
X47037500Y-37772000D01*
X47029708Y-37771617D01*
X47021990Y-37770472D01*
X47014422Y-37768577D01*
X47007077Y-37765948D01*
X47000024Y-37762613D01*
X46993332Y-37758602D01*
X46987066Y-37753954D01*
X46981285Y-37748715D01*
X46976046Y-37742934D01*
X46971398Y-37736668D01*
X46967387Y-37729976D01*
X46964052Y-37722923D01*
X46961423Y-37715578D01*
X46959528Y-37708010D01*
X46958383Y-37700292D01*
X46958000Y-37692500D01*
X46958000Y-37491500D01*
X46958383Y-37483708D01*
X46959528Y-37475990D01*
X46961423Y-37468422D01*
X46964052Y-37461077D01*
X46967387Y-37454024D01*
X46971398Y-37447332D01*
X46976046Y-37441066D01*
X46981285Y-37435285D01*
X46987066Y-37430046D01*
X46993332Y-37425398D01*
X47000024Y-37421387D01*
X47007077Y-37418052D01*
X47014422Y-37415423D01*
X47021990Y-37413528D01*
X47029708Y-37412383D01*
X47037500Y-37412000D01*
X47196500Y-37412000D01*
X47204292Y-37412383D01*
X47204292Y-37412383D01*
G37*
D11*
X47117000Y-37592000D03*
D10*
G36*
X37243092Y-32313183D02*
G01*
X37250810Y-32314328D01*
X37258378Y-32316223D01*
X37265723Y-32318852D01*
X37272776Y-32322187D01*
X37279468Y-32326198D01*
X37285734Y-32330846D01*
X37291515Y-32336085D01*
X37296754Y-32341866D01*
X37301402Y-32348132D01*
X37305413Y-32354824D01*
X37308748Y-32361877D01*
X37311377Y-32369222D01*
X37313272Y-32376790D01*
X37314417Y-32384508D01*
X37314800Y-32392300D01*
X37314800Y-32551300D01*
X37314417Y-32559092D01*
X37313272Y-32566810D01*
X37311377Y-32574378D01*
X37308748Y-32581723D01*
X37305413Y-32588776D01*
X37301402Y-32595468D01*
X37296754Y-32601734D01*
X37291515Y-32607515D01*
X37285734Y-32612754D01*
X37279468Y-32617402D01*
X37272776Y-32621413D01*
X37265723Y-32624748D01*
X37258378Y-32627377D01*
X37250810Y-32629272D01*
X37243092Y-32630417D01*
X37235300Y-32630800D01*
X37034300Y-32630800D01*
X37026508Y-32630417D01*
X37018790Y-32629272D01*
X37011222Y-32627377D01*
X37003877Y-32624748D01*
X36996824Y-32621413D01*
X36990132Y-32617402D01*
X36983866Y-32612754D01*
X36978085Y-32607515D01*
X36972846Y-32601734D01*
X36968198Y-32595468D01*
X36964187Y-32588776D01*
X36960852Y-32581723D01*
X36958223Y-32574378D01*
X36956328Y-32566810D01*
X36955183Y-32559092D01*
X36954800Y-32551300D01*
X36954800Y-32392300D01*
X36955183Y-32384508D01*
X36956328Y-32376790D01*
X36958223Y-32369222D01*
X36960852Y-32361877D01*
X36964187Y-32354824D01*
X36968198Y-32348132D01*
X36972846Y-32341866D01*
X36978085Y-32336085D01*
X36983866Y-32330846D01*
X36990132Y-32326198D01*
X36996824Y-32322187D01*
X37003877Y-32318852D01*
X37011222Y-32316223D01*
X37018790Y-32314328D01*
X37026508Y-32313183D01*
X37034300Y-32312800D01*
X37235300Y-32312800D01*
X37243092Y-32313183D01*
X37243092Y-32313183D01*
G37*
D11*
X37134800Y-32471800D03*
D10*
G36*
X37243092Y-33003183D02*
G01*
X37250810Y-33004328D01*
X37258378Y-33006223D01*
X37265723Y-33008852D01*
X37272776Y-33012187D01*
X37279468Y-33016198D01*
X37285734Y-33020846D01*
X37291515Y-33026085D01*
X37296754Y-33031866D01*
X37301402Y-33038132D01*
X37305413Y-33044824D01*
X37308748Y-33051877D01*
X37311377Y-33059222D01*
X37313272Y-33066790D01*
X37314417Y-33074508D01*
X37314800Y-33082300D01*
X37314800Y-33241300D01*
X37314417Y-33249092D01*
X37313272Y-33256810D01*
X37311377Y-33264378D01*
X37308748Y-33271723D01*
X37305413Y-33278776D01*
X37301402Y-33285468D01*
X37296754Y-33291734D01*
X37291515Y-33297515D01*
X37285734Y-33302754D01*
X37279468Y-33307402D01*
X37272776Y-33311413D01*
X37265723Y-33314748D01*
X37258378Y-33317377D01*
X37250810Y-33319272D01*
X37243092Y-33320417D01*
X37235300Y-33320800D01*
X37034300Y-33320800D01*
X37026508Y-33320417D01*
X37018790Y-33319272D01*
X37011222Y-33317377D01*
X37003877Y-33314748D01*
X36996824Y-33311413D01*
X36990132Y-33307402D01*
X36983866Y-33302754D01*
X36978085Y-33297515D01*
X36972846Y-33291734D01*
X36968198Y-33285468D01*
X36964187Y-33278776D01*
X36960852Y-33271723D01*
X36958223Y-33264378D01*
X36956328Y-33256810D01*
X36955183Y-33249092D01*
X36954800Y-33241300D01*
X36954800Y-33082300D01*
X36955183Y-33074508D01*
X36956328Y-33066790D01*
X36958223Y-33059222D01*
X36960852Y-33051877D01*
X36964187Y-33044824D01*
X36968198Y-33038132D01*
X36972846Y-33031866D01*
X36978085Y-33026085D01*
X36983866Y-33020846D01*
X36990132Y-33016198D01*
X36996824Y-33012187D01*
X37003877Y-33008852D01*
X37011222Y-33006223D01*
X37018790Y-33004328D01*
X37026508Y-33003183D01*
X37034300Y-33002800D01*
X37235300Y-33002800D01*
X37243092Y-33003183D01*
X37243092Y-33003183D01*
G37*
D11*
X37134800Y-33161800D03*
D10*
G36*
X32036092Y-31805183D02*
G01*
X32043810Y-31806328D01*
X32051378Y-31808223D01*
X32058723Y-31810852D01*
X32065776Y-31814187D01*
X32072468Y-31818198D01*
X32078734Y-31822846D01*
X32084515Y-31828085D01*
X32089754Y-31833866D01*
X32094402Y-31840132D01*
X32098413Y-31846824D01*
X32101748Y-31853877D01*
X32104377Y-31861222D01*
X32106272Y-31868790D01*
X32107417Y-31876508D01*
X32107800Y-31884300D01*
X32107800Y-32043300D01*
X32107417Y-32051092D01*
X32106272Y-32058810D01*
X32104377Y-32066378D01*
X32101748Y-32073723D01*
X32098413Y-32080776D01*
X32094402Y-32087468D01*
X32089754Y-32093734D01*
X32084515Y-32099515D01*
X32078734Y-32104754D01*
X32072468Y-32109402D01*
X32065776Y-32113413D01*
X32058723Y-32116748D01*
X32051378Y-32119377D01*
X32043810Y-32121272D01*
X32036092Y-32122417D01*
X32028300Y-32122800D01*
X31827300Y-32122800D01*
X31819508Y-32122417D01*
X31811790Y-32121272D01*
X31804222Y-32119377D01*
X31796877Y-32116748D01*
X31789824Y-32113413D01*
X31783132Y-32109402D01*
X31776866Y-32104754D01*
X31771085Y-32099515D01*
X31765846Y-32093734D01*
X31761198Y-32087468D01*
X31757187Y-32080776D01*
X31753852Y-32073723D01*
X31751223Y-32066378D01*
X31749328Y-32058810D01*
X31748183Y-32051092D01*
X31747800Y-32043300D01*
X31747800Y-31884300D01*
X31748183Y-31876508D01*
X31749328Y-31868790D01*
X31751223Y-31861222D01*
X31753852Y-31853877D01*
X31757187Y-31846824D01*
X31761198Y-31840132D01*
X31765846Y-31833866D01*
X31771085Y-31828085D01*
X31776866Y-31822846D01*
X31783132Y-31818198D01*
X31789824Y-31814187D01*
X31796877Y-31810852D01*
X31804222Y-31808223D01*
X31811790Y-31806328D01*
X31819508Y-31805183D01*
X31827300Y-31804800D01*
X32028300Y-31804800D01*
X32036092Y-31805183D01*
X32036092Y-31805183D01*
G37*
D11*
X31927800Y-31963800D03*
D10*
G36*
X32036092Y-32495183D02*
G01*
X32043810Y-32496328D01*
X32051378Y-32498223D01*
X32058723Y-32500852D01*
X32065776Y-32504187D01*
X32072468Y-32508198D01*
X32078734Y-32512846D01*
X32084515Y-32518085D01*
X32089754Y-32523866D01*
X32094402Y-32530132D01*
X32098413Y-32536824D01*
X32101748Y-32543877D01*
X32104377Y-32551222D01*
X32106272Y-32558790D01*
X32107417Y-32566508D01*
X32107800Y-32574300D01*
X32107800Y-32733300D01*
X32107417Y-32741092D01*
X32106272Y-32748810D01*
X32104377Y-32756378D01*
X32101748Y-32763723D01*
X32098413Y-32770776D01*
X32094402Y-32777468D01*
X32089754Y-32783734D01*
X32084515Y-32789515D01*
X32078734Y-32794754D01*
X32072468Y-32799402D01*
X32065776Y-32803413D01*
X32058723Y-32806748D01*
X32051378Y-32809377D01*
X32043810Y-32811272D01*
X32036092Y-32812417D01*
X32028300Y-32812800D01*
X31827300Y-32812800D01*
X31819508Y-32812417D01*
X31811790Y-32811272D01*
X31804222Y-32809377D01*
X31796877Y-32806748D01*
X31789824Y-32803413D01*
X31783132Y-32799402D01*
X31776866Y-32794754D01*
X31771085Y-32789515D01*
X31765846Y-32783734D01*
X31761198Y-32777468D01*
X31757187Y-32770776D01*
X31753852Y-32763723D01*
X31751223Y-32756378D01*
X31749328Y-32748810D01*
X31748183Y-32741092D01*
X31747800Y-32733300D01*
X31747800Y-32574300D01*
X31748183Y-32566508D01*
X31749328Y-32558790D01*
X31751223Y-32551222D01*
X31753852Y-32543877D01*
X31757187Y-32536824D01*
X31761198Y-32530132D01*
X31765846Y-32523866D01*
X31771085Y-32518085D01*
X31776866Y-32512846D01*
X31783132Y-32508198D01*
X31789824Y-32504187D01*
X31796877Y-32500852D01*
X31804222Y-32498223D01*
X31811790Y-32496328D01*
X31819508Y-32495183D01*
X31827300Y-32494800D01*
X32028300Y-32494800D01*
X32036092Y-32495183D01*
X32036092Y-32495183D01*
G37*
D11*
X31927800Y-32653800D03*
D10*
G36*
X52502292Y-36396383D02*
G01*
X52510010Y-36397528D01*
X52517578Y-36399423D01*
X52524923Y-36402052D01*
X52531976Y-36405387D01*
X52538668Y-36409398D01*
X52544934Y-36414046D01*
X52550715Y-36419285D01*
X52555954Y-36425066D01*
X52560602Y-36431332D01*
X52564613Y-36438024D01*
X52567948Y-36445077D01*
X52570577Y-36452422D01*
X52572472Y-36459990D01*
X52573617Y-36467708D01*
X52574000Y-36475500D01*
X52574000Y-36676500D01*
X52573617Y-36684292D01*
X52572472Y-36692010D01*
X52570577Y-36699578D01*
X52567948Y-36706923D01*
X52564613Y-36713976D01*
X52560602Y-36720668D01*
X52555954Y-36726934D01*
X52550715Y-36732715D01*
X52544934Y-36737954D01*
X52538668Y-36742602D01*
X52531976Y-36746613D01*
X52524923Y-36749948D01*
X52517578Y-36752577D01*
X52510010Y-36754472D01*
X52502292Y-36755617D01*
X52494500Y-36756000D01*
X52335500Y-36756000D01*
X52327708Y-36755617D01*
X52319990Y-36754472D01*
X52312422Y-36752577D01*
X52305077Y-36749948D01*
X52298024Y-36746613D01*
X52291332Y-36742602D01*
X52285066Y-36737954D01*
X52279285Y-36732715D01*
X52274046Y-36726934D01*
X52269398Y-36720668D01*
X52265387Y-36713976D01*
X52262052Y-36706923D01*
X52259423Y-36699578D01*
X52257528Y-36692010D01*
X52256383Y-36684292D01*
X52256000Y-36676500D01*
X52256000Y-36475500D01*
X52256383Y-36467708D01*
X52257528Y-36459990D01*
X52259423Y-36452422D01*
X52262052Y-36445077D01*
X52265387Y-36438024D01*
X52269398Y-36431332D01*
X52274046Y-36425066D01*
X52279285Y-36419285D01*
X52285066Y-36414046D01*
X52291332Y-36409398D01*
X52298024Y-36405387D01*
X52305077Y-36402052D01*
X52312422Y-36399423D01*
X52319990Y-36397528D01*
X52327708Y-36396383D01*
X52335500Y-36396000D01*
X52494500Y-36396000D01*
X52502292Y-36396383D01*
X52502292Y-36396383D01*
G37*
D11*
X52415000Y-36576000D03*
D10*
G36*
X51812292Y-36396383D02*
G01*
X51820010Y-36397528D01*
X51827578Y-36399423D01*
X51834923Y-36402052D01*
X51841976Y-36405387D01*
X51848668Y-36409398D01*
X51854934Y-36414046D01*
X51860715Y-36419285D01*
X51865954Y-36425066D01*
X51870602Y-36431332D01*
X51874613Y-36438024D01*
X51877948Y-36445077D01*
X51880577Y-36452422D01*
X51882472Y-36459990D01*
X51883617Y-36467708D01*
X51884000Y-36475500D01*
X51884000Y-36676500D01*
X51883617Y-36684292D01*
X51882472Y-36692010D01*
X51880577Y-36699578D01*
X51877948Y-36706923D01*
X51874613Y-36713976D01*
X51870602Y-36720668D01*
X51865954Y-36726934D01*
X51860715Y-36732715D01*
X51854934Y-36737954D01*
X51848668Y-36742602D01*
X51841976Y-36746613D01*
X51834923Y-36749948D01*
X51827578Y-36752577D01*
X51820010Y-36754472D01*
X51812292Y-36755617D01*
X51804500Y-36756000D01*
X51645500Y-36756000D01*
X51637708Y-36755617D01*
X51629990Y-36754472D01*
X51622422Y-36752577D01*
X51615077Y-36749948D01*
X51608024Y-36746613D01*
X51601332Y-36742602D01*
X51595066Y-36737954D01*
X51589285Y-36732715D01*
X51584046Y-36726934D01*
X51579398Y-36720668D01*
X51575387Y-36713976D01*
X51572052Y-36706923D01*
X51569423Y-36699578D01*
X51567528Y-36692010D01*
X51566383Y-36684292D01*
X51566000Y-36676500D01*
X51566000Y-36475500D01*
X51566383Y-36467708D01*
X51567528Y-36459990D01*
X51569423Y-36452422D01*
X51572052Y-36445077D01*
X51575387Y-36438024D01*
X51579398Y-36431332D01*
X51584046Y-36425066D01*
X51589285Y-36419285D01*
X51595066Y-36414046D01*
X51601332Y-36409398D01*
X51608024Y-36405387D01*
X51615077Y-36402052D01*
X51622422Y-36399423D01*
X51629990Y-36397528D01*
X51637708Y-36396383D01*
X51645500Y-36396000D01*
X51804500Y-36396000D01*
X51812292Y-36396383D01*
X51812292Y-36396383D01*
G37*
D11*
X51725000Y-36576000D03*
D10*
G36*
X43866292Y-30554383D02*
G01*
X43874010Y-30555528D01*
X43881578Y-30557423D01*
X43888923Y-30560052D01*
X43895976Y-30563387D01*
X43902668Y-30567398D01*
X43908934Y-30572046D01*
X43914715Y-30577285D01*
X43919954Y-30583066D01*
X43924602Y-30589332D01*
X43928613Y-30596024D01*
X43931948Y-30603077D01*
X43934577Y-30610422D01*
X43936472Y-30617990D01*
X43937617Y-30625708D01*
X43938000Y-30633500D01*
X43938000Y-30834500D01*
X43937617Y-30842292D01*
X43936472Y-30850010D01*
X43934577Y-30857578D01*
X43931948Y-30864923D01*
X43928613Y-30871976D01*
X43924602Y-30878668D01*
X43919954Y-30884934D01*
X43914715Y-30890715D01*
X43908934Y-30895954D01*
X43902668Y-30900602D01*
X43895976Y-30904613D01*
X43888923Y-30907948D01*
X43881578Y-30910577D01*
X43874010Y-30912472D01*
X43866292Y-30913617D01*
X43858500Y-30914000D01*
X43699500Y-30914000D01*
X43691708Y-30913617D01*
X43683990Y-30912472D01*
X43676422Y-30910577D01*
X43669077Y-30907948D01*
X43662024Y-30904613D01*
X43655332Y-30900602D01*
X43649066Y-30895954D01*
X43643285Y-30890715D01*
X43638046Y-30884934D01*
X43633398Y-30878668D01*
X43629387Y-30871976D01*
X43626052Y-30864923D01*
X43623423Y-30857578D01*
X43621528Y-30850010D01*
X43620383Y-30842292D01*
X43620000Y-30834500D01*
X43620000Y-30633500D01*
X43620383Y-30625708D01*
X43621528Y-30617990D01*
X43623423Y-30610422D01*
X43626052Y-30603077D01*
X43629387Y-30596024D01*
X43633398Y-30589332D01*
X43638046Y-30583066D01*
X43643285Y-30577285D01*
X43649066Y-30572046D01*
X43655332Y-30567398D01*
X43662024Y-30563387D01*
X43669077Y-30560052D01*
X43676422Y-30557423D01*
X43683990Y-30555528D01*
X43691708Y-30554383D01*
X43699500Y-30554000D01*
X43858500Y-30554000D01*
X43866292Y-30554383D01*
X43866292Y-30554383D01*
G37*
D11*
X43779000Y-30734000D03*
D10*
G36*
X43176292Y-30554383D02*
G01*
X43184010Y-30555528D01*
X43191578Y-30557423D01*
X43198923Y-30560052D01*
X43205976Y-30563387D01*
X43212668Y-30567398D01*
X43218934Y-30572046D01*
X43224715Y-30577285D01*
X43229954Y-30583066D01*
X43234602Y-30589332D01*
X43238613Y-30596024D01*
X43241948Y-30603077D01*
X43244577Y-30610422D01*
X43246472Y-30617990D01*
X43247617Y-30625708D01*
X43248000Y-30633500D01*
X43248000Y-30834500D01*
X43247617Y-30842292D01*
X43246472Y-30850010D01*
X43244577Y-30857578D01*
X43241948Y-30864923D01*
X43238613Y-30871976D01*
X43234602Y-30878668D01*
X43229954Y-30884934D01*
X43224715Y-30890715D01*
X43218934Y-30895954D01*
X43212668Y-30900602D01*
X43205976Y-30904613D01*
X43198923Y-30907948D01*
X43191578Y-30910577D01*
X43184010Y-30912472D01*
X43176292Y-30913617D01*
X43168500Y-30914000D01*
X43009500Y-30914000D01*
X43001708Y-30913617D01*
X42993990Y-30912472D01*
X42986422Y-30910577D01*
X42979077Y-30907948D01*
X42972024Y-30904613D01*
X42965332Y-30900602D01*
X42959066Y-30895954D01*
X42953285Y-30890715D01*
X42948046Y-30884934D01*
X42943398Y-30878668D01*
X42939387Y-30871976D01*
X42936052Y-30864923D01*
X42933423Y-30857578D01*
X42931528Y-30850010D01*
X42930383Y-30842292D01*
X42930000Y-30834500D01*
X42930000Y-30633500D01*
X42930383Y-30625708D01*
X42931528Y-30617990D01*
X42933423Y-30610422D01*
X42936052Y-30603077D01*
X42939387Y-30596024D01*
X42943398Y-30589332D01*
X42948046Y-30583066D01*
X42953285Y-30577285D01*
X42959066Y-30572046D01*
X42965332Y-30567398D01*
X42972024Y-30563387D01*
X42979077Y-30560052D01*
X42986422Y-30557423D01*
X42993990Y-30555528D01*
X43001708Y-30554383D01*
X43009500Y-30554000D01*
X43168500Y-30554000D01*
X43176292Y-30554383D01*
X43176292Y-30554383D01*
G37*
D11*
X43089000Y-30734000D03*
D10*
G36*
X40763292Y-30554383D02*
G01*
X40771010Y-30555528D01*
X40778578Y-30557423D01*
X40785923Y-30560052D01*
X40792976Y-30563387D01*
X40799668Y-30567398D01*
X40805934Y-30572046D01*
X40811715Y-30577285D01*
X40816954Y-30583066D01*
X40821602Y-30589332D01*
X40825613Y-30596024D01*
X40828948Y-30603077D01*
X40831577Y-30610422D01*
X40833472Y-30617990D01*
X40834617Y-30625708D01*
X40835000Y-30633500D01*
X40835000Y-30834500D01*
X40834617Y-30842292D01*
X40833472Y-30850010D01*
X40831577Y-30857578D01*
X40828948Y-30864923D01*
X40825613Y-30871976D01*
X40821602Y-30878668D01*
X40816954Y-30884934D01*
X40811715Y-30890715D01*
X40805934Y-30895954D01*
X40799668Y-30900602D01*
X40792976Y-30904613D01*
X40785923Y-30907948D01*
X40778578Y-30910577D01*
X40771010Y-30912472D01*
X40763292Y-30913617D01*
X40755500Y-30914000D01*
X40596500Y-30914000D01*
X40588708Y-30913617D01*
X40580990Y-30912472D01*
X40573422Y-30910577D01*
X40566077Y-30907948D01*
X40559024Y-30904613D01*
X40552332Y-30900602D01*
X40546066Y-30895954D01*
X40540285Y-30890715D01*
X40535046Y-30884934D01*
X40530398Y-30878668D01*
X40526387Y-30871976D01*
X40523052Y-30864923D01*
X40520423Y-30857578D01*
X40518528Y-30850010D01*
X40517383Y-30842292D01*
X40517000Y-30834500D01*
X40517000Y-30633500D01*
X40517383Y-30625708D01*
X40518528Y-30617990D01*
X40520423Y-30610422D01*
X40523052Y-30603077D01*
X40526387Y-30596024D01*
X40530398Y-30589332D01*
X40535046Y-30583066D01*
X40540285Y-30577285D01*
X40546066Y-30572046D01*
X40552332Y-30567398D01*
X40559024Y-30563387D01*
X40566077Y-30560052D01*
X40573422Y-30557423D01*
X40580990Y-30555528D01*
X40588708Y-30554383D01*
X40596500Y-30554000D01*
X40755500Y-30554000D01*
X40763292Y-30554383D01*
X40763292Y-30554383D01*
G37*
D11*
X40676000Y-30734000D03*
D10*
G36*
X41453292Y-30554383D02*
G01*
X41461010Y-30555528D01*
X41468578Y-30557423D01*
X41475923Y-30560052D01*
X41482976Y-30563387D01*
X41489668Y-30567398D01*
X41495934Y-30572046D01*
X41501715Y-30577285D01*
X41506954Y-30583066D01*
X41511602Y-30589332D01*
X41515613Y-30596024D01*
X41518948Y-30603077D01*
X41521577Y-30610422D01*
X41523472Y-30617990D01*
X41524617Y-30625708D01*
X41525000Y-30633500D01*
X41525000Y-30834500D01*
X41524617Y-30842292D01*
X41523472Y-30850010D01*
X41521577Y-30857578D01*
X41518948Y-30864923D01*
X41515613Y-30871976D01*
X41511602Y-30878668D01*
X41506954Y-30884934D01*
X41501715Y-30890715D01*
X41495934Y-30895954D01*
X41489668Y-30900602D01*
X41482976Y-30904613D01*
X41475923Y-30907948D01*
X41468578Y-30910577D01*
X41461010Y-30912472D01*
X41453292Y-30913617D01*
X41445500Y-30914000D01*
X41286500Y-30914000D01*
X41278708Y-30913617D01*
X41270990Y-30912472D01*
X41263422Y-30910577D01*
X41256077Y-30907948D01*
X41249024Y-30904613D01*
X41242332Y-30900602D01*
X41236066Y-30895954D01*
X41230285Y-30890715D01*
X41225046Y-30884934D01*
X41220398Y-30878668D01*
X41216387Y-30871976D01*
X41213052Y-30864923D01*
X41210423Y-30857578D01*
X41208528Y-30850010D01*
X41207383Y-30842292D01*
X41207000Y-30834500D01*
X41207000Y-30633500D01*
X41207383Y-30625708D01*
X41208528Y-30617990D01*
X41210423Y-30610422D01*
X41213052Y-30603077D01*
X41216387Y-30596024D01*
X41220398Y-30589332D01*
X41225046Y-30583066D01*
X41230285Y-30577285D01*
X41236066Y-30572046D01*
X41242332Y-30567398D01*
X41249024Y-30563387D01*
X41256077Y-30560052D01*
X41263422Y-30557423D01*
X41270990Y-30555528D01*
X41278708Y-30554383D01*
X41286500Y-30554000D01*
X41445500Y-30554000D01*
X41453292Y-30554383D01*
X41453292Y-30554383D01*
G37*
D11*
X41366000Y-30734000D03*
D10*
G36*
X32112292Y-34222383D02*
G01*
X32120010Y-34223528D01*
X32127578Y-34225423D01*
X32134923Y-34228052D01*
X32141976Y-34231387D01*
X32148668Y-34235398D01*
X32154934Y-34240046D01*
X32160715Y-34245285D01*
X32165954Y-34251066D01*
X32170602Y-34257332D01*
X32174613Y-34264024D01*
X32177948Y-34271077D01*
X32180577Y-34278422D01*
X32182472Y-34285990D01*
X32183617Y-34293708D01*
X32184000Y-34301500D01*
X32184000Y-34460500D01*
X32183617Y-34468292D01*
X32182472Y-34476010D01*
X32180577Y-34483578D01*
X32177948Y-34490923D01*
X32174613Y-34497976D01*
X32170602Y-34504668D01*
X32165954Y-34510934D01*
X32160715Y-34516715D01*
X32154934Y-34521954D01*
X32148668Y-34526602D01*
X32141976Y-34530613D01*
X32134923Y-34533948D01*
X32127578Y-34536577D01*
X32120010Y-34538472D01*
X32112292Y-34539617D01*
X32104500Y-34540000D01*
X31903500Y-34540000D01*
X31895708Y-34539617D01*
X31887990Y-34538472D01*
X31880422Y-34536577D01*
X31873077Y-34533948D01*
X31866024Y-34530613D01*
X31859332Y-34526602D01*
X31853066Y-34521954D01*
X31847285Y-34516715D01*
X31842046Y-34510934D01*
X31837398Y-34504668D01*
X31833387Y-34497976D01*
X31830052Y-34490923D01*
X31827423Y-34483578D01*
X31825528Y-34476010D01*
X31824383Y-34468292D01*
X31824000Y-34460500D01*
X31824000Y-34301500D01*
X31824383Y-34293708D01*
X31825528Y-34285990D01*
X31827423Y-34278422D01*
X31830052Y-34271077D01*
X31833387Y-34264024D01*
X31837398Y-34257332D01*
X31842046Y-34251066D01*
X31847285Y-34245285D01*
X31853066Y-34240046D01*
X31859332Y-34235398D01*
X31866024Y-34231387D01*
X31873077Y-34228052D01*
X31880422Y-34225423D01*
X31887990Y-34223528D01*
X31895708Y-34222383D01*
X31903500Y-34222000D01*
X32104500Y-34222000D01*
X32112292Y-34222383D01*
X32112292Y-34222383D01*
G37*
D11*
X32004000Y-34381000D03*
D10*
G36*
X32112292Y-33532383D02*
G01*
X32120010Y-33533528D01*
X32127578Y-33535423D01*
X32134923Y-33538052D01*
X32141976Y-33541387D01*
X32148668Y-33545398D01*
X32154934Y-33550046D01*
X32160715Y-33555285D01*
X32165954Y-33561066D01*
X32170602Y-33567332D01*
X32174613Y-33574024D01*
X32177948Y-33581077D01*
X32180577Y-33588422D01*
X32182472Y-33595990D01*
X32183617Y-33603708D01*
X32184000Y-33611500D01*
X32184000Y-33770500D01*
X32183617Y-33778292D01*
X32182472Y-33786010D01*
X32180577Y-33793578D01*
X32177948Y-33800923D01*
X32174613Y-33807976D01*
X32170602Y-33814668D01*
X32165954Y-33820934D01*
X32160715Y-33826715D01*
X32154934Y-33831954D01*
X32148668Y-33836602D01*
X32141976Y-33840613D01*
X32134923Y-33843948D01*
X32127578Y-33846577D01*
X32120010Y-33848472D01*
X32112292Y-33849617D01*
X32104500Y-33850000D01*
X31903500Y-33850000D01*
X31895708Y-33849617D01*
X31887990Y-33848472D01*
X31880422Y-33846577D01*
X31873077Y-33843948D01*
X31866024Y-33840613D01*
X31859332Y-33836602D01*
X31853066Y-33831954D01*
X31847285Y-33826715D01*
X31842046Y-33820934D01*
X31837398Y-33814668D01*
X31833387Y-33807976D01*
X31830052Y-33800923D01*
X31827423Y-33793578D01*
X31825528Y-33786010D01*
X31824383Y-33778292D01*
X31824000Y-33770500D01*
X31824000Y-33611500D01*
X31824383Y-33603708D01*
X31825528Y-33595990D01*
X31827423Y-33588422D01*
X31830052Y-33581077D01*
X31833387Y-33574024D01*
X31837398Y-33567332D01*
X31842046Y-33561066D01*
X31847285Y-33555285D01*
X31853066Y-33550046D01*
X31859332Y-33545398D01*
X31866024Y-33541387D01*
X31873077Y-33538052D01*
X31880422Y-33535423D01*
X31887990Y-33533528D01*
X31895708Y-33532383D01*
X31903500Y-33532000D01*
X32104500Y-33532000D01*
X32112292Y-33532383D01*
X32112292Y-33532383D01*
G37*
D11*
X32004000Y-33691000D03*
D10*
G36*
X42922292Y-63320383D02*
G01*
X42930010Y-63321528D01*
X42937578Y-63323423D01*
X42944923Y-63326052D01*
X42951976Y-63329387D01*
X42958668Y-63333398D01*
X42964934Y-63338046D01*
X42970715Y-63343285D01*
X42975954Y-63349066D01*
X42980602Y-63355332D01*
X42984613Y-63362024D01*
X42987948Y-63369077D01*
X42990577Y-63376422D01*
X42992472Y-63383990D01*
X42993617Y-63391708D01*
X42994000Y-63399500D01*
X42994000Y-63600500D01*
X42993617Y-63608292D01*
X42992472Y-63616010D01*
X42990577Y-63623578D01*
X42987948Y-63630923D01*
X42984613Y-63637976D01*
X42980602Y-63644668D01*
X42975954Y-63650934D01*
X42970715Y-63656715D01*
X42964934Y-63661954D01*
X42958668Y-63666602D01*
X42951976Y-63670613D01*
X42944923Y-63673948D01*
X42937578Y-63676577D01*
X42930010Y-63678472D01*
X42922292Y-63679617D01*
X42914500Y-63680000D01*
X42755500Y-63680000D01*
X42747708Y-63679617D01*
X42739990Y-63678472D01*
X42732422Y-63676577D01*
X42725077Y-63673948D01*
X42718024Y-63670613D01*
X42711332Y-63666602D01*
X42705066Y-63661954D01*
X42699285Y-63656715D01*
X42694046Y-63650934D01*
X42689398Y-63644668D01*
X42685387Y-63637976D01*
X42682052Y-63630923D01*
X42679423Y-63623578D01*
X42677528Y-63616010D01*
X42676383Y-63608292D01*
X42676000Y-63600500D01*
X42676000Y-63399500D01*
X42676383Y-63391708D01*
X42677528Y-63383990D01*
X42679423Y-63376422D01*
X42682052Y-63369077D01*
X42685387Y-63362024D01*
X42689398Y-63355332D01*
X42694046Y-63349066D01*
X42699285Y-63343285D01*
X42705066Y-63338046D01*
X42711332Y-63333398D01*
X42718024Y-63329387D01*
X42725077Y-63326052D01*
X42732422Y-63323423D01*
X42739990Y-63321528D01*
X42747708Y-63320383D01*
X42755500Y-63320000D01*
X42914500Y-63320000D01*
X42922292Y-63320383D01*
X42922292Y-63320383D01*
G37*
D11*
X42835000Y-63500000D03*
D10*
G36*
X43612292Y-63320383D02*
G01*
X43620010Y-63321528D01*
X43627578Y-63323423D01*
X43634923Y-63326052D01*
X43641976Y-63329387D01*
X43648668Y-63333398D01*
X43654934Y-63338046D01*
X43660715Y-63343285D01*
X43665954Y-63349066D01*
X43670602Y-63355332D01*
X43674613Y-63362024D01*
X43677948Y-63369077D01*
X43680577Y-63376422D01*
X43682472Y-63383990D01*
X43683617Y-63391708D01*
X43684000Y-63399500D01*
X43684000Y-63600500D01*
X43683617Y-63608292D01*
X43682472Y-63616010D01*
X43680577Y-63623578D01*
X43677948Y-63630923D01*
X43674613Y-63637976D01*
X43670602Y-63644668D01*
X43665954Y-63650934D01*
X43660715Y-63656715D01*
X43654934Y-63661954D01*
X43648668Y-63666602D01*
X43641976Y-63670613D01*
X43634923Y-63673948D01*
X43627578Y-63676577D01*
X43620010Y-63678472D01*
X43612292Y-63679617D01*
X43604500Y-63680000D01*
X43445500Y-63680000D01*
X43437708Y-63679617D01*
X43429990Y-63678472D01*
X43422422Y-63676577D01*
X43415077Y-63673948D01*
X43408024Y-63670613D01*
X43401332Y-63666602D01*
X43395066Y-63661954D01*
X43389285Y-63656715D01*
X43384046Y-63650934D01*
X43379398Y-63644668D01*
X43375387Y-63637976D01*
X43372052Y-63630923D01*
X43369423Y-63623578D01*
X43367528Y-63616010D01*
X43366383Y-63608292D01*
X43366000Y-63600500D01*
X43366000Y-63399500D01*
X43366383Y-63391708D01*
X43367528Y-63383990D01*
X43369423Y-63376422D01*
X43372052Y-63369077D01*
X43375387Y-63362024D01*
X43379398Y-63355332D01*
X43384046Y-63349066D01*
X43389285Y-63343285D01*
X43395066Y-63338046D01*
X43401332Y-63333398D01*
X43408024Y-63329387D01*
X43415077Y-63326052D01*
X43422422Y-63323423D01*
X43429990Y-63321528D01*
X43437708Y-63320383D01*
X43445500Y-63320000D01*
X43604500Y-63320000D01*
X43612292Y-63320383D01*
X43612292Y-63320383D01*
G37*
D11*
X43525000Y-63500000D03*
D10*
G36*
X42850292Y-59764383D02*
G01*
X42858010Y-59765528D01*
X42865578Y-59767423D01*
X42872923Y-59770052D01*
X42879976Y-59773387D01*
X42886668Y-59777398D01*
X42892934Y-59782046D01*
X42898715Y-59787285D01*
X42903954Y-59793066D01*
X42908602Y-59799332D01*
X42912613Y-59806024D01*
X42915948Y-59813077D01*
X42918577Y-59820422D01*
X42920472Y-59827990D01*
X42921617Y-59835708D01*
X42922000Y-59843500D01*
X42922000Y-60044500D01*
X42921617Y-60052292D01*
X42920472Y-60060010D01*
X42918577Y-60067578D01*
X42915948Y-60074923D01*
X42912613Y-60081976D01*
X42908602Y-60088668D01*
X42903954Y-60094934D01*
X42898715Y-60100715D01*
X42892934Y-60105954D01*
X42886668Y-60110602D01*
X42879976Y-60114613D01*
X42872923Y-60117948D01*
X42865578Y-60120577D01*
X42858010Y-60122472D01*
X42850292Y-60123617D01*
X42842500Y-60124000D01*
X42683500Y-60124000D01*
X42675708Y-60123617D01*
X42667990Y-60122472D01*
X42660422Y-60120577D01*
X42653077Y-60117948D01*
X42646024Y-60114613D01*
X42639332Y-60110602D01*
X42633066Y-60105954D01*
X42627285Y-60100715D01*
X42622046Y-60094934D01*
X42617398Y-60088668D01*
X42613387Y-60081976D01*
X42610052Y-60074923D01*
X42607423Y-60067578D01*
X42605528Y-60060010D01*
X42604383Y-60052292D01*
X42604000Y-60044500D01*
X42604000Y-59843500D01*
X42604383Y-59835708D01*
X42605528Y-59827990D01*
X42607423Y-59820422D01*
X42610052Y-59813077D01*
X42613387Y-59806024D01*
X42617398Y-59799332D01*
X42622046Y-59793066D01*
X42627285Y-59787285D01*
X42633066Y-59782046D01*
X42639332Y-59777398D01*
X42646024Y-59773387D01*
X42653077Y-59770052D01*
X42660422Y-59767423D01*
X42667990Y-59765528D01*
X42675708Y-59764383D01*
X42683500Y-59764000D01*
X42842500Y-59764000D01*
X42850292Y-59764383D01*
X42850292Y-59764383D01*
G37*
D11*
X42763000Y-59944000D03*
D10*
G36*
X42160292Y-59764383D02*
G01*
X42168010Y-59765528D01*
X42175578Y-59767423D01*
X42182923Y-59770052D01*
X42189976Y-59773387D01*
X42196668Y-59777398D01*
X42202934Y-59782046D01*
X42208715Y-59787285D01*
X42213954Y-59793066D01*
X42218602Y-59799332D01*
X42222613Y-59806024D01*
X42225948Y-59813077D01*
X42228577Y-59820422D01*
X42230472Y-59827990D01*
X42231617Y-59835708D01*
X42232000Y-59843500D01*
X42232000Y-60044500D01*
X42231617Y-60052292D01*
X42230472Y-60060010D01*
X42228577Y-60067578D01*
X42225948Y-60074923D01*
X42222613Y-60081976D01*
X42218602Y-60088668D01*
X42213954Y-60094934D01*
X42208715Y-60100715D01*
X42202934Y-60105954D01*
X42196668Y-60110602D01*
X42189976Y-60114613D01*
X42182923Y-60117948D01*
X42175578Y-60120577D01*
X42168010Y-60122472D01*
X42160292Y-60123617D01*
X42152500Y-60124000D01*
X41993500Y-60124000D01*
X41985708Y-60123617D01*
X41977990Y-60122472D01*
X41970422Y-60120577D01*
X41963077Y-60117948D01*
X41956024Y-60114613D01*
X41949332Y-60110602D01*
X41943066Y-60105954D01*
X41937285Y-60100715D01*
X41932046Y-60094934D01*
X41927398Y-60088668D01*
X41923387Y-60081976D01*
X41920052Y-60074923D01*
X41917423Y-60067578D01*
X41915528Y-60060010D01*
X41914383Y-60052292D01*
X41914000Y-60044500D01*
X41914000Y-59843500D01*
X41914383Y-59835708D01*
X41915528Y-59827990D01*
X41917423Y-59820422D01*
X41920052Y-59813077D01*
X41923387Y-59806024D01*
X41927398Y-59799332D01*
X41932046Y-59793066D01*
X41937285Y-59787285D01*
X41943066Y-59782046D01*
X41949332Y-59777398D01*
X41956024Y-59773387D01*
X41963077Y-59770052D01*
X41970422Y-59767423D01*
X41977990Y-59765528D01*
X41985708Y-59764383D01*
X41993500Y-59764000D01*
X42152500Y-59764000D01*
X42160292Y-59764383D01*
X42160292Y-59764383D01*
G37*
D11*
X42073000Y-59944000D03*
D10*
G36*
X43796292Y-53725383D02*
G01*
X43804010Y-53726528D01*
X43811578Y-53728423D01*
X43818923Y-53731052D01*
X43825976Y-53734387D01*
X43832668Y-53738398D01*
X43838934Y-53743046D01*
X43844715Y-53748285D01*
X43849954Y-53754066D01*
X43854602Y-53760332D01*
X43858613Y-53767024D01*
X43861948Y-53774077D01*
X43864577Y-53781422D01*
X43866472Y-53788990D01*
X43867617Y-53796708D01*
X43868000Y-53804500D01*
X43868000Y-53963500D01*
X43867617Y-53971292D01*
X43866472Y-53979010D01*
X43864577Y-53986578D01*
X43861948Y-53993923D01*
X43858613Y-54000976D01*
X43854602Y-54007668D01*
X43849954Y-54013934D01*
X43844715Y-54019715D01*
X43838934Y-54024954D01*
X43832668Y-54029602D01*
X43825976Y-54033613D01*
X43818923Y-54036948D01*
X43811578Y-54039577D01*
X43804010Y-54041472D01*
X43796292Y-54042617D01*
X43788500Y-54043000D01*
X43587500Y-54043000D01*
X43579708Y-54042617D01*
X43571990Y-54041472D01*
X43564422Y-54039577D01*
X43557077Y-54036948D01*
X43550024Y-54033613D01*
X43543332Y-54029602D01*
X43537066Y-54024954D01*
X43531285Y-54019715D01*
X43526046Y-54013934D01*
X43521398Y-54007668D01*
X43517387Y-54000976D01*
X43514052Y-53993923D01*
X43511423Y-53986578D01*
X43509528Y-53979010D01*
X43508383Y-53971292D01*
X43508000Y-53963500D01*
X43508000Y-53804500D01*
X43508383Y-53796708D01*
X43509528Y-53788990D01*
X43511423Y-53781422D01*
X43514052Y-53774077D01*
X43517387Y-53767024D01*
X43521398Y-53760332D01*
X43526046Y-53754066D01*
X43531285Y-53748285D01*
X43537066Y-53743046D01*
X43543332Y-53738398D01*
X43550024Y-53734387D01*
X43557077Y-53731052D01*
X43564422Y-53728423D01*
X43571990Y-53726528D01*
X43579708Y-53725383D01*
X43587500Y-53725000D01*
X43788500Y-53725000D01*
X43796292Y-53725383D01*
X43796292Y-53725383D01*
G37*
D11*
X43688000Y-53884000D03*
D10*
G36*
X43796292Y-54415383D02*
G01*
X43804010Y-54416528D01*
X43811578Y-54418423D01*
X43818923Y-54421052D01*
X43825976Y-54424387D01*
X43832668Y-54428398D01*
X43838934Y-54433046D01*
X43844715Y-54438285D01*
X43849954Y-54444066D01*
X43854602Y-54450332D01*
X43858613Y-54457024D01*
X43861948Y-54464077D01*
X43864577Y-54471422D01*
X43866472Y-54478990D01*
X43867617Y-54486708D01*
X43868000Y-54494500D01*
X43868000Y-54653500D01*
X43867617Y-54661292D01*
X43866472Y-54669010D01*
X43864577Y-54676578D01*
X43861948Y-54683923D01*
X43858613Y-54690976D01*
X43854602Y-54697668D01*
X43849954Y-54703934D01*
X43844715Y-54709715D01*
X43838934Y-54714954D01*
X43832668Y-54719602D01*
X43825976Y-54723613D01*
X43818923Y-54726948D01*
X43811578Y-54729577D01*
X43804010Y-54731472D01*
X43796292Y-54732617D01*
X43788500Y-54733000D01*
X43587500Y-54733000D01*
X43579708Y-54732617D01*
X43571990Y-54731472D01*
X43564422Y-54729577D01*
X43557077Y-54726948D01*
X43550024Y-54723613D01*
X43543332Y-54719602D01*
X43537066Y-54714954D01*
X43531285Y-54709715D01*
X43526046Y-54703934D01*
X43521398Y-54697668D01*
X43517387Y-54690976D01*
X43514052Y-54683923D01*
X43511423Y-54676578D01*
X43509528Y-54669010D01*
X43508383Y-54661292D01*
X43508000Y-54653500D01*
X43508000Y-54494500D01*
X43508383Y-54486708D01*
X43509528Y-54478990D01*
X43511423Y-54471422D01*
X43514052Y-54464077D01*
X43517387Y-54457024D01*
X43521398Y-54450332D01*
X43526046Y-54444066D01*
X43531285Y-54438285D01*
X43537066Y-54433046D01*
X43543332Y-54428398D01*
X43550024Y-54424387D01*
X43557077Y-54421052D01*
X43564422Y-54418423D01*
X43571990Y-54416528D01*
X43579708Y-54415383D01*
X43587500Y-54415000D01*
X43788500Y-54415000D01*
X43796292Y-54415383D01*
X43796292Y-54415383D01*
G37*
D11*
X43688000Y-54574000D03*
D10*
G36*
X44685292Y-54542383D02*
G01*
X44693010Y-54543528D01*
X44700578Y-54545423D01*
X44707923Y-54548052D01*
X44714976Y-54551387D01*
X44721668Y-54555398D01*
X44727934Y-54560046D01*
X44733715Y-54565285D01*
X44738954Y-54571066D01*
X44743602Y-54577332D01*
X44747613Y-54584024D01*
X44750948Y-54591077D01*
X44753577Y-54598422D01*
X44755472Y-54605990D01*
X44756617Y-54613708D01*
X44757000Y-54621500D01*
X44757000Y-54780500D01*
X44756617Y-54788292D01*
X44755472Y-54796010D01*
X44753577Y-54803578D01*
X44750948Y-54810923D01*
X44747613Y-54817976D01*
X44743602Y-54824668D01*
X44738954Y-54830934D01*
X44733715Y-54836715D01*
X44727934Y-54841954D01*
X44721668Y-54846602D01*
X44714976Y-54850613D01*
X44707923Y-54853948D01*
X44700578Y-54856577D01*
X44693010Y-54858472D01*
X44685292Y-54859617D01*
X44677500Y-54860000D01*
X44476500Y-54860000D01*
X44468708Y-54859617D01*
X44460990Y-54858472D01*
X44453422Y-54856577D01*
X44446077Y-54853948D01*
X44439024Y-54850613D01*
X44432332Y-54846602D01*
X44426066Y-54841954D01*
X44420285Y-54836715D01*
X44415046Y-54830934D01*
X44410398Y-54824668D01*
X44406387Y-54817976D01*
X44403052Y-54810923D01*
X44400423Y-54803578D01*
X44398528Y-54796010D01*
X44397383Y-54788292D01*
X44397000Y-54780500D01*
X44397000Y-54621500D01*
X44397383Y-54613708D01*
X44398528Y-54605990D01*
X44400423Y-54598422D01*
X44403052Y-54591077D01*
X44406387Y-54584024D01*
X44410398Y-54577332D01*
X44415046Y-54571066D01*
X44420285Y-54565285D01*
X44426066Y-54560046D01*
X44432332Y-54555398D01*
X44439024Y-54551387D01*
X44446077Y-54548052D01*
X44453422Y-54545423D01*
X44460990Y-54543528D01*
X44468708Y-54542383D01*
X44476500Y-54542000D01*
X44677500Y-54542000D01*
X44685292Y-54542383D01*
X44685292Y-54542383D01*
G37*
D11*
X44577000Y-54701000D03*
D10*
G36*
X44685292Y-53852383D02*
G01*
X44693010Y-53853528D01*
X44700578Y-53855423D01*
X44707923Y-53858052D01*
X44714976Y-53861387D01*
X44721668Y-53865398D01*
X44727934Y-53870046D01*
X44733715Y-53875285D01*
X44738954Y-53881066D01*
X44743602Y-53887332D01*
X44747613Y-53894024D01*
X44750948Y-53901077D01*
X44753577Y-53908422D01*
X44755472Y-53915990D01*
X44756617Y-53923708D01*
X44757000Y-53931500D01*
X44757000Y-54090500D01*
X44756617Y-54098292D01*
X44755472Y-54106010D01*
X44753577Y-54113578D01*
X44750948Y-54120923D01*
X44747613Y-54127976D01*
X44743602Y-54134668D01*
X44738954Y-54140934D01*
X44733715Y-54146715D01*
X44727934Y-54151954D01*
X44721668Y-54156602D01*
X44714976Y-54160613D01*
X44707923Y-54163948D01*
X44700578Y-54166577D01*
X44693010Y-54168472D01*
X44685292Y-54169617D01*
X44677500Y-54170000D01*
X44476500Y-54170000D01*
X44468708Y-54169617D01*
X44460990Y-54168472D01*
X44453422Y-54166577D01*
X44446077Y-54163948D01*
X44439024Y-54160613D01*
X44432332Y-54156602D01*
X44426066Y-54151954D01*
X44420285Y-54146715D01*
X44415046Y-54140934D01*
X44410398Y-54134668D01*
X44406387Y-54127976D01*
X44403052Y-54120923D01*
X44400423Y-54113578D01*
X44398528Y-54106010D01*
X44397383Y-54098292D01*
X44397000Y-54090500D01*
X44397000Y-53931500D01*
X44397383Y-53923708D01*
X44398528Y-53915990D01*
X44400423Y-53908422D01*
X44403052Y-53901077D01*
X44406387Y-53894024D01*
X44410398Y-53887332D01*
X44415046Y-53881066D01*
X44420285Y-53875285D01*
X44426066Y-53870046D01*
X44432332Y-53865398D01*
X44439024Y-53861387D01*
X44446077Y-53858052D01*
X44453422Y-53855423D01*
X44460990Y-53853528D01*
X44468708Y-53852383D01*
X44476500Y-53852000D01*
X44677500Y-53852000D01*
X44685292Y-53852383D01*
X44685292Y-53852383D01*
G37*
D11*
X44577000Y-54011000D03*
D10*
G36*
X48256292Y-51001383D02*
G01*
X48264010Y-51002528D01*
X48271578Y-51004423D01*
X48278923Y-51007052D01*
X48285976Y-51010387D01*
X48292668Y-51014398D01*
X48298934Y-51019046D01*
X48304715Y-51024285D01*
X48309954Y-51030066D01*
X48314602Y-51036332D01*
X48318613Y-51043024D01*
X48321948Y-51050077D01*
X48324577Y-51057422D01*
X48326472Y-51064990D01*
X48327617Y-51072708D01*
X48328000Y-51080500D01*
X48328000Y-51281500D01*
X48327617Y-51289292D01*
X48326472Y-51297010D01*
X48324577Y-51304578D01*
X48321948Y-51311923D01*
X48318613Y-51318976D01*
X48314602Y-51325668D01*
X48309954Y-51331934D01*
X48304715Y-51337715D01*
X48298934Y-51342954D01*
X48292668Y-51347602D01*
X48285976Y-51351613D01*
X48278923Y-51354948D01*
X48271578Y-51357577D01*
X48264010Y-51359472D01*
X48256292Y-51360617D01*
X48248500Y-51361000D01*
X48089500Y-51361000D01*
X48081708Y-51360617D01*
X48073990Y-51359472D01*
X48066422Y-51357577D01*
X48059077Y-51354948D01*
X48052024Y-51351613D01*
X48045332Y-51347602D01*
X48039066Y-51342954D01*
X48033285Y-51337715D01*
X48028046Y-51331934D01*
X48023398Y-51325668D01*
X48019387Y-51318976D01*
X48016052Y-51311923D01*
X48013423Y-51304578D01*
X48011528Y-51297010D01*
X48010383Y-51289292D01*
X48010000Y-51281500D01*
X48010000Y-51080500D01*
X48010383Y-51072708D01*
X48011528Y-51064990D01*
X48013423Y-51057422D01*
X48016052Y-51050077D01*
X48019387Y-51043024D01*
X48023398Y-51036332D01*
X48028046Y-51030066D01*
X48033285Y-51024285D01*
X48039066Y-51019046D01*
X48045332Y-51014398D01*
X48052024Y-51010387D01*
X48059077Y-51007052D01*
X48066422Y-51004423D01*
X48073990Y-51002528D01*
X48081708Y-51001383D01*
X48089500Y-51001000D01*
X48248500Y-51001000D01*
X48256292Y-51001383D01*
X48256292Y-51001383D01*
G37*
D11*
X48169000Y-51181000D03*
D10*
G36*
X48946292Y-51001383D02*
G01*
X48954010Y-51002528D01*
X48961578Y-51004423D01*
X48968923Y-51007052D01*
X48975976Y-51010387D01*
X48982668Y-51014398D01*
X48988934Y-51019046D01*
X48994715Y-51024285D01*
X48999954Y-51030066D01*
X49004602Y-51036332D01*
X49008613Y-51043024D01*
X49011948Y-51050077D01*
X49014577Y-51057422D01*
X49016472Y-51064990D01*
X49017617Y-51072708D01*
X49018000Y-51080500D01*
X49018000Y-51281500D01*
X49017617Y-51289292D01*
X49016472Y-51297010D01*
X49014577Y-51304578D01*
X49011948Y-51311923D01*
X49008613Y-51318976D01*
X49004602Y-51325668D01*
X48999954Y-51331934D01*
X48994715Y-51337715D01*
X48988934Y-51342954D01*
X48982668Y-51347602D01*
X48975976Y-51351613D01*
X48968923Y-51354948D01*
X48961578Y-51357577D01*
X48954010Y-51359472D01*
X48946292Y-51360617D01*
X48938500Y-51361000D01*
X48779500Y-51361000D01*
X48771708Y-51360617D01*
X48763990Y-51359472D01*
X48756422Y-51357577D01*
X48749077Y-51354948D01*
X48742024Y-51351613D01*
X48735332Y-51347602D01*
X48729066Y-51342954D01*
X48723285Y-51337715D01*
X48718046Y-51331934D01*
X48713398Y-51325668D01*
X48709387Y-51318976D01*
X48706052Y-51311923D01*
X48703423Y-51304578D01*
X48701528Y-51297010D01*
X48700383Y-51289292D01*
X48700000Y-51281500D01*
X48700000Y-51080500D01*
X48700383Y-51072708D01*
X48701528Y-51064990D01*
X48703423Y-51057422D01*
X48706052Y-51050077D01*
X48709387Y-51043024D01*
X48713398Y-51036332D01*
X48718046Y-51030066D01*
X48723285Y-51024285D01*
X48729066Y-51019046D01*
X48735332Y-51014398D01*
X48742024Y-51010387D01*
X48749077Y-51007052D01*
X48756422Y-51004423D01*
X48763990Y-51002528D01*
X48771708Y-51001383D01*
X48779500Y-51001000D01*
X48938500Y-51001000D01*
X48946292Y-51001383D01*
X48946292Y-51001383D01*
G37*
D11*
X48859000Y-51181000D03*
D10*
G36*
X48256292Y-50112383D02*
G01*
X48264010Y-50113528D01*
X48271578Y-50115423D01*
X48278923Y-50118052D01*
X48285976Y-50121387D01*
X48292668Y-50125398D01*
X48298934Y-50130046D01*
X48304715Y-50135285D01*
X48309954Y-50141066D01*
X48314602Y-50147332D01*
X48318613Y-50154024D01*
X48321948Y-50161077D01*
X48324577Y-50168422D01*
X48326472Y-50175990D01*
X48327617Y-50183708D01*
X48328000Y-50191500D01*
X48328000Y-50392500D01*
X48327617Y-50400292D01*
X48326472Y-50408010D01*
X48324577Y-50415578D01*
X48321948Y-50422923D01*
X48318613Y-50429976D01*
X48314602Y-50436668D01*
X48309954Y-50442934D01*
X48304715Y-50448715D01*
X48298934Y-50453954D01*
X48292668Y-50458602D01*
X48285976Y-50462613D01*
X48278923Y-50465948D01*
X48271578Y-50468577D01*
X48264010Y-50470472D01*
X48256292Y-50471617D01*
X48248500Y-50472000D01*
X48089500Y-50472000D01*
X48081708Y-50471617D01*
X48073990Y-50470472D01*
X48066422Y-50468577D01*
X48059077Y-50465948D01*
X48052024Y-50462613D01*
X48045332Y-50458602D01*
X48039066Y-50453954D01*
X48033285Y-50448715D01*
X48028046Y-50442934D01*
X48023398Y-50436668D01*
X48019387Y-50429976D01*
X48016052Y-50422923D01*
X48013423Y-50415578D01*
X48011528Y-50408010D01*
X48010383Y-50400292D01*
X48010000Y-50392500D01*
X48010000Y-50191500D01*
X48010383Y-50183708D01*
X48011528Y-50175990D01*
X48013423Y-50168422D01*
X48016052Y-50161077D01*
X48019387Y-50154024D01*
X48023398Y-50147332D01*
X48028046Y-50141066D01*
X48033285Y-50135285D01*
X48039066Y-50130046D01*
X48045332Y-50125398D01*
X48052024Y-50121387D01*
X48059077Y-50118052D01*
X48066422Y-50115423D01*
X48073990Y-50113528D01*
X48081708Y-50112383D01*
X48089500Y-50112000D01*
X48248500Y-50112000D01*
X48256292Y-50112383D01*
X48256292Y-50112383D01*
G37*
D11*
X48169000Y-50292000D03*
D10*
G36*
X48946292Y-50112383D02*
G01*
X48954010Y-50113528D01*
X48961578Y-50115423D01*
X48968923Y-50118052D01*
X48975976Y-50121387D01*
X48982668Y-50125398D01*
X48988934Y-50130046D01*
X48994715Y-50135285D01*
X48999954Y-50141066D01*
X49004602Y-50147332D01*
X49008613Y-50154024D01*
X49011948Y-50161077D01*
X49014577Y-50168422D01*
X49016472Y-50175990D01*
X49017617Y-50183708D01*
X49018000Y-50191500D01*
X49018000Y-50392500D01*
X49017617Y-50400292D01*
X49016472Y-50408010D01*
X49014577Y-50415578D01*
X49011948Y-50422923D01*
X49008613Y-50429976D01*
X49004602Y-50436668D01*
X48999954Y-50442934D01*
X48994715Y-50448715D01*
X48988934Y-50453954D01*
X48982668Y-50458602D01*
X48975976Y-50462613D01*
X48968923Y-50465948D01*
X48961578Y-50468577D01*
X48954010Y-50470472D01*
X48946292Y-50471617D01*
X48938500Y-50472000D01*
X48779500Y-50472000D01*
X48771708Y-50471617D01*
X48763990Y-50470472D01*
X48756422Y-50468577D01*
X48749077Y-50465948D01*
X48742024Y-50462613D01*
X48735332Y-50458602D01*
X48729066Y-50453954D01*
X48723285Y-50448715D01*
X48718046Y-50442934D01*
X48713398Y-50436668D01*
X48709387Y-50429976D01*
X48706052Y-50422923D01*
X48703423Y-50415578D01*
X48701528Y-50408010D01*
X48700383Y-50400292D01*
X48700000Y-50392500D01*
X48700000Y-50191500D01*
X48700383Y-50183708D01*
X48701528Y-50175990D01*
X48703423Y-50168422D01*
X48706052Y-50161077D01*
X48709387Y-50154024D01*
X48713398Y-50147332D01*
X48718046Y-50141066D01*
X48723285Y-50135285D01*
X48729066Y-50130046D01*
X48735332Y-50125398D01*
X48742024Y-50121387D01*
X48749077Y-50118052D01*
X48756422Y-50115423D01*
X48763990Y-50113528D01*
X48771708Y-50112383D01*
X48779500Y-50112000D01*
X48938500Y-50112000D01*
X48946292Y-50112383D01*
X48946292Y-50112383D01*
G37*
D11*
X48859000Y-50292000D03*
D10*
G36*
X42907292Y-54542383D02*
G01*
X42915010Y-54543528D01*
X42922578Y-54545423D01*
X42929923Y-54548052D01*
X42936976Y-54551387D01*
X42943668Y-54555398D01*
X42949934Y-54560046D01*
X42955715Y-54565285D01*
X42960954Y-54571066D01*
X42965602Y-54577332D01*
X42969613Y-54584024D01*
X42972948Y-54591077D01*
X42975577Y-54598422D01*
X42977472Y-54605990D01*
X42978617Y-54613708D01*
X42979000Y-54621500D01*
X42979000Y-54780500D01*
X42978617Y-54788292D01*
X42977472Y-54796010D01*
X42975577Y-54803578D01*
X42972948Y-54810923D01*
X42969613Y-54817976D01*
X42965602Y-54824668D01*
X42960954Y-54830934D01*
X42955715Y-54836715D01*
X42949934Y-54841954D01*
X42943668Y-54846602D01*
X42936976Y-54850613D01*
X42929923Y-54853948D01*
X42922578Y-54856577D01*
X42915010Y-54858472D01*
X42907292Y-54859617D01*
X42899500Y-54860000D01*
X42698500Y-54860000D01*
X42690708Y-54859617D01*
X42682990Y-54858472D01*
X42675422Y-54856577D01*
X42668077Y-54853948D01*
X42661024Y-54850613D01*
X42654332Y-54846602D01*
X42648066Y-54841954D01*
X42642285Y-54836715D01*
X42637046Y-54830934D01*
X42632398Y-54824668D01*
X42628387Y-54817976D01*
X42625052Y-54810923D01*
X42622423Y-54803578D01*
X42620528Y-54796010D01*
X42619383Y-54788292D01*
X42619000Y-54780500D01*
X42619000Y-54621500D01*
X42619383Y-54613708D01*
X42620528Y-54605990D01*
X42622423Y-54598422D01*
X42625052Y-54591077D01*
X42628387Y-54584024D01*
X42632398Y-54577332D01*
X42637046Y-54571066D01*
X42642285Y-54565285D01*
X42648066Y-54560046D01*
X42654332Y-54555398D01*
X42661024Y-54551387D01*
X42668077Y-54548052D01*
X42675422Y-54545423D01*
X42682990Y-54543528D01*
X42690708Y-54542383D01*
X42698500Y-54542000D01*
X42899500Y-54542000D01*
X42907292Y-54542383D01*
X42907292Y-54542383D01*
G37*
D11*
X42799000Y-54701000D03*
D10*
G36*
X42907292Y-53852383D02*
G01*
X42915010Y-53853528D01*
X42922578Y-53855423D01*
X42929923Y-53858052D01*
X42936976Y-53861387D01*
X42943668Y-53865398D01*
X42949934Y-53870046D01*
X42955715Y-53875285D01*
X42960954Y-53881066D01*
X42965602Y-53887332D01*
X42969613Y-53894024D01*
X42972948Y-53901077D01*
X42975577Y-53908422D01*
X42977472Y-53915990D01*
X42978617Y-53923708D01*
X42979000Y-53931500D01*
X42979000Y-54090500D01*
X42978617Y-54098292D01*
X42977472Y-54106010D01*
X42975577Y-54113578D01*
X42972948Y-54120923D01*
X42969613Y-54127976D01*
X42965602Y-54134668D01*
X42960954Y-54140934D01*
X42955715Y-54146715D01*
X42949934Y-54151954D01*
X42943668Y-54156602D01*
X42936976Y-54160613D01*
X42929923Y-54163948D01*
X42922578Y-54166577D01*
X42915010Y-54168472D01*
X42907292Y-54169617D01*
X42899500Y-54170000D01*
X42698500Y-54170000D01*
X42690708Y-54169617D01*
X42682990Y-54168472D01*
X42675422Y-54166577D01*
X42668077Y-54163948D01*
X42661024Y-54160613D01*
X42654332Y-54156602D01*
X42648066Y-54151954D01*
X42642285Y-54146715D01*
X42637046Y-54140934D01*
X42632398Y-54134668D01*
X42628387Y-54127976D01*
X42625052Y-54120923D01*
X42622423Y-54113578D01*
X42620528Y-54106010D01*
X42619383Y-54098292D01*
X42619000Y-54090500D01*
X42619000Y-53931500D01*
X42619383Y-53923708D01*
X42620528Y-53915990D01*
X42622423Y-53908422D01*
X42625052Y-53901077D01*
X42628387Y-53894024D01*
X42632398Y-53887332D01*
X42637046Y-53881066D01*
X42642285Y-53875285D01*
X42648066Y-53870046D01*
X42654332Y-53865398D01*
X42661024Y-53861387D01*
X42668077Y-53858052D01*
X42675422Y-53855423D01*
X42682990Y-53853528D01*
X42690708Y-53852383D01*
X42698500Y-53852000D01*
X42899500Y-53852000D01*
X42907292Y-53852383D01*
X42907292Y-53852383D01*
G37*
D11*
X42799000Y-54011000D03*
D10*
G36*
X52502292Y-35380383D02*
G01*
X52510010Y-35381528D01*
X52517578Y-35383423D01*
X52524923Y-35386052D01*
X52531976Y-35389387D01*
X52538668Y-35393398D01*
X52544934Y-35398046D01*
X52550715Y-35403285D01*
X52555954Y-35409066D01*
X52560602Y-35415332D01*
X52564613Y-35422024D01*
X52567948Y-35429077D01*
X52570577Y-35436422D01*
X52572472Y-35443990D01*
X52573617Y-35451708D01*
X52574000Y-35459500D01*
X52574000Y-35660500D01*
X52573617Y-35668292D01*
X52572472Y-35676010D01*
X52570577Y-35683578D01*
X52567948Y-35690923D01*
X52564613Y-35697976D01*
X52560602Y-35704668D01*
X52555954Y-35710934D01*
X52550715Y-35716715D01*
X52544934Y-35721954D01*
X52538668Y-35726602D01*
X52531976Y-35730613D01*
X52524923Y-35733948D01*
X52517578Y-35736577D01*
X52510010Y-35738472D01*
X52502292Y-35739617D01*
X52494500Y-35740000D01*
X52335500Y-35740000D01*
X52327708Y-35739617D01*
X52319990Y-35738472D01*
X52312422Y-35736577D01*
X52305077Y-35733948D01*
X52298024Y-35730613D01*
X52291332Y-35726602D01*
X52285066Y-35721954D01*
X52279285Y-35716715D01*
X52274046Y-35710934D01*
X52269398Y-35704668D01*
X52265387Y-35697976D01*
X52262052Y-35690923D01*
X52259423Y-35683578D01*
X52257528Y-35676010D01*
X52256383Y-35668292D01*
X52256000Y-35660500D01*
X52256000Y-35459500D01*
X52256383Y-35451708D01*
X52257528Y-35443990D01*
X52259423Y-35436422D01*
X52262052Y-35429077D01*
X52265387Y-35422024D01*
X52269398Y-35415332D01*
X52274046Y-35409066D01*
X52279285Y-35403285D01*
X52285066Y-35398046D01*
X52291332Y-35393398D01*
X52298024Y-35389387D01*
X52305077Y-35386052D01*
X52312422Y-35383423D01*
X52319990Y-35381528D01*
X52327708Y-35380383D01*
X52335500Y-35380000D01*
X52494500Y-35380000D01*
X52502292Y-35380383D01*
X52502292Y-35380383D01*
G37*
D11*
X52415000Y-35560000D03*
D10*
G36*
X51812292Y-35380383D02*
G01*
X51820010Y-35381528D01*
X51827578Y-35383423D01*
X51834923Y-35386052D01*
X51841976Y-35389387D01*
X51848668Y-35393398D01*
X51854934Y-35398046D01*
X51860715Y-35403285D01*
X51865954Y-35409066D01*
X51870602Y-35415332D01*
X51874613Y-35422024D01*
X51877948Y-35429077D01*
X51880577Y-35436422D01*
X51882472Y-35443990D01*
X51883617Y-35451708D01*
X51884000Y-35459500D01*
X51884000Y-35660500D01*
X51883617Y-35668292D01*
X51882472Y-35676010D01*
X51880577Y-35683578D01*
X51877948Y-35690923D01*
X51874613Y-35697976D01*
X51870602Y-35704668D01*
X51865954Y-35710934D01*
X51860715Y-35716715D01*
X51854934Y-35721954D01*
X51848668Y-35726602D01*
X51841976Y-35730613D01*
X51834923Y-35733948D01*
X51827578Y-35736577D01*
X51820010Y-35738472D01*
X51812292Y-35739617D01*
X51804500Y-35740000D01*
X51645500Y-35740000D01*
X51637708Y-35739617D01*
X51629990Y-35738472D01*
X51622422Y-35736577D01*
X51615077Y-35733948D01*
X51608024Y-35730613D01*
X51601332Y-35726602D01*
X51595066Y-35721954D01*
X51589285Y-35716715D01*
X51584046Y-35710934D01*
X51579398Y-35704668D01*
X51575387Y-35697976D01*
X51572052Y-35690923D01*
X51569423Y-35683578D01*
X51567528Y-35676010D01*
X51566383Y-35668292D01*
X51566000Y-35660500D01*
X51566000Y-35459500D01*
X51566383Y-35451708D01*
X51567528Y-35443990D01*
X51569423Y-35436422D01*
X51572052Y-35429077D01*
X51575387Y-35422024D01*
X51579398Y-35415332D01*
X51584046Y-35409066D01*
X51589285Y-35403285D01*
X51595066Y-35398046D01*
X51601332Y-35393398D01*
X51608024Y-35389387D01*
X51615077Y-35386052D01*
X51622422Y-35383423D01*
X51629990Y-35381528D01*
X51637708Y-35380383D01*
X51645500Y-35380000D01*
X51804500Y-35380000D01*
X51812292Y-35380383D01*
X51812292Y-35380383D01*
G37*
D11*
X51725000Y-35560000D03*
D10*
G36*
X41072292Y-34110383D02*
G01*
X41080010Y-34111528D01*
X41087578Y-34113423D01*
X41094923Y-34116052D01*
X41101976Y-34119387D01*
X41108668Y-34123398D01*
X41114934Y-34128046D01*
X41120715Y-34133285D01*
X41125954Y-34139066D01*
X41130602Y-34145332D01*
X41134613Y-34152024D01*
X41137948Y-34159077D01*
X41140577Y-34166422D01*
X41142472Y-34173990D01*
X41143617Y-34181708D01*
X41144000Y-34189500D01*
X41144000Y-34390500D01*
X41143617Y-34398292D01*
X41142472Y-34406010D01*
X41140577Y-34413578D01*
X41137948Y-34420923D01*
X41134613Y-34427976D01*
X41130602Y-34434668D01*
X41125954Y-34440934D01*
X41120715Y-34446715D01*
X41114934Y-34451954D01*
X41108668Y-34456602D01*
X41101976Y-34460613D01*
X41094923Y-34463948D01*
X41087578Y-34466577D01*
X41080010Y-34468472D01*
X41072292Y-34469617D01*
X41064500Y-34470000D01*
X40905500Y-34470000D01*
X40897708Y-34469617D01*
X40889990Y-34468472D01*
X40882422Y-34466577D01*
X40875077Y-34463948D01*
X40868024Y-34460613D01*
X40861332Y-34456602D01*
X40855066Y-34451954D01*
X40849285Y-34446715D01*
X40844046Y-34440934D01*
X40839398Y-34434668D01*
X40835387Y-34427976D01*
X40832052Y-34420923D01*
X40829423Y-34413578D01*
X40827528Y-34406010D01*
X40826383Y-34398292D01*
X40826000Y-34390500D01*
X40826000Y-34189500D01*
X40826383Y-34181708D01*
X40827528Y-34173990D01*
X40829423Y-34166422D01*
X40832052Y-34159077D01*
X40835387Y-34152024D01*
X40839398Y-34145332D01*
X40844046Y-34139066D01*
X40849285Y-34133285D01*
X40855066Y-34128046D01*
X40861332Y-34123398D01*
X40868024Y-34119387D01*
X40875077Y-34116052D01*
X40882422Y-34113423D01*
X40889990Y-34111528D01*
X40897708Y-34110383D01*
X40905500Y-34110000D01*
X41064500Y-34110000D01*
X41072292Y-34110383D01*
X41072292Y-34110383D01*
G37*
D11*
X40985000Y-34290000D03*
D10*
G36*
X40382292Y-34110383D02*
G01*
X40390010Y-34111528D01*
X40397578Y-34113423D01*
X40404923Y-34116052D01*
X40411976Y-34119387D01*
X40418668Y-34123398D01*
X40424934Y-34128046D01*
X40430715Y-34133285D01*
X40435954Y-34139066D01*
X40440602Y-34145332D01*
X40444613Y-34152024D01*
X40447948Y-34159077D01*
X40450577Y-34166422D01*
X40452472Y-34173990D01*
X40453617Y-34181708D01*
X40454000Y-34189500D01*
X40454000Y-34390500D01*
X40453617Y-34398292D01*
X40452472Y-34406010D01*
X40450577Y-34413578D01*
X40447948Y-34420923D01*
X40444613Y-34427976D01*
X40440602Y-34434668D01*
X40435954Y-34440934D01*
X40430715Y-34446715D01*
X40424934Y-34451954D01*
X40418668Y-34456602D01*
X40411976Y-34460613D01*
X40404923Y-34463948D01*
X40397578Y-34466577D01*
X40390010Y-34468472D01*
X40382292Y-34469617D01*
X40374500Y-34470000D01*
X40215500Y-34470000D01*
X40207708Y-34469617D01*
X40199990Y-34468472D01*
X40192422Y-34466577D01*
X40185077Y-34463948D01*
X40178024Y-34460613D01*
X40171332Y-34456602D01*
X40165066Y-34451954D01*
X40159285Y-34446715D01*
X40154046Y-34440934D01*
X40149398Y-34434668D01*
X40145387Y-34427976D01*
X40142052Y-34420923D01*
X40139423Y-34413578D01*
X40137528Y-34406010D01*
X40136383Y-34398292D01*
X40136000Y-34390500D01*
X40136000Y-34189500D01*
X40136383Y-34181708D01*
X40137528Y-34173990D01*
X40139423Y-34166422D01*
X40142052Y-34159077D01*
X40145387Y-34152024D01*
X40149398Y-34145332D01*
X40154046Y-34139066D01*
X40159285Y-34133285D01*
X40165066Y-34128046D01*
X40171332Y-34123398D01*
X40178024Y-34119387D01*
X40185077Y-34116052D01*
X40192422Y-34113423D01*
X40199990Y-34111528D01*
X40207708Y-34110383D01*
X40215500Y-34110000D01*
X40374500Y-34110000D01*
X40382292Y-34110383D01*
X40382292Y-34110383D01*
G37*
D11*
X40295000Y-34290000D03*
D10*
G36*
X29572292Y-30666383D02*
G01*
X29580010Y-30667528D01*
X29587578Y-30669423D01*
X29594923Y-30672052D01*
X29601976Y-30675387D01*
X29608668Y-30679398D01*
X29614934Y-30684046D01*
X29620715Y-30689285D01*
X29625954Y-30695066D01*
X29630602Y-30701332D01*
X29634613Y-30708024D01*
X29637948Y-30715077D01*
X29640577Y-30722422D01*
X29642472Y-30729990D01*
X29643617Y-30737708D01*
X29644000Y-30745500D01*
X29644000Y-30904500D01*
X29643617Y-30912292D01*
X29642472Y-30920010D01*
X29640577Y-30927578D01*
X29637948Y-30934923D01*
X29634613Y-30941976D01*
X29630602Y-30948668D01*
X29625954Y-30954934D01*
X29620715Y-30960715D01*
X29614934Y-30965954D01*
X29608668Y-30970602D01*
X29601976Y-30974613D01*
X29594923Y-30977948D01*
X29587578Y-30980577D01*
X29580010Y-30982472D01*
X29572292Y-30983617D01*
X29564500Y-30984000D01*
X29363500Y-30984000D01*
X29355708Y-30983617D01*
X29347990Y-30982472D01*
X29340422Y-30980577D01*
X29333077Y-30977948D01*
X29326024Y-30974613D01*
X29319332Y-30970602D01*
X29313066Y-30965954D01*
X29307285Y-30960715D01*
X29302046Y-30954934D01*
X29297398Y-30948668D01*
X29293387Y-30941976D01*
X29290052Y-30934923D01*
X29287423Y-30927578D01*
X29285528Y-30920010D01*
X29284383Y-30912292D01*
X29284000Y-30904500D01*
X29284000Y-30745500D01*
X29284383Y-30737708D01*
X29285528Y-30729990D01*
X29287423Y-30722422D01*
X29290052Y-30715077D01*
X29293387Y-30708024D01*
X29297398Y-30701332D01*
X29302046Y-30695066D01*
X29307285Y-30689285D01*
X29313066Y-30684046D01*
X29319332Y-30679398D01*
X29326024Y-30675387D01*
X29333077Y-30672052D01*
X29340422Y-30669423D01*
X29347990Y-30667528D01*
X29355708Y-30666383D01*
X29363500Y-30666000D01*
X29564500Y-30666000D01*
X29572292Y-30666383D01*
X29572292Y-30666383D01*
G37*
D11*
X29464000Y-30825000D03*
D10*
G36*
X29572292Y-29976383D02*
G01*
X29580010Y-29977528D01*
X29587578Y-29979423D01*
X29594923Y-29982052D01*
X29601976Y-29985387D01*
X29608668Y-29989398D01*
X29614934Y-29994046D01*
X29620715Y-29999285D01*
X29625954Y-30005066D01*
X29630602Y-30011332D01*
X29634613Y-30018024D01*
X29637948Y-30025077D01*
X29640577Y-30032422D01*
X29642472Y-30039990D01*
X29643617Y-30047708D01*
X29644000Y-30055500D01*
X29644000Y-30214500D01*
X29643617Y-30222292D01*
X29642472Y-30230010D01*
X29640577Y-30237578D01*
X29637948Y-30244923D01*
X29634613Y-30251976D01*
X29630602Y-30258668D01*
X29625954Y-30264934D01*
X29620715Y-30270715D01*
X29614934Y-30275954D01*
X29608668Y-30280602D01*
X29601976Y-30284613D01*
X29594923Y-30287948D01*
X29587578Y-30290577D01*
X29580010Y-30292472D01*
X29572292Y-30293617D01*
X29564500Y-30294000D01*
X29363500Y-30294000D01*
X29355708Y-30293617D01*
X29347990Y-30292472D01*
X29340422Y-30290577D01*
X29333077Y-30287948D01*
X29326024Y-30284613D01*
X29319332Y-30280602D01*
X29313066Y-30275954D01*
X29307285Y-30270715D01*
X29302046Y-30264934D01*
X29297398Y-30258668D01*
X29293387Y-30251976D01*
X29290052Y-30244923D01*
X29287423Y-30237578D01*
X29285528Y-30230010D01*
X29284383Y-30222292D01*
X29284000Y-30214500D01*
X29284000Y-30055500D01*
X29284383Y-30047708D01*
X29285528Y-30039990D01*
X29287423Y-30032422D01*
X29290052Y-30025077D01*
X29293387Y-30018024D01*
X29297398Y-30011332D01*
X29302046Y-30005066D01*
X29307285Y-29999285D01*
X29313066Y-29994046D01*
X29319332Y-29989398D01*
X29326024Y-29985387D01*
X29333077Y-29982052D01*
X29340422Y-29979423D01*
X29347990Y-29977528D01*
X29355708Y-29976383D01*
X29363500Y-29976000D01*
X29564500Y-29976000D01*
X29572292Y-29976383D01*
X29572292Y-29976383D01*
G37*
D11*
X29464000Y-30135000D03*
D10*
G36*
X27809292Y-30808383D02*
G01*
X27817010Y-30809528D01*
X27824578Y-30811423D01*
X27831923Y-30814052D01*
X27838976Y-30817387D01*
X27845668Y-30821398D01*
X27851934Y-30826046D01*
X27857715Y-30831285D01*
X27862954Y-30837066D01*
X27867602Y-30843332D01*
X27871613Y-30850024D01*
X27874948Y-30857077D01*
X27877577Y-30864422D01*
X27879472Y-30871990D01*
X27880617Y-30879708D01*
X27881000Y-30887500D01*
X27881000Y-31088500D01*
X27880617Y-31096292D01*
X27879472Y-31104010D01*
X27877577Y-31111578D01*
X27874948Y-31118923D01*
X27871613Y-31125976D01*
X27867602Y-31132668D01*
X27862954Y-31138934D01*
X27857715Y-31144715D01*
X27851934Y-31149954D01*
X27845668Y-31154602D01*
X27838976Y-31158613D01*
X27831923Y-31161948D01*
X27824578Y-31164577D01*
X27817010Y-31166472D01*
X27809292Y-31167617D01*
X27801500Y-31168000D01*
X27642500Y-31168000D01*
X27634708Y-31167617D01*
X27626990Y-31166472D01*
X27619422Y-31164577D01*
X27612077Y-31161948D01*
X27605024Y-31158613D01*
X27598332Y-31154602D01*
X27592066Y-31149954D01*
X27586285Y-31144715D01*
X27581046Y-31138934D01*
X27576398Y-31132668D01*
X27572387Y-31125976D01*
X27569052Y-31118923D01*
X27566423Y-31111578D01*
X27564528Y-31104010D01*
X27563383Y-31096292D01*
X27563000Y-31088500D01*
X27563000Y-30887500D01*
X27563383Y-30879708D01*
X27564528Y-30871990D01*
X27566423Y-30864422D01*
X27569052Y-30857077D01*
X27572387Y-30850024D01*
X27576398Y-30843332D01*
X27581046Y-30837066D01*
X27586285Y-30831285D01*
X27592066Y-30826046D01*
X27598332Y-30821398D01*
X27605024Y-30817387D01*
X27612077Y-30814052D01*
X27619422Y-30811423D01*
X27626990Y-30809528D01*
X27634708Y-30808383D01*
X27642500Y-30808000D01*
X27801500Y-30808000D01*
X27809292Y-30808383D01*
X27809292Y-30808383D01*
G37*
D11*
X27722000Y-30988000D03*
D10*
G36*
X28499292Y-30808383D02*
G01*
X28507010Y-30809528D01*
X28514578Y-30811423D01*
X28521923Y-30814052D01*
X28528976Y-30817387D01*
X28535668Y-30821398D01*
X28541934Y-30826046D01*
X28547715Y-30831285D01*
X28552954Y-30837066D01*
X28557602Y-30843332D01*
X28561613Y-30850024D01*
X28564948Y-30857077D01*
X28567577Y-30864422D01*
X28569472Y-30871990D01*
X28570617Y-30879708D01*
X28571000Y-30887500D01*
X28571000Y-31088500D01*
X28570617Y-31096292D01*
X28569472Y-31104010D01*
X28567577Y-31111578D01*
X28564948Y-31118923D01*
X28561613Y-31125976D01*
X28557602Y-31132668D01*
X28552954Y-31138934D01*
X28547715Y-31144715D01*
X28541934Y-31149954D01*
X28535668Y-31154602D01*
X28528976Y-31158613D01*
X28521923Y-31161948D01*
X28514578Y-31164577D01*
X28507010Y-31166472D01*
X28499292Y-31167617D01*
X28491500Y-31168000D01*
X28332500Y-31168000D01*
X28324708Y-31167617D01*
X28316990Y-31166472D01*
X28309422Y-31164577D01*
X28302077Y-31161948D01*
X28295024Y-31158613D01*
X28288332Y-31154602D01*
X28282066Y-31149954D01*
X28276285Y-31144715D01*
X28271046Y-31138934D01*
X28266398Y-31132668D01*
X28262387Y-31125976D01*
X28259052Y-31118923D01*
X28256423Y-31111578D01*
X28254528Y-31104010D01*
X28253383Y-31096292D01*
X28253000Y-31088500D01*
X28253000Y-30887500D01*
X28253383Y-30879708D01*
X28254528Y-30871990D01*
X28256423Y-30864422D01*
X28259052Y-30857077D01*
X28262387Y-30850024D01*
X28266398Y-30843332D01*
X28271046Y-30837066D01*
X28276285Y-30831285D01*
X28282066Y-30826046D01*
X28288332Y-30821398D01*
X28295024Y-30817387D01*
X28302077Y-30814052D01*
X28309422Y-30811423D01*
X28316990Y-30809528D01*
X28324708Y-30808383D01*
X28332500Y-30808000D01*
X28491500Y-30808000D01*
X28499292Y-30808383D01*
X28499292Y-30808383D01*
G37*
D11*
X28412000Y-30988000D03*
D21*
X44300000Y-52150000D03*
X43900000Y-52150000D03*
X43500000Y-52150000D03*
X43100000Y-52150000D03*
X42700000Y-52150000D03*
X42300000Y-52150000D03*
X41900000Y-52150000D03*
X41500000Y-52150000D03*
X41100000Y-52150000D03*
X40700000Y-52150000D03*
X40300000Y-52150000D03*
X39900000Y-52150000D03*
X39500000Y-52150000D03*
X39100000Y-52150000D03*
X38700000Y-52150000D03*
X38300000Y-52150000D03*
X37900000Y-52150000D03*
X37500000Y-52150000D03*
X37100000Y-52150000D03*
X36700000Y-52150000D03*
X36300000Y-52150000D03*
X35900000Y-52150000D03*
X35500000Y-52150000D03*
X35100000Y-52150000D03*
X34700000Y-52150000D03*
X34300000Y-52150000D03*
X33900000Y-52150000D03*
X33500000Y-52150000D03*
X33100000Y-52150000D03*
X32700000Y-52150000D03*
X32300000Y-52150000D03*
X31900000Y-52150000D03*
D22*
X30400000Y-50650000D03*
X30400000Y-50250000D03*
X30400000Y-49850000D03*
X30400000Y-49450000D03*
X30400000Y-49050000D03*
X30400000Y-48650000D03*
X30400000Y-48250000D03*
X30400000Y-47850000D03*
X30400000Y-47450000D03*
X30400000Y-47050000D03*
X30400000Y-46650000D03*
X30400000Y-46250000D03*
X30400000Y-45850000D03*
X30400000Y-45450000D03*
X30400000Y-45050000D03*
X30400000Y-44650000D03*
X30400000Y-44250000D03*
X30400000Y-43850000D03*
X30400000Y-43450000D03*
X30400000Y-43050000D03*
X30400000Y-42650000D03*
X30400000Y-42250000D03*
X30400000Y-41850000D03*
X30400000Y-41450000D03*
X30400000Y-41050000D03*
X30400000Y-40650000D03*
X30400000Y-40250000D03*
X30400000Y-39850000D03*
X30400000Y-39450000D03*
X30400000Y-39050000D03*
X30400000Y-38650000D03*
X30400000Y-38250000D03*
D21*
X31900000Y-36750000D03*
X32300000Y-36750000D03*
X32700000Y-36750000D03*
X33100000Y-36750000D03*
X33500000Y-36750000D03*
X33900000Y-36750000D03*
X34300000Y-36750000D03*
X34700000Y-36750000D03*
X35100000Y-36750000D03*
X35500000Y-36750000D03*
X35900000Y-36750000D03*
X36300000Y-36750000D03*
X36700000Y-36750000D03*
X37100000Y-36750000D03*
X37500000Y-36750000D03*
X37900000Y-36750000D03*
X38300000Y-36750000D03*
X38700000Y-36750000D03*
X39100000Y-36750000D03*
X39500000Y-36750000D03*
X39900000Y-36750000D03*
X40300000Y-36750000D03*
X40700000Y-36750000D03*
X41100000Y-36750000D03*
X41500000Y-36750000D03*
X41900000Y-36750000D03*
X42300000Y-36750000D03*
X42700000Y-36750000D03*
X43100000Y-36750000D03*
X43500000Y-36750000D03*
X43900000Y-36750000D03*
X44300000Y-36750000D03*
D22*
X45800000Y-38250000D03*
X45800000Y-38650000D03*
X45800000Y-39050000D03*
X45800000Y-39450000D03*
X45800000Y-39850000D03*
X45800000Y-40250000D03*
X45800000Y-40650000D03*
X45800000Y-41050000D03*
X45800000Y-41450000D03*
X45800000Y-41850000D03*
X45800000Y-42250000D03*
X45800000Y-42650000D03*
X45800000Y-43050000D03*
X45800000Y-43450000D03*
X45800000Y-43850000D03*
X45800000Y-44250000D03*
X45800000Y-44650000D03*
X45800000Y-45050000D03*
X45800000Y-45450000D03*
X45800000Y-45850000D03*
X45800000Y-46250000D03*
X45800000Y-46650000D03*
X45800000Y-47050000D03*
X45800000Y-47450000D03*
X45800000Y-47850000D03*
X45800000Y-48250000D03*
X45800000Y-48650000D03*
X45800000Y-49050000D03*
X45800000Y-49450000D03*
X45800000Y-49850000D03*
X45800000Y-50250000D03*
X45800000Y-50650000D03*
D23*
X33494800Y-31966800D03*
X35694800Y-31966800D03*
X35694800Y-33666800D03*
X33494800Y-33666800D03*
D24*
X40260000Y-32512000D03*
X43560000Y-32512000D03*
M02*
