G04 #@! TF.GenerationSoftware,KiCad,Pcbnew,(5.1.4)-1*
G04 #@! TF.CreationDate,2019-11-17T15:41:10+01:00*
G04 #@! TF.ProjectId,V3S_ESP32_Feather,5633535f-4553-4503-9332-5f4665617468,rev?*
G04 #@! TF.SameCoordinates,Original*
G04 #@! TF.FileFunction,Other,Fab,Top*
%FSLAX46Y46*%
G04 Gerber Fmt 4.6, Leading zero omitted, Abs format (unit mm)*
G04 Created by KiCad (PCBNEW (5.1.4)-1) date 2019-11-17 15:41:10*
%MOMM*%
%LPD*%
G04 APERTURE LIST*
%ADD10C,0.100000*%
%ADD11C,0.150000*%
%ADD12C,0.040000*%
%ADD13C,0.060000*%
G04 APERTURE END LIST*
D10*
X52093000Y-56342000D02*
X52093000Y-56942000D01*
X51793000Y-56342000D02*
X52093000Y-56342000D01*
X51793000Y-56942000D02*
X51793000Y-56342000D01*
X52093000Y-56942000D02*
X51793000Y-56942000D01*
X38146000Y-26947000D02*
X37546000Y-26947000D01*
X38146000Y-26647000D02*
X38146000Y-26947000D01*
X37546000Y-26647000D02*
X38146000Y-26647000D01*
X37546000Y-26947000D02*
X37546000Y-26647000D01*
X34717000Y-51331000D02*
X34117000Y-51331000D01*
X34717000Y-51031000D02*
X34717000Y-51331000D01*
X34117000Y-51031000D02*
X34717000Y-51031000D01*
X34117000Y-51331000D02*
X34117000Y-51031000D01*
X27640000Y-37823000D02*
X28240000Y-37823000D01*
X27640000Y-38123000D02*
X27640000Y-37823000D01*
X28240000Y-38123000D02*
X27640000Y-38123000D01*
X28240000Y-37823000D02*
X28240000Y-38123000D01*
X31196000Y-43030000D02*
X31796000Y-43030000D01*
X31196000Y-43330000D02*
X31196000Y-43030000D01*
X31796000Y-43330000D02*
X31196000Y-43330000D01*
X31796000Y-43030000D02*
X31796000Y-43330000D01*
X36453000Y-37330000D02*
X36453000Y-36330000D01*
X36953000Y-37330000D02*
X36453000Y-37330000D01*
X36953000Y-36330000D02*
X36953000Y-37330000D01*
X36453000Y-36330000D02*
X36953000Y-36330000D01*
X50754000Y-61826000D02*
X51354000Y-61826000D01*
X50754000Y-62126000D02*
X50754000Y-61826000D01*
X51354000Y-62126000D02*
X50754000Y-62126000D01*
X51354000Y-61826000D02*
X51354000Y-62126000D01*
X49553000Y-60787000D02*
X49553000Y-61387000D01*
X49253000Y-60787000D02*
X49553000Y-60787000D01*
X49253000Y-61387000D02*
X49253000Y-60787000D01*
X49553000Y-61387000D02*
X49253000Y-61387000D01*
X47798000Y-62126000D02*
X47198000Y-62126000D01*
X47798000Y-61826000D02*
X47798000Y-62126000D01*
X47198000Y-61826000D02*
X47798000Y-61826000D01*
X47198000Y-62126000D02*
X47198000Y-61826000D01*
X46436000Y-60556000D02*
X47036000Y-60556000D01*
X46436000Y-60856000D02*
X46436000Y-60556000D01*
X47036000Y-60856000D02*
X46436000Y-60856000D01*
X47036000Y-60556000D02*
X47036000Y-60856000D01*
X41934000Y-37108000D02*
X44934000Y-37108000D01*
X41934000Y-40108000D02*
X41934000Y-37108000D01*
X44609000Y-40108000D02*
X44934000Y-39758000D01*
X44609000Y-40108000D02*
X41934000Y-40108000D01*
X44934000Y-39758000D02*
X44934000Y-37108000D01*
X50776000Y-24589893D02*
X50276000Y-25297000D01*
X51276000Y-25297000D02*
X50776000Y-24589893D01*
X46276000Y-25297000D02*
X46276000Y-21047000D01*
X52276000Y-25297000D02*
X52276000Y-21047000D01*
X52276000Y-21047000D02*
X46276000Y-21047000D01*
X52276000Y-25297000D02*
X46276000Y-25297000D01*
X34218000Y-24589893D02*
X33718000Y-25297000D01*
X34718000Y-25297000D02*
X34218000Y-24589893D01*
X23718000Y-25297000D02*
X23718000Y-21047000D01*
X35718000Y-25297000D02*
X35718000Y-21047000D01*
X35718000Y-21047000D02*
X23718000Y-21047000D01*
X35718000Y-25297000D02*
X23718000Y-25297000D01*
X37192000Y-23253500D02*
X37192000Y-21653500D01*
X37992000Y-23253500D02*
X37192000Y-23253500D01*
X37992000Y-21653500D02*
X37992000Y-23253500D01*
X37192000Y-21653500D02*
X37992000Y-21653500D01*
X51670000Y-33820000D02*
X51670000Y-32220000D01*
X52470000Y-33820000D02*
X51670000Y-33820000D01*
X52470000Y-32220000D02*
X52470000Y-33820000D01*
X51670000Y-32220000D02*
X52470000Y-32220000D01*
X26751000Y-42903000D02*
X27351000Y-42903000D01*
X26751000Y-43203000D02*
X26751000Y-42903000D01*
X27351000Y-43203000D02*
X26751000Y-43203000D01*
X27351000Y-42903000D02*
X27351000Y-43203000D01*
X35283000Y-37003000D02*
X35283000Y-36403000D01*
X35583000Y-37003000D02*
X35283000Y-37003000D01*
X35583000Y-36403000D02*
X35583000Y-37003000D01*
X35283000Y-36403000D02*
X35583000Y-36403000D01*
X42934000Y-48010000D02*
X43934000Y-48010000D01*
X42934000Y-48510000D02*
X42934000Y-48010000D01*
X43934000Y-48510000D02*
X42934000Y-48510000D01*
X43934000Y-48010000D02*
X43934000Y-48510000D01*
X26551000Y-44200000D02*
X27551000Y-44200000D01*
X26551000Y-44700000D02*
X26551000Y-44200000D01*
X27551000Y-44700000D02*
X26551000Y-44700000D01*
X27551000Y-44200000D02*
X27551000Y-44700000D01*
X45970000Y-42045000D02*
X45970000Y-43045000D01*
X45470000Y-42045000D02*
X45970000Y-42045000D01*
X45470000Y-43045000D02*
X45470000Y-42045000D01*
X45970000Y-43045000D02*
X45470000Y-43045000D01*
X27440000Y-38993000D02*
X28440000Y-38993000D01*
X27440000Y-39493000D02*
X27440000Y-38993000D01*
X28440000Y-39493000D02*
X27440000Y-39493000D01*
X28440000Y-38993000D02*
X28440000Y-39493000D01*
X47729000Y-30018000D02*
X47729000Y-29418000D01*
X48029000Y-30018000D02*
X47729000Y-30018000D01*
X48029000Y-29418000D02*
X48029000Y-30018000D01*
X47729000Y-29418000D02*
X48029000Y-29418000D01*
X52093000Y-29545000D02*
X52093000Y-30145000D01*
X51793000Y-29545000D02*
X52093000Y-29545000D01*
X51793000Y-30145000D02*
X51793000Y-29545000D01*
X52093000Y-30145000D02*
X51793000Y-30145000D01*
X37742000Y-24973000D02*
X37742000Y-25573000D01*
X37442000Y-24973000D02*
X37742000Y-24973000D01*
X37442000Y-25573000D02*
X37442000Y-24973000D01*
X37742000Y-25573000D02*
X37442000Y-25573000D01*
X38458000Y-25573000D02*
X38458000Y-24973000D01*
X38758000Y-25573000D02*
X38458000Y-25573000D01*
X38758000Y-24973000D02*
X38758000Y-25573000D01*
X38458000Y-24973000D02*
X38758000Y-24973000D01*
X42972000Y-36345000D02*
X42372000Y-36345000D01*
X42972000Y-36045000D02*
X42972000Y-36345000D01*
X42372000Y-36045000D02*
X42972000Y-36045000D01*
X42372000Y-36345000D02*
X42372000Y-36045000D01*
X38458000Y-40305000D02*
X38458000Y-39705000D01*
X38758000Y-40305000D02*
X38458000Y-40305000D01*
X38758000Y-39705000D02*
X38758000Y-40305000D01*
X38458000Y-39705000D02*
X38758000Y-39705000D01*
X37569000Y-40305000D02*
X37569000Y-39705000D01*
X37869000Y-40305000D02*
X37569000Y-40305000D01*
X37869000Y-39705000D02*
X37869000Y-40305000D01*
X37569000Y-39705000D02*
X37869000Y-39705000D01*
X29672000Y-63604000D02*
X30272000Y-63604000D01*
X29672000Y-63904000D02*
X29672000Y-63604000D01*
X30272000Y-63904000D02*
X29672000Y-63904000D01*
X30272000Y-63604000D02*
X30272000Y-63904000D01*
X29672000Y-62588000D02*
X30272000Y-62588000D01*
X29672000Y-62888000D02*
X29672000Y-62588000D01*
X30272000Y-62888000D02*
X29672000Y-62888000D01*
X30272000Y-62588000D02*
X30272000Y-62888000D01*
X50784000Y-27706000D02*
X50784000Y-30206000D01*
X48784000Y-27706000D02*
X50784000Y-27706000D01*
X48784000Y-29956000D02*
X49034000Y-30206000D01*
X49034000Y-30206000D02*
X50784000Y-30206000D01*
X48784000Y-29956000D02*
X48784000Y-27706000D01*
X52116000Y-61237000D02*
X51516000Y-61237000D01*
X52116000Y-60937000D02*
X52116000Y-61237000D01*
X51516000Y-60937000D02*
X52116000Y-60937000D01*
X51516000Y-61237000D02*
X51516000Y-60937000D01*
X43325000Y-67578000D02*
G75*
G03X43575000Y-67828000I250000J0D01*
G01*
X43325000Y-66528000D02*
G75*
G03X42825000Y-66028000I-500000J0D01*
G01*
X32575000Y-67828000D02*
G75*
G03X32825000Y-67578000I0J250000D01*
G01*
X33325000Y-66028000D02*
G75*
G03X32825000Y-66528000I0J-500000D01*
G01*
X32575000Y-71678000D02*
G75*
G03X33075000Y-72178000I500000J0D01*
G01*
X43075000Y-72178000D02*
G75*
G03X43575000Y-71678000I0J500000D01*
G01*
X44475000Y-67828000D02*
X44475000Y-56378000D01*
X31725000Y-67828000D02*
X31725000Y-56378000D01*
X31725000Y-56378000D02*
X44475000Y-56378000D01*
X32575000Y-55128000D02*
X42275000Y-55128000D01*
X42275000Y-56378000D02*
X42275000Y-55128000D01*
X32575000Y-56378000D02*
X32575000Y-55128000D01*
X33325000Y-66028000D02*
X42825000Y-66028000D01*
X31725000Y-67828000D02*
X32575000Y-67828000D01*
X32825000Y-67578000D02*
X32825000Y-66528000D01*
X43325000Y-67578000D02*
X43325000Y-66528000D01*
X43575000Y-67828000D02*
X44475000Y-67828000D01*
X32575000Y-67828000D02*
X32575000Y-71678000D01*
X33075000Y-72178000D02*
X43075000Y-72178000D01*
X43575000Y-71678000D02*
X43575000Y-67828000D01*
X27640000Y-40236000D02*
X28240000Y-40236000D01*
X27640000Y-40536000D02*
X27640000Y-40236000D01*
X28240000Y-40536000D02*
X27640000Y-40536000D01*
X28240000Y-40236000D02*
X28240000Y-40536000D01*
X42337000Y-51077000D02*
X41737000Y-51077000D01*
X42337000Y-50777000D02*
X42337000Y-51077000D01*
X41737000Y-50777000D02*
X42337000Y-50777000D01*
X41737000Y-51077000D02*
X41737000Y-50777000D01*
X26751000Y-45570000D02*
X27351000Y-45570000D01*
X26751000Y-45870000D02*
X26751000Y-45570000D01*
X27351000Y-45870000D02*
X26751000Y-45870000D01*
X27351000Y-45570000D02*
X27351000Y-45870000D01*
X32558000Y-47348000D02*
X32558000Y-47648000D01*
X32558000Y-47648000D02*
X31958000Y-47648000D01*
X31958000Y-47648000D02*
X31958000Y-47348000D01*
X31958000Y-47348000D02*
X32558000Y-47348000D01*
D11*
X52445380Y-57951523D02*
X52445380Y-57332476D01*
X52826333Y-57665809D01*
X52826333Y-57522952D01*
X52873952Y-57427714D01*
X52921571Y-57380095D01*
X53016809Y-57332476D01*
X53254904Y-57332476D01*
X53350142Y-57380095D01*
X53397761Y-57427714D01*
X53445380Y-57522952D01*
X53445380Y-57808666D01*
X53397761Y-57903904D01*
X53350142Y-57951523D01*
X52445380Y-56999142D02*
X52445380Y-56380095D01*
X52826333Y-56713428D01*
X52826333Y-56570571D01*
X52873952Y-56475333D01*
X52921571Y-56427714D01*
X53016809Y-56380095D01*
X53254904Y-56380095D01*
X53350142Y-56427714D01*
X53397761Y-56475333D01*
X53445380Y-56570571D01*
X53445380Y-56856285D01*
X53397761Y-56951523D01*
X53350142Y-56999142D01*
X53445380Y-55380095D02*
X52969190Y-55713428D01*
X53445380Y-55951523D02*
X52445380Y-55951523D01*
X52445380Y-55570571D01*
X52493000Y-55475333D01*
X52540619Y-55427714D01*
X52635857Y-55380095D01*
X52778714Y-55380095D01*
X52873952Y-55427714D01*
X52921571Y-55475333D01*
X52969190Y-55570571D01*
X52969190Y-55951523D01*
D12*
X51376095Y-56802714D02*
X51257047Y-56886047D01*
X51376095Y-56945571D02*
X51126095Y-56945571D01*
X51126095Y-56850333D01*
X51138000Y-56826523D01*
X51149904Y-56814619D01*
X51173714Y-56802714D01*
X51209428Y-56802714D01*
X51233238Y-56814619D01*
X51245142Y-56826523D01*
X51257047Y-56850333D01*
X51257047Y-56945571D01*
X51376095Y-56564619D02*
X51376095Y-56707476D01*
X51376095Y-56636047D02*
X51126095Y-56636047D01*
X51161809Y-56659857D01*
X51185619Y-56683666D01*
X51197523Y-56707476D01*
X51149904Y-56469380D02*
X51138000Y-56457476D01*
X51126095Y-56433666D01*
X51126095Y-56374142D01*
X51138000Y-56350333D01*
X51149904Y-56338428D01*
X51173714Y-56326523D01*
X51197523Y-56326523D01*
X51233238Y-56338428D01*
X51376095Y-56481285D01*
X51376095Y-56326523D01*
D11*
X36203142Y-27299380D02*
X36298380Y-27299380D01*
X36393619Y-27347000D01*
X36441238Y-27394619D01*
X36488857Y-27489857D01*
X36536476Y-27680333D01*
X36536476Y-27918428D01*
X36488857Y-28108904D01*
X36441238Y-28204142D01*
X36393619Y-28251761D01*
X36298380Y-28299380D01*
X36203142Y-28299380D01*
X36107904Y-28251761D01*
X36060285Y-28204142D01*
X36012666Y-28108904D01*
X35965047Y-27918428D01*
X35965047Y-27680333D01*
X36012666Y-27489857D01*
X36060285Y-27394619D01*
X36107904Y-27347000D01*
X36203142Y-27299380D01*
X36965047Y-28204142D02*
X37012666Y-28251761D01*
X36965047Y-28299380D01*
X36917428Y-28251761D01*
X36965047Y-28204142D01*
X36965047Y-28299380D01*
X37965047Y-28299380D02*
X37393619Y-28299380D01*
X37679333Y-28299380D02*
X37679333Y-27299380D01*
X37584095Y-27442238D01*
X37488857Y-27537476D01*
X37393619Y-27585095D01*
X38822190Y-27632714D02*
X38822190Y-28299380D01*
X38393619Y-27632714D02*
X38393619Y-28156523D01*
X38441238Y-28251761D01*
X38536476Y-28299380D01*
X38679333Y-28299380D01*
X38774571Y-28251761D01*
X38822190Y-28204142D01*
X39631714Y-27775571D02*
X39298380Y-27775571D01*
X39298380Y-28299380D02*
X39298380Y-27299380D01*
X39774571Y-27299380D01*
D12*
X37685285Y-26206285D02*
X37673380Y-26218190D01*
X37637666Y-26230095D01*
X37613857Y-26230095D01*
X37578142Y-26218190D01*
X37554333Y-26194380D01*
X37542428Y-26170571D01*
X37530523Y-26122952D01*
X37530523Y-26087238D01*
X37542428Y-26039619D01*
X37554333Y-26015809D01*
X37578142Y-25992000D01*
X37613857Y-25980095D01*
X37637666Y-25980095D01*
X37673380Y-25992000D01*
X37685285Y-26003904D01*
X37923380Y-26230095D02*
X37780523Y-26230095D01*
X37851952Y-26230095D02*
X37851952Y-25980095D01*
X37828142Y-26015809D01*
X37804333Y-26039619D01*
X37780523Y-26051523D01*
X38066238Y-26087238D02*
X38042428Y-26075333D01*
X38030523Y-26063428D01*
X38018619Y-26039619D01*
X38018619Y-26027714D01*
X38030523Y-26003904D01*
X38042428Y-25992000D01*
X38066238Y-25980095D01*
X38113857Y-25980095D01*
X38137666Y-25992000D01*
X38149571Y-26003904D01*
X38161476Y-26027714D01*
X38161476Y-26039619D01*
X38149571Y-26063428D01*
X38137666Y-26075333D01*
X38113857Y-26087238D01*
X38066238Y-26087238D01*
X38042428Y-26099142D01*
X38030523Y-26111047D01*
X38018619Y-26134857D01*
X38018619Y-26182476D01*
X38030523Y-26206285D01*
X38042428Y-26218190D01*
X38066238Y-26230095D01*
X38113857Y-26230095D01*
X38137666Y-26218190D01*
X38149571Y-26206285D01*
X38161476Y-26182476D01*
X38161476Y-26134857D01*
X38149571Y-26111047D01*
X38137666Y-26099142D01*
X38113857Y-26087238D01*
D11*
X32774142Y-51683380D02*
X32869380Y-51683380D01*
X32964619Y-51731000D01*
X33012238Y-51778619D01*
X33059857Y-51873857D01*
X33107476Y-52064333D01*
X33107476Y-52302428D01*
X33059857Y-52492904D01*
X33012238Y-52588142D01*
X32964619Y-52635761D01*
X32869380Y-52683380D01*
X32774142Y-52683380D01*
X32678904Y-52635761D01*
X32631285Y-52588142D01*
X32583666Y-52492904D01*
X32536047Y-52302428D01*
X32536047Y-52064333D01*
X32583666Y-51873857D01*
X32631285Y-51778619D01*
X32678904Y-51731000D01*
X32774142Y-51683380D01*
X33536047Y-52588142D02*
X33583666Y-52635761D01*
X33536047Y-52683380D01*
X33488428Y-52635761D01*
X33536047Y-52588142D01*
X33536047Y-52683380D01*
X34536047Y-52683380D02*
X33964619Y-52683380D01*
X34250333Y-52683380D02*
X34250333Y-51683380D01*
X34155095Y-51826238D01*
X34059857Y-51921476D01*
X33964619Y-51969095D01*
X35393190Y-52016714D02*
X35393190Y-52683380D01*
X34964619Y-52016714D02*
X34964619Y-52540523D01*
X35012238Y-52635761D01*
X35107476Y-52683380D01*
X35250333Y-52683380D01*
X35345571Y-52635761D01*
X35393190Y-52588142D01*
X36202714Y-52159571D02*
X35869380Y-52159571D01*
X35869380Y-52683380D02*
X35869380Y-51683380D01*
X36345571Y-51683380D01*
D12*
X34256285Y-50590285D02*
X34244380Y-50602190D01*
X34208666Y-50614095D01*
X34184857Y-50614095D01*
X34149142Y-50602190D01*
X34125333Y-50578380D01*
X34113428Y-50554571D01*
X34101523Y-50506952D01*
X34101523Y-50471238D01*
X34113428Y-50423619D01*
X34125333Y-50399809D01*
X34149142Y-50376000D01*
X34184857Y-50364095D01*
X34208666Y-50364095D01*
X34244380Y-50376000D01*
X34256285Y-50387904D01*
X34482476Y-50364095D02*
X34363428Y-50364095D01*
X34351523Y-50483142D01*
X34363428Y-50471238D01*
X34387238Y-50459333D01*
X34446761Y-50459333D01*
X34470571Y-50471238D01*
X34482476Y-50483142D01*
X34494380Y-50506952D01*
X34494380Y-50566476D01*
X34482476Y-50590285D01*
X34470571Y-50602190D01*
X34446761Y-50614095D01*
X34387238Y-50614095D01*
X34363428Y-50602190D01*
X34351523Y-50590285D01*
X34708666Y-50447428D02*
X34708666Y-50614095D01*
X34649142Y-50352190D02*
X34589619Y-50530761D01*
X34744380Y-50530761D01*
D11*
X26297142Y-36375380D02*
X26392380Y-36375380D01*
X26487619Y-36423000D01*
X26535238Y-36470619D01*
X26582857Y-36565857D01*
X26630476Y-36756333D01*
X26630476Y-36994428D01*
X26582857Y-37184904D01*
X26535238Y-37280142D01*
X26487619Y-37327761D01*
X26392380Y-37375380D01*
X26297142Y-37375380D01*
X26201904Y-37327761D01*
X26154285Y-37280142D01*
X26106666Y-37184904D01*
X26059047Y-36994428D01*
X26059047Y-36756333D01*
X26106666Y-36565857D01*
X26154285Y-36470619D01*
X26201904Y-36423000D01*
X26297142Y-36375380D01*
X27059047Y-37280142D02*
X27106666Y-37327761D01*
X27059047Y-37375380D01*
X27011428Y-37327761D01*
X27059047Y-37280142D01*
X27059047Y-37375380D01*
X28059047Y-37375380D02*
X27487619Y-37375380D01*
X27773333Y-37375380D02*
X27773333Y-36375380D01*
X27678095Y-36518238D01*
X27582857Y-36613476D01*
X27487619Y-36661095D01*
X28916190Y-36708714D02*
X28916190Y-37375380D01*
X28487619Y-36708714D02*
X28487619Y-37232523D01*
X28535238Y-37327761D01*
X28630476Y-37375380D01*
X28773333Y-37375380D01*
X28868571Y-37327761D01*
X28916190Y-37280142D01*
X29725714Y-36851571D02*
X29392380Y-36851571D01*
X29392380Y-37375380D02*
X29392380Y-36375380D01*
X29868571Y-36375380D01*
D12*
X27779285Y-38742285D02*
X27767380Y-38754190D01*
X27731666Y-38766095D01*
X27707857Y-38766095D01*
X27672142Y-38754190D01*
X27648333Y-38730380D01*
X27636428Y-38706571D01*
X27624523Y-38658952D01*
X27624523Y-38623238D01*
X27636428Y-38575619D01*
X27648333Y-38551809D01*
X27672142Y-38528000D01*
X27707857Y-38516095D01*
X27731666Y-38516095D01*
X27767380Y-38528000D01*
X27779285Y-38539904D01*
X27993571Y-38599428D02*
X27993571Y-38766095D01*
X27934047Y-38504190D02*
X27874523Y-38682761D01*
X28029285Y-38682761D01*
X28136428Y-38766095D02*
X28184047Y-38766095D01*
X28207857Y-38754190D01*
X28219761Y-38742285D01*
X28243571Y-38706571D01*
X28255476Y-38658952D01*
X28255476Y-38563714D01*
X28243571Y-38539904D01*
X28231666Y-38528000D01*
X28207857Y-38516095D01*
X28160238Y-38516095D01*
X28136428Y-38528000D01*
X28124523Y-38539904D01*
X28112619Y-38563714D01*
X28112619Y-38623238D01*
X28124523Y-38647047D01*
X28136428Y-38658952D01*
X28160238Y-38670857D01*
X28207857Y-38670857D01*
X28231666Y-38658952D01*
X28243571Y-38647047D01*
X28255476Y-38623238D01*
D11*
X29853142Y-41582380D02*
X29948380Y-41582380D01*
X30043619Y-41630000D01*
X30091238Y-41677619D01*
X30138857Y-41772857D01*
X30186476Y-41963333D01*
X30186476Y-42201428D01*
X30138857Y-42391904D01*
X30091238Y-42487142D01*
X30043619Y-42534761D01*
X29948380Y-42582380D01*
X29853142Y-42582380D01*
X29757904Y-42534761D01*
X29710285Y-42487142D01*
X29662666Y-42391904D01*
X29615047Y-42201428D01*
X29615047Y-41963333D01*
X29662666Y-41772857D01*
X29710285Y-41677619D01*
X29757904Y-41630000D01*
X29853142Y-41582380D01*
X30615047Y-42487142D02*
X30662666Y-42534761D01*
X30615047Y-42582380D01*
X30567428Y-42534761D01*
X30615047Y-42487142D01*
X30615047Y-42582380D01*
X31615047Y-42582380D02*
X31043619Y-42582380D01*
X31329333Y-42582380D02*
X31329333Y-41582380D01*
X31234095Y-41725238D01*
X31138857Y-41820476D01*
X31043619Y-41868095D01*
X32472190Y-41915714D02*
X32472190Y-42582380D01*
X32043619Y-41915714D02*
X32043619Y-42439523D01*
X32091238Y-42534761D01*
X32186476Y-42582380D01*
X32329333Y-42582380D01*
X32424571Y-42534761D01*
X32472190Y-42487142D01*
X33281714Y-42058571D02*
X32948380Y-42058571D01*
X32948380Y-42582380D02*
X32948380Y-41582380D01*
X33424571Y-41582380D01*
D12*
X31335285Y-43949285D02*
X31323380Y-43961190D01*
X31287666Y-43973095D01*
X31263857Y-43973095D01*
X31228142Y-43961190D01*
X31204333Y-43937380D01*
X31192428Y-43913571D01*
X31180523Y-43865952D01*
X31180523Y-43830238D01*
X31192428Y-43782619D01*
X31204333Y-43758809D01*
X31228142Y-43735000D01*
X31263857Y-43723095D01*
X31287666Y-43723095D01*
X31323380Y-43735000D01*
X31335285Y-43746904D01*
X31549571Y-43806428D02*
X31549571Y-43973095D01*
X31490047Y-43711190D02*
X31430523Y-43889761D01*
X31585285Y-43889761D01*
X31716238Y-43830238D02*
X31692428Y-43818333D01*
X31680523Y-43806428D01*
X31668619Y-43782619D01*
X31668619Y-43770714D01*
X31680523Y-43746904D01*
X31692428Y-43735000D01*
X31716238Y-43723095D01*
X31763857Y-43723095D01*
X31787666Y-43735000D01*
X31799571Y-43746904D01*
X31811476Y-43770714D01*
X31811476Y-43782619D01*
X31799571Y-43806428D01*
X31787666Y-43818333D01*
X31763857Y-43830238D01*
X31716238Y-43830238D01*
X31692428Y-43842142D01*
X31680523Y-43854047D01*
X31668619Y-43877857D01*
X31668619Y-43925476D01*
X31680523Y-43949285D01*
X31692428Y-43961190D01*
X31716238Y-43973095D01*
X31763857Y-43973095D01*
X31787666Y-43961190D01*
X31799571Y-43949285D01*
X31811476Y-43925476D01*
X31811476Y-43877857D01*
X31799571Y-43854047D01*
X31787666Y-43842142D01*
X31763857Y-43830238D01*
D11*
X35985380Y-37901428D02*
X35985380Y-38472857D01*
X35985380Y-38187142D02*
X34985380Y-38187142D01*
X35128238Y-38282380D01*
X35223476Y-38377619D01*
X35271095Y-38472857D01*
X34985380Y-37282380D02*
X34985380Y-37187142D01*
X35033000Y-37091904D01*
X35080619Y-37044285D01*
X35175857Y-36996666D01*
X35366333Y-36949047D01*
X35604428Y-36949047D01*
X35794904Y-36996666D01*
X35890142Y-37044285D01*
X35937761Y-37091904D01*
X35985380Y-37187142D01*
X35985380Y-37282380D01*
X35937761Y-37377619D01*
X35890142Y-37425238D01*
X35794904Y-37472857D01*
X35604428Y-37520476D01*
X35366333Y-37520476D01*
X35175857Y-37472857D01*
X35080619Y-37425238D01*
X35033000Y-37377619D01*
X34985380Y-37282380D01*
X35318714Y-36091904D02*
X35985380Y-36091904D01*
X35318714Y-36520476D02*
X35842523Y-36520476D01*
X35937761Y-36472857D01*
X35985380Y-36377619D01*
X35985380Y-36234761D01*
X35937761Y-36139523D01*
X35890142Y-36091904D01*
X35461571Y-35282380D02*
X35461571Y-35615714D01*
X35985380Y-35615714D02*
X34985380Y-35615714D01*
X34985380Y-35139523D01*
D12*
X36792285Y-36990714D02*
X36804190Y-37002619D01*
X36816095Y-37038333D01*
X36816095Y-37062142D01*
X36804190Y-37097857D01*
X36780380Y-37121666D01*
X36756571Y-37133571D01*
X36708952Y-37145476D01*
X36673238Y-37145476D01*
X36625619Y-37133571D01*
X36601809Y-37121666D01*
X36578000Y-37097857D01*
X36566095Y-37062142D01*
X36566095Y-37038333D01*
X36578000Y-37002619D01*
X36589904Y-36990714D01*
X36816095Y-36752619D02*
X36816095Y-36895476D01*
X36816095Y-36824047D02*
X36566095Y-36824047D01*
X36601809Y-36847857D01*
X36625619Y-36871666D01*
X36637523Y-36895476D01*
X36566095Y-36669285D02*
X36566095Y-36502619D01*
X36816095Y-36609761D01*
D11*
X50268285Y-60711714D02*
X50268285Y-61378380D01*
X50030190Y-60330761D02*
X49792095Y-61045047D01*
X50411142Y-61045047D01*
X50696857Y-60378380D02*
X51363523Y-60378380D01*
X50934952Y-61378380D01*
X51744476Y-61378380D02*
X51744476Y-60378380D01*
X52315904Y-61378380D02*
X51887333Y-60806952D01*
X52315904Y-60378380D02*
X51744476Y-60949809D01*
D12*
X51012333Y-62769095D02*
X50929000Y-62650047D01*
X50869476Y-62769095D02*
X50869476Y-62519095D01*
X50964714Y-62519095D01*
X50988523Y-62531000D01*
X51000428Y-62542904D01*
X51012333Y-62566714D01*
X51012333Y-62602428D01*
X51000428Y-62626238D01*
X50988523Y-62638142D01*
X50964714Y-62650047D01*
X50869476Y-62650047D01*
X51226619Y-62519095D02*
X51179000Y-62519095D01*
X51155190Y-62531000D01*
X51143285Y-62542904D01*
X51119476Y-62578619D01*
X51107571Y-62626238D01*
X51107571Y-62721476D01*
X51119476Y-62745285D01*
X51131380Y-62757190D01*
X51155190Y-62769095D01*
X51202809Y-62769095D01*
X51226619Y-62757190D01*
X51238523Y-62745285D01*
X51250428Y-62721476D01*
X51250428Y-62661952D01*
X51238523Y-62638142D01*
X51226619Y-62626238D01*
X51202809Y-62614333D01*
X51155190Y-62614333D01*
X51131380Y-62626238D01*
X51119476Y-62638142D01*
X51107571Y-62661952D01*
D11*
X50238714Y-61872714D02*
X50905380Y-61872714D01*
X49857761Y-62110809D02*
X50572047Y-62348904D01*
X50572047Y-61729857D01*
X49905380Y-61444142D02*
X49905380Y-60777476D01*
X50905380Y-61206047D01*
X50905380Y-60396523D02*
X49905380Y-60396523D01*
X50905380Y-59825095D02*
X50333952Y-60253666D01*
X49905380Y-59825095D02*
X50476809Y-60396523D01*
D12*
X48836095Y-61128666D02*
X48717047Y-61212000D01*
X48836095Y-61271523D02*
X48586095Y-61271523D01*
X48586095Y-61176285D01*
X48598000Y-61152476D01*
X48609904Y-61140571D01*
X48633714Y-61128666D01*
X48669428Y-61128666D01*
X48693238Y-61140571D01*
X48705142Y-61152476D01*
X48717047Y-61176285D01*
X48717047Y-61271523D01*
X48586095Y-60902476D02*
X48586095Y-61021523D01*
X48705142Y-61033428D01*
X48693238Y-61021523D01*
X48681333Y-60997714D01*
X48681333Y-60938190D01*
X48693238Y-60914380D01*
X48705142Y-60902476D01*
X48728952Y-60890571D01*
X48788476Y-60890571D01*
X48812285Y-60902476D01*
X48824190Y-60914380D01*
X48836095Y-60938190D01*
X48836095Y-60997714D01*
X48824190Y-61021523D01*
X48812285Y-61033428D01*
D11*
X46712285Y-62811714D02*
X46712285Y-63478380D01*
X46474190Y-62430761D02*
X46236095Y-63145047D01*
X46855142Y-63145047D01*
X47140857Y-62478380D02*
X47807523Y-62478380D01*
X47378952Y-63478380D01*
X48188476Y-63478380D02*
X48188476Y-62478380D01*
X48759904Y-63478380D02*
X48331333Y-62906952D01*
X48759904Y-62478380D02*
X48188476Y-63049809D01*
D12*
X47456333Y-61409095D02*
X47373000Y-61290047D01*
X47313476Y-61409095D02*
X47313476Y-61159095D01*
X47408714Y-61159095D01*
X47432523Y-61171000D01*
X47444428Y-61182904D01*
X47456333Y-61206714D01*
X47456333Y-61242428D01*
X47444428Y-61266238D01*
X47432523Y-61278142D01*
X47408714Y-61290047D01*
X47313476Y-61290047D01*
X47551571Y-61182904D02*
X47563476Y-61171000D01*
X47587285Y-61159095D01*
X47646809Y-61159095D01*
X47670619Y-61171000D01*
X47682523Y-61182904D01*
X47694428Y-61206714D01*
X47694428Y-61230523D01*
X47682523Y-61266238D01*
X47539666Y-61409095D01*
X47694428Y-61409095D01*
D11*
X45950285Y-59441714D02*
X45950285Y-60108380D01*
X45712190Y-59060761D02*
X45474095Y-59775047D01*
X46093142Y-59775047D01*
X46378857Y-59108380D02*
X47045523Y-59108380D01*
X46616952Y-60108380D01*
X47426476Y-60108380D02*
X47426476Y-59108380D01*
X47997904Y-60108380D02*
X47569333Y-59536952D01*
X47997904Y-59108380D02*
X47426476Y-59679809D01*
D12*
X46694333Y-61499095D02*
X46611000Y-61380047D01*
X46551476Y-61499095D02*
X46551476Y-61249095D01*
X46646714Y-61249095D01*
X46670523Y-61261000D01*
X46682428Y-61272904D01*
X46694333Y-61296714D01*
X46694333Y-61332428D01*
X46682428Y-61356238D01*
X46670523Y-61368142D01*
X46646714Y-61380047D01*
X46551476Y-61380047D01*
X46932428Y-61499095D02*
X46789571Y-61499095D01*
X46861000Y-61499095D02*
X46861000Y-61249095D01*
X46837190Y-61284809D01*
X46813380Y-61308619D01*
X46789571Y-61320523D01*
D11*
X35694000Y-36540380D02*
X35694000Y-35540380D01*
X36027333Y-36254666D01*
X36360666Y-35540380D01*
X36360666Y-36540380D01*
X36836857Y-36540380D02*
X36836857Y-35540380D01*
X37217809Y-35540380D01*
X37313047Y-35588000D01*
X37360666Y-35635619D01*
X37408285Y-35730857D01*
X37408285Y-35873714D01*
X37360666Y-35968952D01*
X37313047Y-36016571D01*
X37217809Y-36064190D01*
X36836857Y-36064190D01*
X37836857Y-35540380D02*
X37836857Y-36349904D01*
X37884476Y-36445142D01*
X37932095Y-36492761D01*
X38027333Y-36540380D01*
X38217809Y-36540380D01*
X38313047Y-36492761D01*
X38360666Y-36445142D01*
X38408285Y-36349904D01*
X38408285Y-35540380D01*
X38884476Y-36159428D02*
X39646380Y-36159428D01*
X40170190Y-36540380D02*
X40360666Y-36540380D01*
X40455904Y-36492761D01*
X40503523Y-36445142D01*
X40598761Y-36302285D01*
X40646380Y-36111809D01*
X40646380Y-35730857D01*
X40598761Y-35635619D01*
X40551142Y-35588000D01*
X40455904Y-35540380D01*
X40265428Y-35540380D01*
X40170190Y-35588000D01*
X40122571Y-35635619D01*
X40074952Y-35730857D01*
X40074952Y-35968952D01*
X40122571Y-36064190D01*
X40170190Y-36111809D01*
X40265428Y-36159428D01*
X40455904Y-36159428D01*
X40551142Y-36111809D01*
X40598761Y-36064190D01*
X40646380Y-35968952D01*
X41027333Y-35635619D02*
X41074952Y-35588000D01*
X41170190Y-35540380D01*
X41408285Y-35540380D01*
X41503523Y-35588000D01*
X41551142Y-35635619D01*
X41598761Y-35730857D01*
X41598761Y-35826095D01*
X41551142Y-35968952D01*
X40979714Y-36540380D01*
X41598761Y-36540380D01*
X42503523Y-35540380D02*
X42027333Y-35540380D01*
X41979714Y-36016571D01*
X42027333Y-35968952D01*
X42122571Y-35921333D01*
X42360666Y-35921333D01*
X42455904Y-35968952D01*
X42503523Y-36016571D01*
X42551142Y-36111809D01*
X42551142Y-36349904D01*
X42503523Y-36445142D01*
X42455904Y-36492761D01*
X42360666Y-36540380D01*
X42122571Y-36540380D01*
X42027333Y-36492761D01*
X41979714Y-36445142D01*
X43170190Y-35540380D02*
X43265428Y-35540380D01*
X43360666Y-35588000D01*
X43408285Y-35635619D01*
X43455904Y-35730857D01*
X43503523Y-35921333D01*
X43503523Y-36159428D01*
X43455904Y-36349904D01*
X43408285Y-36445142D01*
X43360666Y-36492761D01*
X43265428Y-36540380D01*
X43170190Y-36540380D01*
X43074952Y-36492761D01*
X43027333Y-36445142D01*
X42979714Y-36349904D01*
X42932095Y-36159428D01*
X42932095Y-35921333D01*
X42979714Y-35730857D01*
X43027333Y-35635619D01*
X43074952Y-35588000D01*
X43170190Y-35540380D01*
X43694000Y-36635619D02*
X44455904Y-36635619D01*
X44884476Y-35540380D02*
X45074952Y-35540380D01*
X45170190Y-35588000D01*
X45265428Y-35683238D01*
X45313047Y-35873714D01*
X45313047Y-36207047D01*
X45265428Y-36397523D01*
X45170190Y-36492761D01*
X45074952Y-36540380D01*
X44884476Y-36540380D01*
X44789238Y-36492761D01*
X44694000Y-36397523D01*
X44646380Y-36207047D01*
X44646380Y-35873714D01*
X44694000Y-35683238D01*
X44789238Y-35588000D01*
X44884476Y-35540380D01*
X45741619Y-36540380D02*
X45741619Y-35540380D01*
X45741619Y-35921333D02*
X45836857Y-35873714D01*
X46027333Y-35873714D01*
X46122571Y-35921333D01*
X46170190Y-35968952D01*
X46217809Y-36064190D01*
X46217809Y-36349904D01*
X46170190Y-36445142D01*
X46122571Y-36492761D01*
X46027333Y-36540380D01*
X45836857Y-36540380D01*
X45741619Y-36492761D01*
X46598761Y-36492761D02*
X46694000Y-36540380D01*
X46884476Y-36540380D01*
X46979714Y-36492761D01*
X47027333Y-36397523D01*
X47027333Y-36349904D01*
X46979714Y-36254666D01*
X46884476Y-36207047D01*
X46741619Y-36207047D01*
X46646380Y-36159428D01*
X46598761Y-36064190D01*
X46598761Y-36016571D01*
X46646380Y-35921333D01*
X46741619Y-35873714D01*
X46884476Y-35873714D01*
X46979714Y-35921333D01*
X47598761Y-36540380D02*
X47503523Y-36492761D01*
X47455904Y-36445142D01*
X47408285Y-36349904D01*
X47408285Y-36064190D01*
X47455904Y-35968952D01*
X47503523Y-35921333D01*
X47598761Y-35873714D01*
X47741619Y-35873714D01*
X47836857Y-35921333D01*
X47884476Y-35968952D01*
X47932095Y-36064190D01*
X47932095Y-36349904D01*
X47884476Y-36445142D01*
X47836857Y-36492761D01*
X47741619Y-36540380D01*
X47598761Y-36540380D01*
X48503523Y-36540380D02*
X48408285Y-36492761D01*
X48360666Y-36397523D01*
X48360666Y-35540380D01*
X49265428Y-36492761D02*
X49170190Y-36540380D01*
X48979714Y-36540380D01*
X48884476Y-36492761D01*
X48836857Y-36397523D01*
X48836857Y-36016571D01*
X48884476Y-35921333D01*
X48979714Y-35873714D01*
X49170190Y-35873714D01*
X49265428Y-35921333D01*
X49313047Y-36016571D01*
X49313047Y-36111809D01*
X48836857Y-36207047D01*
X49598761Y-35873714D02*
X49979714Y-35873714D01*
X49741619Y-35540380D02*
X49741619Y-36397523D01*
X49789238Y-36492761D01*
X49884476Y-36540380D01*
X49979714Y-36540380D01*
X50694000Y-36492761D02*
X50598761Y-36540380D01*
X50408285Y-36540380D01*
X50313047Y-36492761D01*
X50265428Y-36397523D01*
X50265428Y-36016571D01*
X50313047Y-35921333D01*
X50408285Y-35873714D01*
X50598761Y-35873714D01*
X50694000Y-35921333D01*
X50741619Y-36016571D01*
X50741619Y-36111809D01*
X50265428Y-36207047D01*
X48299809Y-20094380D02*
X48299809Y-19094380D01*
X48728380Y-19189619D02*
X48776000Y-19142000D01*
X48871238Y-19094380D01*
X49109333Y-19094380D01*
X49204571Y-19142000D01*
X49252190Y-19189619D01*
X49299809Y-19284857D01*
X49299809Y-19380095D01*
X49252190Y-19522952D01*
X48680761Y-20094380D01*
X49299809Y-20094380D01*
X50299809Y-19999142D02*
X50252190Y-20046761D01*
X50109333Y-20094380D01*
X50014095Y-20094380D01*
X49871238Y-20046761D01*
X49776000Y-19951523D01*
X49728380Y-19856285D01*
X49680761Y-19665809D01*
X49680761Y-19522952D01*
X49728380Y-19332476D01*
X49776000Y-19237238D01*
X49871238Y-19142000D01*
X50014095Y-19094380D01*
X50109333Y-19094380D01*
X50252190Y-19142000D01*
X50299809Y-19189619D01*
X48942666Y-23074380D02*
X48942666Y-23788666D01*
X48895047Y-23931523D01*
X48799809Y-24026761D01*
X48656952Y-24074380D01*
X48561714Y-24074380D01*
X49847428Y-23407714D02*
X49847428Y-24074380D01*
X49609333Y-23026761D02*
X49371238Y-23741047D01*
X49990285Y-23741047D01*
X28313238Y-20094380D02*
X28313238Y-19094380D01*
X28694190Y-19094380D01*
X28789428Y-19142000D01*
X28837047Y-19189619D01*
X28884666Y-19284857D01*
X28884666Y-19427714D01*
X28837047Y-19522952D01*
X28789428Y-19570571D01*
X28694190Y-19618190D01*
X28313238Y-19618190D01*
X29218000Y-19094380D02*
X29456095Y-20094380D01*
X29646571Y-19380095D01*
X29837047Y-20094380D01*
X30075142Y-19094380D01*
X30456095Y-20094380D02*
X30456095Y-19094380D01*
X30789428Y-19808666D01*
X31122761Y-19094380D01*
X31122761Y-20094380D01*
X29384666Y-23074380D02*
X29384666Y-23788666D01*
X29337047Y-23931523D01*
X29241809Y-24026761D01*
X29098952Y-24074380D01*
X29003714Y-24074380D01*
X29813238Y-23169619D02*
X29860857Y-23122000D01*
X29956095Y-23074380D01*
X30194190Y-23074380D01*
X30289428Y-23122000D01*
X30337047Y-23169619D01*
X30384666Y-23264857D01*
X30384666Y-23360095D01*
X30337047Y-23502952D01*
X29765619Y-24074380D01*
X30384666Y-24074380D01*
X36614380Y-22715404D02*
X35614380Y-22715404D01*
X35614380Y-22477309D01*
X35662000Y-22334452D01*
X35757238Y-22239214D01*
X35852476Y-22191595D01*
X36042952Y-22143976D01*
X36185809Y-22143976D01*
X36376285Y-22191595D01*
X36471523Y-22239214D01*
X36566761Y-22334452D01*
X36614380Y-22477309D01*
X36614380Y-22715404D01*
D13*
X37772952Y-22748738D02*
X37372952Y-22748738D01*
X37372952Y-22653500D01*
X37392000Y-22596357D01*
X37430095Y-22558261D01*
X37468190Y-22539214D01*
X37544380Y-22520166D01*
X37601523Y-22520166D01*
X37677714Y-22539214D01*
X37715809Y-22558261D01*
X37753904Y-22596357D01*
X37772952Y-22653500D01*
X37772952Y-22748738D01*
X37411047Y-22367785D02*
X37392000Y-22348738D01*
X37372952Y-22310642D01*
X37372952Y-22215404D01*
X37392000Y-22177309D01*
X37411047Y-22158261D01*
X37449142Y-22139214D01*
X37487238Y-22139214D01*
X37544380Y-22158261D01*
X37772952Y-22386833D01*
X37772952Y-22139214D01*
D11*
X51092380Y-33281904D02*
X50092380Y-33281904D01*
X50092380Y-33043809D01*
X50140000Y-32900952D01*
X50235238Y-32805714D01*
X50330476Y-32758095D01*
X50520952Y-32710476D01*
X50663809Y-32710476D01*
X50854285Y-32758095D01*
X50949523Y-32805714D01*
X51044761Y-32900952D01*
X51092380Y-33043809D01*
X51092380Y-33281904D01*
D13*
X52250952Y-33315238D02*
X51850952Y-33315238D01*
X51850952Y-33220000D01*
X51870000Y-33162857D01*
X51908095Y-33124761D01*
X51946190Y-33105714D01*
X52022380Y-33086666D01*
X52079523Y-33086666D01*
X52155714Y-33105714D01*
X52193809Y-33124761D01*
X52231904Y-33162857D01*
X52250952Y-33220000D01*
X52250952Y-33315238D01*
X52250952Y-32705714D02*
X52250952Y-32934285D01*
X52250952Y-32820000D02*
X51850952Y-32820000D01*
X51908095Y-32858095D01*
X51946190Y-32896190D01*
X51965238Y-32934285D01*
D11*
X25408142Y-41455380D02*
X25503380Y-41455380D01*
X25598619Y-41503000D01*
X25646238Y-41550619D01*
X25693857Y-41645857D01*
X25741476Y-41836333D01*
X25741476Y-42074428D01*
X25693857Y-42264904D01*
X25646238Y-42360142D01*
X25598619Y-42407761D01*
X25503380Y-42455380D01*
X25408142Y-42455380D01*
X25312904Y-42407761D01*
X25265285Y-42360142D01*
X25217666Y-42264904D01*
X25170047Y-42074428D01*
X25170047Y-41836333D01*
X25217666Y-41645857D01*
X25265285Y-41550619D01*
X25312904Y-41503000D01*
X25408142Y-41455380D01*
X26170047Y-42360142D02*
X26217666Y-42407761D01*
X26170047Y-42455380D01*
X26122428Y-42407761D01*
X26170047Y-42360142D01*
X26170047Y-42455380D01*
X27170047Y-42455380D02*
X26598619Y-42455380D01*
X26884333Y-42455380D02*
X26884333Y-41455380D01*
X26789095Y-41598238D01*
X26693857Y-41693476D01*
X26598619Y-41741095D01*
X28027190Y-41788714D02*
X28027190Y-42455380D01*
X27598619Y-41788714D02*
X27598619Y-42312523D01*
X27646238Y-42407761D01*
X27741476Y-42455380D01*
X27884333Y-42455380D01*
X27979571Y-42407761D01*
X28027190Y-42360142D01*
X28836714Y-41931571D02*
X28503380Y-41931571D01*
X28503380Y-42455380D02*
X28503380Y-41455380D01*
X28979571Y-41455380D01*
D12*
X26890285Y-43822285D02*
X26878380Y-43834190D01*
X26842666Y-43846095D01*
X26818857Y-43846095D01*
X26783142Y-43834190D01*
X26759333Y-43810380D01*
X26747428Y-43786571D01*
X26735523Y-43738952D01*
X26735523Y-43703238D01*
X26747428Y-43655619D01*
X26759333Y-43631809D01*
X26783142Y-43608000D01*
X26818857Y-43596095D01*
X26842666Y-43596095D01*
X26878380Y-43608000D01*
X26890285Y-43619904D01*
X27104571Y-43596095D02*
X27056952Y-43596095D01*
X27033142Y-43608000D01*
X27021238Y-43619904D01*
X26997428Y-43655619D01*
X26985523Y-43703238D01*
X26985523Y-43798476D01*
X26997428Y-43822285D01*
X27009333Y-43834190D01*
X27033142Y-43846095D01*
X27080761Y-43846095D01*
X27104571Y-43834190D01*
X27116476Y-43822285D01*
X27128380Y-43798476D01*
X27128380Y-43738952D01*
X27116476Y-43715142D01*
X27104571Y-43703238D01*
X27080761Y-43691333D01*
X27033142Y-43691333D01*
X27009333Y-43703238D01*
X26997428Y-43715142D01*
X26985523Y-43738952D01*
X27211714Y-43596095D02*
X27366476Y-43596095D01*
X27283142Y-43691333D01*
X27318857Y-43691333D01*
X27342666Y-43703238D01*
X27354571Y-43715142D01*
X27366476Y-43738952D01*
X27366476Y-43798476D01*
X27354571Y-43822285D01*
X27342666Y-43834190D01*
X27318857Y-43846095D01*
X27247428Y-43846095D01*
X27223619Y-43834190D01*
X27211714Y-43822285D01*
D11*
X33835380Y-38345857D02*
X33835380Y-38250619D01*
X33883000Y-38155380D01*
X33930619Y-38107761D01*
X34025857Y-38060142D01*
X34216333Y-38012523D01*
X34454428Y-38012523D01*
X34644904Y-38060142D01*
X34740142Y-38107761D01*
X34787761Y-38155380D01*
X34835380Y-38250619D01*
X34835380Y-38345857D01*
X34787761Y-38441095D01*
X34740142Y-38488714D01*
X34644904Y-38536333D01*
X34454428Y-38583952D01*
X34216333Y-38583952D01*
X34025857Y-38536333D01*
X33930619Y-38488714D01*
X33883000Y-38441095D01*
X33835380Y-38345857D01*
X34740142Y-37583952D02*
X34787761Y-37536333D01*
X34835380Y-37583952D01*
X34787761Y-37631571D01*
X34740142Y-37583952D01*
X34835380Y-37583952D01*
X34835380Y-36583952D02*
X34835380Y-37155380D01*
X34835380Y-36869666D02*
X33835380Y-36869666D01*
X33978238Y-36964904D01*
X34073476Y-37060142D01*
X34121095Y-37155380D01*
X34168714Y-35726809D02*
X34835380Y-35726809D01*
X34168714Y-36155380D02*
X34692523Y-36155380D01*
X34787761Y-36107761D01*
X34835380Y-36012523D01*
X34835380Y-35869666D01*
X34787761Y-35774428D01*
X34740142Y-35726809D01*
X34311571Y-34917285D02*
X34311571Y-35250619D01*
X34835380Y-35250619D02*
X33835380Y-35250619D01*
X33835380Y-34774428D01*
D12*
X36202285Y-36863714D02*
X36214190Y-36875619D01*
X36226095Y-36911333D01*
X36226095Y-36935142D01*
X36214190Y-36970857D01*
X36190380Y-36994666D01*
X36166571Y-37006571D01*
X36118952Y-37018476D01*
X36083238Y-37018476D01*
X36035619Y-37006571D01*
X36011809Y-36994666D01*
X35988000Y-36970857D01*
X35976095Y-36935142D01*
X35976095Y-36911333D01*
X35988000Y-36875619D01*
X35999904Y-36863714D01*
X35976095Y-36649428D02*
X35976095Y-36697047D01*
X35988000Y-36720857D01*
X35999904Y-36732761D01*
X36035619Y-36756571D01*
X36083238Y-36768476D01*
X36178476Y-36768476D01*
X36202285Y-36756571D01*
X36214190Y-36744666D01*
X36226095Y-36720857D01*
X36226095Y-36673238D01*
X36214190Y-36649428D01*
X36202285Y-36637523D01*
X36178476Y-36625619D01*
X36118952Y-36625619D01*
X36095142Y-36637523D01*
X36083238Y-36649428D01*
X36071333Y-36673238D01*
X36071333Y-36720857D01*
X36083238Y-36744666D01*
X36095142Y-36756571D01*
X36118952Y-36768476D01*
X36226095Y-36387523D02*
X36226095Y-36530380D01*
X36226095Y-36458952D02*
X35976095Y-36458952D01*
X36011809Y-36482761D01*
X36035619Y-36506571D01*
X36047523Y-36530380D01*
D11*
X42362571Y-47542380D02*
X41791142Y-47542380D01*
X42076857Y-47542380D02*
X42076857Y-46542380D01*
X41981619Y-46685238D01*
X41886380Y-46780476D01*
X41791142Y-46828095D01*
X42981619Y-46542380D02*
X43076857Y-46542380D01*
X43172095Y-46590000D01*
X43219714Y-46637619D01*
X43267333Y-46732857D01*
X43314952Y-46923333D01*
X43314952Y-47161428D01*
X43267333Y-47351904D01*
X43219714Y-47447142D01*
X43172095Y-47494761D01*
X43076857Y-47542380D01*
X42981619Y-47542380D01*
X42886380Y-47494761D01*
X42838761Y-47447142D01*
X42791142Y-47351904D01*
X42743523Y-47161428D01*
X42743523Y-46923333D01*
X42791142Y-46732857D01*
X42838761Y-46637619D01*
X42886380Y-46590000D01*
X42981619Y-46542380D01*
X44172095Y-46875714D02*
X44172095Y-47542380D01*
X43743523Y-46875714D02*
X43743523Y-47399523D01*
X43791142Y-47494761D01*
X43886380Y-47542380D01*
X44029238Y-47542380D01*
X44124476Y-47494761D01*
X44172095Y-47447142D01*
X44981619Y-47018571D02*
X44648285Y-47018571D01*
X44648285Y-47542380D02*
X44648285Y-46542380D01*
X45124476Y-46542380D01*
D12*
X43273285Y-48349285D02*
X43261380Y-48361190D01*
X43225666Y-48373095D01*
X43201857Y-48373095D01*
X43166142Y-48361190D01*
X43142333Y-48337380D01*
X43130428Y-48313571D01*
X43118523Y-48265952D01*
X43118523Y-48230238D01*
X43130428Y-48182619D01*
X43142333Y-48158809D01*
X43166142Y-48135000D01*
X43201857Y-48123095D01*
X43225666Y-48123095D01*
X43261380Y-48135000D01*
X43273285Y-48146904D01*
X43499476Y-48123095D02*
X43380428Y-48123095D01*
X43368523Y-48242142D01*
X43380428Y-48230238D01*
X43404238Y-48218333D01*
X43463761Y-48218333D01*
X43487571Y-48230238D01*
X43499476Y-48242142D01*
X43511380Y-48265952D01*
X43511380Y-48325476D01*
X43499476Y-48349285D01*
X43487571Y-48361190D01*
X43463761Y-48373095D01*
X43404238Y-48373095D01*
X43380428Y-48361190D01*
X43368523Y-48349285D01*
X43725666Y-48123095D02*
X43678047Y-48123095D01*
X43654238Y-48135000D01*
X43642333Y-48146904D01*
X43618523Y-48182619D01*
X43606619Y-48230238D01*
X43606619Y-48325476D01*
X43618523Y-48349285D01*
X43630428Y-48361190D01*
X43654238Y-48373095D01*
X43701857Y-48373095D01*
X43725666Y-48361190D01*
X43737571Y-48349285D01*
X43749476Y-48325476D01*
X43749476Y-48265952D01*
X43737571Y-48242142D01*
X43725666Y-48230238D01*
X43701857Y-48218333D01*
X43654238Y-48218333D01*
X43630428Y-48230238D01*
X43618523Y-48242142D01*
X43606619Y-48265952D01*
D11*
X25979571Y-43732380D02*
X25408142Y-43732380D01*
X25693857Y-43732380D02*
X25693857Y-42732380D01*
X25598619Y-42875238D01*
X25503380Y-42970476D01*
X25408142Y-43018095D01*
X26598619Y-42732380D02*
X26693857Y-42732380D01*
X26789095Y-42780000D01*
X26836714Y-42827619D01*
X26884333Y-42922857D01*
X26931952Y-43113333D01*
X26931952Y-43351428D01*
X26884333Y-43541904D01*
X26836714Y-43637142D01*
X26789095Y-43684761D01*
X26693857Y-43732380D01*
X26598619Y-43732380D01*
X26503380Y-43684761D01*
X26455761Y-43637142D01*
X26408142Y-43541904D01*
X26360523Y-43351428D01*
X26360523Y-43113333D01*
X26408142Y-42922857D01*
X26455761Y-42827619D01*
X26503380Y-42780000D01*
X26598619Y-42732380D01*
X27789095Y-43065714D02*
X27789095Y-43732380D01*
X27360523Y-43065714D02*
X27360523Y-43589523D01*
X27408142Y-43684761D01*
X27503380Y-43732380D01*
X27646238Y-43732380D01*
X27741476Y-43684761D01*
X27789095Y-43637142D01*
X28598619Y-43208571D02*
X28265285Y-43208571D01*
X28265285Y-43732380D02*
X28265285Y-42732380D01*
X28741476Y-42732380D01*
D12*
X26890285Y-44539285D02*
X26878380Y-44551190D01*
X26842666Y-44563095D01*
X26818857Y-44563095D01*
X26783142Y-44551190D01*
X26759333Y-44527380D01*
X26747428Y-44503571D01*
X26735523Y-44455952D01*
X26735523Y-44420238D01*
X26747428Y-44372619D01*
X26759333Y-44348809D01*
X26783142Y-44325000D01*
X26818857Y-44313095D01*
X26842666Y-44313095D01*
X26878380Y-44325000D01*
X26890285Y-44336904D01*
X27116476Y-44313095D02*
X26997428Y-44313095D01*
X26985523Y-44432142D01*
X26997428Y-44420238D01*
X27021238Y-44408333D01*
X27080761Y-44408333D01*
X27104571Y-44420238D01*
X27116476Y-44432142D01*
X27128380Y-44455952D01*
X27128380Y-44515476D01*
X27116476Y-44539285D01*
X27104571Y-44551190D01*
X27080761Y-44563095D01*
X27021238Y-44563095D01*
X26997428Y-44551190D01*
X26985523Y-44539285D01*
X27354571Y-44313095D02*
X27235523Y-44313095D01*
X27223619Y-44432142D01*
X27235523Y-44420238D01*
X27259333Y-44408333D01*
X27318857Y-44408333D01*
X27342666Y-44420238D01*
X27354571Y-44432142D01*
X27366476Y-44455952D01*
X27366476Y-44515476D01*
X27354571Y-44539285D01*
X27342666Y-44551190D01*
X27318857Y-44563095D01*
X27259333Y-44563095D01*
X27235523Y-44551190D01*
X27223619Y-44539285D01*
D11*
X47342380Y-43616428D02*
X47342380Y-44187857D01*
X47342380Y-43902142D02*
X46342380Y-43902142D01*
X46485238Y-43997380D01*
X46580476Y-44092619D01*
X46628095Y-44187857D01*
X46342380Y-42997380D02*
X46342380Y-42902142D01*
X46390000Y-42806904D01*
X46437619Y-42759285D01*
X46532857Y-42711666D01*
X46723333Y-42664047D01*
X46961428Y-42664047D01*
X47151904Y-42711666D01*
X47247142Y-42759285D01*
X47294761Y-42806904D01*
X47342380Y-42902142D01*
X47342380Y-42997380D01*
X47294761Y-43092619D01*
X47247142Y-43140238D01*
X47151904Y-43187857D01*
X46961428Y-43235476D01*
X46723333Y-43235476D01*
X46532857Y-43187857D01*
X46437619Y-43140238D01*
X46390000Y-43092619D01*
X46342380Y-42997380D01*
X46675714Y-41806904D02*
X47342380Y-41806904D01*
X46675714Y-42235476D02*
X47199523Y-42235476D01*
X47294761Y-42187857D01*
X47342380Y-42092619D01*
X47342380Y-41949761D01*
X47294761Y-41854523D01*
X47247142Y-41806904D01*
X46818571Y-40997380D02*
X46818571Y-41330714D01*
X47342380Y-41330714D02*
X46342380Y-41330714D01*
X46342380Y-40854523D01*
D12*
X45809285Y-42705714D02*
X45821190Y-42717619D01*
X45833095Y-42753333D01*
X45833095Y-42777142D01*
X45821190Y-42812857D01*
X45797380Y-42836666D01*
X45773571Y-42848571D01*
X45725952Y-42860476D01*
X45690238Y-42860476D01*
X45642619Y-42848571D01*
X45618809Y-42836666D01*
X45595000Y-42812857D01*
X45583095Y-42777142D01*
X45583095Y-42753333D01*
X45595000Y-42717619D01*
X45606904Y-42705714D01*
X45666428Y-42491428D02*
X45833095Y-42491428D01*
X45571190Y-42550952D02*
X45749761Y-42610476D01*
X45749761Y-42455714D01*
X45666428Y-42253333D02*
X45833095Y-42253333D01*
X45571190Y-42312857D02*
X45749761Y-42372380D01*
X45749761Y-42217619D01*
D11*
X26868571Y-38525380D02*
X26297142Y-38525380D01*
X26582857Y-38525380D02*
X26582857Y-37525380D01*
X26487619Y-37668238D01*
X26392380Y-37763476D01*
X26297142Y-37811095D01*
X27487619Y-37525380D02*
X27582857Y-37525380D01*
X27678095Y-37573000D01*
X27725714Y-37620619D01*
X27773333Y-37715857D01*
X27820952Y-37906333D01*
X27820952Y-38144428D01*
X27773333Y-38334904D01*
X27725714Y-38430142D01*
X27678095Y-38477761D01*
X27582857Y-38525380D01*
X27487619Y-38525380D01*
X27392380Y-38477761D01*
X27344761Y-38430142D01*
X27297142Y-38334904D01*
X27249523Y-38144428D01*
X27249523Y-37906333D01*
X27297142Y-37715857D01*
X27344761Y-37620619D01*
X27392380Y-37573000D01*
X27487619Y-37525380D01*
X28678095Y-37858714D02*
X28678095Y-38525380D01*
X28249523Y-37858714D02*
X28249523Y-38382523D01*
X28297142Y-38477761D01*
X28392380Y-38525380D01*
X28535238Y-38525380D01*
X28630476Y-38477761D01*
X28678095Y-38430142D01*
X29487619Y-38001571D02*
X29154285Y-38001571D01*
X29154285Y-38525380D02*
X29154285Y-37525380D01*
X29630476Y-37525380D01*
D12*
X27779285Y-39332285D02*
X27767380Y-39344190D01*
X27731666Y-39356095D01*
X27707857Y-39356095D01*
X27672142Y-39344190D01*
X27648333Y-39320380D01*
X27636428Y-39296571D01*
X27624523Y-39248952D01*
X27624523Y-39213238D01*
X27636428Y-39165619D01*
X27648333Y-39141809D01*
X27672142Y-39118000D01*
X27707857Y-39106095D01*
X27731666Y-39106095D01*
X27767380Y-39118000D01*
X27779285Y-39129904D01*
X27993571Y-39189428D02*
X27993571Y-39356095D01*
X27934047Y-39094190D02*
X27874523Y-39272761D01*
X28029285Y-39272761D01*
X28100714Y-39106095D02*
X28255476Y-39106095D01*
X28172142Y-39201333D01*
X28207857Y-39201333D01*
X28231666Y-39213238D01*
X28243571Y-39225142D01*
X28255476Y-39248952D01*
X28255476Y-39308476D01*
X28243571Y-39332285D01*
X28231666Y-39344190D01*
X28207857Y-39356095D01*
X28136428Y-39356095D01*
X28112619Y-39344190D01*
X28100714Y-39332285D01*
D11*
X46281380Y-31360857D02*
X46281380Y-31265619D01*
X46329000Y-31170380D01*
X46376619Y-31122761D01*
X46471857Y-31075142D01*
X46662333Y-31027523D01*
X46900428Y-31027523D01*
X47090904Y-31075142D01*
X47186142Y-31122761D01*
X47233761Y-31170380D01*
X47281380Y-31265619D01*
X47281380Y-31360857D01*
X47233761Y-31456095D01*
X47186142Y-31503714D01*
X47090904Y-31551333D01*
X46900428Y-31598952D01*
X46662333Y-31598952D01*
X46471857Y-31551333D01*
X46376619Y-31503714D01*
X46329000Y-31456095D01*
X46281380Y-31360857D01*
X47186142Y-30598952D02*
X47233761Y-30551333D01*
X47281380Y-30598952D01*
X47233761Y-30646571D01*
X47186142Y-30598952D01*
X47281380Y-30598952D01*
X47281380Y-29598952D02*
X47281380Y-30170380D01*
X47281380Y-29884666D02*
X46281380Y-29884666D01*
X46424238Y-29979904D01*
X46519476Y-30075142D01*
X46567095Y-30170380D01*
X46614714Y-28741809D02*
X47281380Y-28741809D01*
X46614714Y-29170380D02*
X47138523Y-29170380D01*
X47233761Y-29122761D01*
X47281380Y-29027523D01*
X47281380Y-28884666D01*
X47233761Y-28789428D01*
X47186142Y-28741809D01*
X46757571Y-27932285D02*
X46757571Y-28265619D01*
X47281380Y-28265619D02*
X46281380Y-28265619D01*
X46281380Y-27789428D01*
D12*
X48648285Y-29878714D02*
X48660190Y-29890619D01*
X48672095Y-29926333D01*
X48672095Y-29950142D01*
X48660190Y-29985857D01*
X48636380Y-30009666D01*
X48612571Y-30021571D01*
X48564952Y-30033476D01*
X48529238Y-30033476D01*
X48481619Y-30021571D01*
X48457809Y-30009666D01*
X48434000Y-29985857D01*
X48422095Y-29950142D01*
X48422095Y-29926333D01*
X48434000Y-29890619D01*
X48445904Y-29878714D01*
X48672095Y-29640619D02*
X48672095Y-29783476D01*
X48672095Y-29712047D02*
X48422095Y-29712047D01*
X48457809Y-29735857D01*
X48481619Y-29759666D01*
X48493523Y-29783476D01*
X48422095Y-29426333D02*
X48422095Y-29473952D01*
X48434000Y-29497761D01*
X48445904Y-29509666D01*
X48481619Y-29533476D01*
X48529238Y-29545380D01*
X48624476Y-29545380D01*
X48648285Y-29533476D01*
X48660190Y-29521571D01*
X48672095Y-29497761D01*
X48672095Y-29450142D01*
X48660190Y-29426333D01*
X48648285Y-29414428D01*
X48624476Y-29402523D01*
X48564952Y-29402523D01*
X48541142Y-29414428D01*
X48529238Y-29426333D01*
X48517333Y-29450142D01*
X48517333Y-29497761D01*
X48529238Y-29521571D01*
X48541142Y-29533476D01*
X48564952Y-29545380D01*
D11*
X52445380Y-31487857D02*
X52445380Y-31392619D01*
X52493000Y-31297380D01*
X52540619Y-31249761D01*
X52635857Y-31202142D01*
X52826333Y-31154523D01*
X53064428Y-31154523D01*
X53254904Y-31202142D01*
X53350142Y-31249761D01*
X53397761Y-31297380D01*
X53445380Y-31392619D01*
X53445380Y-31487857D01*
X53397761Y-31583095D01*
X53350142Y-31630714D01*
X53254904Y-31678333D01*
X53064428Y-31725952D01*
X52826333Y-31725952D01*
X52635857Y-31678333D01*
X52540619Y-31630714D01*
X52493000Y-31583095D01*
X52445380Y-31487857D01*
X53350142Y-30725952D02*
X53397761Y-30678333D01*
X53445380Y-30725952D01*
X53397761Y-30773571D01*
X53350142Y-30725952D01*
X53445380Y-30725952D01*
X53445380Y-29725952D02*
X53445380Y-30297380D01*
X53445380Y-30011666D02*
X52445380Y-30011666D01*
X52588238Y-30106904D01*
X52683476Y-30202142D01*
X52731095Y-30297380D01*
X52778714Y-28868809D02*
X53445380Y-28868809D01*
X52778714Y-29297380D02*
X53302523Y-29297380D01*
X53397761Y-29249761D01*
X53445380Y-29154523D01*
X53445380Y-29011666D01*
X53397761Y-28916428D01*
X53350142Y-28868809D01*
X52921571Y-28059285D02*
X52921571Y-28392619D01*
X53445380Y-28392619D02*
X52445380Y-28392619D01*
X52445380Y-27916428D01*
D12*
X51352285Y-30005714D02*
X51364190Y-30017619D01*
X51376095Y-30053333D01*
X51376095Y-30077142D01*
X51364190Y-30112857D01*
X51340380Y-30136666D01*
X51316571Y-30148571D01*
X51268952Y-30160476D01*
X51233238Y-30160476D01*
X51185619Y-30148571D01*
X51161809Y-30136666D01*
X51138000Y-30112857D01*
X51126095Y-30077142D01*
X51126095Y-30053333D01*
X51138000Y-30017619D01*
X51149904Y-30005714D01*
X51376095Y-29767619D02*
X51376095Y-29910476D01*
X51376095Y-29839047D02*
X51126095Y-29839047D01*
X51161809Y-29862857D01*
X51185619Y-29886666D01*
X51197523Y-29910476D01*
X51126095Y-29541428D02*
X51126095Y-29660476D01*
X51245142Y-29672380D01*
X51233238Y-29660476D01*
X51221333Y-29636666D01*
X51221333Y-29577142D01*
X51233238Y-29553333D01*
X51245142Y-29541428D01*
X51268952Y-29529523D01*
X51328476Y-29529523D01*
X51352285Y-29541428D01*
X51364190Y-29553333D01*
X51376095Y-29577142D01*
X51376095Y-29636666D01*
X51364190Y-29660476D01*
X51352285Y-29672380D01*
D11*
X38427714Y-26058714D02*
X39094380Y-26058714D01*
X38046761Y-26296809D02*
X38761047Y-26534904D01*
X38761047Y-25915857D01*
X38094380Y-25630142D02*
X38094380Y-24963476D01*
X39094380Y-25392047D01*
X39094380Y-24582523D02*
X38094380Y-24582523D01*
X39094380Y-24011095D02*
X38522952Y-24439666D01*
X38094380Y-24011095D02*
X38665809Y-24582523D01*
D12*
X37025095Y-25314666D02*
X36906047Y-25398000D01*
X37025095Y-25457523D02*
X36775095Y-25457523D01*
X36775095Y-25362285D01*
X36787000Y-25338476D01*
X36798904Y-25326571D01*
X36822714Y-25314666D01*
X36858428Y-25314666D01*
X36882238Y-25326571D01*
X36894142Y-25338476D01*
X36906047Y-25362285D01*
X36906047Y-25457523D01*
X36882238Y-25171809D02*
X36870333Y-25195619D01*
X36858428Y-25207523D01*
X36834619Y-25219428D01*
X36822714Y-25219428D01*
X36798904Y-25207523D01*
X36787000Y-25195619D01*
X36775095Y-25171809D01*
X36775095Y-25124190D01*
X36787000Y-25100380D01*
X36798904Y-25088476D01*
X36822714Y-25076571D01*
X36834619Y-25076571D01*
X36858428Y-25088476D01*
X36870333Y-25100380D01*
X36882238Y-25124190D01*
X36882238Y-25171809D01*
X36894142Y-25195619D01*
X36906047Y-25207523D01*
X36929857Y-25219428D01*
X36977476Y-25219428D01*
X37001285Y-25207523D01*
X37013190Y-25195619D01*
X37025095Y-25171809D01*
X37025095Y-25124190D01*
X37013190Y-25100380D01*
X37001285Y-25088476D01*
X36977476Y-25076571D01*
X36929857Y-25076571D01*
X36906047Y-25088476D01*
X36894142Y-25100380D01*
X36882238Y-25124190D01*
D11*
X37343714Y-26058714D02*
X38010380Y-26058714D01*
X36962761Y-26296809D02*
X37677047Y-26534904D01*
X37677047Y-25915857D01*
X37010380Y-25630142D02*
X37010380Y-24963476D01*
X38010380Y-25392047D01*
X38010380Y-24582523D02*
X37010380Y-24582523D01*
X38010380Y-24011095D02*
X37438952Y-24439666D01*
X37010380Y-24011095D02*
X37581809Y-24582523D01*
D12*
X39401095Y-25314666D02*
X39282047Y-25398000D01*
X39401095Y-25457523D02*
X39151095Y-25457523D01*
X39151095Y-25362285D01*
X39163000Y-25338476D01*
X39174904Y-25326571D01*
X39198714Y-25314666D01*
X39234428Y-25314666D01*
X39258238Y-25326571D01*
X39270142Y-25338476D01*
X39282047Y-25362285D01*
X39282047Y-25457523D01*
X39151095Y-25231333D02*
X39151095Y-25064666D01*
X39401095Y-25171809D01*
D11*
X41029142Y-36697380D02*
X41124380Y-36697380D01*
X41219619Y-36745000D01*
X41267238Y-36792619D01*
X41314857Y-36887857D01*
X41362476Y-37078333D01*
X41362476Y-37316428D01*
X41314857Y-37506904D01*
X41267238Y-37602142D01*
X41219619Y-37649761D01*
X41124380Y-37697380D01*
X41029142Y-37697380D01*
X40933904Y-37649761D01*
X40886285Y-37602142D01*
X40838666Y-37506904D01*
X40791047Y-37316428D01*
X40791047Y-37078333D01*
X40838666Y-36887857D01*
X40886285Y-36792619D01*
X40933904Y-36745000D01*
X41029142Y-36697380D01*
X41791047Y-37602142D02*
X41838666Y-37649761D01*
X41791047Y-37697380D01*
X41743428Y-37649761D01*
X41791047Y-37602142D01*
X41791047Y-37697380D01*
X42791047Y-37697380D02*
X42219619Y-37697380D01*
X42505333Y-37697380D02*
X42505333Y-36697380D01*
X42410095Y-36840238D01*
X42314857Y-36935476D01*
X42219619Y-36983095D01*
X43648190Y-37030714D02*
X43648190Y-37697380D01*
X43219619Y-37030714D02*
X43219619Y-37554523D01*
X43267238Y-37649761D01*
X43362476Y-37697380D01*
X43505333Y-37697380D01*
X43600571Y-37649761D01*
X43648190Y-37602142D01*
X44457714Y-37173571D02*
X44124380Y-37173571D01*
X44124380Y-37697380D02*
X44124380Y-36697380D01*
X44600571Y-36697380D01*
D12*
X42511285Y-35604285D02*
X42499380Y-35616190D01*
X42463666Y-35628095D01*
X42439857Y-35628095D01*
X42404142Y-35616190D01*
X42380333Y-35592380D01*
X42368428Y-35568571D01*
X42356523Y-35520952D01*
X42356523Y-35485238D01*
X42368428Y-35437619D01*
X42380333Y-35413809D01*
X42404142Y-35390000D01*
X42439857Y-35378095D01*
X42463666Y-35378095D01*
X42499380Y-35390000D01*
X42511285Y-35401904D01*
X42749380Y-35628095D02*
X42606523Y-35628095D01*
X42677952Y-35628095D02*
X42677952Y-35378095D01*
X42654142Y-35413809D01*
X42630333Y-35437619D01*
X42606523Y-35449523D01*
X42963666Y-35461428D02*
X42963666Y-35628095D01*
X42904142Y-35366190D02*
X42844619Y-35544761D01*
X42999380Y-35544761D01*
D11*
X37010380Y-41647857D02*
X37010380Y-41552619D01*
X37058000Y-41457380D01*
X37105619Y-41409761D01*
X37200857Y-41362142D01*
X37391333Y-41314523D01*
X37629428Y-41314523D01*
X37819904Y-41362142D01*
X37915142Y-41409761D01*
X37962761Y-41457380D01*
X38010380Y-41552619D01*
X38010380Y-41647857D01*
X37962761Y-41743095D01*
X37915142Y-41790714D01*
X37819904Y-41838333D01*
X37629428Y-41885952D01*
X37391333Y-41885952D01*
X37200857Y-41838333D01*
X37105619Y-41790714D01*
X37058000Y-41743095D01*
X37010380Y-41647857D01*
X37915142Y-40885952D02*
X37962761Y-40838333D01*
X38010380Y-40885952D01*
X37962761Y-40933571D01*
X37915142Y-40885952D01*
X38010380Y-40885952D01*
X38010380Y-39885952D02*
X38010380Y-40457380D01*
X38010380Y-40171666D02*
X37010380Y-40171666D01*
X37153238Y-40266904D01*
X37248476Y-40362142D01*
X37296095Y-40457380D01*
X37343714Y-39028809D02*
X38010380Y-39028809D01*
X37343714Y-39457380D02*
X37867523Y-39457380D01*
X37962761Y-39409761D01*
X38010380Y-39314523D01*
X38010380Y-39171666D01*
X37962761Y-39076428D01*
X37915142Y-39028809D01*
X37486571Y-38219285D02*
X37486571Y-38552619D01*
X38010380Y-38552619D02*
X37010380Y-38552619D01*
X37010380Y-38076428D01*
D12*
X39377285Y-40165714D02*
X39389190Y-40177619D01*
X39401095Y-40213333D01*
X39401095Y-40237142D01*
X39389190Y-40272857D01*
X39365380Y-40296666D01*
X39341571Y-40308571D01*
X39293952Y-40320476D01*
X39258238Y-40320476D01*
X39210619Y-40308571D01*
X39186809Y-40296666D01*
X39163000Y-40272857D01*
X39151095Y-40237142D01*
X39151095Y-40213333D01*
X39163000Y-40177619D01*
X39174904Y-40165714D01*
X39401095Y-39927619D02*
X39401095Y-40070476D01*
X39401095Y-39999047D02*
X39151095Y-39999047D01*
X39186809Y-40022857D01*
X39210619Y-40046666D01*
X39222523Y-40070476D01*
X39151095Y-39844285D02*
X39151095Y-39689523D01*
X39246333Y-39772857D01*
X39246333Y-39737142D01*
X39258238Y-39713333D01*
X39270142Y-39701428D01*
X39293952Y-39689523D01*
X39353476Y-39689523D01*
X39377285Y-39701428D01*
X39389190Y-39713333D01*
X39401095Y-39737142D01*
X39401095Y-39808571D01*
X39389190Y-39832380D01*
X39377285Y-39844285D01*
D11*
X37121380Y-40600238D02*
X37121380Y-41171666D01*
X37121380Y-40885952D02*
X36121380Y-40885952D01*
X36264238Y-40981190D01*
X36359476Y-41076428D01*
X36407095Y-41171666D01*
X36454714Y-39743095D02*
X37121380Y-39743095D01*
X36454714Y-40171666D02*
X36978523Y-40171666D01*
X37073761Y-40124047D01*
X37121380Y-40028809D01*
X37121380Y-39885952D01*
X37073761Y-39790714D01*
X37026142Y-39743095D01*
X36597571Y-38933571D02*
X36597571Y-39266904D01*
X37121380Y-39266904D02*
X36121380Y-39266904D01*
X36121380Y-38790714D01*
D12*
X38488285Y-40165714D02*
X38500190Y-40177619D01*
X38512095Y-40213333D01*
X38512095Y-40237142D01*
X38500190Y-40272857D01*
X38476380Y-40296666D01*
X38452571Y-40308571D01*
X38404952Y-40320476D01*
X38369238Y-40320476D01*
X38321619Y-40308571D01*
X38297809Y-40296666D01*
X38274000Y-40272857D01*
X38262095Y-40237142D01*
X38262095Y-40213333D01*
X38274000Y-40177619D01*
X38285904Y-40165714D01*
X38512095Y-39927619D02*
X38512095Y-40070476D01*
X38512095Y-39999047D02*
X38262095Y-39999047D01*
X38297809Y-40022857D01*
X38321619Y-40046666D01*
X38333523Y-40070476D01*
X38512095Y-39689523D02*
X38512095Y-39832380D01*
X38512095Y-39760952D02*
X38262095Y-39760952D01*
X38297809Y-39784761D01*
X38321619Y-39808571D01*
X38333523Y-39832380D01*
D11*
X28567238Y-62489714D02*
X28567238Y-63156380D01*
X28329142Y-62108761D02*
X28091047Y-62823047D01*
X28710095Y-62823047D01*
X29091047Y-63061142D02*
X29138666Y-63108761D01*
X29091047Y-63156380D01*
X29043428Y-63108761D01*
X29091047Y-63061142D01*
X29091047Y-63156380D01*
X29472000Y-62156380D02*
X30138666Y-62156380D01*
X29710095Y-63156380D01*
X30948190Y-62489714D02*
X30948190Y-63156380D01*
X30519619Y-62489714D02*
X30519619Y-63013523D01*
X30567238Y-63108761D01*
X30662476Y-63156380D01*
X30805333Y-63156380D01*
X30900571Y-63108761D01*
X30948190Y-63061142D01*
X31757714Y-62632571D02*
X31424380Y-62632571D01*
X31424380Y-63156380D02*
X31424380Y-62156380D01*
X31900571Y-62156380D01*
D12*
X29930333Y-64523285D02*
X29918428Y-64535190D01*
X29882714Y-64547095D01*
X29858904Y-64547095D01*
X29823190Y-64535190D01*
X29799380Y-64511380D01*
X29787476Y-64487571D01*
X29775571Y-64439952D01*
X29775571Y-64404238D01*
X29787476Y-64356619D01*
X29799380Y-64332809D01*
X29823190Y-64309000D01*
X29858904Y-64297095D01*
X29882714Y-64297095D01*
X29918428Y-64309000D01*
X29930333Y-64320904D01*
X30073190Y-64404238D02*
X30049380Y-64392333D01*
X30037476Y-64380428D01*
X30025571Y-64356619D01*
X30025571Y-64344714D01*
X30037476Y-64320904D01*
X30049380Y-64309000D01*
X30073190Y-64297095D01*
X30120809Y-64297095D01*
X30144619Y-64309000D01*
X30156523Y-64320904D01*
X30168428Y-64344714D01*
X30168428Y-64356619D01*
X30156523Y-64380428D01*
X30144619Y-64392333D01*
X30120809Y-64404238D01*
X30073190Y-64404238D01*
X30049380Y-64416142D01*
X30037476Y-64428047D01*
X30025571Y-64451857D01*
X30025571Y-64499476D01*
X30037476Y-64523285D01*
X30049380Y-64535190D01*
X30073190Y-64547095D01*
X30120809Y-64547095D01*
X30144619Y-64535190D01*
X30156523Y-64523285D01*
X30168428Y-64499476D01*
X30168428Y-64451857D01*
X30156523Y-64428047D01*
X30144619Y-64416142D01*
X30120809Y-64404238D01*
D11*
X28567238Y-61473714D02*
X28567238Y-62140380D01*
X28329142Y-61092761D02*
X28091047Y-61807047D01*
X28710095Y-61807047D01*
X29091047Y-62045142D02*
X29138666Y-62092761D01*
X29091047Y-62140380D01*
X29043428Y-62092761D01*
X29091047Y-62045142D01*
X29091047Y-62140380D01*
X29472000Y-61140380D02*
X30138666Y-61140380D01*
X29710095Y-62140380D01*
X30948190Y-61473714D02*
X30948190Y-62140380D01*
X30519619Y-61473714D02*
X30519619Y-61997523D01*
X30567238Y-62092761D01*
X30662476Y-62140380D01*
X30805333Y-62140380D01*
X30900571Y-62092761D01*
X30948190Y-62045142D01*
X31757714Y-61616571D02*
X31424380Y-61616571D01*
X31424380Y-62140380D02*
X31424380Y-61140380D01*
X31900571Y-61140380D01*
D12*
X29930333Y-63507285D02*
X29918428Y-63519190D01*
X29882714Y-63531095D01*
X29858904Y-63531095D01*
X29823190Y-63519190D01*
X29799380Y-63495380D01*
X29787476Y-63471571D01*
X29775571Y-63423952D01*
X29775571Y-63388238D01*
X29787476Y-63340619D01*
X29799380Y-63316809D01*
X29823190Y-63293000D01*
X29858904Y-63281095D01*
X29882714Y-63281095D01*
X29918428Y-63293000D01*
X29930333Y-63304904D01*
X30013666Y-63281095D02*
X30180333Y-63281095D01*
X30073190Y-63531095D01*
D11*
X47355428Y-26424571D02*
X47498285Y-26472190D01*
X47545904Y-26519809D01*
X47593523Y-26615047D01*
X47593523Y-26757904D01*
X47545904Y-26853142D01*
X47498285Y-26900761D01*
X47403047Y-26948380D01*
X47022095Y-26948380D01*
X47022095Y-25948380D01*
X47355428Y-25948380D01*
X47450666Y-25996000D01*
X47498285Y-26043619D01*
X47545904Y-26138857D01*
X47545904Y-26234095D01*
X47498285Y-26329333D01*
X47450666Y-26376952D01*
X47355428Y-26424571D01*
X47022095Y-26424571D01*
X48022095Y-26948380D02*
X48022095Y-25948380D01*
X48355428Y-26662666D01*
X48688761Y-25948380D01*
X48688761Y-26948380D01*
X49164952Y-26948380D02*
X49164952Y-25948380D01*
X49545904Y-25948380D01*
X49641142Y-25996000D01*
X49688761Y-26043619D01*
X49736380Y-26138857D01*
X49736380Y-26281714D01*
X49688761Y-26376952D01*
X49641142Y-26424571D01*
X49545904Y-26472190D01*
X49164952Y-26472190D01*
X50117333Y-26043619D02*
X50164952Y-25996000D01*
X50260190Y-25948380D01*
X50498285Y-25948380D01*
X50593523Y-25996000D01*
X50641142Y-26043619D01*
X50688761Y-26138857D01*
X50688761Y-26234095D01*
X50641142Y-26376952D01*
X50069714Y-26948380D01*
X50688761Y-26948380D01*
X51260190Y-26376952D02*
X51164952Y-26329333D01*
X51117333Y-26281714D01*
X51069714Y-26186476D01*
X51069714Y-26138857D01*
X51117333Y-26043619D01*
X51164952Y-25996000D01*
X51260190Y-25948380D01*
X51450666Y-25948380D01*
X51545904Y-25996000D01*
X51593523Y-26043619D01*
X51641142Y-26138857D01*
X51641142Y-26186476D01*
X51593523Y-26281714D01*
X51545904Y-26329333D01*
X51450666Y-26376952D01*
X51260190Y-26376952D01*
X51164952Y-26424571D01*
X51117333Y-26472190D01*
X51069714Y-26567428D01*
X51069714Y-26757904D01*
X51117333Y-26853142D01*
X51164952Y-26900761D01*
X51260190Y-26948380D01*
X51450666Y-26948380D01*
X51545904Y-26900761D01*
X51593523Y-26853142D01*
X51641142Y-26757904D01*
X51641142Y-26567428D01*
X51593523Y-26472190D01*
X51545904Y-26424571D01*
X51450666Y-26376952D01*
X52260190Y-25948380D02*
X52355428Y-25948380D01*
X52450666Y-25996000D01*
X52498285Y-26043619D01*
X52545904Y-26138857D01*
X52593523Y-26329333D01*
X52593523Y-26567428D01*
X52545904Y-26757904D01*
X52498285Y-26853142D01*
X52450666Y-26900761D01*
X52355428Y-26948380D01*
X52260190Y-26948380D01*
X52164952Y-26900761D01*
X52117333Y-26853142D01*
X52069714Y-26757904D01*
X52022095Y-26567428D01*
X52022095Y-26329333D01*
X52069714Y-26138857D01*
X52117333Y-26043619D01*
X52164952Y-25996000D01*
X52260190Y-25948380D01*
D12*
X49479238Y-28736952D02*
X49479238Y-29060761D01*
X49498285Y-29098857D01*
X49517333Y-29117904D01*
X49555428Y-29136952D01*
X49631619Y-29136952D01*
X49669714Y-29117904D01*
X49688761Y-29098857D01*
X49707809Y-29060761D01*
X49707809Y-28736952D01*
X49860190Y-28736952D02*
X50126857Y-28736952D01*
X49955428Y-29136952D01*
D11*
X41632771Y-38242380D02*
X41632771Y-37242380D01*
X41966104Y-37956666D01*
X42299438Y-37242380D01*
X42299438Y-38242380D01*
X42918485Y-38242380D02*
X42823247Y-38194761D01*
X42775628Y-38147142D01*
X42728009Y-38051904D01*
X42728009Y-37766190D01*
X42775628Y-37670952D01*
X42823247Y-37623333D01*
X42918485Y-37575714D01*
X43061342Y-37575714D01*
X43156580Y-37623333D01*
X43204199Y-37670952D01*
X43251819Y-37766190D01*
X43251819Y-38051904D01*
X43204199Y-38147142D01*
X43156580Y-38194761D01*
X43061342Y-38242380D01*
X42918485Y-38242380D01*
X44108961Y-37575714D02*
X44108961Y-38242380D01*
X43680390Y-37575714D02*
X43680390Y-38099523D01*
X43728009Y-38194761D01*
X43823247Y-38242380D01*
X43966104Y-38242380D01*
X44061342Y-38194761D01*
X44108961Y-38147142D01*
X44585152Y-37575714D02*
X44585152Y-38242380D01*
X44585152Y-37670952D02*
X44632771Y-37623333D01*
X44728009Y-37575714D01*
X44870866Y-37575714D01*
X44966104Y-37623333D01*
X45013723Y-37718571D01*
X45013723Y-38242380D01*
X45347057Y-37575714D02*
X45728009Y-37575714D01*
X45489914Y-37242380D02*
X45489914Y-38099523D01*
X45537533Y-38194761D01*
X45632771Y-38242380D01*
X45728009Y-38242380D01*
X46061342Y-38242380D02*
X46061342Y-37575714D01*
X46061342Y-37242380D02*
X46013723Y-37290000D01*
X46061342Y-37337619D01*
X46108961Y-37290000D01*
X46061342Y-37242380D01*
X46061342Y-37337619D01*
X46537533Y-37575714D02*
X46537533Y-38242380D01*
X46537533Y-37670952D02*
X46585152Y-37623333D01*
X46680390Y-37575714D01*
X46823247Y-37575714D01*
X46918485Y-37623333D01*
X46966104Y-37718571D01*
X46966104Y-38242380D01*
X47870866Y-37575714D02*
X47870866Y-38385238D01*
X47823247Y-38480476D01*
X47775628Y-38528095D01*
X47680390Y-38575714D01*
X47537533Y-38575714D01*
X47442295Y-38528095D01*
X47870866Y-38194761D02*
X47775628Y-38242380D01*
X47585152Y-38242380D01*
X47489914Y-38194761D01*
X47442295Y-38147142D01*
X47394676Y-38051904D01*
X47394676Y-37766190D01*
X47442295Y-37670952D01*
X47489914Y-37623333D01*
X47585152Y-37575714D01*
X47775628Y-37575714D01*
X47870866Y-37623333D01*
X48347057Y-38242380D02*
X48347057Y-37242380D01*
X48347057Y-37718571D02*
X48918485Y-37718571D01*
X48918485Y-38242380D02*
X48918485Y-37242380D01*
X49537533Y-38242380D02*
X49442295Y-38194761D01*
X49394676Y-38147142D01*
X49347057Y-38051904D01*
X49347057Y-37766190D01*
X49394676Y-37670952D01*
X49442295Y-37623333D01*
X49537533Y-37575714D01*
X49680390Y-37575714D01*
X49775628Y-37623333D01*
X49823247Y-37670952D01*
X49870866Y-37766190D01*
X49870866Y-38051904D01*
X49823247Y-38147142D01*
X49775628Y-38194761D01*
X49680390Y-38242380D01*
X49537533Y-38242380D01*
X50442295Y-38242380D02*
X50347057Y-38194761D01*
X50299438Y-38099523D01*
X50299438Y-37242380D01*
X51204199Y-38194761D02*
X51108961Y-38242380D01*
X50918485Y-38242380D01*
X50823247Y-38194761D01*
X50775628Y-38099523D01*
X50775628Y-37718571D01*
X50823247Y-37623333D01*
X50918485Y-37575714D01*
X51108961Y-37575714D01*
X51204199Y-37623333D01*
X51251819Y-37718571D01*
X51251819Y-37813809D01*
X50775628Y-37909047D01*
X51442295Y-38337619D02*
X52204199Y-38337619D01*
X52442295Y-38242380D02*
X52442295Y-37242380D01*
X52823247Y-37242380D01*
X52918485Y-37290000D01*
X52966104Y-37337619D01*
X53013723Y-37432857D01*
X53013723Y-37575714D01*
X52966104Y-37670952D01*
X52918485Y-37718571D01*
X52823247Y-37766190D01*
X52442295Y-37766190D01*
X53870866Y-38242380D02*
X53870866Y-37718571D01*
X53823247Y-37623333D01*
X53728009Y-37575714D01*
X53537533Y-37575714D01*
X53442295Y-37623333D01*
X53870866Y-38194761D02*
X53775628Y-38242380D01*
X53537533Y-38242380D01*
X53442295Y-38194761D01*
X53394676Y-38099523D01*
X53394676Y-38004285D01*
X53442295Y-37909047D01*
X53537533Y-37861428D01*
X53775628Y-37861428D01*
X53870866Y-37813809D01*
X54775628Y-38242380D02*
X54775628Y-37242380D01*
X54775628Y-38194761D02*
X54680390Y-38242380D01*
X54489914Y-38242380D01*
X54394676Y-38194761D01*
X54347057Y-38147142D01*
X54299438Y-38051904D01*
X54299438Y-37766190D01*
X54347057Y-37670952D01*
X54394676Y-37623333D01*
X54489914Y-37575714D01*
X54680390Y-37575714D01*
X54775628Y-37623333D01*
X47170866Y-34742380D02*
X47170866Y-33742380D01*
X47504200Y-34456666D01*
X47837533Y-33742380D01*
X47837533Y-34742380D01*
X48313723Y-34742380D02*
X48313723Y-33742380D01*
X48313723Y-34218571D02*
X48885152Y-34218571D01*
X48885152Y-34742380D02*
X48885152Y-33742380D01*
X49789914Y-34075714D02*
X49789914Y-34742380D01*
X49551819Y-33694761D02*
X49313723Y-34409047D01*
X49932771Y-34409047D01*
X41688571Y-58562380D02*
X41688571Y-57562380D01*
X42021904Y-58276666D01*
X42355238Y-57562380D01*
X42355238Y-58562380D01*
X42974285Y-58562380D02*
X42879047Y-58514761D01*
X42831428Y-58467142D01*
X42783809Y-58371904D01*
X42783809Y-58086190D01*
X42831428Y-57990952D01*
X42879047Y-57943333D01*
X42974285Y-57895714D01*
X43117142Y-57895714D01*
X43212380Y-57943333D01*
X43259999Y-57990952D01*
X43307619Y-58086190D01*
X43307619Y-58371904D01*
X43259999Y-58467142D01*
X43212380Y-58514761D01*
X43117142Y-58562380D01*
X42974285Y-58562380D01*
X44164761Y-57895714D02*
X44164761Y-58562380D01*
X43736190Y-57895714D02*
X43736190Y-58419523D01*
X43783809Y-58514761D01*
X43879047Y-58562380D01*
X44021904Y-58562380D01*
X44117142Y-58514761D01*
X44164761Y-58467142D01*
X44640952Y-57895714D02*
X44640952Y-58562380D01*
X44640952Y-57990952D02*
X44688571Y-57943333D01*
X44783809Y-57895714D01*
X44926666Y-57895714D01*
X45021904Y-57943333D01*
X45069523Y-58038571D01*
X45069523Y-58562380D01*
X45402857Y-57895714D02*
X45783809Y-57895714D01*
X45545714Y-57562380D02*
X45545714Y-58419523D01*
X45593333Y-58514761D01*
X45688571Y-58562380D01*
X45783809Y-58562380D01*
X46117142Y-58562380D02*
X46117142Y-57895714D01*
X46117142Y-57562380D02*
X46069523Y-57610000D01*
X46117142Y-57657619D01*
X46164761Y-57610000D01*
X46117142Y-57562380D01*
X46117142Y-57657619D01*
X46593333Y-57895714D02*
X46593333Y-58562380D01*
X46593333Y-57990952D02*
X46640952Y-57943333D01*
X46736190Y-57895714D01*
X46879047Y-57895714D01*
X46974285Y-57943333D01*
X47021904Y-58038571D01*
X47021904Y-58562380D01*
X47926666Y-57895714D02*
X47926666Y-58705238D01*
X47879047Y-58800476D01*
X47831428Y-58848095D01*
X47736190Y-58895714D01*
X47593333Y-58895714D01*
X47498095Y-58848095D01*
X47926666Y-58514761D02*
X47831428Y-58562380D01*
X47640952Y-58562380D01*
X47545714Y-58514761D01*
X47498095Y-58467142D01*
X47450476Y-58371904D01*
X47450476Y-58086190D01*
X47498095Y-57990952D01*
X47545714Y-57943333D01*
X47640952Y-57895714D01*
X47831428Y-57895714D01*
X47926666Y-57943333D01*
X48402857Y-58562380D02*
X48402857Y-57562380D01*
X48402857Y-58038571D02*
X48974285Y-58038571D01*
X48974285Y-58562380D02*
X48974285Y-57562380D01*
X49593333Y-58562380D02*
X49498095Y-58514761D01*
X49450476Y-58467142D01*
X49402857Y-58371904D01*
X49402857Y-58086190D01*
X49450476Y-57990952D01*
X49498095Y-57943333D01*
X49593333Y-57895714D01*
X49736190Y-57895714D01*
X49831428Y-57943333D01*
X49879047Y-57990952D01*
X49926666Y-58086190D01*
X49926666Y-58371904D01*
X49879047Y-58467142D01*
X49831428Y-58514761D01*
X49736190Y-58562380D01*
X49593333Y-58562380D01*
X50498095Y-58562380D02*
X50402857Y-58514761D01*
X50355238Y-58419523D01*
X50355238Y-57562380D01*
X51259999Y-58514761D02*
X51164761Y-58562380D01*
X50974285Y-58562380D01*
X50879047Y-58514761D01*
X50831428Y-58419523D01*
X50831428Y-58038571D01*
X50879047Y-57943333D01*
X50974285Y-57895714D01*
X51164761Y-57895714D01*
X51259999Y-57943333D01*
X51307619Y-58038571D01*
X51307619Y-58133809D01*
X50831428Y-58229047D01*
X51498095Y-58657619D02*
X52259999Y-58657619D01*
X52498095Y-58562380D02*
X52498095Y-57562380D01*
X52879047Y-57562380D01*
X52974285Y-57610000D01*
X53021904Y-57657619D01*
X53069523Y-57752857D01*
X53069523Y-57895714D01*
X53021904Y-57990952D01*
X52974285Y-58038571D01*
X52879047Y-58086190D01*
X52498095Y-58086190D01*
X53926666Y-58562380D02*
X53926666Y-58038571D01*
X53879047Y-57943333D01*
X53783809Y-57895714D01*
X53593333Y-57895714D01*
X53498095Y-57943333D01*
X53926666Y-58514761D02*
X53831428Y-58562380D01*
X53593333Y-58562380D01*
X53498095Y-58514761D01*
X53450476Y-58419523D01*
X53450476Y-58324285D01*
X53498095Y-58229047D01*
X53593333Y-58181428D01*
X53831428Y-58181428D01*
X53926666Y-58133809D01*
X54831428Y-58562380D02*
X54831428Y-57562380D01*
X54831428Y-58514761D02*
X54736190Y-58562380D01*
X54545714Y-58562380D01*
X54450476Y-58514761D01*
X54402857Y-58467142D01*
X54355238Y-58371904D01*
X54355238Y-58086190D01*
X54402857Y-57990952D01*
X54450476Y-57943333D01*
X54545714Y-57895714D01*
X54736190Y-57895714D01*
X54831428Y-57943333D01*
X47226666Y-55062380D02*
X47226666Y-54062380D01*
X47560000Y-54776666D01*
X47893333Y-54062380D01*
X47893333Y-55062380D01*
X48369523Y-55062380D02*
X48369523Y-54062380D01*
X48369523Y-54538571D02*
X48940952Y-54538571D01*
X48940952Y-55062380D02*
X48940952Y-54062380D01*
X49321904Y-54062380D02*
X49940952Y-54062380D01*
X49607619Y-54443333D01*
X49750476Y-54443333D01*
X49845714Y-54490952D01*
X49893333Y-54538571D01*
X49940952Y-54633809D01*
X49940952Y-54871904D01*
X49893333Y-54967142D01*
X49845714Y-55014761D01*
X49750476Y-55062380D01*
X49464761Y-55062380D01*
X49369523Y-55014761D01*
X49321904Y-54967142D01*
X21368571Y-38242380D02*
X21368571Y-37242380D01*
X21701904Y-37956666D01*
X22035238Y-37242380D01*
X22035238Y-38242380D01*
X22654285Y-38242380D02*
X22559047Y-38194761D01*
X22511428Y-38147142D01*
X22463809Y-38051904D01*
X22463809Y-37766190D01*
X22511428Y-37670952D01*
X22559047Y-37623333D01*
X22654285Y-37575714D01*
X22797142Y-37575714D01*
X22892380Y-37623333D01*
X22940000Y-37670952D01*
X22987619Y-37766190D01*
X22987619Y-38051904D01*
X22940000Y-38147142D01*
X22892380Y-38194761D01*
X22797142Y-38242380D01*
X22654285Y-38242380D01*
X23844761Y-37575714D02*
X23844761Y-38242380D01*
X23416190Y-37575714D02*
X23416190Y-38099523D01*
X23463809Y-38194761D01*
X23559047Y-38242380D01*
X23701904Y-38242380D01*
X23797142Y-38194761D01*
X23844761Y-38147142D01*
X24320952Y-37575714D02*
X24320952Y-38242380D01*
X24320952Y-37670952D02*
X24368571Y-37623333D01*
X24463809Y-37575714D01*
X24606666Y-37575714D01*
X24701904Y-37623333D01*
X24749523Y-37718571D01*
X24749523Y-38242380D01*
X25082857Y-37575714D02*
X25463809Y-37575714D01*
X25225714Y-37242380D02*
X25225714Y-38099523D01*
X25273333Y-38194761D01*
X25368571Y-38242380D01*
X25463809Y-38242380D01*
X25797142Y-38242380D02*
X25797142Y-37575714D01*
X25797142Y-37242380D02*
X25749523Y-37290000D01*
X25797142Y-37337619D01*
X25844761Y-37290000D01*
X25797142Y-37242380D01*
X25797142Y-37337619D01*
X26273333Y-37575714D02*
X26273333Y-38242380D01*
X26273333Y-37670952D02*
X26320952Y-37623333D01*
X26416190Y-37575714D01*
X26559047Y-37575714D01*
X26654285Y-37623333D01*
X26701904Y-37718571D01*
X26701904Y-38242380D01*
X27606666Y-37575714D02*
X27606666Y-38385238D01*
X27559047Y-38480476D01*
X27511428Y-38528095D01*
X27416190Y-38575714D01*
X27273333Y-38575714D01*
X27178095Y-38528095D01*
X27606666Y-38194761D02*
X27511428Y-38242380D01*
X27320952Y-38242380D01*
X27225714Y-38194761D01*
X27178095Y-38147142D01*
X27130476Y-38051904D01*
X27130476Y-37766190D01*
X27178095Y-37670952D01*
X27225714Y-37623333D01*
X27320952Y-37575714D01*
X27511428Y-37575714D01*
X27606666Y-37623333D01*
X28082857Y-38242380D02*
X28082857Y-37242380D01*
X28082857Y-37718571D02*
X28654285Y-37718571D01*
X28654285Y-38242380D02*
X28654285Y-37242380D01*
X29273333Y-38242380D02*
X29178095Y-38194761D01*
X29130476Y-38147142D01*
X29082857Y-38051904D01*
X29082857Y-37766190D01*
X29130476Y-37670952D01*
X29178095Y-37623333D01*
X29273333Y-37575714D01*
X29416190Y-37575714D01*
X29511428Y-37623333D01*
X29559047Y-37670952D01*
X29606666Y-37766190D01*
X29606666Y-38051904D01*
X29559047Y-38147142D01*
X29511428Y-38194761D01*
X29416190Y-38242380D01*
X29273333Y-38242380D01*
X30178095Y-38242380D02*
X30082857Y-38194761D01*
X30035238Y-38099523D01*
X30035238Y-37242380D01*
X30940000Y-38194761D02*
X30844761Y-38242380D01*
X30654285Y-38242380D01*
X30559047Y-38194761D01*
X30511428Y-38099523D01*
X30511428Y-37718571D01*
X30559047Y-37623333D01*
X30654285Y-37575714D01*
X30844761Y-37575714D01*
X30940000Y-37623333D01*
X30987619Y-37718571D01*
X30987619Y-37813809D01*
X30511428Y-37909047D01*
X31178095Y-38337619D02*
X31939999Y-38337619D01*
X32178095Y-38242380D02*
X32178095Y-37242380D01*
X32559047Y-37242380D01*
X32654285Y-37290000D01*
X32701904Y-37337619D01*
X32749523Y-37432857D01*
X32749523Y-37575714D01*
X32701904Y-37670952D01*
X32654285Y-37718571D01*
X32559047Y-37766190D01*
X32178095Y-37766190D01*
X33606666Y-38242380D02*
X33606666Y-37718571D01*
X33559047Y-37623333D01*
X33463809Y-37575714D01*
X33273333Y-37575714D01*
X33178095Y-37623333D01*
X33606666Y-38194761D02*
X33511428Y-38242380D01*
X33273333Y-38242380D01*
X33178095Y-38194761D01*
X33130476Y-38099523D01*
X33130476Y-38004285D01*
X33178095Y-37909047D01*
X33273333Y-37861428D01*
X33511428Y-37861428D01*
X33606666Y-37813809D01*
X34511428Y-38242380D02*
X34511428Y-37242380D01*
X34511428Y-38194761D02*
X34416190Y-38242380D01*
X34225714Y-38242380D01*
X34130476Y-38194761D01*
X34082857Y-38147142D01*
X34035238Y-38051904D01*
X34035238Y-37766190D01*
X34082857Y-37670952D01*
X34130476Y-37623333D01*
X34225714Y-37575714D01*
X34416190Y-37575714D01*
X34511428Y-37623333D01*
X26906666Y-34742380D02*
X26906666Y-33742380D01*
X27240000Y-34456666D01*
X27573333Y-33742380D01*
X27573333Y-34742380D01*
X28049523Y-34742380D02*
X28049523Y-33742380D01*
X28049523Y-34218571D02*
X28620952Y-34218571D01*
X28620952Y-34742380D02*
X28620952Y-33742380D01*
X29049523Y-33837619D02*
X29097142Y-33790000D01*
X29192380Y-33742380D01*
X29430476Y-33742380D01*
X29525714Y-33790000D01*
X29573333Y-33837619D01*
X29620952Y-33932857D01*
X29620952Y-34028095D01*
X29573333Y-34170952D01*
X29001904Y-34742380D01*
X29620952Y-34742380D01*
X21368571Y-58562380D02*
X21368571Y-57562380D01*
X21701904Y-58276666D01*
X22035238Y-57562380D01*
X22035238Y-58562380D01*
X22654285Y-58562380D02*
X22559047Y-58514761D01*
X22511428Y-58467142D01*
X22463809Y-58371904D01*
X22463809Y-58086190D01*
X22511428Y-57990952D01*
X22559047Y-57943333D01*
X22654285Y-57895714D01*
X22797142Y-57895714D01*
X22892380Y-57943333D01*
X22940000Y-57990952D01*
X22987619Y-58086190D01*
X22987619Y-58371904D01*
X22940000Y-58467142D01*
X22892380Y-58514761D01*
X22797142Y-58562380D01*
X22654285Y-58562380D01*
X23844761Y-57895714D02*
X23844761Y-58562380D01*
X23416190Y-57895714D02*
X23416190Y-58419523D01*
X23463809Y-58514761D01*
X23559047Y-58562380D01*
X23701904Y-58562380D01*
X23797142Y-58514761D01*
X23844761Y-58467142D01*
X24320952Y-57895714D02*
X24320952Y-58562380D01*
X24320952Y-57990952D02*
X24368571Y-57943333D01*
X24463809Y-57895714D01*
X24606666Y-57895714D01*
X24701904Y-57943333D01*
X24749523Y-58038571D01*
X24749523Y-58562380D01*
X25082857Y-57895714D02*
X25463809Y-57895714D01*
X25225714Y-57562380D02*
X25225714Y-58419523D01*
X25273333Y-58514761D01*
X25368571Y-58562380D01*
X25463809Y-58562380D01*
X25797142Y-58562380D02*
X25797142Y-57895714D01*
X25797142Y-57562380D02*
X25749523Y-57610000D01*
X25797142Y-57657619D01*
X25844761Y-57610000D01*
X25797142Y-57562380D01*
X25797142Y-57657619D01*
X26273333Y-57895714D02*
X26273333Y-58562380D01*
X26273333Y-57990952D02*
X26320952Y-57943333D01*
X26416190Y-57895714D01*
X26559047Y-57895714D01*
X26654285Y-57943333D01*
X26701904Y-58038571D01*
X26701904Y-58562380D01*
X27606666Y-57895714D02*
X27606666Y-58705238D01*
X27559047Y-58800476D01*
X27511428Y-58848095D01*
X27416190Y-58895714D01*
X27273333Y-58895714D01*
X27178095Y-58848095D01*
X27606666Y-58514761D02*
X27511428Y-58562380D01*
X27320952Y-58562380D01*
X27225714Y-58514761D01*
X27178095Y-58467142D01*
X27130476Y-58371904D01*
X27130476Y-58086190D01*
X27178095Y-57990952D01*
X27225714Y-57943333D01*
X27320952Y-57895714D01*
X27511428Y-57895714D01*
X27606666Y-57943333D01*
X28082857Y-58562380D02*
X28082857Y-57562380D01*
X28082857Y-58038571D02*
X28654285Y-58038571D01*
X28654285Y-58562380D02*
X28654285Y-57562380D01*
X29273333Y-58562380D02*
X29178095Y-58514761D01*
X29130476Y-58467142D01*
X29082857Y-58371904D01*
X29082857Y-58086190D01*
X29130476Y-57990952D01*
X29178095Y-57943333D01*
X29273333Y-57895714D01*
X29416190Y-57895714D01*
X29511428Y-57943333D01*
X29559047Y-57990952D01*
X29606666Y-58086190D01*
X29606666Y-58371904D01*
X29559047Y-58467142D01*
X29511428Y-58514761D01*
X29416190Y-58562380D01*
X29273333Y-58562380D01*
X30178095Y-58562380D02*
X30082857Y-58514761D01*
X30035238Y-58419523D01*
X30035238Y-57562380D01*
X30940000Y-58514761D02*
X30844761Y-58562380D01*
X30654285Y-58562380D01*
X30559047Y-58514761D01*
X30511428Y-58419523D01*
X30511428Y-58038571D01*
X30559047Y-57943333D01*
X30654285Y-57895714D01*
X30844761Y-57895714D01*
X30940000Y-57943333D01*
X30987619Y-58038571D01*
X30987619Y-58133809D01*
X30511428Y-58229047D01*
X31178095Y-58657619D02*
X31939999Y-58657619D01*
X32178095Y-58562380D02*
X32178095Y-57562380D01*
X32559047Y-57562380D01*
X32654285Y-57610000D01*
X32701904Y-57657619D01*
X32749523Y-57752857D01*
X32749523Y-57895714D01*
X32701904Y-57990952D01*
X32654285Y-58038571D01*
X32559047Y-58086190D01*
X32178095Y-58086190D01*
X33606666Y-58562380D02*
X33606666Y-58038571D01*
X33559047Y-57943333D01*
X33463809Y-57895714D01*
X33273333Y-57895714D01*
X33178095Y-57943333D01*
X33606666Y-58514761D02*
X33511428Y-58562380D01*
X33273333Y-58562380D01*
X33178095Y-58514761D01*
X33130476Y-58419523D01*
X33130476Y-58324285D01*
X33178095Y-58229047D01*
X33273333Y-58181428D01*
X33511428Y-58181428D01*
X33606666Y-58133809D01*
X34511428Y-58562380D02*
X34511428Y-57562380D01*
X34511428Y-58514761D02*
X34416190Y-58562380D01*
X34225714Y-58562380D01*
X34130476Y-58514761D01*
X34082857Y-58467142D01*
X34035238Y-58371904D01*
X34035238Y-58086190D01*
X34082857Y-57990952D01*
X34130476Y-57943333D01*
X34225714Y-57895714D01*
X34416190Y-57895714D01*
X34511428Y-57943333D01*
X26906666Y-55062380D02*
X26906666Y-54062380D01*
X27240000Y-54776666D01*
X27573333Y-54062380D01*
X27573333Y-55062380D01*
X28049523Y-55062380D02*
X28049523Y-54062380D01*
X28049523Y-54538571D02*
X28620952Y-54538571D01*
X28620952Y-55062380D02*
X28620952Y-54062380D01*
X29620952Y-55062380D02*
X29049523Y-55062380D01*
X29335238Y-55062380D02*
X29335238Y-54062380D01*
X29240000Y-54205238D01*
X29144761Y-54300476D01*
X29049523Y-54348095D01*
X51030285Y-61922714D02*
X51030285Y-62589380D01*
X50792190Y-61541761D02*
X50554095Y-62256047D01*
X51173142Y-62256047D01*
X51458857Y-61589380D02*
X52125523Y-61589380D01*
X51696952Y-62589380D01*
X52506476Y-62589380D02*
X52506476Y-61589380D01*
X53077904Y-62589380D02*
X52649333Y-62017952D01*
X53077904Y-61589380D02*
X52506476Y-62160809D01*
D12*
X51774333Y-60520095D02*
X51691000Y-60401047D01*
X51631476Y-60520095D02*
X51631476Y-60270095D01*
X51726714Y-60270095D01*
X51750523Y-60282000D01*
X51762428Y-60293904D01*
X51774333Y-60317714D01*
X51774333Y-60353428D01*
X51762428Y-60377238D01*
X51750523Y-60389142D01*
X51726714Y-60401047D01*
X51631476Y-60401047D01*
X51893380Y-60520095D02*
X51941000Y-60520095D01*
X51964809Y-60508190D01*
X51976714Y-60496285D01*
X52000523Y-60460571D01*
X52012428Y-60412952D01*
X52012428Y-60317714D01*
X52000523Y-60293904D01*
X51988619Y-60282000D01*
X51964809Y-60270095D01*
X51917190Y-60270095D01*
X51893380Y-60282000D01*
X51881476Y-60293904D01*
X51869571Y-60317714D01*
X51869571Y-60377238D01*
X51881476Y-60401047D01*
X51893380Y-60412952D01*
X51917190Y-60424857D01*
X51964809Y-60424857D01*
X51988619Y-60412952D01*
X52000523Y-60401047D01*
X52012428Y-60377238D01*
D11*
X31265476Y-69530380D02*
X31265476Y-68530380D01*
X31598809Y-69244666D01*
X31932142Y-68530380D01*
X31932142Y-69530380D01*
X32408333Y-69530380D02*
X32408333Y-68863714D01*
X32408333Y-68530380D02*
X32360714Y-68578000D01*
X32408333Y-68625619D01*
X32455952Y-68578000D01*
X32408333Y-68530380D01*
X32408333Y-68625619D01*
X33313095Y-69482761D02*
X33217857Y-69530380D01*
X33027380Y-69530380D01*
X32932142Y-69482761D01*
X32884523Y-69435142D01*
X32836904Y-69339904D01*
X32836904Y-69054190D01*
X32884523Y-68958952D01*
X32932142Y-68911333D01*
X33027380Y-68863714D01*
X33217857Y-68863714D01*
X33313095Y-68911333D01*
X33741666Y-69530380D02*
X33741666Y-68863714D01*
X33741666Y-69054190D02*
X33789285Y-68958952D01*
X33836904Y-68911333D01*
X33932142Y-68863714D01*
X34027380Y-68863714D01*
X34503571Y-69530380D02*
X34408333Y-69482761D01*
X34360714Y-69435142D01*
X34313095Y-69339904D01*
X34313095Y-69054190D01*
X34360714Y-68958952D01*
X34408333Y-68911333D01*
X34503571Y-68863714D01*
X34646428Y-68863714D01*
X34741666Y-68911333D01*
X34789285Y-68958952D01*
X34836904Y-69054190D01*
X34836904Y-69339904D01*
X34789285Y-69435142D01*
X34741666Y-69482761D01*
X34646428Y-69530380D01*
X34503571Y-69530380D01*
X35027380Y-69625619D02*
X35789285Y-69625619D01*
X35979761Y-69482761D02*
X36122619Y-69530380D01*
X36360714Y-69530380D01*
X36455952Y-69482761D01*
X36503571Y-69435142D01*
X36551190Y-69339904D01*
X36551190Y-69244666D01*
X36503571Y-69149428D01*
X36455952Y-69101809D01*
X36360714Y-69054190D01*
X36170238Y-69006571D01*
X36075000Y-68958952D01*
X36027380Y-68911333D01*
X35979761Y-68816095D01*
X35979761Y-68720857D01*
X36027380Y-68625619D01*
X36075000Y-68578000D01*
X36170238Y-68530380D01*
X36408333Y-68530380D01*
X36551190Y-68578000D01*
X36979761Y-69530380D02*
X36979761Y-68530380D01*
X37217857Y-68530380D01*
X37360714Y-68578000D01*
X37455952Y-68673238D01*
X37503571Y-68768476D01*
X37551190Y-68958952D01*
X37551190Y-69101809D01*
X37503571Y-69292285D01*
X37455952Y-69387523D01*
X37360714Y-69482761D01*
X37217857Y-69530380D01*
X36979761Y-69530380D01*
X37741666Y-69625619D02*
X38503571Y-69625619D01*
X39313095Y-69435142D02*
X39265476Y-69482761D01*
X39122619Y-69530380D01*
X39027380Y-69530380D01*
X38884523Y-69482761D01*
X38789285Y-69387523D01*
X38741666Y-69292285D01*
X38694047Y-69101809D01*
X38694047Y-68958952D01*
X38741666Y-68768476D01*
X38789285Y-68673238D01*
X38884523Y-68578000D01*
X39027380Y-68530380D01*
X39122619Y-68530380D01*
X39265476Y-68578000D01*
X39313095Y-68625619D01*
X40170238Y-69530380D02*
X40170238Y-69006571D01*
X40122619Y-68911333D01*
X40027380Y-68863714D01*
X39836904Y-68863714D01*
X39741666Y-68911333D01*
X40170238Y-69482761D02*
X40075000Y-69530380D01*
X39836904Y-69530380D01*
X39741666Y-69482761D01*
X39694047Y-69387523D01*
X39694047Y-69292285D01*
X39741666Y-69197047D01*
X39836904Y-69149428D01*
X40075000Y-69149428D01*
X40170238Y-69101809D01*
X40646428Y-69530380D02*
X40646428Y-68863714D01*
X40646428Y-69054190D02*
X40694047Y-68958952D01*
X40741666Y-68911333D01*
X40836904Y-68863714D01*
X40932142Y-68863714D01*
X41694047Y-69530380D02*
X41694047Y-68530380D01*
X41694047Y-69482761D02*
X41598809Y-69530380D01*
X41408333Y-69530380D01*
X41313095Y-69482761D01*
X41265476Y-69435142D01*
X41217857Y-69339904D01*
X41217857Y-69054190D01*
X41265476Y-68958952D01*
X41313095Y-68911333D01*
X41408333Y-68863714D01*
X41598809Y-68863714D01*
X41694047Y-68911333D01*
X41932142Y-69625619D02*
X42694047Y-69625619D01*
X42932142Y-69530380D02*
X42932142Y-68530380D01*
X43170238Y-68530380D01*
X43313095Y-68578000D01*
X43408333Y-68673238D01*
X43455952Y-68768476D01*
X43503571Y-68958952D01*
X43503571Y-69101809D01*
X43455952Y-69292285D01*
X43408333Y-69387523D01*
X43313095Y-69482761D01*
X43170238Y-69530380D01*
X42932142Y-69530380D01*
X44313095Y-69482761D02*
X44217857Y-69530380D01*
X44027380Y-69530380D01*
X43932142Y-69482761D01*
X43884523Y-69387523D01*
X43884523Y-69006571D01*
X43932142Y-68911333D01*
X44027380Y-68863714D01*
X44217857Y-68863714D01*
X44313095Y-68911333D01*
X44360714Y-69006571D01*
X44360714Y-69101809D01*
X43884523Y-69197047D01*
X44646428Y-68863714D02*
X45027380Y-68863714D01*
X44789285Y-68530380D02*
X44789285Y-69387523D01*
X44836904Y-69482761D01*
X44932142Y-69530380D01*
X45027380Y-69530380D01*
D10*
X37741666Y-63030380D02*
X37741666Y-63744666D01*
X37694047Y-63887523D01*
X37598809Y-63982761D01*
X37455952Y-64030380D01*
X37360714Y-64030380D01*
X38122619Y-63030380D02*
X38789285Y-63030380D01*
X38360714Y-64030380D01*
D11*
X27344761Y-39788380D02*
X26773333Y-39788380D01*
X27059047Y-39788380D02*
X27059047Y-38788380D01*
X26963809Y-38931238D01*
X26868571Y-39026476D01*
X26773333Y-39074095D01*
X28201904Y-39121714D02*
X28201904Y-39788380D01*
X27773333Y-39121714D02*
X27773333Y-39645523D01*
X27820952Y-39740761D01*
X27916190Y-39788380D01*
X28059047Y-39788380D01*
X28154285Y-39740761D01*
X28201904Y-39693142D01*
X29011428Y-39264571D02*
X28678095Y-39264571D01*
X28678095Y-39788380D02*
X28678095Y-38788380D01*
X29154285Y-38788380D01*
D12*
X27779285Y-41155285D02*
X27767380Y-41167190D01*
X27731666Y-41179095D01*
X27707857Y-41179095D01*
X27672142Y-41167190D01*
X27648333Y-41143380D01*
X27636428Y-41119571D01*
X27624523Y-41071952D01*
X27624523Y-41036238D01*
X27636428Y-40988619D01*
X27648333Y-40964809D01*
X27672142Y-40941000D01*
X27707857Y-40929095D01*
X27731666Y-40929095D01*
X27767380Y-40941000D01*
X27779285Y-40952904D01*
X27993571Y-41012428D02*
X27993571Y-41179095D01*
X27934047Y-40917190D02*
X27874523Y-41095761D01*
X28029285Y-41095761D01*
X28243571Y-40929095D02*
X28124523Y-40929095D01*
X28112619Y-41048142D01*
X28124523Y-41036238D01*
X28148333Y-41024333D01*
X28207857Y-41024333D01*
X28231666Y-41036238D01*
X28243571Y-41048142D01*
X28255476Y-41071952D01*
X28255476Y-41131476D01*
X28243571Y-41155285D01*
X28231666Y-41167190D01*
X28207857Y-41179095D01*
X28148333Y-41179095D01*
X28124523Y-41167190D01*
X28112619Y-41155285D01*
D11*
X41441761Y-52429380D02*
X40870333Y-52429380D01*
X41156047Y-52429380D02*
X41156047Y-51429380D01*
X41060809Y-51572238D01*
X40965571Y-51667476D01*
X40870333Y-51715095D01*
X42298904Y-51762714D02*
X42298904Y-52429380D01*
X41870333Y-51762714D02*
X41870333Y-52286523D01*
X41917952Y-52381761D01*
X42013190Y-52429380D01*
X42156047Y-52429380D01*
X42251285Y-52381761D01*
X42298904Y-52334142D01*
X43108428Y-51905571D02*
X42775095Y-51905571D01*
X42775095Y-52429380D02*
X42775095Y-51429380D01*
X43251285Y-51429380D01*
D12*
X41876285Y-50336285D02*
X41864380Y-50348190D01*
X41828666Y-50360095D01*
X41804857Y-50360095D01*
X41769142Y-50348190D01*
X41745333Y-50324380D01*
X41733428Y-50300571D01*
X41721523Y-50252952D01*
X41721523Y-50217238D01*
X41733428Y-50169619D01*
X41745333Y-50145809D01*
X41769142Y-50122000D01*
X41804857Y-50110095D01*
X41828666Y-50110095D01*
X41864380Y-50122000D01*
X41876285Y-50133904D01*
X42090571Y-50193428D02*
X42090571Y-50360095D01*
X42031047Y-50098190D02*
X41971523Y-50276761D01*
X42126285Y-50276761D01*
X42328666Y-50110095D02*
X42281047Y-50110095D01*
X42257238Y-50122000D01*
X42245333Y-50133904D01*
X42221523Y-50169619D01*
X42209619Y-50217238D01*
X42209619Y-50312476D01*
X42221523Y-50336285D01*
X42233428Y-50348190D01*
X42257238Y-50360095D01*
X42304857Y-50360095D01*
X42328666Y-50348190D01*
X42340571Y-50336285D01*
X42352476Y-50312476D01*
X42352476Y-50252952D01*
X42340571Y-50229142D01*
X42328666Y-50217238D01*
X42304857Y-50205333D01*
X42257238Y-50205333D01*
X42233428Y-50217238D01*
X42221523Y-50229142D01*
X42209619Y-50252952D01*
D11*
X26455761Y-45122380D02*
X25884333Y-45122380D01*
X26170047Y-45122380D02*
X26170047Y-44122380D01*
X26074809Y-44265238D01*
X25979571Y-44360476D01*
X25884333Y-44408095D01*
X27312904Y-44455714D02*
X27312904Y-45122380D01*
X26884333Y-44455714D02*
X26884333Y-44979523D01*
X26931952Y-45074761D01*
X27027190Y-45122380D01*
X27170047Y-45122380D01*
X27265285Y-45074761D01*
X27312904Y-45027142D01*
X28122428Y-44598571D02*
X27789095Y-44598571D01*
X27789095Y-45122380D02*
X27789095Y-44122380D01*
X28265285Y-44122380D01*
D12*
X26890285Y-46489285D02*
X26878380Y-46501190D01*
X26842666Y-46513095D01*
X26818857Y-46513095D01*
X26783142Y-46501190D01*
X26759333Y-46477380D01*
X26747428Y-46453571D01*
X26735523Y-46405952D01*
X26735523Y-46370238D01*
X26747428Y-46322619D01*
X26759333Y-46298809D01*
X26783142Y-46275000D01*
X26818857Y-46263095D01*
X26842666Y-46263095D01*
X26878380Y-46275000D01*
X26890285Y-46286904D01*
X27116476Y-46263095D02*
X26997428Y-46263095D01*
X26985523Y-46382142D01*
X26997428Y-46370238D01*
X27021238Y-46358333D01*
X27080761Y-46358333D01*
X27104571Y-46370238D01*
X27116476Y-46382142D01*
X27128380Y-46405952D01*
X27128380Y-46465476D01*
X27116476Y-46489285D01*
X27104571Y-46501190D01*
X27080761Y-46513095D01*
X27021238Y-46513095D01*
X26997428Y-46501190D01*
X26985523Y-46489285D01*
X27211714Y-46263095D02*
X27378380Y-46263095D01*
X27271238Y-46513095D01*
D11*
X31472285Y-46233714D02*
X31472285Y-46900380D01*
X31234190Y-45852761D02*
X30996095Y-46567047D01*
X31615142Y-46567047D01*
X31900857Y-45900380D02*
X32567523Y-45900380D01*
X32138952Y-46900380D01*
X32948476Y-46900380D02*
X32948476Y-45900380D01*
X33519904Y-46900380D02*
X33091333Y-46328952D01*
X33519904Y-45900380D02*
X32948476Y-46471809D01*
D12*
X32097285Y-48291095D02*
X32013952Y-48172047D01*
X31954428Y-48291095D02*
X31954428Y-48041095D01*
X32049666Y-48041095D01*
X32073476Y-48053000D01*
X32085380Y-48064904D01*
X32097285Y-48088714D01*
X32097285Y-48124428D01*
X32085380Y-48148238D01*
X32073476Y-48160142D01*
X32049666Y-48172047D01*
X31954428Y-48172047D01*
X32335380Y-48291095D02*
X32192523Y-48291095D01*
X32263952Y-48291095D02*
X32263952Y-48041095D01*
X32240142Y-48076809D01*
X32216333Y-48100619D01*
X32192523Y-48112523D01*
X32549666Y-48124428D02*
X32549666Y-48291095D01*
X32490142Y-48029190D02*
X32430619Y-48207761D01*
X32585380Y-48207761D01*
M02*
