G04 #@! TF.GenerationSoftware,KiCad,Pcbnew,(5.1.4)-1*
G04 #@! TF.CreationDate,2019-11-17T15:41:10+01:00*
G04 #@! TF.ProjectId,V3S_ESP32_Feather,5633535f-4553-4503-9332-5f4665617468,rev?*
G04 #@! TF.SameCoordinates,Original*
G04 #@! TF.FileFunction,Legend,Bot*
G04 #@! TF.FilePolarity,Positive*
%FSLAX46Y46*%
G04 Gerber Fmt 4.6, Leading zero omitted, Abs format (unit mm)*
G04 Created by KiCad (PCBNEW (5.1.4)-1) date 2019-11-17 15:41:10*
%MOMM*%
%LPD*%
G04 APERTURE LIST*
%ADD10C,0.150000*%
%ADD11C,0.120000*%
%ADD12C,0.127000*%
%ADD13C,0.200000*%
%ADD14C,0.050000*%
G04 APERTURE END LIST*
D10*
X52354952Y-21995761D02*
X52212095Y-22043380D01*
X51974000Y-22043380D01*
X51878761Y-21995761D01*
X51831142Y-21948142D01*
X51783523Y-21852904D01*
X51783523Y-21757666D01*
X51831142Y-21662428D01*
X51878761Y-21614809D01*
X51974000Y-21567190D01*
X52164476Y-21519571D01*
X52259714Y-21471952D01*
X52307333Y-21424333D01*
X52354952Y-21329095D01*
X52354952Y-21233857D01*
X52307333Y-21138619D01*
X52259714Y-21091000D01*
X52164476Y-21043380D01*
X51926380Y-21043380D01*
X51783523Y-21091000D01*
X51354952Y-22043380D02*
X51354952Y-21376714D01*
X51354952Y-21471952D02*
X51307333Y-21424333D01*
X51212095Y-21376714D01*
X51069238Y-21376714D01*
X50974000Y-21424333D01*
X50926380Y-21519571D01*
X50926380Y-22043380D01*
X50926380Y-21519571D02*
X50878761Y-21424333D01*
X50783523Y-21376714D01*
X50640666Y-21376714D01*
X50545428Y-21424333D01*
X50497809Y-21519571D01*
X50497809Y-22043380D01*
X49593047Y-22043380D02*
X49593047Y-21519571D01*
X49640666Y-21424333D01*
X49735904Y-21376714D01*
X49926380Y-21376714D01*
X50021619Y-21424333D01*
X49593047Y-21995761D02*
X49688285Y-22043380D01*
X49926380Y-22043380D01*
X50021619Y-21995761D01*
X50069238Y-21900523D01*
X50069238Y-21805285D01*
X50021619Y-21710047D01*
X49926380Y-21662428D01*
X49688285Y-21662428D01*
X49593047Y-21614809D01*
X49116857Y-22043380D02*
X49116857Y-21376714D01*
X49116857Y-21567190D02*
X49069238Y-21471952D01*
X49021619Y-21424333D01*
X48926380Y-21376714D01*
X48831142Y-21376714D01*
X48640666Y-21376714D02*
X48259714Y-21376714D01*
X48497809Y-21043380D02*
X48497809Y-21900523D01*
X48450190Y-21995761D01*
X48354952Y-22043380D01*
X48259714Y-22043380D01*
X47593047Y-21519571D02*
X47450190Y-21567190D01*
X47402571Y-21614809D01*
X47354952Y-21710047D01*
X47354952Y-21852904D01*
X47402571Y-21948142D01*
X47450190Y-21995761D01*
X47545428Y-22043380D01*
X47926380Y-22043380D01*
X47926380Y-21043380D01*
X47593047Y-21043380D01*
X47497809Y-21091000D01*
X47450190Y-21138619D01*
X47402571Y-21233857D01*
X47402571Y-21329095D01*
X47450190Y-21424333D01*
X47497809Y-21471952D01*
X47593047Y-21519571D01*
X47926380Y-21519571D01*
X46926380Y-22043380D02*
X46926380Y-21376714D01*
X46926380Y-21567190D02*
X46878761Y-21471952D01*
X46831142Y-21424333D01*
X46735904Y-21376714D01*
X46640666Y-21376714D01*
X46307333Y-22043380D02*
X46307333Y-21376714D01*
X46307333Y-21043380D02*
X46354952Y-21091000D01*
X46307333Y-21138619D01*
X46259714Y-21091000D01*
X46307333Y-21043380D01*
X46307333Y-21138619D01*
X45402571Y-22043380D02*
X45402571Y-21043380D01*
X45402571Y-21995761D02*
X45497809Y-22043380D01*
X45688285Y-22043380D01*
X45783523Y-21995761D01*
X45831142Y-21948142D01*
X45878761Y-21852904D01*
X45878761Y-21567190D01*
X45831142Y-21471952D01*
X45783523Y-21424333D01*
X45688285Y-21376714D01*
X45497809Y-21376714D01*
X45402571Y-21424333D01*
X44497809Y-21376714D02*
X44497809Y-22186238D01*
X44545428Y-22281476D01*
X44593047Y-22329095D01*
X44688285Y-22376714D01*
X44831142Y-22376714D01*
X44926380Y-22329095D01*
X44497809Y-21995761D02*
X44593047Y-22043380D01*
X44783523Y-22043380D01*
X44878761Y-21995761D01*
X44926380Y-21948142D01*
X44974000Y-21852904D01*
X44974000Y-21567190D01*
X44926380Y-21471952D01*
X44878761Y-21424333D01*
X44783523Y-21376714D01*
X44593047Y-21376714D01*
X44497809Y-21424333D01*
X43640666Y-21995761D02*
X43735904Y-22043380D01*
X43926380Y-22043380D01*
X44021619Y-21995761D01*
X44069238Y-21900523D01*
X44069238Y-21519571D01*
X44021619Y-21424333D01*
X43926380Y-21376714D01*
X43735904Y-21376714D01*
X43640666Y-21424333D01*
X43593047Y-21519571D01*
X43593047Y-21614809D01*
X44069238Y-21710047D01*
X43164476Y-22043380D02*
X43164476Y-21043380D01*
X42831142Y-21757666D01*
X42497809Y-21043380D01*
X42497809Y-22043380D01*
X42021619Y-22043380D02*
X42021619Y-21376714D01*
X42021619Y-21043380D02*
X42069238Y-21091000D01*
X42021619Y-21138619D01*
X41974000Y-21091000D01*
X42021619Y-21043380D01*
X42021619Y-21138619D01*
X41116857Y-21995761D02*
X41212095Y-22043380D01*
X41402571Y-22043380D01*
X41497809Y-21995761D01*
X41545428Y-21948142D01*
X41593047Y-21852904D01*
X41593047Y-21567190D01*
X41545428Y-21471952D01*
X41497809Y-21424333D01*
X41402571Y-21376714D01*
X41212095Y-21376714D01*
X41116857Y-21424333D01*
X40688285Y-22043380D02*
X40688285Y-21376714D01*
X40688285Y-21567190D02*
X40640666Y-21471952D01*
X40593047Y-21424333D01*
X40497809Y-21376714D01*
X40402571Y-21376714D01*
X39926380Y-22043380D02*
X40021619Y-21995761D01*
X40069238Y-21948142D01*
X40116857Y-21852904D01*
X40116857Y-21567190D01*
X40069238Y-21471952D01*
X40021619Y-21424333D01*
X39926380Y-21376714D01*
X39783523Y-21376714D01*
X39688285Y-21424333D01*
X39640666Y-21471952D01*
X39593047Y-21567190D01*
X39593047Y-21852904D01*
X39640666Y-21948142D01*
X39688285Y-21995761D01*
X39783523Y-22043380D01*
X39926380Y-22043380D01*
X47497809Y-22693380D02*
X47164476Y-23693380D01*
X46831142Y-22693380D01*
X46307333Y-22693380D02*
X46212095Y-22693380D01*
X46116857Y-22741000D01*
X46069238Y-22788619D01*
X46021619Y-22883857D01*
X45974000Y-23074333D01*
X45974000Y-23312428D01*
X46021619Y-23502904D01*
X46069238Y-23598142D01*
X46116857Y-23645761D01*
X46212095Y-23693380D01*
X46307333Y-23693380D01*
X46402571Y-23645761D01*
X46450190Y-23598142D01*
X46497809Y-23502904D01*
X46545428Y-23312428D01*
X46545428Y-23074333D01*
X46497809Y-22883857D01*
X46450190Y-22788619D01*
X46402571Y-22741000D01*
X46307333Y-22693380D01*
X45545428Y-23598142D02*
X45497809Y-23645761D01*
X45545428Y-23693380D01*
X45593047Y-23645761D01*
X45545428Y-23598142D01*
X45545428Y-23693380D01*
X45116857Y-22788619D02*
X45069238Y-22741000D01*
X44974000Y-22693380D01*
X44735904Y-22693380D01*
X44640666Y-22741000D01*
X44593047Y-22788619D01*
X44545428Y-22883857D01*
X44545428Y-22979095D01*
X44593047Y-23121952D01*
X45164476Y-23693380D01*
X44545428Y-23693380D01*
X49021619Y-24819571D02*
X48878761Y-24867190D01*
X48831142Y-24914809D01*
X48783523Y-25010047D01*
X48783523Y-25152904D01*
X48831142Y-25248142D01*
X48878761Y-25295761D01*
X48974000Y-25343380D01*
X49354952Y-25343380D01*
X49354952Y-24343380D01*
X49021619Y-24343380D01*
X48926380Y-24391000D01*
X48878761Y-24438619D01*
X48831142Y-24533857D01*
X48831142Y-24629095D01*
X48878761Y-24724333D01*
X48926380Y-24771952D01*
X49021619Y-24819571D01*
X49354952Y-24819571D01*
X48450190Y-24676714D02*
X48212095Y-25343380D01*
X47974000Y-24676714D02*
X48212095Y-25343380D01*
X48307333Y-25581476D01*
X48354952Y-25629095D01*
X48450190Y-25676714D01*
X46259714Y-25248142D02*
X46307333Y-25295761D01*
X46450190Y-25343380D01*
X46545428Y-25343380D01*
X46688285Y-25295761D01*
X46783523Y-25200523D01*
X46831142Y-25105285D01*
X46878761Y-24914809D01*
X46878761Y-24771952D01*
X46831142Y-24581476D01*
X46783523Y-24486238D01*
X46688285Y-24391000D01*
X46545428Y-24343380D01*
X46450190Y-24343380D01*
X46307333Y-24391000D01*
X46259714Y-24438619D01*
X45831142Y-25343380D02*
X45831142Y-24676714D01*
X45831142Y-24867190D02*
X45783523Y-24771952D01*
X45735904Y-24724333D01*
X45640666Y-24676714D01*
X45545428Y-24676714D01*
X45307333Y-24676714D02*
X45069238Y-25343380D01*
X44831142Y-24676714D02*
X45069238Y-25343380D01*
X45164476Y-25581476D01*
X45212095Y-25629095D01*
X45307333Y-25676714D01*
X44307333Y-25343380D02*
X44402571Y-25295761D01*
X44450190Y-25200523D01*
X44450190Y-24343380D01*
X43783523Y-25343380D02*
X43878761Y-25295761D01*
X43926380Y-25248142D01*
X43974000Y-25152904D01*
X43974000Y-24867190D01*
X43926380Y-24771952D01*
X43878761Y-24724333D01*
X43783523Y-24676714D01*
X43640666Y-24676714D01*
X43545428Y-24724333D01*
X43497809Y-24771952D01*
X43450190Y-24867190D01*
X43450190Y-25152904D01*
X43497809Y-25248142D01*
X43545428Y-25295761D01*
X43640666Y-25343380D01*
X43783523Y-25343380D01*
X42593047Y-24676714D02*
X42593047Y-25486238D01*
X42640666Y-25581476D01*
X42688285Y-25629095D01*
X42783523Y-25676714D01*
X42926380Y-25676714D01*
X43021619Y-25629095D01*
X42593047Y-25295761D02*
X42688285Y-25343380D01*
X42878761Y-25343380D01*
X42974000Y-25295761D01*
X43021619Y-25248142D01*
X43069238Y-25152904D01*
X43069238Y-24867190D01*
X43021619Y-24771952D01*
X42974000Y-24724333D01*
X42878761Y-24676714D01*
X42688285Y-24676714D01*
X42593047Y-24724333D01*
D11*
X52810000Y-46509000D02*
X52810000Y-41629000D01*
X49690000Y-40459000D02*
X49690000Y-41509000D01*
X50840000Y-40459000D02*
X49690000Y-40459000D01*
X49690000Y-46629000D02*
X48700000Y-46629000D01*
X49690000Y-47679000D02*
X49690000Y-46629000D01*
X50840000Y-47679000D02*
X49690000Y-47679000D01*
D12*
X33146000Y-25655000D02*
X33146000Y-25335000D01*
X33146000Y-22605000D02*
X33146000Y-22925000D01*
X36196000Y-25655000D02*
X36196000Y-25335000D01*
X36196000Y-22605000D02*
X36196000Y-22925000D01*
X33146000Y-25655000D02*
X33466000Y-25655000D01*
X33146000Y-22605000D02*
X33466000Y-22605000D01*
X36196000Y-25655000D02*
X35876000Y-25655000D01*
X36196000Y-22605000D02*
X35876000Y-22605000D01*
D13*
X32341000Y-24880000D02*
G75*
G03X32341000Y-24880000I-100000J0D01*
G01*
D11*
X23477000Y-42453000D02*
X23477000Y-38573000D01*
X27947000Y-37403000D02*
X27947000Y-38453000D01*
X25447000Y-37403000D02*
X27947000Y-37403000D01*
X27947000Y-42573000D02*
X28937000Y-42573000D01*
X27947000Y-43623000D02*
X27947000Y-42573000D01*
X25447000Y-43623000D02*
X27947000Y-43623000D01*
X23477000Y-50327000D02*
X23477000Y-46447000D01*
X27947000Y-45277000D02*
X27947000Y-46327000D01*
X25447000Y-45277000D02*
X27947000Y-45277000D01*
X27947000Y-50447000D02*
X28937000Y-50447000D01*
X27947000Y-51497000D02*
X27947000Y-50447000D01*
X25447000Y-51497000D02*
X27947000Y-51497000D01*
X44100000Y-64560000D02*
X32100000Y-64560000D01*
X44100000Y-67520000D02*
X32100000Y-67520000D01*
X44100000Y-67520000D02*
X44100000Y-68460000D01*
X32100000Y-67520000D02*
X32100000Y-68460000D01*
X44100000Y-68460000D02*
X46560000Y-68460000D01*
X32100000Y-68460000D02*
X29640000Y-68460000D01*
X46560000Y-68460000D02*
X46560000Y-66100000D01*
X29640000Y-68460000D02*
X29640000Y-66100000D01*
X46560000Y-66100000D02*
X44100000Y-66100000D01*
X29640000Y-66100000D02*
X32100000Y-66100000D01*
X44100000Y-66100000D02*
X44100000Y-64560000D01*
X32100000Y-66100000D02*
X32100000Y-64560000D01*
X30334000Y-29246000D02*
X30334000Y-23236000D01*
X23514000Y-26996000D02*
X23514000Y-23236000D01*
X30334000Y-23236000D02*
X29074000Y-23236000D01*
X23514000Y-23236000D02*
X24774000Y-23236000D01*
X52770000Y-38100000D02*
G75*
G03X52770000Y-38100000I-700000J0D01*
G01*
D10*
X45225000Y-51575000D02*
X44700000Y-51575000D01*
X45225000Y-37325000D02*
X44625000Y-37325000D01*
X30975000Y-37325000D02*
X31575000Y-37325000D01*
X30975000Y-51575000D02*
X31575000Y-51575000D01*
X45225000Y-51575000D02*
X45225000Y-50975000D01*
X30975000Y-51575000D02*
X30975000Y-50975000D01*
X30975000Y-37325000D02*
X30975000Y-37925000D01*
X45225000Y-37325000D02*
X45225000Y-37925000D01*
X44700000Y-51575000D02*
X44700000Y-52650000D01*
D11*
X32594800Y-34466800D02*
X32594800Y-31166800D01*
X32594800Y-31166800D02*
X36594800Y-31166800D01*
D10*
X43410000Y-31462000D02*
X39610000Y-31462000D01*
X39610000Y-31462000D02*
X39610000Y-33562000D01*
X39610000Y-33562000D02*
X44210000Y-33562000D01*
X44210000Y-33562000D02*
X44210000Y-32262000D01*
X39221380Y-61206142D02*
X38745190Y-60872809D01*
X39221380Y-60634714D02*
X38221380Y-60634714D01*
X38221380Y-61015666D01*
X38269000Y-61110904D01*
X38316619Y-61158523D01*
X38411857Y-61206142D01*
X38554714Y-61206142D01*
X38649952Y-61158523D01*
X38697571Y-61110904D01*
X38745190Y-61015666D01*
X38745190Y-60634714D01*
X39221380Y-62158523D02*
X39221380Y-61587095D01*
X39221380Y-61872809D02*
X38221380Y-61872809D01*
X38364238Y-61777571D01*
X38459476Y-61682333D01*
X38507095Y-61587095D01*
X38221380Y-62491857D02*
X38221380Y-63158523D01*
X39221380Y-62729952D01*
X52022333Y-43267380D02*
X52022333Y-43981666D01*
X52069952Y-44124523D01*
X52165190Y-44219761D01*
X52308047Y-44267380D01*
X52403285Y-44267380D01*
X51022333Y-44267380D02*
X51593761Y-44267380D01*
X51308047Y-44267380D02*
X51308047Y-43267380D01*
X51403285Y-43410238D01*
X51498523Y-43505476D01*
X51593761Y-43553095D01*
D14*
X39115904Y-23582380D02*
X39115904Y-24391904D01*
X39068285Y-24487142D01*
X39020666Y-24534761D01*
X38925428Y-24582380D01*
X38734952Y-24582380D01*
X38639714Y-24534761D01*
X38592095Y-24487142D01*
X38544476Y-24391904D01*
X38544476Y-23582380D01*
X38115904Y-23677619D02*
X38068285Y-23630000D01*
X37973047Y-23582380D01*
X37734952Y-23582380D01*
X37639714Y-23630000D01*
X37592095Y-23677619D01*
X37544476Y-23772857D01*
X37544476Y-23868095D01*
X37592095Y-24010952D01*
X38163523Y-24582380D01*
X37544476Y-24582380D01*
D10*
X31662666Y-25376142D02*
X31710285Y-25423761D01*
X31853142Y-25471380D01*
X31948380Y-25471380D01*
X32091238Y-25423761D01*
X32186476Y-25328523D01*
X32234095Y-25233285D01*
X32281714Y-25042809D01*
X32281714Y-24899952D01*
X32234095Y-24709476D01*
X32186476Y-24614238D01*
X32091238Y-24519000D01*
X31948380Y-24471380D01*
X31853142Y-24471380D01*
X31710285Y-24519000D01*
X31662666Y-24566619D01*
X31281714Y-24566619D02*
X31234095Y-24519000D01*
X31138857Y-24471380D01*
X30900761Y-24471380D01*
X30805523Y-24519000D01*
X30757904Y-24566619D01*
X30710285Y-24661857D01*
X30710285Y-24757095D01*
X30757904Y-24899952D01*
X31329333Y-25471380D01*
X30710285Y-25471380D01*
X26463523Y-39711380D02*
X26463523Y-40425666D01*
X26511142Y-40568523D01*
X26606380Y-40663761D01*
X26749238Y-40711380D01*
X26844476Y-40711380D01*
X25463523Y-40711380D02*
X26034952Y-40711380D01*
X25749238Y-40711380D02*
X25749238Y-39711380D01*
X25844476Y-39854238D01*
X25939714Y-39949476D01*
X26034952Y-39997095D01*
X24844476Y-39711380D02*
X24749238Y-39711380D01*
X24654000Y-39759000D01*
X24606380Y-39806619D01*
X24558761Y-39901857D01*
X24511142Y-40092333D01*
X24511142Y-40330428D01*
X24558761Y-40520904D01*
X24606380Y-40616142D01*
X24654000Y-40663761D01*
X24749238Y-40711380D01*
X24844476Y-40711380D01*
X24939714Y-40663761D01*
X24987333Y-40616142D01*
X25034952Y-40520904D01*
X25082571Y-40330428D01*
X25082571Y-40092333D01*
X25034952Y-39901857D01*
X24987333Y-39806619D01*
X24939714Y-39759000D01*
X24844476Y-39711380D01*
X25860333Y-46823380D02*
X25860333Y-47537666D01*
X25907952Y-47680523D01*
X26003190Y-47775761D01*
X26146047Y-47823380D01*
X26241285Y-47823380D01*
X25336523Y-47823380D02*
X25146047Y-47823380D01*
X25050809Y-47775761D01*
X25003190Y-47728142D01*
X24907952Y-47585285D01*
X24860333Y-47394809D01*
X24860333Y-47013857D01*
X24907952Y-46918619D01*
X24955571Y-46871000D01*
X25050809Y-46823380D01*
X25241285Y-46823380D01*
X25336523Y-46871000D01*
X25384142Y-46918619D01*
X25431761Y-47013857D01*
X25431761Y-47251952D01*
X25384142Y-47347190D01*
X25336523Y-47394809D01*
X25241285Y-47442428D01*
X25050809Y-47442428D01*
X24955571Y-47394809D01*
X24907952Y-47347190D01*
X24860333Y-47251952D01*
X38433333Y-62952380D02*
X38433333Y-63666666D01*
X38480952Y-63809523D01*
X38576190Y-63904761D01*
X38719047Y-63952380D01*
X38814285Y-63952380D01*
X38052380Y-62952380D02*
X37433333Y-62952380D01*
X37766666Y-63333333D01*
X37623809Y-63333333D01*
X37528571Y-63380952D01*
X37480952Y-63428571D01*
X37433333Y-63523809D01*
X37433333Y-63761904D01*
X37480952Y-63857142D01*
X37528571Y-63904761D01*
X37623809Y-63952380D01*
X37909523Y-63952380D01*
X38004761Y-63904761D01*
X38052380Y-63857142D01*
X33027857Y-29313142D02*
X33075476Y-29360761D01*
X33218333Y-29408380D01*
X33313571Y-29408380D01*
X33456428Y-29360761D01*
X33551666Y-29265523D01*
X33599285Y-29170285D01*
X33646904Y-28979809D01*
X33646904Y-28836952D01*
X33599285Y-28646476D01*
X33551666Y-28551238D01*
X33456428Y-28456000D01*
X33313571Y-28408380D01*
X33218333Y-28408380D01*
X33075476Y-28456000D01*
X33027857Y-28503619D01*
X32170714Y-28408380D02*
X32361190Y-28408380D01*
X32456428Y-28456000D01*
X32504047Y-28503619D01*
X32599285Y-28646476D01*
X32646904Y-28836952D01*
X32646904Y-29217904D01*
X32599285Y-29313142D01*
X32551666Y-29360761D01*
X32456428Y-29408380D01*
X32265952Y-29408380D01*
X32170714Y-29360761D01*
X32123095Y-29313142D01*
X32075476Y-29217904D01*
X32075476Y-28979809D01*
X32123095Y-28884571D01*
X32170714Y-28836952D01*
X32265952Y-28789333D01*
X32456428Y-28789333D01*
X32551666Y-28836952D01*
X32599285Y-28884571D01*
X32646904Y-28979809D01*
X31170714Y-28408380D02*
X31646904Y-28408380D01*
X31694523Y-28884571D01*
X31646904Y-28836952D01*
X31551666Y-28789333D01*
X31313571Y-28789333D01*
X31218333Y-28836952D01*
X31170714Y-28884571D01*
X31123095Y-28979809D01*
X31123095Y-29217904D01*
X31170714Y-29313142D01*
X31218333Y-29360761D01*
X31313571Y-29408380D01*
X31551666Y-29408380D01*
X31646904Y-29360761D01*
X31694523Y-29313142D01*
X36552142Y-28948142D02*
X36599761Y-28900523D01*
X36647380Y-28757666D01*
X36647380Y-28662428D01*
X36599761Y-28519571D01*
X36504523Y-28424333D01*
X36409285Y-28376714D01*
X36218809Y-28329095D01*
X36075952Y-28329095D01*
X35885476Y-28376714D01*
X35790238Y-28424333D01*
X35695000Y-28519571D01*
X35647380Y-28662428D01*
X35647380Y-28757666D01*
X35695000Y-28900523D01*
X35742619Y-28948142D01*
X35647380Y-29805285D02*
X35647380Y-29614809D01*
X35695000Y-29519571D01*
X35742619Y-29471952D01*
X35885476Y-29376714D01*
X36075952Y-29329095D01*
X36456904Y-29329095D01*
X36552142Y-29376714D01*
X36599761Y-29424333D01*
X36647380Y-29519571D01*
X36647380Y-29710047D01*
X36599761Y-29805285D01*
X36552142Y-29852904D01*
X36456904Y-29900523D01*
X36218809Y-29900523D01*
X36123571Y-29852904D01*
X36075952Y-29805285D01*
X36028333Y-29710047D01*
X36028333Y-29519571D01*
X36075952Y-29424333D01*
X36123571Y-29376714D01*
X36218809Y-29329095D01*
X35980714Y-30757666D02*
X36647380Y-30757666D01*
X35599761Y-30519571D02*
X36314047Y-30281476D01*
X36314047Y-30900523D01*
X24042666Y-31345142D02*
X24090285Y-31392761D01*
X24233142Y-31440380D01*
X24328380Y-31440380D01*
X24471238Y-31392761D01*
X24566476Y-31297523D01*
X24614095Y-31202285D01*
X24661714Y-31011809D01*
X24661714Y-30868952D01*
X24614095Y-30678476D01*
X24566476Y-30583238D01*
X24471238Y-30488000D01*
X24328380Y-30440380D01*
X24233142Y-30440380D01*
X24090285Y-30488000D01*
X24042666Y-30535619D01*
X23566476Y-31440380D02*
X23376000Y-31440380D01*
X23280761Y-31392761D01*
X23233142Y-31345142D01*
X23137904Y-31202285D01*
X23090285Y-31011809D01*
X23090285Y-30630857D01*
X23137904Y-30535619D01*
X23185523Y-30488000D01*
X23280761Y-30440380D01*
X23471238Y-30440380D01*
X23566476Y-30488000D01*
X23614095Y-30535619D01*
X23661714Y-30630857D01*
X23661714Y-30868952D01*
X23614095Y-30964190D01*
X23566476Y-31011809D01*
X23471238Y-31059428D01*
X23280761Y-31059428D01*
X23185523Y-31011809D01*
X23137904Y-30964190D01*
X23090285Y-30868952D01*
X33059666Y-27281142D02*
X33107285Y-27328761D01*
X33250142Y-27376380D01*
X33345380Y-27376380D01*
X33488238Y-27328761D01*
X33583476Y-27233523D01*
X33631095Y-27138285D01*
X33678714Y-26947809D01*
X33678714Y-26804952D01*
X33631095Y-26614476D01*
X33583476Y-26519238D01*
X33488238Y-26424000D01*
X33345380Y-26376380D01*
X33250142Y-26376380D01*
X33107285Y-26424000D01*
X33059666Y-26471619D01*
X32154904Y-26376380D02*
X32631095Y-26376380D01*
X32678714Y-26852571D01*
X32631095Y-26804952D01*
X32535857Y-26757333D01*
X32297761Y-26757333D01*
X32202523Y-26804952D01*
X32154904Y-26852571D01*
X32107285Y-26947809D01*
X32107285Y-27185904D01*
X32154904Y-27281142D01*
X32202523Y-27328761D01*
X32297761Y-27376380D01*
X32535857Y-27376380D01*
X32631095Y-27328761D01*
X32678714Y-27281142D01*
X49061666Y-68175142D02*
X49109285Y-68222761D01*
X49252142Y-68270380D01*
X49347380Y-68270380D01*
X49490238Y-68222761D01*
X49585476Y-68127523D01*
X49633095Y-68032285D01*
X49680714Y-67841809D01*
X49680714Y-67698952D01*
X49633095Y-67508476D01*
X49585476Y-67413238D01*
X49490238Y-67318000D01*
X49347380Y-67270380D01*
X49252142Y-67270380D01*
X49109285Y-67318000D01*
X49061666Y-67365619D01*
X48109285Y-68270380D02*
X48680714Y-68270380D01*
X48395000Y-68270380D02*
X48395000Y-67270380D01*
X48490238Y-67413238D01*
X48585476Y-67508476D01*
X48680714Y-67556095D01*
X27685904Y-24090380D02*
X27685904Y-24899904D01*
X27638285Y-24995142D01*
X27590666Y-25042761D01*
X27495428Y-25090380D01*
X27304952Y-25090380D01*
X27209714Y-25042761D01*
X27162095Y-24995142D01*
X27114476Y-24899904D01*
X27114476Y-24090380D01*
X26209714Y-24090380D02*
X26400190Y-24090380D01*
X26495428Y-24138000D01*
X26543047Y-24185619D01*
X26638285Y-24328476D01*
X26685904Y-24518952D01*
X26685904Y-24899904D01*
X26638285Y-24995142D01*
X26590666Y-25042761D01*
X26495428Y-25090380D01*
X26304952Y-25090380D01*
X26209714Y-25042761D01*
X26162095Y-24995142D01*
X26114476Y-24899904D01*
X26114476Y-24661809D01*
X26162095Y-24566571D01*
X26209714Y-24518952D01*
X26304952Y-24471333D01*
X26495428Y-24471333D01*
X26590666Y-24518952D01*
X26638285Y-24566571D01*
X26685904Y-24661809D01*
X50918904Y-37679380D02*
X50347476Y-37679380D01*
X50633190Y-38679380D02*
X50633190Y-37679380D01*
X50014142Y-38679380D02*
X50014142Y-37679380D01*
X49633190Y-37679380D01*
X49537952Y-37727000D01*
X49490333Y-37774619D01*
X49442714Y-37869857D01*
X49442714Y-38012714D01*
X49490333Y-38107952D01*
X49537952Y-38155571D01*
X49633190Y-38203190D01*
X50014142Y-38203190D01*
X48585571Y-38012714D02*
X48585571Y-38679380D01*
X48823666Y-37631761D02*
X49061761Y-38346047D01*
X48442714Y-38346047D01*
X32138857Y-21312142D02*
X32186476Y-21359761D01*
X32329333Y-21407380D01*
X32424571Y-21407380D01*
X32567428Y-21359761D01*
X32662666Y-21264523D01*
X32710285Y-21169285D01*
X32757904Y-20978809D01*
X32757904Y-20835952D01*
X32710285Y-20645476D01*
X32662666Y-20550238D01*
X32567428Y-20455000D01*
X32424571Y-20407380D01*
X32329333Y-20407380D01*
X32186476Y-20455000D01*
X32138857Y-20502619D01*
X31186476Y-21407380D02*
X31757904Y-21407380D01*
X31472190Y-21407380D02*
X31472190Y-20407380D01*
X31567428Y-20550238D01*
X31662666Y-20645476D01*
X31757904Y-20693095D01*
X30567428Y-20407380D02*
X30472190Y-20407380D01*
X30376952Y-20455000D01*
X30329333Y-20502619D01*
X30281714Y-20597857D01*
X30234095Y-20788333D01*
X30234095Y-21026428D01*
X30281714Y-21216904D01*
X30329333Y-21312142D01*
X30376952Y-21359761D01*
X30472190Y-21407380D01*
X30567428Y-21407380D01*
X30662666Y-21359761D01*
X30710285Y-21312142D01*
X30757904Y-21216904D01*
X30805523Y-21026428D01*
X30805523Y-20788333D01*
X30757904Y-20597857D01*
X30710285Y-20502619D01*
X30662666Y-20455000D01*
X30567428Y-20407380D01*
X30138666Y-22582142D02*
X30186285Y-22629761D01*
X30329142Y-22677380D01*
X30424380Y-22677380D01*
X30567238Y-22629761D01*
X30662476Y-22534523D01*
X30710095Y-22439285D01*
X30757714Y-22248809D01*
X30757714Y-22105952D01*
X30710095Y-21915476D01*
X30662476Y-21820238D01*
X30567238Y-21725000D01*
X30424380Y-21677380D01*
X30329142Y-21677380D01*
X30186285Y-21725000D01*
X30138666Y-21772619D01*
X29281523Y-21677380D02*
X29472000Y-21677380D01*
X29567238Y-21725000D01*
X29614857Y-21772619D01*
X29710095Y-21915476D01*
X29757714Y-22105952D01*
X29757714Y-22486904D01*
X29710095Y-22582142D01*
X29662476Y-22629761D01*
X29567238Y-22677380D01*
X29376761Y-22677380D01*
X29281523Y-22629761D01*
X29233904Y-22582142D01*
X29186285Y-22486904D01*
X29186285Y-22248809D01*
X29233904Y-22153571D01*
X29281523Y-22105952D01*
X29376761Y-22058333D01*
X29567238Y-22058333D01*
X29662476Y-22105952D01*
X29710095Y-22153571D01*
X29757714Y-22248809D01*
X38266666Y-21439142D02*
X38314285Y-21486761D01*
X38457142Y-21534380D01*
X38552380Y-21534380D01*
X38695238Y-21486761D01*
X38790476Y-21391523D01*
X38838095Y-21296285D01*
X38885714Y-21105809D01*
X38885714Y-20962952D01*
X38838095Y-20772476D01*
X38790476Y-20677238D01*
X38695238Y-20582000D01*
X38552380Y-20534380D01*
X38457142Y-20534380D01*
X38314285Y-20582000D01*
X38266666Y-20629619D01*
X37933333Y-20534380D02*
X37314285Y-20534380D01*
X37647619Y-20915333D01*
X37504761Y-20915333D01*
X37409523Y-20962952D01*
X37361904Y-21010571D01*
X37314285Y-21105809D01*
X37314285Y-21343904D01*
X37361904Y-21439142D01*
X37409523Y-21486761D01*
X37504761Y-21534380D01*
X37790476Y-21534380D01*
X37885714Y-21486761D01*
X37933333Y-21439142D01*
X51474666Y-49601380D02*
X51808000Y-49125190D01*
X52046095Y-49601380D02*
X52046095Y-48601380D01*
X51665142Y-48601380D01*
X51569904Y-48649000D01*
X51522285Y-48696619D01*
X51474666Y-48791857D01*
X51474666Y-48934714D01*
X51522285Y-49029952D01*
X51569904Y-49077571D01*
X51665142Y-49125190D01*
X52046095Y-49125190D01*
X51141333Y-48601380D02*
X50522285Y-48601380D01*
X50855619Y-48982333D01*
X50712761Y-48982333D01*
X50617523Y-49029952D01*
X50569904Y-49077571D01*
X50522285Y-49172809D01*
X50522285Y-49410904D01*
X50569904Y-49506142D01*
X50617523Y-49553761D01*
X50712761Y-49601380D01*
X50998476Y-49601380D01*
X51093714Y-49553761D01*
X51141333Y-49506142D01*
X40901857Y-27027142D02*
X40949476Y-27074761D01*
X41092333Y-27122380D01*
X41187571Y-27122380D01*
X41330428Y-27074761D01*
X41425666Y-26979523D01*
X41473285Y-26884285D01*
X41520904Y-26693809D01*
X41520904Y-26550952D01*
X41473285Y-26360476D01*
X41425666Y-26265238D01*
X41330428Y-26170000D01*
X41187571Y-26122380D01*
X41092333Y-26122380D01*
X40949476Y-26170000D01*
X40901857Y-26217619D01*
X39949476Y-27122380D02*
X40520904Y-27122380D01*
X40235190Y-27122380D02*
X40235190Y-26122380D01*
X40330428Y-26265238D01*
X40425666Y-26360476D01*
X40520904Y-26408095D01*
X39568523Y-26217619D02*
X39520904Y-26170000D01*
X39425666Y-26122380D01*
X39187571Y-26122380D01*
X39092333Y-26170000D01*
X39044714Y-26217619D01*
X38997095Y-26312857D01*
X38997095Y-26408095D01*
X39044714Y-26550952D01*
X39616142Y-27122380D01*
X38997095Y-27122380D01*
X36710857Y-28172380D02*
X37044190Y-27696190D01*
X37282285Y-28172380D02*
X37282285Y-27172380D01*
X36901333Y-27172380D01*
X36806095Y-27220000D01*
X36758476Y-27267619D01*
X36710857Y-27362857D01*
X36710857Y-27505714D01*
X36758476Y-27600952D01*
X36806095Y-27648571D01*
X36901333Y-27696190D01*
X37282285Y-27696190D01*
X35758476Y-28172380D02*
X36329904Y-28172380D01*
X36044190Y-28172380D02*
X36044190Y-27172380D01*
X36139428Y-27315238D01*
X36234666Y-27410476D01*
X36329904Y-27458095D01*
X35425142Y-27172380D02*
X34806095Y-27172380D01*
X35139428Y-27553333D01*
X34996571Y-27553333D01*
X34901333Y-27600952D01*
X34853714Y-27648571D01*
X34806095Y-27743809D01*
X34806095Y-27981904D01*
X34853714Y-28077142D01*
X34901333Y-28124761D01*
X34996571Y-28172380D01*
X35282285Y-28172380D01*
X35377523Y-28124761D01*
X35425142Y-28077142D01*
X47628666Y-39346142D02*
X47676285Y-39393761D01*
X47819142Y-39441380D01*
X47914380Y-39441380D01*
X48057238Y-39393761D01*
X48152476Y-39298523D01*
X48200095Y-39203285D01*
X48247714Y-39012809D01*
X48247714Y-38869952D01*
X48200095Y-38679476D01*
X48152476Y-38584238D01*
X48057238Y-38489000D01*
X47914380Y-38441380D01*
X47819142Y-38441380D01*
X47676285Y-38489000D01*
X47628666Y-38536619D01*
X46771523Y-38774714D02*
X46771523Y-39441380D01*
X47009619Y-38393761D02*
X47247714Y-39108047D01*
X46628666Y-39108047D01*
X38711142Y-32123142D02*
X38758761Y-32075523D01*
X38806380Y-31932666D01*
X38806380Y-31837428D01*
X38758761Y-31694571D01*
X38663523Y-31599333D01*
X38568285Y-31551714D01*
X38377809Y-31504095D01*
X38234952Y-31504095D01*
X38044476Y-31551714D01*
X37949238Y-31599333D01*
X37854000Y-31694571D01*
X37806380Y-31837428D01*
X37806380Y-31932666D01*
X37854000Y-32075523D01*
X37901619Y-32123142D01*
X37806380Y-32456476D02*
X37806380Y-33075523D01*
X38187333Y-32742190D01*
X38187333Y-32885047D01*
X38234952Y-32980285D01*
X38282571Y-33027904D01*
X38377809Y-33075523D01*
X38615904Y-33075523D01*
X38711142Y-33027904D01*
X38758761Y-32980285D01*
X38806380Y-32885047D01*
X38806380Y-32599333D01*
X38758761Y-32504095D01*
X38711142Y-32456476D01*
X37806380Y-33932666D02*
X37806380Y-33742190D01*
X37854000Y-33646952D01*
X37901619Y-33599333D01*
X38044476Y-33504095D01*
X38234952Y-33456476D01*
X38615904Y-33456476D01*
X38711142Y-33504095D01*
X38758761Y-33551714D01*
X38806380Y-33646952D01*
X38806380Y-33837428D01*
X38758761Y-33932666D01*
X38711142Y-33980285D01*
X38615904Y-34027904D01*
X38377809Y-34027904D01*
X38282571Y-33980285D01*
X38234952Y-33932666D01*
X38187333Y-33837428D01*
X38187333Y-33646952D01*
X38234952Y-33551714D01*
X38282571Y-33504095D01*
X38377809Y-33456476D01*
X31345142Y-31869142D02*
X31392761Y-31821523D01*
X31440380Y-31678666D01*
X31440380Y-31583428D01*
X31392761Y-31440571D01*
X31297523Y-31345333D01*
X31202285Y-31297714D01*
X31011809Y-31250095D01*
X30868952Y-31250095D01*
X30678476Y-31297714D01*
X30583238Y-31345333D01*
X30488000Y-31440571D01*
X30440380Y-31583428D01*
X30440380Y-31678666D01*
X30488000Y-31821523D01*
X30535619Y-31869142D01*
X30440380Y-32202476D02*
X30440380Y-32821523D01*
X30821333Y-32488190D01*
X30821333Y-32631047D01*
X30868952Y-32726285D01*
X30916571Y-32773904D01*
X31011809Y-32821523D01*
X31249904Y-32821523D01*
X31345142Y-32773904D01*
X31392761Y-32726285D01*
X31440380Y-32631047D01*
X31440380Y-32345333D01*
X31392761Y-32250095D01*
X31345142Y-32202476D01*
X30440380Y-33154857D02*
X30440380Y-33821523D01*
X31440380Y-33392952D01*
X52712857Y-34647142D02*
X52760476Y-34694761D01*
X52903333Y-34742380D01*
X52998571Y-34742380D01*
X53141428Y-34694761D01*
X53236666Y-34599523D01*
X53284285Y-34504285D01*
X53331904Y-34313809D01*
X53331904Y-34170952D01*
X53284285Y-33980476D01*
X53236666Y-33885238D01*
X53141428Y-33790000D01*
X52998571Y-33742380D01*
X52903333Y-33742380D01*
X52760476Y-33790000D01*
X52712857Y-33837619D01*
X52379523Y-33742380D02*
X51760476Y-33742380D01*
X52093809Y-34123333D01*
X51950952Y-34123333D01*
X51855714Y-34170952D01*
X51808095Y-34218571D01*
X51760476Y-34313809D01*
X51760476Y-34551904D01*
X51808095Y-34647142D01*
X51855714Y-34694761D01*
X51950952Y-34742380D01*
X52236666Y-34742380D01*
X52331904Y-34694761D01*
X52379523Y-34647142D01*
X51189047Y-34170952D02*
X51284285Y-34123333D01*
X51331904Y-34075714D01*
X51379523Y-33980476D01*
X51379523Y-33932857D01*
X51331904Y-33837619D01*
X51284285Y-33790000D01*
X51189047Y-33742380D01*
X50998571Y-33742380D01*
X50903333Y-33790000D01*
X50855714Y-33837619D01*
X50808095Y-33932857D01*
X50808095Y-33980476D01*
X50855714Y-34075714D01*
X50903333Y-34123333D01*
X50998571Y-34170952D01*
X51189047Y-34170952D01*
X51284285Y-34218571D01*
X51331904Y-34266190D01*
X51379523Y-34361428D01*
X51379523Y-34551904D01*
X51331904Y-34647142D01*
X51284285Y-34694761D01*
X51189047Y-34742380D01*
X50998571Y-34742380D01*
X50903333Y-34694761D01*
X50855714Y-34647142D01*
X50808095Y-34551904D01*
X50808095Y-34361428D01*
X50855714Y-34266190D01*
X50903333Y-34218571D01*
X50998571Y-34170952D01*
X44711857Y-29821142D02*
X44759476Y-29868761D01*
X44902333Y-29916380D01*
X44997571Y-29916380D01*
X45140428Y-29868761D01*
X45235666Y-29773523D01*
X45283285Y-29678285D01*
X45330904Y-29487809D01*
X45330904Y-29344952D01*
X45283285Y-29154476D01*
X45235666Y-29059238D01*
X45140428Y-28964000D01*
X44997571Y-28916380D01*
X44902333Y-28916380D01*
X44759476Y-28964000D01*
X44711857Y-29011619D01*
X43854714Y-29249714D02*
X43854714Y-29916380D01*
X44092809Y-28868761D02*
X44330904Y-29583047D01*
X43711857Y-29583047D01*
X43140428Y-28916380D02*
X43045190Y-28916380D01*
X42949952Y-28964000D01*
X42902333Y-29011619D01*
X42854714Y-29106857D01*
X42807095Y-29297333D01*
X42807095Y-29535428D01*
X42854714Y-29725904D01*
X42902333Y-29821142D01*
X42949952Y-29868761D01*
X43045190Y-29916380D01*
X43140428Y-29916380D01*
X43235666Y-29868761D01*
X43283285Y-29821142D01*
X43330904Y-29725904D01*
X43378523Y-29535428D01*
X43378523Y-29297333D01*
X43330904Y-29106857D01*
X43283285Y-29011619D01*
X43235666Y-28964000D01*
X43140428Y-28916380D01*
X41155857Y-29821142D02*
X41203476Y-29868761D01*
X41346333Y-29916380D01*
X41441571Y-29916380D01*
X41584428Y-29868761D01*
X41679666Y-29773523D01*
X41727285Y-29678285D01*
X41774904Y-29487809D01*
X41774904Y-29344952D01*
X41727285Y-29154476D01*
X41679666Y-29059238D01*
X41584428Y-28964000D01*
X41441571Y-28916380D01*
X41346333Y-28916380D01*
X41203476Y-28964000D01*
X41155857Y-29011619D01*
X40298714Y-29249714D02*
X40298714Y-29916380D01*
X40536809Y-28868761D02*
X40774904Y-29583047D01*
X40155857Y-29583047D01*
X39251095Y-29916380D02*
X39822523Y-29916380D01*
X39536809Y-29916380D02*
X39536809Y-28916380D01*
X39632047Y-29059238D01*
X39727285Y-29154476D01*
X39822523Y-29202095D01*
X31440380Y-34631333D02*
X30964190Y-34298000D01*
X31440380Y-34059904D02*
X30440380Y-34059904D01*
X30440380Y-34440857D01*
X30488000Y-34536095D01*
X30535619Y-34583714D01*
X30630857Y-34631333D01*
X30773714Y-34631333D01*
X30868952Y-34583714D01*
X30916571Y-34536095D01*
X30964190Y-34440857D01*
X30964190Y-34059904D01*
X30773714Y-35488476D02*
X31440380Y-35488476D01*
X30392761Y-35250380D02*
X31107047Y-35012285D01*
X31107047Y-35631333D01*
X43822857Y-62902380D02*
X44156190Y-62426190D01*
X44394285Y-62902380D02*
X44394285Y-61902380D01*
X44013333Y-61902380D01*
X43918095Y-61950000D01*
X43870476Y-61997619D01*
X43822857Y-62092857D01*
X43822857Y-62235714D01*
X43870476Y-62330952D01*
X43918095Y-62378571D01*
X44013333Y-62426190D01*
X44394285Y-62426190D01*
X42870476Y-62902380D02*
X43441904Y-62902380D01*
X43156190Y-62902380D02*
X43156190Y-61902380D01*
X43251428Y-62045238D01*
X43346666Y-62140476D01*
X43441904Y-62188095D01*
X42251428Y-61902380D02*
X42156190Y-61902380D01*
X42060952Y-61950000D01*
X42013333Y-61997619D01*
X41965714Y-62092857D01*
X41918095Y-62283333D01*
X41918095Y-62521428D01*
X41965714Y-62711904D01*
X42013333Y-62807142D01*
X42060952Y-62854761D01*
X42156190Y-62902380D01*
X42251428Y-62902380D01*
X42346666Y-62854761D01*
X42394285Y-62807142D01*
X42441904Y-62711904D01*
X42489523Y-62521428D01*
X42489523Y-62283333D01*
X42441904Y-62092857D01*
X42394285Y-61997619D01*
X42346666Y-61950000D01*
X42251428Y-61902380D01*
X43060857Y-59346380D02*
X43394190Y-58870190D01*
X43632285Y-59346380D02*
X43632285Y-58346380D01*
X43251333Y-58346380D01*
X43156095Y-58394000D01*
X43108476Y-58441619D01*
X43060857Y-58536857D01*
X43060857Y-58679714D01*
X43108476Y-58774952D01*
X43156095Y-58822571D01*
X43251333Y-58870190D01*
X43632285Y-58870190D01*
X42108476Y-59346380D02*
X42679904Y-59346380D01*
X42394190Y-59346380D02*
X42394190Y-58346380D01*
X42489428Y-58489238D01*
X42584666Y-58584476D01*
X42679904Y-58632095D01*
X41156095Y-59346380D02*
X41727523Y-59346380D01*
X41441809Y-59346380D02*
X41441809Y-58346380D01*
X41537047Y-58489238D01*
X41632285Y-58584476D01*
X41727523Y-58632095D01*
X44140380Y-56126142D02*
X43664190Y-55792809D01*
X44140380Y-55554714D02*
X43140380Y-55554714D01*
X43140380Y-55935666D01*
X43188000Y-56030904D01*
X43235619Y-56078523D01*
X43330857Y-56126142D01*
X43473714Y-56126142D01*
X43568952Y-56078523D01*
X43616571Y-56030904D01*
X43664190Y-55935666D01*
X43664190Y-55554714D01*
X44140380Y-57078523D02*
X44140380Y-56507095D01*
X44140380Y-56792809D02*
X43140380Y-56792809D01*
X43283238Y-56697571D01*
X43378476Y-56602333D01*
X43426095Y-56507095D01*
X43140380Y-57983285D02*
X43140380Y-57507095D01*
X43616571Y-57459476D01*
X43568952Y-57507095D01*
X43521333Y-57602333D01*
X43521333Y-57840428D01*
X43568952Y-57935666D01*
X43616571Y-57983285D01*
X43711809Y-58030904D01*
X43949904Y-58030904D01*
X44045142Y-57983285D01*
X44092761Y-57935666D01*
X44140380Y-57840428D01*
X44140380Y-57602333D01*
X44092761Y-57507095D01*
X44045142Y-57459476D01*
X45410380Y-56253142D02*
X44934190Y-55919809D01*
X45410380Y-55681714D02*
X44410380Y-55681714D01*
X44410380Y-56062666D01*
X44458000Y-56157904D01*
X44505619Y-56205523D01*
X44600857Y-56253142D01*
X44743714Y-56253142D01*
X44838952Y-56205523D01*
X44886571Y-56157904D01*
X44934190Y-56062666D01*
X44934190Y-55681714D01*
X45410380Y-57205523D02*
X45410380Y-56634095D01*
X45410380Y-56919809D02*
X44410380Y-56919809D01*
X44553238Y-56824571D01*
X44648476Y-56729333D01*
X44696095Y-56634095D01*
X44410380Y-58062666D02*
X44410380Y-57872190D01*
X44458000Y-57776952D01*
X44505619Y-57729333D01*
X44648476Y-57634095D01*
X44838952Y-57586476D01*
X45219904Y-57586476D01*
X45315142Y-57634095D01*
X45362761Y-57681714D01*
X45410380Y-57776952D01*
X45410380Y-57967428D01*
X45362761Y-58062666D01*
X45315142Y-58110285D01*
X45219904Y-58157904D01*
X44981809Y-58157904D01*
X44886571Y-58110285D01*
X44838952Y-58062666D01*
X44791333Y-57967428D01*
X44791333Y-57776952D01*
X44838952Y-57681714D01*
X44886571Y-57634095D01*
X44981809Y-57586476D01*
X51950857Y-52268380D02*
X52284190Y-51792190D01*
X52522285Y-52268380D02*
X52522285Y-51268380D01*
X52141333Y-51268380D01*
X52046095Y-51316000D01*
X51998476Y-51363619D01*
X51950857Y-51458857D01*
X51950857Y-51601714D01*
X51998476Y-51696952D01*
X52046095Y-51744571D01*
X52141333Y-51792190D01*
X52522285Y-51792190D01*
X50998476Y-52268380D02*
X51569904Y-52268380D01*
X51284190Y-52268380D02*
X51284190Y-51268380D01*
X51379428Y-51411238D01*
X51474666Y-51506476D01*
X51569904Y-51554095D01*
X50427047Y-51696952D02*
X50522285Y-51649333D01*
X50569904Y-51601714D01*
X50617523Y-51506476D01*
X50617523Y-51458857D01*
X50569904Y-51363619D01*
X50522285Y-51316000D01*
X50427047Y-51268380D01*
X50236571Y-51268380D01*
X50141333Y-51316000D01*
X50093714Y-51363619D01*
X50046095Y-51458857D01*
X50046095Y-51506476D01*
X50093714Y-51601714D01*
X50141333Y-51649333D01*
X50236571Y-51696952D01*
X50427047Y-51696952D01*
X50522285Y-51744571D01*
X50569904Y-51792190D01*
X50617523Y-51887428D01*
X50617523Y-52077904D01*
X50569904Y-52173142D01*
X50522285Y-52220761D01*
X50427047Y-52268380D01*
X50236571Y-52268380D01*
X50141333Y-52220761D01*
X50093714Y-52173142D01*
X50046095Y-52077904D01*
X50046095Y-51887428D01*
X50093714Y-51792190D01*
X50141333Y-51744571D01*
X50236571Y-51696952D01*
X51950857Y-50871380D02*
X52284190Y-50395190D01*
X52522285Y-50871380D02*
X52522285Y-49871380D01*
X52141333Y-49871380D01*
X52046095Y-49919000D01*
X51998476Y-49966619D01*
X51950857Y-50061857D01*
X51950857Y-50204714D01*
X51998476Y-50299952D01*
X52046095Y-50347571D01*
X52141333Y-50395190D01*
X52522285Y-50395190D01*
X50998476Y-50871380D02*
X51569904Y-50871380D01*
X51284190Y-50871380D02*
X51284190Y-49871380D01*
X51379428Y-50014238D01*
X51474666Y-50109476D01*
X51569904Y-50157095D01*
X50522285Y-50871380D02*
X50331809Y-50871380D01*
X50236571Y-50823761D01*
X50188952Y-50776142D01*
X50093714Y-50633285D01*
X50046095Y-50442809D01*
X50046095Y-50061857D01*
X50093714Y-49966619D01*
X50141333Y-49919000D01*
X50236571Y-49871380D01*
X50427047Y-49871380D01*
X50522285Y-49919000D01*
X50569904Y-49966619D01*
X50617523Y-50061857D01*
X50617523Y-50299952D01*
X50569904Y-50395190D01*
X50522285Y-50442809D01*
X50427047Y-50490428D01*
X50236571Y-50490428D01*
X50141333Y-50442809D01*
X50093714Y-50395190D01*
X50046095Y-50299952D01*
X42870380Y-56253142D02*
X42394190Y-55919809D01*
X42870380Y-55681714D02*
X41870380Y-55681714D01*
X41870380Y-56062666D01*
X41918000Y-56157904D01*
X41965619Y-56205523D01*
X42060857Y-56253142D01*
X42203714Y-56253142D01*
X42298952Y-56205523D01*
X42346571Y-56157904D01*
X42394190Y-56062666D01*
X42394190Y-55681714D01*
X41965619Y-56634095D02*
X41918000Y-56681714D01*
X41870380Y-56776952D01*
X41870380Y-57015047D01*
X41918000Y-57110285D01*
X41965619Y-57157904D01*
X42060857Y-57205523D01*
X42156095Y-57205523D01*
X42298952Y-57157904D01*
X42870380Y-56586476D01*
X42870380Y-57205523D01*
X42870380Y-58157904D02*
X42870380Y-57586476D01*
X42870380Y-57872190D02*
X41870380Y-57872190D01*
X42013238Y-57776952D01*
X42108476Y-57681714D01*
X42156095Y-57586476D01*
X52712857Y-33345380D02*
X53046190Y-32869190D01*
X53284285Y-33345380D02*
X53284285Y-32345380D01*
X52903333Y-32345380D01*
X52808095Y-32393000D01*
X52760476Y-32440619D01*
X52712857Y-32535857D01*
X52712857Y-32678714D01*
X52760476Y-32773952D01*
X52808095Y-32821571D01*
X52903333Y-32869190D01*
X53284285Y-32869190D01*
X52331904Y-32440619D02*
X52284285Y-32393000D01*
X52189047Y-32345380D01*
X51950952Y-32345380D01*
X51855714Y-32393000D01*
X51808095Y-32440619D01*
X51760476Y-32535857D01*
X51760476Y-32631095D01*
X51808095Y-32773952D01*
X52379523Y-33345380D01*
X51760476Y-33345380D01*
X51284285Y-33345380D02*
X51093809Y-33345380D01*
X50998571Y-33297761D01*
X50950952Y-33250142D01*
X50855714Y-33107285D01*
X50808095Y-32916809D01*
X50808095Y-32535857D01*
X50855714Y-32440619D01*
X50903333Y-32393000D01*
X50998571Y-32345380D01*
X51189047Y-32345380D01*
X51284285Y-32393000D01*
X51331904Y-32440619D01*
X51379523Y-32535857D01*
X51379523Y-32773952D01*
X51331904Y-32869190D01*
X51284285Y-32916809D01*
X51189047Y-32964428D01*
X50998571Y-32964428D01*
X50903333Y-32916809D01*
X50855714Y-32869190D01*
X50808095Y-32773952D01*
X41282857Y-35792380D02*
X41616190Y-35316190D01*
X41854285Y-35792380D02*
X41854285Y-34792380D01*
X41473333Y-34792380D01*
X41378095Y-34840000D01*
X41330476Y-34887619D01*
X41282857Y-34982857D01*
X41282857Y-35125714D01*
X41330476Y-35220952D01*
X41378095Y-35268571D01*
X41473333Y-35316190D01*
X41854285Y-35316190D01*
X40949523Y-34792380D02*
X40330476Y-34792380D01*
X40663809Y-35173333D01*
X40520952Y-35173333D01*
X40425714Y-35220952D01*
X40378095Y-35268571D01*
X40330476Y-35363809D01*
X40330476Y-35601904D01*
X40378095Y-35697142D01*
X40425714Y-35744761D01*
X40520952Y-35792380D01*
X40806666Y-35792380D01*
X40901904Y-35744761D01*
X40949523Y-35697142D01*
X39711428Y-34792380D02*
X39616190Y-34792380D01*
X39520952Y-34840000D01*
X39473333Y-34887619D01*
X39425714Y-34982857D01*
X39378095Y-35173333D01*
X39378095Y-35411428D01*
X39425714Y-35601904D01*
X39473333Y-35697142D01*
X39520952Y-35744761D01*
X39616190Y-35792380D01*
X39711428Y-35792380D01*
X39806666Y-35744761D01*
X39854285Y-35697142D01*
X39901904Y-35601904D01*
X39949523Y-35411428D01*
X39949523Y-35173333D01*
X39901904Y-34982857D01*
X39854285Y-34887619D01*
X39806666Y-34840000D01*
X39711428Y-34792380D01*
X35250380Y-29075142D02*
X34774190Y-28741809D01*
X35250380Y-28503714D02*
X34250380Y-28503714D01*
X34250380Y-28884666D01*
X34298000Y-28979904D01*
X34345619Y-29027523D01*
X34440857Y-29075142D01*
X34583714Y-29075142D01*
X34678952Y-29027523D01*
X34726571Y-28979904D01*
X34774190Y-28884666D01*
X34774190Y-28503714D01*
X34250380Y-29408476D02*
X34250380Y-30027523D01*
X34631333Y-29694190D01*
X34631333Y-29837047D01*
X34678952Y-29932285D01*
X34726571Y-29979904D01*
X34821809Y-30027523D01*
X35059904Y-30027523D01*
X35155142Y-29979904D01*
X35202761Y-29932285D01*
X35250380Y-29837047D01*
X35250380Y-29551333D01*
X35202761Y-29456095D01*
X35155142Y-29408476D01*
X35250380Y-30979904D02*
X35250380Y-30408476D01*
X35250380Y-30694190D02*
X34250380Y-30694190D01*
X34393238Y-30598952D01*
X34488476Y-30503714D01*
X34536095Y-30408476D01*
X32900857Y-30805380D02*
X33234190Y-30329190D01*
X33472285Y-30805380D02*
X33472285Y-29805380D01*
X33091333Y-29805380D01*
X32996095Y-29853000D01*
X32948476Y-29900619D01*
X32900857Y-29995857D01*
X32900857Y-30138714D01*
X32948476Y-30233952D01*
X32996095Y-30281571D01*
X33091333Y-30329190D01*
X33472285Y-30329190D01*
X32567523Y-29805380D02*
X31948476Y-29805380D01*
X32281809Y-30186333D01*
X32138952Y-30186333D01*
X32043714Y-30233952D01*
X31996095Y-30281571D01*
X31948476Y-30376809D01*
X31948476Y-30614904D01*
X31996095Y-30710142D01*
X32043714Y-30757761D01*
X32138952Y-30805380D01*
X32424666Y-30805380D01*
X32519904Y-30757761D01*
X32567523Y-30710142D01*
X31567523Y-29900619D02*
X31519904Y-29853000D01*
X31424666Y-29805380D01*
X31186571Y-29805380D01*
X31091333Y-29853000D01*
X31043714Y-29900619D01*
X30996095Y-29995857D01*
X30996095Y-30091095D01*
X31043714Y-30233952D01*
X31615142Y-30805380D01*
X30996095Y-30805380D01*
X46752380Y-43688095D02*
X47561904Y-43688095D01*
X47657142Y-43735714D01*
X47704761Y-43783333D01*
X47752380Y-43878571D01*
X47752380Y-44069047D01*
X47704761Y-44164285D01*
X47657142Y-44211904D01*
X47561904Y-44259523D01*
X46752380Y-44259523D01*
X47752380Y-45259523D02*
X47752380Y-44688095D01*
X47752380Y-44973809D02*
X46752380Y-44973809D01*
X46895238Y-44878571D01*
X46990476Y-44783333D01*
X47038095Y-44688095D01*
X35070990Y-35242990D02*
X35070990Y-35719180D01*
X35404323Y-34719180D02*
X35070990Y-35242990D01*
X34737657Y-34719180D01*
X33880514Y-35719180D02*
X34451942Y-35719180D01*
X34166228Y-35719180D02*
X34166228Y-34719180D01*
X34261466Y-34862038D01*
X34356704Y-34957276D01*
X34451942Y-35004895D01*
X42386190Y-32488190D02*
X42386190Y-32964380D01*
X42719523Y-31964380D02*
X42386190Y-32488190D01*
X42052857Y-31964380D01*
X41767142Y-32059619D02*
X41719523Y-32012000D01*
X41624285Y-31964380D01*
X41386190Y-31964380D01*
X41290952Y-32012000D01*
X41243333Y-32059619D01*
X41195714Y-32154857D01*
X41195714Y-32250095D01*
X41243333Y-32392952D01*
X41814761Y-32964380D01*
X41195714Y-32964380D01*
M02*
