G04 #@! TF.GenerationSoftware,KiCad,Pcbnew,(5.1.4)-1*
G04 #@! TF.CreationDate,2019-11-17T15:41:10+01:00*
G04 #@! TF.ProjectId,V3S_ESP32_Feather,5633535f-4553-4503-9332-5f4665617468,rev?*
G04 #@! TF.SameCoordinates,Original*
G04 #@! TF.FileFunction,Paste,Top*
G04 #@! TF.FilePolarity,Positive*
%FSLAX46Y46*%
G04 Gerber Fmt 4.6, Leading zero omitted, Abs format (unit mm)*
G04 Created by KiCad (PCBNEW (5.1.4)-1) date 2019-11-17 15:41:10*
%MOMM*%
%LPD*%
G04 APERTURE LIST*
%ADD10C,0.100000*%
%ADD11C,0.318000*%
%ADD12C,0.590000*%
%ADD13R,0.250000X0.350000*%
%ADD14R,0.350000X0.250000*%
%ADD15R,1.540000X1.700000*%
%ADD16C,1.200000*%
%ADD17C,0.600000*%
%ADD18C,0.875000*%
%ADD19R,0.500000X0.350000*%
%ADD20R,1.000000X1.550000*%
%ADD21R,1.500000X1.500000*%
%ADD22R,0.700000X1.750000*%
%ADD23R,0.800000X1.400000*%
%ADD24R,1.450000X1.000000*%
%ADD25R,0.800000X1.500000*%
%ADD26R,1.300000X1.500000*%
%ADD27R,1.050000X1.100000*%
%ADD28R,1.100000X2.250000*%
%ADD29R,0.350000X0.450000*%
%ADD30R,0.450000X0.350000*%
%ADD31R,5.400000X5.400000*%
G04 APERTURE END LIST*
D10*
G36*
X39643000Y-32399000D02*
G01*
X39643000Y-34309000D01*
X37733000Y-34309000D01*
X37733000Y-32399000D01*
X39643000Y-32399000D01*
G37*
G36*
X37733000Y-29699000D02*
G01*
X39643000Y-29699000D01*
X39643000Y-31609000D01*
X37733000Y-31609000D01*
X37733000Y-29699000D01*
G37*
G36*
X35033000Y-31609000D02*
G01*
X35033000Y-29699000D01*
X36943000Y-29699000D01*
X36943000Y-31609000D01*
X35033000Y-31609000D01*
G37*
G36*
X36943000Y-34309000D02*
G01*
X35033000Y-34309000D01*
X35033000Y-32399000D01*
X36943000Y-32399000D01*
X36943000Y-34309000D01*
G37*
G36*
X52051292Y-56138383D02*
G01*
X52059010Y-56139528D01*
X52066578Y-56141423D01*
X52073923Y-56144052D01*
X52080976Y-56147387D01*
X52087668Y-56151398D01*
X52093934Y-56156046D01*
X52099715Y-56161285D01*
X52104954Y-56167066D01*
X52109602Y-56173332D01*
X52113613Y-56180024D01*
X52116948Y-56187077D01*
X52119577Y-56194422D01*
X52121472Y-56201990D01*
X52122617Y-56209708D01*
X52123000Y-56217500D01*
X52123000Y-56376500D01*
X52122617Y-56384292D01*
X52121472Y-56392010D01*
X52119577Y-56399578D01*
X52116948Y-56406923D01*
X52113613Y-56413976D01*
X52109602Y-56420668D01*
X52104954Y-56426934D01*
X52099715Y-56432715D01*
X52093934Y-56437954D01*
X52087668Y-56442602D01*
X52080976Y-56446613D01*
X52073923Y-56449948D01*
X52066578Y-56452577D01*
X52059010Y-56454472D01*
X52051292Y-56455617D01*
X52043500Y-56456000D01*
X51842500Y-56456000D01*
X51834708Y-56455617D01*
X51826990Y-56454472D01*
X51819422Y-56452577D01*
X51812077Y-56449948D01*
X51805024Y-56446613D01*
X51798332Y-56442602D01*
X51792066Y-56437954D01*
X51786285Y-56432715D01*
X51781046Y-56426934D01*
X51776398Y-56420668D01*
X51772387Y-56413976D01*
X51769052Y-56406923D01*
X51766423Y-56399578D01*
X51764528Y-56392010D01*
X51763383Y-56384292D01*
X51763000Y-56376500D01*
X51763000Y-56217500D01*
X51763383Y-56209708D01*
X51764528Y-56201990D01*
X51766423Y-56194422D01*
X51769052Y-56187077D01*
X51772387Y-56180024D01*
X51776398Y-56173332D01*
X51781046Y-56167066D01*
X51786285Y-56161285D01*
X51792066Y-56156046D01*
X51798332Y-56151398D01*
X51805024Y-56147387D01*
X51812077Y-56144052D01*
X51819422Y-56141423D01*
X51826990Y-56139528D01*
X51834708Y-56138383D01*
X51842500Y-56138000D01*
X52043500Y-56138000D01*
X52051292Y-56138383D01*
X52051292Y-56138383D01*
G37*
D11*
X51943000Y-56297000D03*
D10*
G36*
X52051292Y-56828383D02*
G01*
X52059010Y-56829528D01*
X52066578Y-56831423D01*
X52073923Y-56834052D01*
X52080976Y-56837387D01*
X52087668Y-56841398D01*
X52093934Y-56846046D01*
X52099715Y-56851285D01*
X52104954Y-56857066D01*
X52109602Y-56863332D01*
X52113613Y-56870024D01*
X52116948Y-56877077D01*
X52119577Y-56884422D01*
X52121472Y-56891990D01*
X52122617Y-56899708D01*
X52123000Y-56907500D01*
X52123000Y-57066500D01*
X52122617Y-57074292D01*
X52121472Y-57082010D01*
X52119577Y-57089578D01*
X52116948Y-57096923D01*
X52113613Y-57103976D01*
X52109602Y-57110668D01*
X52104954Y-57116934D01*
X52099715Y-57122715D01*
X52093934Y-57127954D01*
X52087668Y-57132602D01*
X52080976Y-57136613D01*
X52073923Y-57139948D01*
X52066578Y-57142577D01*
X52059010Y-57144472D01*
X52051292Y-57145617D01*
X52043500Y-57146000D01*
X51842500Y-57146000D01*
X51834708Y-57145617D01*
X51826990Y-57144472D01*
X51819422Y-57142577D01*
X51812077Y-57139948D01*
X51805024Y-57136613D01*
X51798332Y-57132602D01*
X51792066Y-57127954D01*
X51786285Y-57122715D01*
X51781046Y-57116934D01*
X51776398Y-57110668D01*
X51772387Y-57103976D01*
X51769052Y-57096923D01*
X51766423Y-57089578D01*
X51764528Y-57082010D01*
X51763383Y-57074292D01*
X51763000Y-57066500D01*
X51763000Y-56907500D01*
X51763383Y-56899708D01*
X51764528Y-56891990D01*
X51766423Y-56884422D01*
X51769052Y-56877077D01*
X51772387Y-56870024D01*
X51776398Y-56863332D01*
X51781046Y-56857066D01*
X51786285Y-56851285D01*
X51792066Y-56846046D01*
X51798332Y-56841398D01*
X51805024Y-56837387D01*
X51812077Y-56834052D01*
X51819422Y-56831423D01*
X51826990Y-56829528D01*
X51834708Y-56828383D01*
X51842500Y-56828000D01*
X52043500Y-56828000D01*
X52051292Y-56828383D01*
X52051292Y-56828383D01*
G37*
D11*
X51943000Y-56987000D03*
D10*
G36*
X38278292Y-26617383D02*
G01*
X38286010Y-26618528D01*
X38293578Y-26620423D01*
X38300923Y-26623052D01*
X38307976Y-26626387D01*
X38314668Y-26630398D01*
X38320934Y-26635046D01*
X38326715Y-26640285D01*
X38331954Y-26646066D01*
X38336602Y-26652332D01*
X38340613Y-26659024D01*
X38343948Y-26666077D01*
X38346577Y-26673422D01*
X38348472Y-26680990D01*
X38349617Y-26688708D01*
X38350000Y-26696500D01*
X38350000Y-26897500D01*
X38349617Y-26905292D01*
X38348472Y-26913010D01*
X38346577Y-26920578D01*
X38343948Y-26927923D01*
X38340613Y-26934976D01*
X38336602Y-26941668D01*
X38331954Y-26947934D01*
X38326715Y-26953715D01*
X38320934Y-26958954D01*
X38314668Y-26963602D01*
X38307976Y-26967613D01*
X38300923Y-26970948D01*
X38293578Y-26973577D01*
X38286010Y-26975472D01*
X38278292Y-26976617D01*
X38270500Y-26977000D01*
X38111500Y-26977000D01*
X38103708Y-26976617D01*
X38095990Y-26975472D01*
X38088422Y-26973577D01*
X38081077Y-26970948D01*
X38074024Y-26967613D01*
X38067332Y-26963602D01*
X38061066Y-26958954D01*
X38055285Y-26953715D01*
X38050046Y-26947934D01*
X38045398Y-26941668D01*
X38041387Y-26934976D01*
X38038052Y-26927923D01*
X38035423Y-26920578D01*
X38033528Y-26913010D01*
X38032383Y-26905292D01*
X38032000Y-26897500D01*
X38032000Y-26696500D01*
X38032383Y-26688708D01*
X38033528Y-26680990D01*
X38035423Y-26673422D01*
X38038052Y-26666077D01*
X38041387Y-26659024D01*
X38045398Y-26652332D01*
X38050046Y-26646066D01*
X38055285Y-26640285D01*
X38061066Y-26635046D01*
X38067332Y-26630398D01*
X38074024Y-26626387D01*
X38081077Y-26623052D01*
X38088422Y-26620423D01*
X38095990Y-26618528D01*
X38103708Y-26617383D01*
X38111500Y-26617000D01*
X38270500Y-26617000D01*
X38278292Y-26617383D01*
X38278292Y-26617383D01*
G37*
D11*
X38191000Y-26797000D03*
D10*
G36*
X37588292Y-26617383D02*
G01*
X37596010Y-26618528D01*
X37603578Y-26620423D01*
X37610923Y-26623052D01*
X37617976Y-26626387D01*
X37624668Y-26630398D01*
X37630934Y-26635046D01*
X37636715Y-26640285D01*
X37641954Y-26646066D01*
X37646602Y-26652332D01*
X37650613Y-26659024D01*
X37653948Y-26666077D01*
X37656577Y-26673422D01*
X37658472Y-26680990D01*
X37659617Y-26688708D01*
X37660000Y-26696500D01*
X37660000Y-26897500D01*
X37659617Y-26905292D01*
X37658472Y-26913010D01*
X37656577Y-26920578D01*
X37653948Y-26927923D01*
X37650613Y-26934976D01*
X37646602Y-26941668D01*
X37641954Y-26947934D01*
X37636715Y-26953715D01*
X37630934Y-26958954D01*
X37624668Y-26963602D01*
X37617976Y-26967613D01*
X37610923Y-26970948D01*
X37603578Y-26973577D01*
X37596010Y-26975472D01*
X37588292Y-26976617D01*
X37580500Y-26977000D01*
X37421500Y-26977000D01*
X37413708Y-26976617D01*
X37405990Y-26975472D01*
X37398422Y-26973577D01*
X37391077Y-26970948D01*
X37384024Y-26967613D01*
X37377332Y-26963602D01*
X37371066Y-26958954D01*
X37365285Y-26953715D01*
X37360046Y-26947934D01*
X37355398Y-26941668D01*
X37351387Y-26934976D01*
X37348052Y-26927923D01*
X37345423Y-26920578D01*
X37343528Y-26913010D01*
X37342383Y-26905292D01*
X37342000Y-26897500D01*
X37342000Y-26696500D01*
X37342383Y-26688708D01*
X37343528Y-26680990D01*
X37345423Y-26673422D01*
X37348052Y-26666077D01*
X37351387Y-26659024D01*
X37355398Y-26652332D01*
X37360046Y-26646066D01*
X37365285Y-26640285D01*
X37371066Y-26635046D01*
X37377332Y-26630398D01*
X37384024Y-26626387D01*
X37391077Y-26623052D01*
X37398422Y-26620423D01*
X37405990Y-26618528D01*
X37413708Y-26617383D01*
X37421500Y-26617000D01*
X37580500Y-26617000D01*
X37588292Y-26617383D01*
X37588292Y-26617383D01*
G37*
D11*
X37501000Y-26797000D03*
D10*
G36*
X34849292Y-51001383D02*
G01*
X34857010Y-51002528D01*
X34864578Y-51004423D01*
X34871923Y-51007052D01*
X34878976Y-51010387D01*
X34885668Y-51014398D01*
X34891934Y-51019046D01*
X34897715Y-51024285D01*
X34902954Y-51030066D01*
X34907602Y-51036332D01*
X34911613Y-51043024D01*
X34914948Y-51050077D01*
X34917577Y-51057422D01*
X34919472Y-51064990D01*
X34920617Y-51072708D01*
X34921000Y-51080500D01*
X34921000Y-51281500D01*
X34920617Y-51289292D01*
X34919472Y-51297010D01*
X34917577Y-51304578D01*
X34914948Y-51311923D01*
X34911613Y-51318976D01*
X34907602Y-51325668D01*
X34902954Y-51331934D01*
X34897715Y-51337715D01*
X34891934Y-51342954D01*
X34885668Y-51347602D01*
X34878976Y-51351613D01*
X34871923Y-51354948D01*
X34864578Y-51357577D01*
X34857010Y-51359472D01*
X34849292Y-51360617D01*
X34841500Y-51361000D01*
X34682500Y-51361000D01*
X34674708Y-51360617D01*
X34666990Y-51359472D01*
X34659422Y-51357577D01*
X34652077Y-51354948D01*
X34645024Y-51351613D01*
X34638332Y-51347602D01*
X34632066Y-51342954D01*
X34626285Y-51337715D01*
X34621046Y-51331934D01*
X34616398Y-51325668D01*
X34612387Y-51318976D01*
X34609052Y-51311923D01*
X34606423Y-51304578D01*
X34604528Y-51297010D01*
X34603383Y-51289292D01*
X34603000Y-51281500D01*
X34603000Y-51080500D01*
X34603383Y-51072708D01*
X34604528Y-51064990D01*
X34606423Y-51057422D01*
X34609052Y-51050077D01*
X34612387Y-51043024D01*
X34616398Y-51036332D01*
X34621046Y-51030066D01*
X34626285Y-51024285D01*
X34632066Y-51019046D01*
X34638332Y-51014398D01*
X34645024Y-51010387D01*
X34652077Y-51007052D01*
X34659422Y-51004423D01*
X34666990Y-51002528D01*
X34674708Y-51001383D01*
X34682500Y-51001000D01*
X34841500Y-51001000D01*
X34849292Y-51001383D01*
X34849292Y-51001383D01*
G37*
D11*
X34762000Y-51181000D03*
D10*
G36*
X34159292Y-51001383D02*
G01*
X34167010Y-51002528D01*
X34174578Y-51004423D01*
X34181923Y-51007052D01*
X34188976Y-51010387D01*
X34195668Y-51014398D01*
X34201934Y-51019046D01*
X34207715Y-51024285D01*
X34212954Y-51030066D01*
X34217602Y-51036332D01*
X34221613Y-51043024D01*
X34224948Y-51050077D01*
X34227577Y-51057422D01*
X34229472Y-51064990D01*
X34230617Y-51072708D01*
X34231000Y-51080500D01*
X34231000Y-51281500D01*
X34230617Y-51289292D01*
X34229472Y-51297010D01*
X34227577Y-51304578D01*
X34224948Y-51311923D01*
X34221613Y-51318976D01*
X34217602Y-51325668D01*
X34212954Y-51331934D01*
X34207715Y-51337715D01*
X34201934Y-51342954D01*
X34195668Y-51347602D01*
X34188976Y-51351613D01*
X34181923Y-51354948D01*
X34174578Y-51357577D01*
X34167010Y-51359472D01*
X34159292Y-51360617D01*
X34151500Y-51361000D01*
X33992500Y-51361000D01*
X33984708Y-51360617D01*
X33976990Y-51359472D01*
X33969422Y-51357577D01*
X33962077Y-51354948D01*
X33955024Y-51351613D01*
X33948332Y-51347602D01*
X33942066Y-51342954D01*
X33936285Y-51337715D01*
X33931046Y-51331934D01*
X33926398Y-51325668D01*
X33922387Y-51318976D01*
X33919052Y-51311923D01*
X33916423Y-51304578D01*
X33914528Y-51297010D01*
X33913383Y-51289292D01*
X33913000Y-51281500D01*
X33913000Y-51080500D01*
X33913383Y-51072708D01*
X33914528Y-51064990D01*
X33916423Y-51057422D01*
X33919052Y-51050077D01*
X33922387Y-51043024D01*
X33926398Y-51036332D01*
X33931046Y-51030066D01*
X33936285Y-51024285D01*
X33942066Y-51019046D01*
X33948332Y-51014398D01*
X33955024Y-51010387D01*
X33962077Y-51007052D01*
X33969422Y-51004423D01*
X33976990Y-51002528D01*
X33984708Y-51001383D01*
X33992500Y-51001000D01*
X34151500Y-51001000D01*
X34159292Y-51001383D01*
X34159292Y-51001383D01*
G37*
D11*
X34072000Y-51181000D03*
D10*
G36*
X27682292Y-37793383D02*
G01*
X27690010Y-37794528D01*
X27697578Y-37796423D01*
X27704923Y-37799052D01*
X27711976Y-37802387D01*
X27718668Y-37806398D01*
X27724934Y-37811046D01*
X27730715Y-37816285D01*
X27735954Y-37822066D01*
X27740602Y-37828332D01*
X27744613Y-37835024D01*
X27747948Y-37842077D01*
X27750577Y-37849422D01*
X27752472Y-37856990D01*
X27753617Y-37864708D01*
X27754000Y-37872500D01*
X27754000Y-38073500D01*
X27753617Y-38081292D01*
X27752472Y-38089010D01*
X27750577Y-38096578D01*
X27747948Y-38103923D01*
X27744613Y-38110976D01*
X27740602Y-38117668D01*
X27735954Y-38123934D01*
X27730715Y-38129715D01*
X27724934Y-38134954D01*
X27718668Y-38139602D01*
X27711976Y-38143613D01*
X27704923Y-38146948D01*
X27697578Y-38149577D01*
X27690010Y-38151472D01*
X27682292Y-38152617D01*
X27674500Y-38153000D01*
X27515500Y-38153000D01*
X27507708Y-38152617D01*
X27499990Y-38151472D01*
X27492422Y-38149577D01*
X27485077Y-38146948D01*
X27478024Y-38143613D01*
X27471332Y-38139602D01*
X27465066Y-38134954D01*
X27459285Y-38129715D01*
X27454046Y-38123934D01*
X27449398Y-38117668D01*
X27445387Y-38110976D01*
X27442052Y-38103923D01*
X27439423Y-38096578D01*
X27437528Y-38089010D01*
X27436383Y-38081292D01*
X27436000Y-38073500D01*
X27436000Y-37872500D01*
X27436383Y-37864708D01*
X27437528Y-37856990D01*
X27439423Y-37849422D01*
X27442052Y-37842077D01*
X27445387Y-37835024D01*
X27449398Y-37828332D01*
X27454046Y-37822066D01*
X27459285Y-37816285D01*
X27465066Y-37811046D01*
X27471332Y-37806398D01*
X27478024Y-37802387D01*
X27485077Y-37799052D01*
X27492422Y-37796423D01*
X27499990Y-37794528D01*
X27507708Y-37793383D01*
X27515500Y-37793000D01*
X27674500Y-37793000D01*
X27682292Y-37793383D01*
X27682292Y-37793383D01*
G37*
D11*
X27595000Y-37973000D03*
D10*
G36*
X28372292Y-37793383D02*
G01*
X28380010Y-37794528D01*
X28387578Y-37796423D01*
X28394923Y-37799052D01*
X28401976Y-37802387D01*
X28408668Y-37806398D01*
X28414934Y-37811046D01*
X28420715Y-37816285D01*
X28425954Y-37822066D01*
X28430602Y-37828332D01*
X28434613Y-37835024D01*
X28437948Y-37842077D01*
X28440577Y-37849422D01*
X28442472Y-37856990D01*
X28443617Y-37864708D01*
X28444000Y-37872500D01*
X28444000Y-38073500D01*
X28443617Y-38081292D01*
X28442472Y-38089010D01*
X28440577Y-38096578D01*
X28437948Y-38103923D01*
X28434613Y-38110976D01*
X28430602Y-38117668D01*
X28425954Y-38123934D01*
X28420715Y-38129715D01*
X28414934Y-38134954D01*
X28408668Y-38139602D01*
X28401976Y-38143613D01*
X28394923Y-38146948D01*
X28387578Y-38149577D01*
X28380010Y-38151472D01*
X28372292Y-38152617D01*
X28364500Y-38153000D01*
X28205500Y-38153000D01*
X28197708Y-38152617D01*
X28189990Y-38151472D01*
X28182422Y-38149577D01*
X28175077Y-38146948D01*
X28168024Y-38143613D01*
X28161332Y-38139602D01*
X28155066Y-38134954D01*
X28149285Y-38129715D01*
X28144046Y-38123934D01*
X28139398Y-38117668D01*
X28135387Y-38110976D01*
X28132052Y-38103923D01*
X28129423Y-38096578D01*
X28127528Y-38089010D01*
X28126383Y-38081292D01*
X28126000Y-38073500D01*
X28126000Y-37872500D01*
X28126383Y-37864708D01*
X28127528Y-37856990D01*
X28129423Y-37849422D01*
X28132052Y-37842077D01*
X28135387Y-37835024D01*
X28139398Y-37828332D01*
X28144046Y-37822066D01*
X28149285Y-37816285D01*
X28155066Y-37811046D01*
X28161332Y-37806398D01*
X28168024Y-37802387D01*
X28175077Y-37799052D01*
X28182422Y-37796423D01*
X28189990Y-37794528D01*
X28197708Y-37793383D01*
X28205500Y-37793000D01*
X28364500Y-37793000D01*
X28372292Y-37793383D01*
X28372292Y-37793383D01*
G37*
D11*
X28285000Y-37973000D03*
D10*
G36*
X31238292Y-43000383D02*
G01*
X31246010Y-43001528D01*
X31253578Y-43003423D01*
X31260923Y-43006052D01*
X31267976Y-43009387D01*
X31274668Y-43013398D01*
X31280934Y-43018046D01*
X31286715Y-43023285D01*
X31291954Y-43029066D01*
X31296602Y-43035332D01*
X31300613Y-43042024D01*
X31303948Y-43049077D01*
X31306577Y-43056422D01*
X31308472Y-43063990D01*
X31309617Y-43071708D01*
X31310000Y-43079500D01*
X31310000Y-43280500D01*
X31309617Y-43288292D01*
X31308472Y-43296010D01*
X31306577Y-43303578D01*
X31303948Y-43310923D01*
X31300613Y-43317976D01*
X31296602Y-43324668D01*
X31291954Y-43330934D01*
X31286715Y-43336715D01*
X31280934Y-43341954D01*
X31274668Y-43346602D01*
X31267976Y-43350613D01*
X31260923Y-43353948D01*
X31253578Y-43356577D01*
X31246010Y-43358472D01*
X31238292Y-43359617D01*
X31230500Y-43360000D01*
X31071500Y-43360000D01*
X31063708Y-43359617D01*
X31055990Y-43358472D01*
X31048422Y-43356577D01*
X31041077Y-43353948D01*
X31034024Y-43350613D01*
X31027332Y-43346602D01*
X31021066Y-43341954D01*
X31015285Y-43336715D01*
X31010046Y-43330934D01*
X31005398Y-43324668D01*
X31001387Y-43317976D01*
X30998052Y-43310923D01*
X30995423Y-43303578D01*
X30993528Y-43296010D01*
X30992383Y-43288292D01*
X30992000Y-43280500D01*
X30992000Y-43079500D01*
X30992383Y-43071708D01*
X30993528Y-43063990D01*
X30995423Y-43056422D01*
X30998052Y-43049077D01*
X31001387Y-43042024D01*
X31005398Y-43035332D01*
X31010046Y-43029066D01*
X31015285Y-43023285D01*
X31021066Y-43018046D01*
X31027332Y-43013398D01*
X31034024Y-43009387D01*
X31041077Y-43006052D01*
X31048422Y-43003423D01*
X31055990Y-43001528D01*
X31063708Y-43000383D01*
X31071500Y-43000000D01*
X31230500Y-43000000D01*
X31238292Y-43000383D01*
X31238292Y-43000383D01*
G37*
D11*
X31151000Y-43180000D03*
D10*
G36*
X31928292Y-43000383D02*
G01*
X31936010Y-43001528D01*
X31943578Y-43003423D01*
X31950923Y-43006052D01*
X31957976Y-43009387D01*
X31964668Y-43013398D01*
X31970934Y-43018046D01*
X31976715Y-43023285D01*
X31981954Y-43029066D01*
X31986602Y-43035332D01*
X31990613Y-43042024D01*
X31993948Y-43049077D01*
X31996577Y-43056422D01*
X31998472Y-43063990D01*
X31999617Y-43071708D01*
X32000000Y-43079500D01*
X32000000Y-43280500D01*
X31999617Y-43288292D01*
X31998472Y-43296010D01*
X31996577Y-43303578D01*
X31993948Y-43310923D01*
X31990613Y-43317976D01*
X31986602Y-43324668D01*
X31981954Y-43330934D01*
X31976715Y-43336715D01*
X31970934Y-43341954D01*
X31964668Y-43346602D01*
X31957976Y-43350613D01*
X31950923Y-43353948D01*
X31943578Y-43356577D01*
X31936010Y-43358472D01*
X31928292Y-43359617D01*
X31920500Y-43360000D01*
X31761500Y-43360000D01*
X31753708Y-43359617D01*
X31745990Y-43358472D01*
X31738422Y-43356577D01*
X31731077Y-43353948D01*
X31724024Y-43350613D01*
X31717332Y-43346602D01*
X31711066Y-43341954D01*
X31705285Y-43336715D01*
X31700046Y-43330934D01*
X31695398Y-43324668D01*
X31691387Y-43317976D01*
X31688052Y-43310923D01*
X31685423Y-43303578D01*
X31683528Y-43296010D01*
X31682383Y-43288292D01*
X31682000Y-43280500D01*
X31682000Y-43079500D01*
X31682383Y-43071708D01*
X31683528Y-43063990D01*
X31685423Y-43056422D01*
X31688052Y-43049077D01*
X31691387Y-43042024D01*
X31695398Y-43035332D01*
X31700046Y-43029066D01*
X31705285Y-43023285D01*
X31711066Y-43018046D01*
X31717332Y-43013398D01*
X31724024Y-43009387D01*
X31731077Y-43006052D01*
X31738422Y-43003423D01*
X31745990Y-43001528D01*
X31753708Y-43000383D01*
X31761500Y-43000000D01*
X31920500Y-43000000D01*
X31928292Y-43000383D01*
X31928292Y-43000383D01*
G37*
D11*
X31841000Y-43180000D03*
D10*
G36*
X36889958Y-37020710D02*
G01*
X36904276Y-37022834D01*
X36918317Y-37026351D01*
X36931946Y-37031228D01*
X36945031Y-37037417D01*
X36957447Y-37044858D01*
X36969073Y-37053481D01*
X36979798Y-37063202D01*
X36989519Y-37073927D01*
X36998142Y-37085553D01*
X37005583Y-37097969D01*
X37011772Y-37111054D01*
X37016649Y-37124683D01*
X37020166Y-37138724D01*
X37022290Y-37153042D01*
X37023000Y-37167500D01*
X37023000Y-37462500D01*
X37022290Y-37476958D01*
X37020166Y-37491276D01*
X37016649Y-37505317D01*
X37011772Y-37518946D01*
X37005583Y-37532031D01*
X36998142Y-37544447D01*
X36989519Y-37556073D01*
X36979798Y-37566798D01*
X36969073Y-37576519D01*
X36957447Y-37585142D01*
X36945031Y-37592583D01*
X36931946Y-37598772D01*
X36918317Y-37603649D01*
X36904276Y-37607166D01*
X36889958Y-37609290D01*
X36875500Y-37610000D01*
X36530500Y-37610000D01*
X36516042Y-37609290D01*
X36501724Y-37607166D01*
X36487683Y-37603649D01*
X36474054Y-37598772D01*
X36460969Y-37592583D01*
X36448553Y-37585142D01*
X36436927Y-37576519D01*
X36426202Y-37566798D01*
X36416481Y-37556073D01*
X36407858Y-37544447D01*
X36400417Y-37532031D01*
X36394228Y-37518946D01*
X36389351Y-37505317D01*
X36385834Y-37491276D01*
X36383710Y-37476958D01*
X36383000Y-37462500D01*
X36383000Y-37167500D01*
X36383710Y-37153042D01*
X36385834Y-37138724D01*
X36389351Y-37124683D01*
X36394228Y-37111054D01*
X36400417Y-37097969D01*
X36407858Y-37085553D01*
X36416481Y-37073927D01*
X36426202Y-37063202D01*
X36436927Y-37053481D01*
X36448553Y-37044858D01*
X36460969Y-37037417D01*
X36474054Y-37031228D01*
X36487683Y-37026351D01*
X36501724Y-37022834D01*
X36516042Y-37020710D01*
X36530500Y-37020000D01*
X36875500Y-37020000D01*
X36889958Y-37020710D01*
X36889958Y-37020710D01*
G37*
D12*
X36703000Y-37315000D03*
D10*
G36*
X36889958Y-36050710D02*
G01*
X36904276Y-36052834D01*
X36918317Y-36056351D01*
X36931946Y-36061228D01*
X36945031Y-36067417D01*
X36957447Y-36074858D01*
X36969073Y-36083481D01*
X36979798Y-36093202D01*
X36989519Y-36103927D01*
X36998142Y-36115553D01*
X37005583Y-36127969D01*
X37011772Y-36141054D01*
X37016649Y-36154683D01*
X37020166Y-36168724D01*
X37022290Y-36183042D01*
X37023000Y-36197500D01*
X37023000Y-36492500D01*
X37022290Y-36506958D01*
X37020166Y-36521276D01*
X37016649Y-36535317D01*
X37011772Y-36548946D01*
X37005583Y-36562031D01*
X36998142Y-36574447D01*
X36989519Y-36586073D01*
X36979798Y-36596798D01*
X36969073Y-36606519D01*
X36957447Y-36615142D01*
X36945031Y-36622583D01*
X36931946Y-36628772D01*
X36918317Y-36633649D01*
X36904276Y-36637166D01*
X36889958Y-36639290D01*
X36875500Y-36640000D01*
X36530500Y-36640000D01*
X36516042Y-36639290D01*
X36501724Y-36637166D01*
X36487683Y-36633649D01*
X36474054Y-36628772D01*
X36460969Y-36622583D01*
X36448553Y-36615142D01*
X36436927Y-36606519D01*
X36426202Y-36596798D01*
X36416481Y-36586073D01*
X36407858Y-36574447D01*
X36400417Y-36562031D01*
X36394228Y-36548946D01*
X36389351Y-36535317D01*
X36385834Y-36521276D01*
X36383710Y-36506958D01*
X36383000Y-36492500D01*
X36383000Y-36197500D01*
X36383710Y-36183042D01*
X36385834Y-36168724D01*
X36389351Y-36154683D01*
X36394228Y-36141054D01*
X36400417Y-36127969D01*
X36407858Y-36115553D01*
X36416481Y-36103927D01*
X36426202Y-36093202D01*
X36436927Y-36083481D01*
X36448553Y-36074858D01*
X36460969Y-36067417D01*
X36474054Y-36061228D01*
X36487683Y-36056351D01*
X36501724Y-36052834D01*
X36516042Y-36050710D01*
X36530500Y-36050000D01*
X36875500Y-36050000D01*
X36889958Y-36050710D01*
X36889958Y-36050710D01*
G37*
D12*
X36703000Y-36345000D03*
D10*
G36*
X50796292Y-61796383D02*
G01*
X50804010Y-61797528D01*
X50811578Y-61799423D01*
X50818923Y-61802052D01*
X50825976Y-61805387D01*
X50832668Y-61809398D01*
X50838934Y-61814046D01*
X50844715Y-61819285D01*
X50849954Y-61825066D01*
X50854602Y-61831332D01*
X50858613Y-61838024D01*
X50861948Y-61845077D01*
X50864577Y-61852422D01*
X50866472Y-61859990D01*
X50867617Y-61867708D01*
X50868000Y-61875500D01*
X50868000Y-62076500D01*
X50867617Y-62084292D01*
X50866472Y-62092010D01*
X50864577Y-62099578D01*
X50861948Y-62106923D01*
X50858613Y-62113976D01*
X50854602Y-62120668D01*
X50849954Y-62126934D01*
X50844715Y-62132715D01*
X50838934Y-62137954D01*
X50832668Y-62142602D01*
X50825976Y-62146613D01*
X50818923Y-62149948D01*
X50811578Y-62152577D01*
X50804010Y-62154472D01*
X50796292Y-62155617D01*
X50788500Y-62156000D01*
X50629500Y-62156000D01*
X50621708Y-62155617D01*
X50613990Y-62154472D01*
X50606422Y-62152577D01*
X50599077Y-62149948D01*
X50592024Y-62146613D01*
X50585332Y-62142602D01*
X50579066Y-62137954D01*
X50573285Y-62132715D01*
X50568046Y-62126934D01*
X50563398Y-62120668D01*
X50559387Y-62113976D01*
X50556052Y-62106923D01*
X50553423Y-62099578D01*
X50551528Y-62092010D01*
X50550383Y-62084292D01*
X50550000Y-62076500D01*
X50550000Y-61875500D01*
X50550383Y-61867708D01*
X50551528Y-61859990D01*
X50553423Y-61852422D01*
X50556052Y-61845077D01*
X50559387Y-61838024D01*
X50563398Y-61831332D01*
X50568046Y-61825066D01*
X50573285Y-61819285D01*
X50579066Y-61814046D01*
X50585332Y-61809398D01*
X50592024Y-61805387D01*
X50599077Y-61802052D01*
X50606422Y-61799423D01*
X50613990Y-61797528D01*
X50621708Y-61796383D01*
X50629500Y-61796000D01*
X50788500Y-61796000D01*
X50796292Y-61796383D01*
X50796292Y-61796383D01*
G37*
D11*
X50709000Y-61976000D03*
D10*
G36*
X51486292Y-61796383D02*
G01*
X51494010Y-61797528D01*
X51501578Y-61799423D01*
X51508923Y-61802052D01*
X51515976Y-61805387D01*
X51522668Y-61809398D01*
X51528934Y-61814046D01*
X51534715Y-61819285D01*
X51539954Y-61825066D01*
X51544602Y-61831332D01*
X51548613Y-61838024D01*
X51551948Y-61845077D01*
X51554577Y-61852422D01*
X51556472Y-61859990D01*
X51557617Y-61867708D01*
X51558000Y-61875500D01*
X51558000Y-62076500D01*
X51557617Y-62084292D01*
X51556472Y-62092010D01*
X51554577Y-62099578D01*
X51551948Y-62106923D01*
X51548613Y-62113976D01*
X51544602Y-62120668D01*
X51539954Y-62126934D01*
X51534715Y-62132715D01*
X51528934Y-62137954D01*
X51522668Y-62142602D01*
X51515976Y-62146613D01*
X51508923Y-62149948D01*
X51501578Y-62152577D01*
X51494010Y-62154472D01*
X51486292Y-62155617D01*
X51478500Y-62156000D01*
X51319500Y-62156000D01*
X51311708Y-62155617D01*
X51303990Y-62154472D01*
X51296422Y-62152577D01*
X51289077Y-62149948D01*
X51282024Y-62146613D01*
X51275332Y-62142602D01*
X51269066Y-62137954D01*
X51263285Y-62132715D01*
X51258046Y-62126934D01*
X51253398Y-62120668D01*
X51249387Y-62113976D01*
X51246052Y-62106923D01*
X51243423Y-62099578D01*
X51241528Y-62092010D01*
X51240383Y-62084292D01*
X51240000Y-62076500D01*
X51240000Y-61875500D01*
X51240383Y-61867708D01*
X51241528Y-61859990D01*
X51243423Y-61852422D01*
X51246052Y-61845077D01*
X51249387Y-61838024D01*
X51253398Y-61831332D01*
X51258046Y-61825066D01*
X51263285Y-61819285D01*
X51269066Y-61814046D01*
X51275332Y-61809398D01*
X51282024Y-61805387D01*
X51289077Y-61802052D01*
X51296422Y-61799423D01*
X51303990Y-61797528D01*
X51311708Y-61796383D01*
X51319500Y-61796000D01*
X51478500Y-61796000D01*
X51486292Y-61796383D01*
X51486292Y-61796383D01*
G37*
D11*
X51399000Y-61976000D03*
D10*
G36*
X49511292Y-60583383D02*
G01*
X49519010Y-60584528D01*
X49526578Y-60586423D01*
X49533923Y-60589052D01*
X49540976Y-60592387D01*
X49547668Y-60596398D01*
X49553934Y-60601046D01*
X49559715Y-60606285D01*
X49564954Y-60612066D01*
X49569602Y-60618332D01*
X49573613Y-60625024D01*
X49576948Y-60632077D01*
X49579577Y-60639422D01*
X49581472Y-60646990D01*
X49582617Y-60654708D01*
X49583000Y-60662500D01*
X49583000Y-60821500D01*
X49582617Y-60829292D01*
X49581472Y-60837010D01*
X49579577Y-60844578D01*
X49576948Y-60851923D01*
X49573613Y-60858976D01*
X49569602Y-60865668D01*
X49564954Y-60871934D01*
X49559715Y-60877715D01*
X49553934Y-60882954D01*
X49547668Y-60887602D01*
X49540976Y-60891613D01*
X49533923Y-60894948D01*
X49526578Y-60897577D01*
X49519010Y-60899472D01*
X49511292Y-60900617D01*
X49503500Y-60901000D01*
X49302500Y-60901000D01*
X49294708Y-60900617D01*
X49286990Y-60899472D01*
X49279422Y-60897577D01*
X49272077Y-60894948D01*
X49265024Y-60891613D01*
X49258332Y-60887602D01*
X49252066Y-60882954D01*
X49246285Y-60877715D01*
X49241046Y-60871934D01*
X49236398Y-60865668D01*
X49232387Y-60858976D01*
X49229052Y-60851923D01*
X49226423Y-60844578D01*
X49224528Y-60837010D01*
X49223383Y-60829292D01*
X49223000Y-60821500D01*
X49223000Y-60662500D01*
X49223383Y-60654708D01*
X49224528Y-60646990D01*
X49226423Y-60639422D01*
X49229052Y-60632077D01*
X49232387Y-60625024D01*
X49236398Y-60618332D01*
X49241046Y-60612066D01*
X49246285Y-60606285D01*
X49252066Y-60601046D01*
X49258332Y-60596398D01*
X49265024Y-60592387D01*
X49272077Y-60589052D01*
X49279422Y-60586423D01*
X49286990Y-60584528D01*
X49294708Y-60583383D01*
X49302500Y-60583000D01*
X49503500Y-60583000D01*
X49511292Y-60583383D01*
X49511292Y-60583383D01*
G37*
D11*
X49403000Y-60742000D03*
D10*
G36*
X49511292Y-61273383D02*
G01*
X49519010Y-61274528D01*
X49526578Y-61276423D01*
X49533923Y-61279052D01*
X49540976Y-61282387D01*
X49547668Y-61286398D01*
X49553934Y-61291046D01*
X49559715Y-61296285D01*
X49564954Y-61302066D01*
X49569602Y-61308332D01*
X49573613Y-61315024D01*
X49576948Y-61322077D01*
X49579577Y-61329422D01*
X49581472Y-61336990D01*
X49582617Y-61344708D01*
X49583000Y-61352500D01*
X49583000Y-61511500D01*
X49582617Y-61519292D01*
X49581472Y-61527010D01*
X49579577Y-61534578D01*
X49576948Y-61541923D01*
X49573613Y-61548976D01*
X49569602Y-61555668D01*
X49564954Y-61561934D01*
X49559715Y-61567715D01*
X49553934Y-61572954D01*
X49547668Y-61577602D01*
X49540976Y-61581613D01*
X49533923Y-61584948D01*
X49526578Y-61587577D01*
X49519010Y-61589472D01*
X49511292Y-61590617D01*
X49503500Y-61591000D01*
X49302500Y-61591000D01*
X49294708Y-61590617D01*
X49286990Y-61589472D01*
X49279422Y-61587577D01*
X49272077Y-61584948D01*
X49265024Y-61581613D01*
X49258332Y-61577602D01*
X49252066Y-61572954D01*
X49246285Y-61567715D01*
X49241046Y-61561934D01*
X49236398Y-61555668D01*
X49232387Y-61548976D01*
X49229052Y-61541923D01*
X49226423Y-61534578D01*
X49224528Y-61527010D01*
X49223383Y-61519292D01*
X49223000Y-61511500D01*
X49223000Y-61352500D01*
X49223383Y-61344708D01*
X49224528Y-61336990D01*
X49226423Y-61329422D01*
X49229052Y-61322077D01*
X49232387Y-61315024D01*
X49236398Y-61308332D01*
X49241046Y-61302066D01*
X49246285Y-61296285D01*
X49252066Y-61291046D01*
X49258332Y-61286398D01*
X49265024Y-61282387D01*
X49272077Y-61279052D01*
X49279422Y-61276423D01*
X49286990Y-61274528D01*
X49294708Y-61273383D01*
X49302500Y-61273000D01*
X49503500Y-61273000D01*
X49511292Y-61273383D01*
X49511292Y-61273383D01*
G37*
D11*
X49403000Y-61432000D03*
D10*
G36*
X47930292Y-61796383D02*
G01*
X47938010Y-61797528D01*
X47945578Y-61799423D01*
X47952923Y-61802052D01*
X47959976Y-61805387D01*
X47966668Y-61809398D01*
X47972934Y-61814046D01*
X47978715Y-61819285D01*
X47983954Y-61825066D01*
X47988602Y-61831332D01*
X47992613Y-61838024D01*
X47995948Y-61845077D01*
X47998577Y-61852422D01*
X48000472Y-61859990D01*
X48001617Y-61867708D01*
X48002000Y-61875500D01*
X48002000Y-62076500D01*
X48001617Y-62084292D01*
X48000472Y-62092010D01*
X47998577Y-62099578D01*
X47995948Y-62106923D01*
X47992613Y-62113976D01*
X47988602Y-62120668D01*
X47983954Y-62126934D01*
X47978715Y-62132715D01*
X47972934Y-62137954D01*
X47966668Y-62142602D01*
X47959976Y-62146613D01*
X47952923Y-62149948D01*
X47945578Y-62152577D01*
X47938010Y-62154472D01*
X47930292Y-62155617D01*
X47922500Y-62156000D01*
X47763500Y-62156000D01*
X47755708Y-62155617D01*
X47747990Y-62154472D01*
X47740422Y-62152577D01*
X47733077Y-62149948D01*
X47726024Y-62146613D01*
X47719332Y-62142602D01*
X47713066Y-62137954D01*
X47707285Y-62132715D01*
X47702046Y-62126934D01*
X47697398Y-62120668D01*
X47693387Y-62113976D01*
X47690052Y-62106923D01*
X47687423Y-62099578D01*
X47685528Y-62092010D01*
X47684383Y-62084292D01*
X47684000Y-62076500D01*
X47684000Y-61875500D01*
X47684383Y-61867708D01*
X47685528Y-61859990D01*
X47687423Y-61852422D01*
X47690052Y-61845077D01*
X47693387Y-61838024D01*
X47697398Y-61831332D01*
X47702046Y-61825066D01*
X47707285Y-61819285D01*
X47713066Y-61814046D01*
X47719332Y-61809398D01*
X47726024Y-61805387D01*
X47733077Y-61802052D01*
X47740422Y-61799423D01*
X47747990Y-61797528D01*
X47755708Y-61796383D01*
X47763500Y-61796000D01*
X47922500Y-61796000D01*
X47930292Y-61796383D01*
X47930292Y-61796383D01*
G37*
D11*
X47843000Y-61976000D03*
D10*
G36*
X47240292Y-61796383D02*
G01*
X47248010Y-61797528D01*
X47255578Y-61799423D01*
X47262923Y-61802052D01*
X47269976Y-61805387D01*
X47276668Y-61809398D01*
X47282934Y-61814046D01*
X47288715Y-61819285D01*
X47293954Y-61825066D01*
X47298602Y-61831332D01*
X47302613Y-61838024D01*
X47305948Y-61845077D01*
X47308577Y-61852422D01*
X47310472Y-61859990D01*
X47311617Y-61867708D01*
X47312000Y-61875500D01*
X47312000Y-62076500D01*
X47311617Y-62084292D01*
X47310472Y-62092010D01*
X47308577Y-62099578D01*
X47305948Y-62106923D01*
X47302613Y-62113976D01*
X47298602Y-62120668D01*
X47293954Y-62126934D01*
X47288715Y-62132715D01*
X47282934Y-62137954D01*
X47276668Y-62142602D01*
X47269976Y-62146613D01*
X47262923Y-62149948D01*
X47255578Y-62152577D01*
X47248010Y-62154472D01*
X47240292Y-62155617D01*
X47232500Y-62156000D01*
X47073500Y-62156000D01*
X47065708Y-62155617D01*
X47057990Y-62154472D01*
X47050422Y-62152577D01*
X47043077Y-62149948D01*
X47036024Y-62146613D01*
X47029332Y-62142602D01*
X47023066Y-62137954D01*
X47017285Y-62132715D01*
X47012046Y-62126934D01*
X47007398Y-62120668D01*
X47003387Y-62113976D01*
X47000052Y-62106923D01*
X46997423Y-62099578D01*
X46995528Y-62092010D01*
X46994383Y-62084292D01*
X46994000Y-62076500D01*
X46994000Y-61875500D01*
X46994383Y-61867708D01*
X46995528Y-61859990D01*
X46997423Y-61852422D01*
X47000052Y-61845077D01*
X47003387Y-61838024D01*
X47007398Y-61831332D01*
X47012046Y-61825066D01*
X47017285Y-61819285D01*
X47023066Y-61814046D01*
X47029332Y-61809398D01*
X47036024Y-61805387D01*
X47043077Y-61802052D01*
X47050422Y-61799423D01*
X47057990Y-61797528D01*
X47065708Y-61796383D01*
X47073500Y-61796000D01*
X47232500Y-61796000D01*
X47240292Y-61796383D01*
X47240292Y-61796383D01*
G37*
D11*
X47153000Y-61976000D03*
D10*
G36*
X46478292Y-60526383D02*
G01*
X46486010Y-60527528D01*
X46493578Y-60529423D01*
X46500923Y-60532052D01*
X46507976Y-60535387D01*
X46514668Y-60539398D01*
X46520934Y-60544046D01*
X46526715Y-60549285D01*
X46531954Y-60555066D01*
X46536602Y-60561332D01*
X46540613Y-60568024D01*
X46543948Y-60575077D01*
X46546577Y-60582422D01*
X46548472Y-60589990D01*
X46549617Y-60597708D01*
X46550000Y-60605500D01*
X46550000Y-60806500D01*
X46549617Y-60814292D01*
X46548472Y-60822010D01*
X46546577Y-60829578D01*
X46543948Y-60836923D01*
X46540613Y-60843976D01*
X46536602Y-60850668D01*
X46531954Y-60856934D01*
X46526715Y-60862715D01*
X46520934Y-60867954D01*
X46514668Y-60872602D01*
X46507976Y-60876613D01*
X46500923Y-60879948D01*
X46493578Y-60882577D01*
X46486010Y-60884472D01*
X46478292Y-60885617D01*
X46470500Y-60886000D01*
X46311500Y-60886000D01*
X46303708Y-60885617D01*
X46295990Y-60884472D01*
X46288422Y-60882577D01*
X46281077Y-60879948D01*
X46274024Y-60876613D01*
X46267332Y-60872602D01*
X46261066Y-60867954D01*
X46255285Y-60862715D01*
X46250046Y-60856934D01*
X46245398Y-60850668D01*
X46241387Y-60843976D01*
X46238052Y-60836923D01*
X46235423Y-60829578D01*
X46233528Y-60822010D01*
X46232383Y-60814292D01*
X46232000Y-60806500D01*
X46232000Y-60605500D01*
X46232383Y-60597708D01*
X46233528Y-60589990D01*
X46235423Y-60582422D01*
X46238052Y-60575077D01*
X46241387Y-60568024D01*
X46245398Y-60561332D01*
X46250046Y-60555066D01*
X46255285Y-60549285D01*
X46261066Y-60544046D01*
X46267332Y-60539398D01*
X46274024Y-60535387D01*
X46281077Y-60532052D01*
X46288422Y-60529423D01*
X46295990Y-60527528D01*
X46303708Y-60526383D01*
X46311500Y-60526000D01*
X46470500Y-60526000D01*
X46478292Y-60526383D01*
X46478292Y-60526383D01*
G37*
D11*
X46391000Y-60706000D03*
D10*
G36*
X47168292Y-60526383D02*
G01*
X47176010Y-60527528D01*
X47183578Y-60529423D01*
X47190923Y-60532052D01*
X47197976Y-60535387D01*
X47204668Y-60539398D01*
X47210934Y-60544046D01*
X47216715Y-60549285D01*
X47221954Y-60555066D01*
X47226602Y-60561332D01*
X47230613Y-60568024D01*
X47233948Y-60575077D01*
X47236577Y-60582422D01*
X47238472Y-60589990D01*
X47239617Y-60597708D01*
X47240000Y-60605500D01*
X47240000Y-60806500D01*
X47239617Y-60814292D01*
X47238472Y-60822010D01*
X47236577Y-60829578D01*
X47233948Y-60836923D01*
X47230613Y-60843976D01*
X47226602Y-60850668D01*
X47221954Y-60856934D01*
X47216715Y-60862715D01*
X47210934Y-60867954D01*
X47204668Y-60872602D01*
X47197976Y-60876613D01*
X47190923Y-60879948D01*
X47183578Y-60882577D01*
X47176010Y-60884472D01*
X47168292Y-60885617D01*
X47160500Y-60886000D01*
X47001500Y-60886000D01*
X46993708Y-60885617D01*
X46985990Y-60884472D01*
X46978422Y-60882577D01*
X46971077Y-60879948D01*
X46964024Y-60876613D01*
X46957332Y-60872602D01*
X46951066Y-60867954D01*
X46945285Y-60862715D01*
X46940046Y-60856934D01*
X46935398Y-60850668D01*
X46931387Y-60843976D01*
X46928052Y-60836923D01*
X46925423Y-60829578D01*
X46923528Y-60822010D01*
X46922383Y-60814292D01*
X46922000Y-60806500D01*
X46922000Y-60605500D01*
X46922383Y-60597708D01*
X46923528Y-60589990D01*
X46925423Y-60582422D01*
X46928052Y-60575077D01*
X46931387Y-60568024D01*
X46935398Y-60561332D01*
X46940046Y-60555066D01*
X46945285Y-60549285D01*
X46951066Y-60544046D01*
X46957332Y-60539398D01*
X46964024Y-60535387D01*
X46971077Y-60532052D01*
X46978422Y-60529423D01*
X46985990Y-60527528D01*
X46993708Y-60526383D01*
X47001500Y-60526000D01*
X47160500Y-60526000D01*
X47168292Y-60526383D01*
X47168292Y-60526383D01*
G37*
D11*
X47081000Y-60706000D03*
D13*
X42434000Y-37258000D03*
X42834000Y-37258000D03*
X43234000Y-37258000D03*
X44434000Y-37258000D03*
X44034000Y-37258000D03*
X43634000Y-37258000D03*
X44434000Y-39958000D03*
X44034000Y-39958000D03*
X42434000Y-39958000D03*
X42834000Y-39958000D03*
X43234000Y-39958000D03*
X43634000Y-39958000D03*
D14*
X44784000Y-37608000D03*
X44784000Y-38008000D03*
X44784000Y-38408000D03*
X44784000Y-38808000D03*
X44784000Y-39208000D03*
X44784000Y-39608000D03*
X42084000Y-37608000D03*
X42084000Y-38008000D03*
X42084000Y-38408000D03*
X42084000Y-39608000D03*
X42084000Y-39208000D03*
X42084000Y-38808000D03*
D15*
X43434000Y-38608000D03*
D10*
G36*
X46850505Y-20848204D02*
G01*
X46874773Y-20851804D01*
X46898572Y-20857765D01*
X46921671Y-20866030D01*
X46943850Y-20876520D01*
X46964893Y-20889132D01*
X46984599Y-20903747D01*
X47002777Y-20920223D01*
X47019253Y-20938401D01*
X47033868Y-20958107D01*
X47046480Y-20979150D01*
X47056970Y-21001329D01*
X47065235Y-21024428D01*
X47071196Y-21048227D01*
X47074796Y-21072495D01*
X47076000Y-21096999D01*
X47076000Y-22397001D01*
X47074796Y-22421505D01*
X47071196Y-22445773D01*
X47065235Y-22469572D01*
X47056970Y-22492671D01*
X47046480Y-22514850D01*
X47033868Y-22535893D01*
X47019253Y-22555599D01*
X47002777Y-22573777D01*
X46984599Y-22590253D01*
X46964893Y-22604868D01*
X46943850Y-22617480D01*
X46921671Y-22627970D01*
X46898572Y-22636235D01*
X46874773Y-22642196D01*
X46850505Y-22645796D01*
X46826001Y-22647000D01*
X46125999Y-22647000D01*
X46101495Y-22645796D01*
X46077227Y-22642196D01*
X46053428Y-22636235D01*
X46030329Y-22627970D01*
X46008150Y-22617480D01*
X45987107Y-22604868D01*
X45967401Y-22590253D01*
X45949223Y-22573777D01*
X45932747Y-22555599D01*
X45918132Y-22535893D01*
X45905520Y-22514850D01*
X45895030Y-22492671D01*
X45886765Y-22469572D01*
X45880804Y-22445773D01*
X45877204Y-22421505D01*
X45876000Y-22397001D01*
X45876000Y-21096999D01*
X45877204Y-21072495D01*
X45880804Y-21048227D01*
X45886765Y-21024428D01*
X45895030Y-21001329D01*
X45905520Y-20979150D01*
X45918132Y-20958107D01*
X45932747Y-20938401D01*
X45949223Y-20920223D01*
X45967401Y-20903747D01*
X45987107Y-20889132D01*
X46008150Y-20876520D01*
X46030329Y-20866030D01*
X46053428Y-20857765D01*
X46077227Y-20851804D01*
X46101495Y-20848204D01*
X46125999Y-20847000D01*
X46826001Y-20847000D01*
X46850505Y-20848204D01*
X46850505Y-20848204D01*
G37*
D16*
X46476000Y-21747000D03*
D10*
G36*
X52450505Y-20848204D02*
G01*
X52474773Y-20851804D01*
X52498572Y-20857765D01*
X52521671Y-20866030D01*
X52543850Y-20876520D01*
X52564893Y-20889132D01*
X52584599Y-20903747D01*
X52602777Y-20920223D01*
X52619253Y-20938401D01*
X52633868Y-20958107D01*
X52646480Y-20979150D01*
X52656970Y-21001329D01*
X52665235Y-21024428D01*
X52671196Y-21048227D01*
X52674796Y-21072495D01*
X52676000Y-21096999D01*
X52676000Y-22397001D01*
X52674796Y-22421505D01*
X52671196Y-22445773D01*
X52665235Y-22469572D01*
X52656970Y-22492671D01*
X52646480Y-22514850D01*
X52633868Y-22535893D01*
X52619253Y-22555599D01*
X52602777Y-22573777D01*
X52584599Y-22590253D01*
X52564893Y-22604868D01*
X52543850Y-22617480D01*
X52521671Y-22627970D01*
X52498572Y-22636235D01*
X52474773Y-22642196D01*
X52450505Y-22645796D01*
X52426001Y-22647000D01*
X51725999Y-22647000D01*
X51701495Y-22645796D01*
X51677227Y-22642196D01*
X51653428Y-22636235D01*
X51630329Y-22627970D01*
X51608150Y-22617480D01*
X51587107Y-22604868D01*
X51567401Y-22590253D01*
X51549223Y-22573777D01*
X51532747Y-22555599D01*
X51518132Y-22535893D01*
X51505520Y-22514850D01*
X51495030Y-22492671D01*
X51486765Y-22469572D01*
X51480804Y-22445773D01*
X51477204Y-22421505D01*
X51476000Y-22397001D01*
X51476000Y-21096999D01*
X51477204Y-21072495D01*
X51480804Y-21048227D01*
X51486765Y-21024428D01*
X51495030Y-21001329D01*
X51505520Y-20979150D01*
X51518132Y-20958107D01*
X51532747Y-20938401D01*
X51549223Y-20920223D01*
X51567401Y-20903747D01*
X51587107Y-20889132D01*
X51608150Y-20876520D01*
X51630329Y-20866030D01*
X51653428Y-20857765D01*
X51677227Y-20851804D01*
X51701495Y-20848204D01*
X51725999Y-20847000D01*
X52426001Y-20847000D01*
X52450505Y-20848204D01*
X52450505Y-20848204D01*
G37*
D16*
X52076000Y-21747000D03*
D10*
G36*
X47940703Y-24847722D02*
G01*
X47955264Y-24849882D01*
X47969543Y-24853459D01*
X47983403Y-24858418D01*
X47996710Y-24864712D01*
X48009336Y-24872280D01*
X48021159Y-24881048D01*
X48032066Y-24890934D01*
X48041952Y-24901841D01*
X48050720Y-24913664D01*
X48058288Y-24926290D01*
X48064582Y-24939597D01*
X48069541Y-24953457D01*
X48073118Y-24967736D01*
X48075278Y-24982297D01*
X48076000Y-24997000D01*
X48076000Y-26247000D01*
X48075278Y-26261703D01*
X48073118Y-26276264D01*
X48069541Y-26290543D01*
X48064582Y-26304403D01*
X48058288Y-26317710D01*
X48050720Y-26330336D01*
X48041952Y-26342159D01*
X48032066Y-26353066D01*
X48021159Y-26362952D01*
X48009336Y-26371720D01*
X47996710Y-26379288D01*
X47983403Y-26385582D01*
X47969543Y-26390541D01*
X47955264Y-26394118D01*
X47940703Y-26396278D01*
X47926000Y-26397000D01*
X47626000Y-26397000D01*
X47611297Y-26396278D01*
X47596736Y-26394118D01*
X47582457Y-26390541D01*
X47568597Y-26385582D01*
X47555290Y-26379288D01*
X47542664Y-26371720D01*
X47530841Y-26362952D01*
X47519934Y-26353066D01*
X47510048Y-26342159D01*
X47501280Y-26330336D01*
X47493712Y-26317710D01*
X47487418Y-26304403D01*
X47482459Y-26290543D01*
X47478882Y-26276264D01*
X47476722Y-26261703D01*
X47476000Y-26247000D01*
X47476000Y-24997000D01*
X47476722Y-24982297D01*
X47478882Y-24967736D01*
X47482459Y-24953457D01*
X47487418Y-24939597D01*
X47493712Y-24926290D01*
X47501280Y-24913664D01*
X47510048Y-24901841D01*
X47519934Y-24890934D01*
X47530841Y-24881048D01*
X47542664Y-24872280D01*
X47555290Y-24864712D01*
X47568597Y-24858418D01*
X47582457Y-24853459D01*
X47596736Y-24849882D01*
X47611297Y-24847722D01*
X47626000Y-24847000D01*
X47926000Y-24847000D01*
X47940703Y-24847722D01*
X47940703Y-24847722D01*
G37*
D17*
X47776000Y-25622000D03*
D10*
G36*
X48940703Y-24847722D02*
G01*
X48955264Y-24849882D01*
X48969543Y-24853459D01*
X48983403Y-24858418D01*
X48996710Y-24864712D01*
X49009336Y-24872280D01*
X49021159Y-24881048D01*
X49032066Y-24890934D01*
X49041952Y-24901841D01*
X49050720Y-24913664D01*
X49058288Y-24926290D01*
X49064582Y-24939597D01*
X49069541Y-24953457D01*
X49073118Y-24967736D01*
X49075278Y-24982297D01*
X49076000Y-24997000D01*
X49076000Y-26247000D01*
X49075278Y-26261703D01*
X49073118Y-26276264D01*
X49069541Y-26290543D01*
X49064582Y-26304403D01*
X49058288Y-26317710D01*
X49050720Y-26330336D01*
X49041952Y-26342159D01*
X49032066Y-26353066D01*
X49021159Y-26362952D01*
X49009336Y-26371720D01*
X48996710Y-26379288D01*
X48983403Y-26385582D01*
X48969543Y-26390541D01*
X48955264Y-26394118D01*
X48940703Y-26396278D01*
X48926000Y-26397000D01*
X48626000Y-26397000D01*
X48611297Y-26396278D01*
X48596736Y-26394118D01*
X48582457Y-26390541D01*
X48568597Y-26385582D01*
X48555290Y-26379288D01*
X48542664Y-26371720D01*
X48530841Y-26362952D01*
X48519934Y-26353066D01*
X48510048Y-26342159D01*
X48501280Y-26330336D01*
X48493712Y-26317710D01*
X48487418Y-26304403D01*
X48482459Y-26290543D01*
X48478882Y-26276264D01*
X48476722Y-26261703D01*
X48476000Y-26247000D01*
X48476000Y-24997000D01*
X48476722Y-24982297D01*
X48478882Y-24967736D01*
X48482459Y-24953457D01*
X48487418Y-24939597D01*
X48493712Y-24926290D01*
X48501280Y-24913664D01*
X48510048Y-24901841D01*
X48519934Y-24890934D01*
X48530841Y-24881048D01*
X48542664Y-24872280D01*
X48555290Y-24864712D01*
X48568597Y-24858418D01*
X48582457Y-24853459D01*
X48596736Y-24849882D01*
X48611297Y-24847722D01*
X48626000Y-24847000D01*
X48926000Y-24847000D01*
X48940703Y-24847722D01*
X48940703Y-24847722D01*
G37*
D17*
X48776000Y-25622000D03*
D10*
G36*
X49940703Y-24847722D02*
G01*
X49955264Y-24849882D01*
X49969543Y-24853459D01*
X49983403Y-24858418D01*
X49996710Y-24864712D01*
X50009336Y-24872280D01*
X50021159Y-24881048D01*
X50032066Y-24890934D01*
X50041952Y-24901841D01*
X50050720Y-24913664D01*
X50058288Y-24926290D01*
X50064582Y-24939597D01*
X50069541Y-24953457D01*
X50073118Y-24967736D01*
X50075278Y-24982297D01*
X50076000Y-24997000D01*
X50076000Y-26247000D01*
X50075278Y-26261703D01*
X50073118Y-26276264D01*
X50069541Y-26290543D01*
X50064582Y-26304403D01*
X50058288Y-26317710D01*
X50050720Y-26330336D01*
X50041952Y-26342159D01*
X50032066Y-26353066D01*
X50021159Y-26362952D01*
X50009336Y-26371720D01*
X49996710Y-26379288D01*
X49983403Y-26385582D01*
X49969543Y-26390541D01*
X49955264Y-26394118D01*
X49940703Y-26396278D01*
X49926000Y-26397000D01*
X49626000Y-26397000D01*
X49611297Y-26396278D01*
X49596736Y-26394118D01*
X49582457Y-26390541D01*
X49568597Y-26385582D01*
X49555290Y-26379288D01*
X49542664Y-26371720D01*
X49530841Y-26362952D01*
X49519934Y-26353066D01*
X49510048Y-26342159D01*
X49501280Y-26330336D01*
X49493712Y-26317710D01*
X49487418Y-26304403D01*
X49482459Y-26290543D01*
X49478882Y-26276264D01*
X49476722Y-26261703D01*
X49476000Y-26247000D01*
X49476000Y-24997000D01*
X49476722Y-24982297D01*
X49478882Y-24967736D01*
X49482459Y-24953457D01*
X49487418Y-24939597D01*
X49493712Y-24926290D01*
X49501280Y-24913664D01*
X49510048Y-24901841D01*
X49519934Y-24890934D01*
X49530841Y-24881048D01*
X49542664Y-24872280D01*
X49555290Y-24864712D01*
X49568597Y-24858418D01*
X49582457Y-24853459D01*
X49596736Y-24849882D01*
X49611297Y-24847722D01*
X49626000Y-24847000D01*
X49926000Y-24847000D01*
X49940703Y-24847722D01*
X49940703Y-24847722D01*
G37*
D17*
X49776000Y-25622000D03*
D10*
G36*
X50940703Y-24847722D02*
G01*
X50955264Y-24849882D01*
X50969543Y-24853459D01*
X50983403Y-24858418D01*
X50996710Y-24864712D01*
X51009336Y-24872280D01*
X51021159Y-24881048D01*
X51032066Y-24890934D01*
X51041952Y-24901841D01*
X51050720Y-24913664D01*
X51058288Y-24926290D01*
X51064582Y-24939597D01*
X51069541Y-24953457D01*
X51073118Y-24967736D01*
X51075278Y-24982297D01*
X51076000Y-24997000D01*
X51076000Y-26247000D01*
X51075278Y-26261703D01*
X51073118Y-26276264D01*
X51069541Y-26290543D01*
X51064582Y-26304403D01*
X51058288Y-26317710D01*
X51050720Y-26330336D01*
X51041952Y-26342159D01*
X51032066Y-26353066D01*
X51021159Y-26362952D01*
X51009336Y-26371720D01*
X50996710Y-26379288D01*
X50983403Y-26385582D01*
X50969543Y-26390541D01*
X50955264Y-26394118D01*
X50940703Y-26396278D01*
X50926000Y-26397000D01*
X50626000Y-26397000D01*
X50611297Y-26396278D01*
X50596736Y-26394118D01*
X50582457Y-26390541D01*
X50568597Y-26385582D01*
X50555290Y-26379288D01*
X50542664Y-26371720D01*
X50530841Y-26362952D01*
X50519934Y-26353066D01*
X50510048Y-26342159D01*
X50501280Y-26330336D01*
X50493712Y-26317710D01*
X50487418Y-26304403D01*
X50482459Y-26290543D01*
X50478882Y-26276264D01*
X50476722Y-26261703D01*
X50476000Y-26247000D01*
X50476000Y-24997000D01*
X50476722Y-24982297D01*
X50478882Y-24967736D01*
X50482459Y-24953457D01*
X50487418Y-24939597D01*
X50493712Y-24926290D01*
X50501280Y-24913664D01*
X50510048Y-24901841D01*
X50519934Y-24890934D01*
X50530841Y-24881048D01*
X50542664Y-24872280D01*
X50555290Y-24864712D01*
X50568597Y-24858418D01*
X50582457Y-24853459D01*
X50596736Y-24849882D01*
X50611297Y-24847722D01*
X50626000Y-24847000D01*
X50926000Y-24847000D01*
X50940703Y-24847722D01*
X50940703Y-24847722D01*
G37*
D17*
X50776000Y-25622000D03*
D10*
G36*
X24292505Y-20848204D02*
G01*
X24316773Y-20851804D01*
X24340572Y-20857765D01*
X24363671Y-20866030D01*
X24385850Y-20876520D01*
X24406893Y-20889132D01*
X24426599Y-20903747D01*
X24444777Y-20920223D01*
X24461253Y-20938401D01*
X24475868Y-20958107D01*
X24488480Y-20979150D01*
X24498970Y-21001329D01*
X24507235Y-21024428D01*
X24513196Y-21048227D01*
X24516796Y-21072495D01*
X24518000Y-21096999D01*
X24518000Y-22397001D01*
X24516796Y-22421505D01*
X24513196Y-22445773D01*
X24507235Y-22469572D01*
X24498970Y-22492671D01*
X24488480Y-22514850D01*
X24475868Y-22535893D01*
X24461253Y-22555599D01*
X24444777Y-22573777D01*
X24426599Y-22590253D01*
X24406893Y-22604868D01*
X24385850Y-22617480D01*
X24363671Y-22627970D01*
X24340572Y-22636235D01*
X24316773Y-22642196D01*
X24292505Y-22645796D01*
X24268001Y-22647000D01*
X23567999Y-22647000D01*
X23543495Y-22645796D01*
X23519227Y-22642196D01*
X23495428Y-22636235D01*
X23472329Y-22627970D01*
X23450150Y-22617480D01*
X23429107Y-22604868D01*
X23409401Y-22590253D01*
X23391223Y-22573777D01*
X23374747Y-22555599D01*
X23360132Y-22535893D01*
X23347520Y-22514850D01*
X23337030Y-22492671D01*
X23328765Y-22469572D01*
X23322804Y-22445773D01*
X23319204Y-22421505D01*
X23318000Y-22397001D01*
X23318000Y-21096999D01*
X23319204Y-21072495D01*
X23322804Y-21048227D01*
X23328765Y-21024428D01*
X23337030Y-21001329D01*
X23347520Y-20979150D01*
X23360132Y-20958107D01*
X23374747Y-20938401D01*
X23391223Y-20920223D01*
X23409401Y-20903747D01*
X23429107Y-20889132D01*
X23450150Y-20876520D01*
X23472329Y-20866030D01*
X23495428Y-20857765D01*
X23519227Y-20851804D01*
X23543495Y-20848204D01*
X23567999Y-20847000D01*
X24268001Y-20847000D01*
X24292505Y-20848204D01*
X24292505Y-20848204D01*
G37*
D16*
X23918000Y-21747000D03*
D10*
G36*
X35892505Y-20848204D02*
G01*
X35916773Y-20851804D01*
X35940572Y-20857765D01*
X35963671Y-20866030D01*
X35985850Y-20876520D01*
X36006893Y-20889132D01*
X36026599Y-20903747D01*
X36044777Y-20920223D01*
X36061253Y-20938401D01*
X36075868Y-20958107D01*
X36088480Y-20979150D01*
X36098970Y-21001329D01*
X36107235Y-21024428D01*
X36113196Y-21048227D01*
X36116796Y-21072495D01*
X36118000Y-21096999D01*
X36118000Y-22397001D01*
X36116796Y-22421505D01*
X36113196Y-22445773D01*
X36107235Y-22469572D01*
X36098970Y-22492671D01*
X36088480Y-22514850D01*
X36075868Y-22535893D01*
X36061253Y-22555599D01*
X36044777Y-22573777D01*
X36026599Y-22590253D01*
X36006893Y-22604868D01*
X35985850Y-22617480D01*
X35963671Y-22627970D01*
X35940572Y-22636235D01*
X35916773Y-22642196D01*
X35892505Y-22645796D01*
X35868001Y-22647000D01*
X35167999Y-22647000D01*
X35143495Y-22645796D01*
X35119227Y-22642196D01*
X35095428Y-22636235D01*
X35072329Y-22627970D01*
X35050150Y-22617480D01*
X35029107Y-22604868D01*
X35009401Y-22590253D01*
X34991223Y-22573777D01*
X34974747Y-22555599D01*
X34960132Y-22535893D01*
X34947520Y-22514850D01*
X34937030Y-22492671D01*
X34928765Y-22469572D01*
X34922804Y-22445773D01*
X34919204Y-22421505D01*
X34918000Y-22397001D01*
X34918000Y-21096999D01*
X34919204Y-21072495D01*
X34922804Y-21048227D01*
X34928765Y-21024428D01*
X34937030Y-21001329D01*
X34947520Y-20979150D01*
X34960132Y-20958107D01*
X34974747Y-20938401D01*
X34991223Y-20920223D01*
X35009401Y-20903747D01*
X35029107Y-20889132D01*
X35050150Y-20876520D01*
X35072329Y-20866030D01*
X35095428Y-20857765D01*
X35119227Y-20851804D01*
X35143495Y-20848204D01*
X35167999Y-20847000D01*
X35868001Y-20847000D01*
X35892505Y-20848204D01*
X35892505Y-20848204D01*
G37*
D16*
X35518000Y-21747000D03*
D10*
G36*
X25382703Y-24847722D02*
G01*
X25397264Y-24849882D01*
X25411543Y-24853459D01*
X25425403Y-24858418D01*
X25438710Y-24864712D01*
X25451336Y-24872280D01*
X25463159Y-24881048D01*
X25474066Y-24890934D01*
X25483952Y-24901841D01*
X25492720Y-24913664D01*
X25500288Y-24926290D01*
X25506582Y-24939597D01*
X25511541Y-24953457D01*
X25515118Y-24967736D01*
X25517278Y-24982297D01*
X25518000Y-24997000D01*
X25518000Y-26247000D01*
X25517278Y-26261703D01*
X25515118Y-26276264D01*
X25511541Y-26290543D01*
X25506582Y-26304403D01*
X25500288Y-26317710D01*
X25492720Y-26330336D01*
X25483952Y-26342159D01*
X25474066Y-26353066D01*
X25463159Y-26362952D01*
X25451336Y-26371720D01*
X25438710Y-26379288D01*
X25425403Y-26385582D01*
X25411543Y-26390541D01*
X25397264Y-26394118D01*
X25382703Y-26396278D01*
X25368000Y-26397000D01*
X25068000Y-26397000D01*
X25053297Y-26396278D01*
X25038736Y-26394118D01*
X25024457Y-26390541D01*
X25010597Y-26385582D01*
X24997290Y-26379288D01*
X24984664Y-26371720D01*
X24972841Y-26362952D01*
X24961934Y-26353066D01*
X24952048Y-26342159D01*
X24943280Y-26330336D01*
X24935712Y-26317710D01*
X24929418Y-26304403D01*
X24924459Y-26290543D01*
X24920882Y-26276264D01*
X24918722Y-26261703D01*
X24918000Y-26247000D01*
X24918000Y-24997000D01*
X24918722Y-24982297D01*
X24920882Y-24967736D01*
X24924459Y-24953457D01*
X24929418Y-24939597D01*
X24935712Y-24926290D01*
X24943280Y-24913664D01*
X24952048Y-24901841D01*
X24961934Y-24890934D01*
X24972841Y-24881048D01*
X24984664Y-24872280D01*
X24997290Y-24864712D01*
X25010597Y-24858418D01*
X25024457Y-24853459D01*
X25038736Y-24849882D01*
X25053297Y-24847722D01*
X25068000Y-24847000D01*
X25368000Y-24847000D01*
X25382703Y-24847722D01*
X25382703Y-24847722D01*
G37*
D17*
X25218000Y-25622000D03*
D10*
G36*
X26382703Y-24847722D02*
G01*
X26397264Y-24849882D01*
X26411543Y-24853459D01*
X26425403Y-24858418D01*
X26438710Y-24864712D01*
X26451336Y-24872280D01*
X26463159Y-24881048D01*
X26474066Y-24890934D01*
X26483952Y-24901841D01*
X26492720Y-24913664D01*
X26500288Y-24926290D01*
X26506582Y-24939597D01*
X26511541Y-24953457D01*
X26515118Y-24967736D01*
X26517278Y-24982297D01*
X26518000Y-24997000D01*
X26518000Y-26247000D01*
X26517278Y-26261703D01*
X26515118Y-26276264D01*
X26511541Y-26290543D01*
X26506582Y-26304403D01*
X26500288Y-26317710D01*
X26492720Y-26330336D01*
X26483952Y-26342159D01*
X26474066Y-26353066D01*
X26463159Y-26362952D01*
X26451336Y-26371720D01*
X26438710Y-26379288D01*
X26425403Y-26385582D01*
X26411543Y-26390541D01*
X26397264Y-26394118D01*
X26382703Y-26396278D01*
X26368000Y-26397000D01*
X26068000Y-26397000D01*
X26053297Y-26396278D01*
X26038736Y-26394118D01*
X26024457Y-26390541D01*
X26010597Y-26385582D01*
X25997290Y-26379288D01*
X25984664Y-26371720D01*
X25972841Y-26362952D01*
X25961934Y-26353066D01*
X25952048Y-26342159D01*
X25943280Y-26330336D01*
X25935712Y-26317710D01*
X25929418Y-26304403D01*
X25924459Y-26290543D01*
X25920882Y-26276264D01*
X25918722Y-26261703D01*
X25918000Y-26247000D01*
X25918000Y-24997000D01*
X25918722Y-24982297D01*
X25920882Y-24967736D01*
X25924459Y-24953457D01*
X25929418Y-24939597D01*
X25935712Y-24926290D01*
X25943280Y-24913664D01*
X25952048Y-24901841D01*
X25961934Y-24890934D01*
X25972841Y-24881048D01*
X25984664Y-24872280D01*
X25997290Y-24864712D01*
X26010597Y-24858418D01*
X26024457Y-24853459D01*
X26038736Y-24849882D01*
X26053297Y-24847722D01*
X26068000Y-24847000D01*
X26368000Y-24847000D01*
X26382703Y-24847722D01*
X26382703Y-24847722D01*
G37*
D17*
X26218000Y-25622000D03*
D10*
G36*
X27382703Y-24847722D02*
G01*
X27397264Y-24849882D01*
X27411543Y-24853459D01*
X27425403Y-24858418D01*
X27438710Y-24864712D01*
X27451336Y-24872280D01*
X27463159Y-24881048D01*
X27474066Y-24890934D01*
X27483952Y-24901841D01*
X27492720Y-24913664D01*
X27500288Y-24926290D01*
X27506582Y-24939597D01*
X27511541Y-24953457D01*
X27515118Y-24967736D01*
X27517278Y-24982297D01*
X27518000Y-24997000D01*
X27518000Y-26247000D01*
X27517278Y-26261703D01*
X27515118Y-26276264D01*
X27511541Y-26290543D01*
X27506582Y-26304403D01*
X27500288Y-26317710D01*
X27492720Y-26330336D01*
X27483952Y-26342159D01*
X27474066Y-26353066D01*
X27463159Y-26362952D01*
X27451336Y-26371720D01*
X27438710Y-26379288D01*
X27425403Y-26385582D01*
X27411543Y-26390541D01*
X27397264Y-26394118D01*
X27382703Y-26396278D01*
X27368000Y-26397000D01*
X27068000Y-26397000D01*
X27053297Y-26396278D01*
X27038736Y-26394118D01*
X27024457Y-26390541D01*
X27010597Y-26385582D01*
X26997290Y-26379288D01*
X26984664Y-26371720D01*
X26972841Y-26362952D01*
X26961934Y-26353066D01*
X26952048Y-26342159D01*
X26943280Y-26330336D01*
X26935712Y-26317710D01*
X26929418Y-26304403D01*
X26924459Y-26290543D01*
X26920882Y-26276264D01*
X26918722Y-26261703D01*
X26918000Y-26247000D01*
X26918000Y-24997000D01*
X26918722Y-24982297D01*
X26920882Y-24967736D01*
X26924459Y-24953457D01*
X26929418Y-24939597D01*
X26935712Y-24926290D01*
X26943280Y-24913664D01*
X26952048Y-24901841D01*
X26961934Y-24890934D01*
X26972841Y-24881048D01*
X26984664Y-24872280D01*
X26997290Y-24864712D01*
X27010597Y-24858418D01*
X27024457Y-24853459D01*
X27038736Y-24849882D01*
X27053297Y-24847722D01*
X27068000Y-24847000D01*
X27368000Y-24847000D01*
X27382703Y-24847722D01*
X27382703Y-24847722D01*
G37*
D17*
X27218000Y-25622000D03*
D10*
G36*
X28382703Y-24847722D02*
G01*
X28397264Y-24849882D01*
X28411543Y-24853459D01*
X28425403Y-24858418D01*
X28438710Y-24864712D01*
X28451336Y-24872280D01*
X28463159Y-24881048D01*
X28474066Y-24890934D01*
X28483952Y-24901841D01*
X28492720Y-24913664D01*
X28500288Y-24926290D01*
X28506582Y-24939597D01*
X28511541Y-24953457D01*
X28515118Y-24967736D01*
X28517278Y-24982297D01*
X28518000Y-24997000D01*
X28518000Y-26247000D01*
X28517278Y-26261703D01*
X28515118Y-26276264D01*
X28511541Y-26290543D01*
X28506582Y-26304403D01*
X28500288Y-26317710D01*
X28492720Y-26330336D01*
X28483952Y-26342159D01*
X28474066Y-26353066D01*
X28463159Y-26362952D01*
X28451336Y-26371720D01*
X28438710Y-26379288D01*
X28425403Y-26385582D01*
X28411543Y-26390541D01*
X28397264Y-26394118D01*
X28382703Y-26396278D01*
X28368000Y-26397000D01*
X28068000Y-26397000D01*
X28053297Y-26396278D01*
X28038736Y-26394118D01*
X28024457Y-26390541D01*
X28010597Y-26385582D01*
X27997290Y-26379288D01*
X27984664Y-26371720D01*
X27972841Y-26362952D01*
X27961934Y-26353066D01*
X27952048Y-26342159D01*
X27943280Y-26330336D01*
X27935712Y-26317710D01*
X27929418Y-26304403D01*
X27924459Y-26290543D01*
X27920882Y-26276264D01*
X27918722Y-26261703D01*
X27918000Y-26247000D01*
X27918000Y-24997000D01*
X27918722Y-24982297D01*
X27920882Y-24967736D01*
X27924459Y-24953457D01*
X27929418Y-24939597D01*
X27935712Y-24926290D01*
X27943280Y-24913664D01*
X27952048Y-24901841D01*
X27961934Y-24890934D01*
X27972841Y-24881048D01*
X27984664Y-24872280D01*
X27997290Y-24864712D01*
X28010597Y-24858418D01*
X28024457Y-24853459D01*
X28038736Y-24849882D01*
X28053297Y-24847722D01*
X28068000Y-24847000D01*
X28368000Y-24847000D01*
X28382703Y-24847722D01*
X28382703Y-24847722D01*
G37*
D17*
X28218000Y-25622000D03*
D10*
G36*
X29382703Y-24847722D02*
G01*
X29397264Y-24849882D01*
X29411543Y-24853459D01*
X29425403Y-24858418D01*
X29438710Y-24864712D01*
X29451336Y-24872280D01*
X29463159Y-24881048D01*
X29474066Y-24890934D01*
X29483952Y-24901841D01*
X29492720Y-24913664D01*
X29500288Y-24926290D01*
X29506582Y-24939597D01*
X29511541Y-24953457D01*
X29515118Y-24967736D01*
X29517278Y-24982297D01*
X29518000Y-24997000D01*
X29518000Y-26247000D01*
X29517278Y-26261703D01*
X29515118Y-26276264D01*
X29511541Y-26290543D01*
X29506582Y-26304403D01*
X29500288Y-26317710D01*
X29492720Y-26330336D01*
X29483952Y-26342159D01*
X29474066Y-26353066D01*
X29463159Y-26362952D01*
X29451336Y-26371720D01*
X29438710Y-26379288D01*
X29425403Y-26385582D01*
X29411543Y-26390541D01*
X29397264Y-26394118D01*
X29382703Y-26396278D01*
X29368000Y-26397000D01*
X29068000Y-26397000D01*
X29053297Y-26396278D01*
X29038736Y-26394118D01*
X29024457Y-26390541D01*
X29010597Y-26385582D01*
X28997290Y-26379288D01*
X28984664Y-26371720D01*
X28972841Y-26362952D01*
X28961934Y-26353066D01*
X28952048Y-26342159D01*
X28943280Y-26330336D01*
X28935712Y-26317710D01*
X28929418Y-26304403D01*
X28924459Y-26290543D01*
X28920882Y-26276264D01*
X28918722Y-26261703D01*
X28918000Y-26247000D01*
X28918000Y-24997000D01*
X28918722Y-24982297D01*
X28920882Y-24967736D01*
X28924459Y-24953457D01*
X28929418Y-24939597D01*
X28935712Y-24926290D01*
X28943280Y-24913664D01*
X28952048Y-24901841D01*
X28961934Y-24890934D01*
X28972841Y-24881048D01*
X28984664Y-24872280D01*
X28997290Y-24864712D01*
X29010597Y-24858418D01*
X29024457Y-24853459D01*
X29038736Y-24849882D01*
X29053297Y-24847722D01*
X29068000Y-24847000D01*
X29368000Y-24847000D01*
X29382703Y-24847722D01*
X29382703Y-24847722D01*
G37*
D17*
X29218000Y-25622000D03*
D10*
G36*
X30382703Y-24847722D02*
G01*
X30397264Y-24849882D01*
X30411543Y-24853459D01*
X30425403Y-24858418D01*
X30438710Y-24864712D01*
X30451336Y-24872280D01*
X30463159Y-24881048D01*
X30474066Y-24890934D01*
X30483952Y-24901841D01*
X30492720Y-24913664D01*
X30500288Y-24926290D01*
X30506582Y-24939597D01*
X30511541Y-24953457D01*
X30515118Y-24967736D01*
X30517278Y-24982297D01*
X30518000Y-24997000D01*
X30518000Y-26247000D01*
X30517278Y-26261703D01*
X30515118Y-26276264D01*
X30511541Y-26290543D01*
X30506582Y-26304403D01*
X30500288Y-26317710D01*
X30492720Y-26330336D01*
X30483952Y-26342159D01*
X30474066Y-26353066D01*
X30463159Y-26362952D01*
X30451336Y-26371720D01*
X30438710Y-26379288D01*
X30425403Y-26385582D01*
X30411543Y-26390541D01*
X30397264Y-26394118D01*
X30382703Y-26396278D01*
X30368000Y-26397000D01*
X30068000Y-26397000D01*
X30053297Y-26396278D01*
X30038736Y-26394118D01*
X30024457Y-26390541D01*
X30010597Y-26385582D01*
X29997290Y-26379288D01*
X29984664Y-26371720D01*
X29972841Y-26362952D01*
X29961934Y-26353066D01*
X29952048Y-26342159D01*
X29943280Y-26330336D01*
X29935712Y-26317710D01*
X29929418Y-26304403D01*
X29924459Y-26290543D01*
X29920882Y-26276264D01*
X29918722Y-26261703D01*
X29918000Y-26247000D01*
X29918000Y-24997000D01*
X29918722Y-24982297D01*
X29920882Y-24967736D01*
X29924459Y-24953457D01*
X29929418Y-24939597D01*
X29935712Y-24926290D01*
X29943280Y-24913664D01*
X29952048Y-24901841D01*
X29961934Y-24890934D01*
X29972841Y-24881048D01*
X29984664Y-24872280D01*
X29997290Y-24864712D01*
X30010597Y-24858418D01*
X30024457Y-24853459D01*
X30038736Y-24849882D01*
X30053297Y-24847722D01*
X30068000Y-24847000D01*
X30368000Y-24847000D01*
X30382703Y-24847722D01*
X30382703Y-24847722D01*
G37*
D17*
X30218000Y-25622000D03*
D10*
G36*
X31382703Y-24847722D02*
G01*
X31397264Y-24849882D01*
X31411543Y-24853459D01*
X31425403Y-24858418D01*
X31438710Y-24864712D01*
X31451336Y-24872280D01*
X31463159Y-24881048D01*
X31474066Y-24890934D01*
X31483952Y-24901841D01*
X31492720Y-24913664D01*
X31500288Y-24926290D01*
X31506582Y-24939597D01*
X31511541Y-24953457D01*
X31515118Y-24967736D01*
X31517278Y-24982297D01*
X31518000Y-24997000D01*
X31518000Y-26247000D01*
X31517278Y-26261703D01*
X31515118Y-26276264D01*
X31511541Y-26290543D01*
X31506582Y-26304403D01*
X31500288Y-26317710D01*
X31492720Y-26330336D01*
X31483952Y-26342159D01*
X31474066Y-26353066D01*
X31463159Y-26362952D01*
X31451336Y-26371720D01*
X31438710Y-26379288D01*
X31425403Y-26385582D01*
X31411543Y-26390541D01*
X31397264Y-26394118D01*
X31382703Y-26396278D01*
X31368000Y-26397000D01*
X31068000Y-26397000D01*
X31053297Y-26396278D01*
X31038736Y-26394118D01*
X31024457Y-26390541D01*
X31010597Y-26385582D01*
X30997290Y-26379288D01*
X30984664Y-26371720D01*
X30972841Y-26362952D01*
X30961934Y-26353066D01*
X30952048Y-26342159D01*
X30943280Y-26330336D01*
X30935712Y-26317710D01*
X30929418Y-26304403D01*
X30924459Y-26290543D01*
X30920882Y-26276264D01*
X30918722Y-26261703D01*
X30918000Y-26247000D01*
X30918000Y-24997000D01*
X30918722Y-24982297D01*
X30920882Y-24967736D01*
X30924459Y-24953457D01*
X30929418Y-24939597D01*
X30935712Y-24926290D01*
X30943280Y-24913664D01*
X30952048Y-24901841D01*
X30961934Y-24890934D01*
X30972841Y-24881048D01*
X30984664Y-24872280D01*
X30997290Y-24864712D01*
X31010597Y-24858418D01*
X31024457Y-24853459D01*
X31038736Y-24849882D01*
X31053297Y-24847722D01*
X31068000Y-24847000D01*
X31368000Y-24847000D01*
X31382703Y-24847722D01*
X31382703Y-24847722D01*
G37*
D17*
X31218000Y-25622000D03*
D10*
G36*
X32382703Y-24847722D02*
G01*
X32397264Y-24849882D01*
X32411543Y-24853459D01*
X32425403Y-24858418D01*
X32438710Y-24864712D01*
X32451336Y-24872280D01*
X32463159Y-24881048D01*
X32474066Y-24890934D01*
X32483952Y-24901841D01*
X32492720Y-24913664D01*
X32500288Y-24926290D01*
X32506582Y-24939597D01*
X32511541Y-24953457D01*
X32515118Y-24967736D01*
X32517278Y-24982297D01*
X32518000Y-24997000D01*
X32518000Y-26247000D01*
X32517278Y-26261703D01*
X32515118Y-26276264D01*
X32511541Y-26290543D01*
X32506582Y-26304403D01*
X32500288Y-26317710D01*
X32492720Y-26330336D01*
X32483952Y-26342159D01*
X32474066Y-26353066D01*
X32463159Y-26362952D01*
X32451336Y-26371720D01*
X32438710Y-26379288D01*
X32425403Y-26385582D01*
X32411543Y-26390541D01*
X32397264Y-26394118D01*
X32382703Y-26396278D01*
X32368000Y-26397000D01*
X32068000Y-26397000D01*
X32053297Y-26396278D01*
X32038736Y-26394118D01*
X32024457Y-26390541D01*
X32010597Y-26385582D01*
X31997290Y-26379288D01*
X31984664Y-26371720D01*
X31972841Y-26362952D01*
X31961934Y-26353066D01*
X31952048Y-26342159D01*
X31943280Y-26330336D01*
X31935712Y-26317710D01*
X31929418Y-26304403D01*
X31924459Y-26290543D01*
X31920882Y-26276264D01*
X31918722Y-26261703D01*
X31918000Y-26247000D01*
X31918000Y-24997000D01*
X31918722Y-24982297D01*
X31920882Y-24967736D01*
X31924459Y-24953457D01*
X31929418Y-24939597D01*
X31935712Y-24926290D01*
X31943280Y-24913664D01*
X31952048Y-24901841D01*
X31961934Y-24890934D01*
X31972841Y-24881048D01*
X31984664Y-24872280D01*
X31997290Y-24864712D01*
X32010597Y-24858418D01*
X32024457Y-24853459D01*
X32038736Y-24849882D01*
X32053297Y-24847722D01*
X32068000Y-24847000D01*
X32368000Y-24847000D01*
X32382703Y-24847722D01*
X32382703Y-24847722D01*
G37*
D17*
X32218000Y-25622000D03*
D10*
G36*
X33382703Y-24847722D02*
G01*
X33397264Y-24849882D01*
X33411543Y-24853459D01*
X33425403Y-24858418D01*
X33438710Y-24864712D01*
X33451336Y-24872280D01*
X33463159Y-24881048D01*
X33474066Y-24890934D01*
X33483952Y-24901841D01*
X33492720Y-24913664D01*
X33500288Y-24926290D01*
X33506582Y-24939597D01*
X33511541Y-24953457D01*
X33515118Y-24967736D01*
X33517278Y-24982297D01*
X33518000Y-24997000D01*
X33518000Y-26247000D01*
X33517278Y-26261703D01*
X33515118Y-26276264D01*
X33511541Y-26290543D01*
X33506582Y-26304403D01*
X33500288Y-26317710D01*
X33492720Y-26330336D01*
X33483952Y-26342159D01*
X33474066Y-26353066D01*
X33463159Y-26362952D01*
X33451336Y-26371720D01*
X33438710Y-26379288D01*
X33425403Y-26385582D01*
X33411543Y-26390541D01*
X33397264Y-26394118D01*
X33382703Y-26396278D01*
X33368000Y-26397000D01*
X33068000Y-26397000D01*
X33053297Y-26396278D01*
X33038736Y-26394118D01*
X33024457Y-26390541D01*
X33010597Y-26385582D01*
X32997290Y-26379288D01*
X32984664Y-26371720D01*
X32972841Y-26362952D01*
X32961934Y-26353066D01*
X32952048Y-26342159D01*
X32943280Y-26330336D01*
X32935712Y-26317710D01*
X32929418Y-26304403D01*
X32924459Y-26290543D01*
X32920882Y-26276264D01*
X32918722Y-26261703D01*
X32918000Y-26247000D01*
X32918000Y-24997000D01*
X32918722Y-24982297D01*
X32920882Y-24967736D01*
X32924459Y-24953457D01*
X32929418Y-24939597D01*
X32935712Y-24926290D01*
X32943280Y-24913664D01*
X32952048Y-24901841D01*
X32961934Y-24890934D01*
X32972841Y-24881048D01*
X32984664Y-24872280D01*
X32997290Y-24864712D01*
X33010597Y-24858418D01*
X33024457Y-24853459D01*
X33038736Y-24849882D01*
X33053297Y-24847722D01*
X33068000Y-24847000D01*
X33368000Y-24847000D01*
X33382703Y-24847722D01*
X33382703Y-24847722D01*
G37*
D17*
X33218000Y-25622000D03*
D10*
G36*
X34382703Y-24847722D02*
G01*
X34397264Y-24849882D01*
X34411543Y-24853459D01*
X34425403Y-24858418D01*
X34438710Y-24864712D01*
X34451336Y-24872280D01*
X34463159Y-24881048D01*
X34474066Y-24890934D01*
X34483952Y-24901841D01*
X34492720Y-24913664D01*
X34500288Y-24926290D01*
X34506582Y-24939597D01*
X34511541Y-24953457D01*
X34515118Y-24967736D01*
X34517278Y-24982297D01*
X34518000Y-24997000D01*
X34518000Y-26247000D01*
X34517278Y-26261703D01*
X34515118Y-26276264D01*
X34511541Y-26290543D01*
X34506582Y-26304403D01*
X34500288Y-26317710D01*
X34492720Y-26330336D01*
X34483952Y-26342159D01*
X34474066Y-26353066D01*
X34463159Y-26362952D01*
X34451336Y-26371720D01*
X34438710Y-26379288D01*
X34425403Y-26385582D01*
X34411543Y-26390541D01*
X34397264Y-26394118D01*
X34382703Y-26396278D01*
X34368000Y-26397000D01*
X34068000Y-26397000D01*
X34053297Y-26396278D01*
X34038736Y-26394118D01*
X34024457Y-26390541D01*
X34010597Y-26385582D01*
X33997290Y-26379288D01*
X33984664Y-26371720D01*
X33972841Y-26362952D01*
X33961934Y-26353066D01*
X33952048Y-26342159D01*
X33943280Y-26330336D01*
X33935712Y-26317710D01*
X33929418Y-26304403D01*
X33924459Y-26290543D01*
X33920882Y-26276264D01*
X33918722Y-26261703D01*
X33918000Y-26247000D01*
X33918000Y-24997000D01*
X33918722Y-24982297D01*
X33920882Y-24967736D01*
X33924459Y-24953457D01*
X33929418Y-24939597D01*
X33935712Y-24926290D01*
X33943280Y-24913664D01*
X33952048Y-24901841D01*
X33961934Y-24890934D01*
X33972841Y-24881048D01*
X33984664Y-24872280D01*
X33997290Y-24864712D01*
X34010597Y-24858418D01*
X34024457Y-24853459D01*
X34038736Y-24849882D01*
X34053297Y-24847722D01*
X34068000Y-24847000D01*
X34368000Y-24847000D01*
X34382703Y-24847722D01*
X34382703Y-24847722D01*
G37*
D17*
X34218000Y-25622000D03*
D10*
G36*
X37869691Y-22804553D02*
G01*
X37890926Y-22807703D01*
X37911750Y-22812919D01*
X37931962Y-22820151D01*
X37951368Y-22829330D01*
X37969781Y-22840366D01*
X37987024Y-22853154D01*
X38002930Y-22867570D01*
X38017346Y-22883476D01*
X38030134Y-22900719D01*
X38041170Y-22919132D01*
X38050349Y-22938538D01*
X38057581Y-22958750D01*
X38062797Y-22979574D01*
X38065947Y-23000809D01*
X38067000Y-23022250D01*
X38067000Y-23459750D01*
X38065947Y-23481191D01*
X38062797Y-23502426D01*
X38057581Y-23523250D01*
X38050349Y-23543462D01*
X38041170Y-23562868D01*
X38030134Y-23581281D01*
X38017346Y-23598524D01*
X38002930Y-23614430D01*
X37987024Y-23628846D01*
X37969781Y-23641634D01*
X37951368Y-23652670D01*
X37931962Y-23661849D01*
X37911750Y-23669081D01*
X37890926Y-23674297D01*
X37869691Y-23677447D01*
X37848250Y-23678500D01*
X37335750Y-23678500D01*
X37314309Y-23677447D01*
X37293074Y-23674297D01*
X37272250Y-23669081D01*
X37252038Y-23661849D01*
X37232632Y-23652670D01*
X37214219Y-23641634D01*
X37196976Y-23628846D01*
X37181070Y-23614430D01*
X37166654Y-23598524D01*
X37153866Y-23581281D01*
X37142830Y-23562868D01*
X37133651Y-23543462D01*
X37126419Y-23523250D01*
X37121203Y-23502426D01*
X37118053Y-23481191D01*
X37117000Y-23459750D01*
X37117000Y-23022250D01*
X37118053Y-23000809D01*
X37121203Y-22979574D01*
X37126419Y-22958750D01*
X37133651Y-22938538D01*
X37142830Y-22919132D01*
X37153866Y-22900719D01*
X37166654Y-22883476D01*
X37181070Y-22867570D01*
X37196976Y-22853154D01*
X37214219Y-22840366D01*
X37232632Y-22829330D01*
X37252038Y-22820151D01*
X37272250Y-22812919D01*
X37293074Y-22807703D01*
X37314309Y-22804553D01*
X37335750Y-22803500D01*
X37848250Y-22803500D01*
X37869691Y-22804553D01*
X37869691Y-22804553D01*
G37*
D18*
X37592000Y-23241000D03*
D10*
G36*
X37869691Y-21229553D02*
G01*
X37890926Y-21232703D01*
X37911750Y-21237919D01*
X37931962Y-21245151D01*
X37951368Y-21254330D01*
X37969781Y-21265366D01*
X37987024Y-21278154D01*
X38002930Y-21292570D01*
X38017346Y-21308476D01*
X38030134Y-21325719D01*
X38041170Y-21344132D01*
X38050349Y-21363538D01*
X38057581Y-21383750D01*
X38062797Y-21404574D01*
X38065947Y-21425809D01*
X38067000Y-21447250D01*
X38067000Y-21884750D01*
X38065947Y-21906191D01*
X38062797Y-21927426D01*
X38057581Y-21948250D01*
X38050349Y-21968462D01*
X38041170Y-21987868D01*
X38030134Y-22006281D01*
X38017346Y-22023524D01*
X38002930Y-22039430D01*
X37987024Y-22053846D01*
X37969781Y-22066634D01*
X37951368Y-22077670D01*
X37931962Y-22086849D01*
X37911750Y-22094081D01*
X37890926Y-22099297D01*
X37869691Y-22102447D01*
X37848250Y-22103500D01*
X37335750Y-22103500D01*
X37314309Y-22102447D01*
X37293074Y-22099297D01*
X37272250Y-22094081D01*
X37252038Y-22086849D01*
X37232632Y-22077670D01*
X37214219Y-22066634D01*
X37196976Y-22053846D01*
X37181070Y-22039430D01*
X37166654Y-22023524D01*
X37153866Y-22006281D01*
X37142830Y-21987868D01*
X37133651Y-21968462D01*
X37126419Y-21948250D01*
X37121203Y-21927426D01*
X37118053Y-21906191D01*
X37117000Y-21884750D01*
X37117000Y-21447250D01*
X37118053Y-21425809D01*
X37121203Y-21404574D01*
X37126419Y-21383750D01*
X37133651Y-21363538D01*
X37142830Y-21344132D01*
X37153866Y-21325719D01*
X37166654Y-21308476D01*
X37181070Y-21292570D01*
X37196976Y-21278154D01*
X37214219Y-21265366D01*
X37232632Y-21254330D01*
X37252038Y-21245151D01*
X37272250Y-21237919D01*
X37293074Y-21232703D01*
X37314309Y-21229553D01*
X37335750Y-21228500D01*
X37848250Y-21228500D01*
X37869691Y-21229553D01*
X37869691Y-21229553D01*
G37*
D18*
X37592000Y-21666000D03*
D10*
G36*
X52347691Y-33371053D02*
G01*
X52368926Y-33374203D01*
X52389750Y-33379419D01*
X52409962Y-33386651D01*
X52429368Y-33395830D01*
X52447781Y-33406866D01*
X52465024Y-33419654D01*
X52480930Y-33434070D01*
X52495346Y-33449976D01*
X52508134Y-33467219D01*
X52519170Y-33485632D01*
X52528349Y-33505038D01*
X52535581Y-33525250D01*
X52540797Y-33546074D01*
X52543947Y-33567309D01*
X52545000Y-33588750D01*
X52545000Y-34026250D01*
X52543947Y-34047691D01*
X52540797Y-34068926D01*
X52535581Y-34089750D01*
X52528349Y-34109962D01*
X52519170Y-34129368D01*
X52508134Y-34147781D01*
X52495346Y-34165024D01*
X52480930Y-34180930D01*
X52465024Y-34195346D01*
X52447781Y-34208134D01*
X52429368Y-34219170D01*
X52409962Y-34228349D01*
X52389750Y-34235581D01*
X52368926Y-34240797D01*
X52347691Y-34243947D01*
X52326250Y-34245000D01*
X51813750Y-34245000D01*
X51792309Y-34243947D01*
X51771074Y-34240797D01*
X51750250Y-34235581D01*
X51730038Y-34228349D01*
X51710632Y-34219170D01*
X51692219Y-34208134D01*
X51674976Y-34195346D01*
X51659070Y-34180930D01*
X51644654Y-34165024D01*
X51631866Y-34147781D01*
X51620830Y-34129368D01*
X51611651Y-34109962D01*
X51604419Y-34089750D01*
X51599203Y-34068926D01*
X51596053Y-34047691D01*
X51595000Y-34026250D01*
X51595000Y-33588750D01*
X51596053Y-33567309D01*
X51599203Y-33546074D01*
X51604419Y-33525250D01*
X51611651Y-33505038D01*
X51620830Y-33485632D01*
X51631866Y-33467219D01*
X51644654Y-33449976D01*
X51659070Y-33434070D01*
X51674976Y-33419654D01*
X51692219Y-33406866D01*
X51710632Y-33395830D01*
X51730038Y-33386651D01*
X51750250Y-33379419D01*
X51771074Y-33374203D01*
X51792309Y-33371053D01*
X51813750Y-33370000D01*
X52326250Y-33370000D01*
X52347691Y-33371053D01*
X52347691Y-33371053D01*
G37*
D18*
X52070000Y-33807500D03*
D10*
G36*
X52347691Y-31796053D02*
G01*
X52368926Y-31799203D01*
X52389750Y-31804419D01*
X52409962Y-31811651D01*
X52429368Y-31820830D01*
X52447781Y-31831866D01*
X52465024Y-31844654D01*
X52480930Y-31859070D01*
X52495346Y-31874976D01*
X52508134Y-31892219D01*
X52519170Y-31910632D01*
X52528349Y-31930038D01*
X52535581Y-31950250D01*
X52540797Y-31971074D01*
X52543947Y-31992309D01*
X52545000Y-32013750D01*
X52545000Y-32451250D01*
X52543947Y-32472691D01*
X52540797Y-32493926D01*
X52535581Y-32514750D01*
X52528349Y-32534962D01*
X52519170Y-32554368D01*
X52508134Y-32572781D01*
X52495346Y-32590024D01*
X52480930Y-32605930D01*
X52465024Y-32620346D01*
X52447781Y-32633134D01*
X52429368Y-32644170D01*
X52409962Y-32653349D01*
X52389750Y-32660581D01*
X52368926Y-32665797D01*
X52347691Y-32668947D01*
X52326250Y-32670000D01*
X51813750Y-32670000D01*
X51792309Y-32668947D01*
X51771074Y-32665797D01*
X51750250Y-32660581D01*
X51730038Y-32653349D01*
X51710632Y-32644170D01*
X51692219Y-32633134D01*
X51674976Y-32620346D01*
X51659070Y-32605930D01*
X51644654Y-32590024D01*
X51631866Y-32572781D01*
X51620830Y-32554368D01*
X51611651Y-32534962D01*
X51604419Y-32514750D01*
X51599203Y-32493926D01*
X51596053Y-32472691D01*
X51595000Y-32451250D01*
X51595000Y-32013750D01*
X51596053Y-31992309D01*
X51599203Y-31971074D01*
X51604419Y-31950250D01*
X51611651Y-31930038D01*
X51620830Y-31910632D01*
X51631866Y-31892219D01*
X51644654Y-31874976D01*
X51659070Y-31859070D01*
X51674976Y-31844654D01*
X51692219Y-31831866D01*
X51710632Y-31820830D01*
X51730038Y-31811651D01*
X51750250Y-31804419D01*
X51771074Y-31799203D01*
X51792309Y-31796053D01*
X51813750Y-31795000D01*
X52326250Y-31795000D01*
X52347691Y-31796053D01*
X52347691Y-31796053D01*
G37*
D18*
X52070000Y-32232500D03*
D10*
G36*
X26793292Y-42873383D02*
G01*
X26801010Y-42874528D01*
X26808578Y-42876423D01*
X26815923Y-42879052D01*
X26822976Y-42882387D01*
X26829668Y-42886398D01*
X26835934Y-42891046D01*
X26841715Y-42896285D01*
X26846954Y-42902066D01*
X26851602Y-42908332D01*
X26855613Y-42915024D01*
X26858948Y-42922077D01*
X26861577Y-42929422D01*
X26863472Y-42936990D01*
X26864617Y-42944708D01*
X26865000Y-42952500D01*
X26865000Y-43153500D01*
X26864617Y-43161292D01*
X26863472Y-43169010D01*
X26861577Y-43176578D01*
X26858948Y-43183923D01*
X26855613Y-43190976D01*
X26851602Y-43197668D01*
X26846954Y-43203934D01*
X26841715Y-43209715D01*
X26835934Y-43214954D01*
X26829668Y-43219602D01*
X26822976Y-43223613D01*
X26815923Y-43226948D01*
X26808578Y-43229577D01*
X26801010Y-43231472D01*
X26793292Y-43232617D01*
X26785500Y-43233000D01*
X26626500Y-43233000D01*
X26618708Y-43232617D01*
X26610990Y-43231472D01*
X26603422Y-43229577D01*
X26596077Y-43226948D01*
X26589024Y-43223613D01*
X26582332Y-43219602D01*
X26576066Y-43214954D01*
X26570285Y-43209715D01*
X26565046Y-43203934D01*
X26560398Y-43197668D01*
X26556387Y-43190976D01*
X26553052Y-43183923D01*
X26550423Y-43176578D01*
X26548528Y-43169010D01*
X26547383Y-43161292D01*
X26547000Y-43153500D01*
X26547000Y-42952500D01*
X26547383Y-42944708D01*
X26548528Y-42936990D01*
X26550423Y-42929422D01*
X26553052Y-42922077D01*
X26556387Y-42915024D01*
X26560398Y-42908332D01*
X26565046Y-42902066D01*
X26570285Y-42896285D01*
X26576066Y-42891046D01*
X26582332Y-42886398D01*
X26589024Y-42882387D01*
X26596077Y-42879052D01*
X26603422Y-42876423D01*
X26610990Y-42874528D01*
X26618708Y-42873383D01*
X26626500Y-42873000D01*
X26785500Y-42873000D01*
X26793292Y-42873383D01*
X26793292Y-42873383D01*
G37*
D11*
X26706000Y-43053000D03*
D10*
G36*
X27483292Y-42873383D02*
G01*
X27491010Y-42874528D01*
X27498578Y-42876423D01*
X27505923Y-42879052D01*
X27512976Y-42882387D01*
X27519668Y-42886398D01*
X27525934Y-42891046D01*
X27531715Y-42896285D01*
X27536954Y-42902066D01*
X27541602Y-42908332D01*
X27545613Y-42915024D01*
X27548948Y-42922077D01*
X27551577Y-42929422D01*
X27553472Y-42936990D01*
X27554617Y-42944708D01*
X27555000Y-42952500D01*
X27555000Y-43153500D01*
X27554617Y-43161292D01*
X27553472Y-43169010D01*
X27551577Y-43176578D01*
X27548948Y-43183923D01*
X27545613Y-43190976D01*
X27541602Y-43197668D01*
X27536954Y-43203934D01*
X27531715Y-43209715D01*
X27525934Y-43214954D01*
X27519668Y-43219602D01*
X27512976Y-43223613D01*
X27505923Y-43226948D01*
X27498578Y-43229577D01*
X27491010Y-43231472D01*
X27483292Y-43232617D01*
X27475500Y-43233000D01*
X27316500Y-43233000D01*
X27308708Y-43232617D01*
X27300990Y-43231472D01*
X27293422Y-43229577D01*
X27286077Y-43226948D01*
X27279024Y-43223613D01*
X27272332Y-43219602D01*
X27266066Y-43214954D01*
X27260285Y-43209715D01*
X27255046Y-43203934D01*
X27250398Y-43197668D01*
X27246387Y-43190976D01*
X27243052Y-43183923D01*
X27240423Y-43176578D01*
X27238528Y-43169010D01*
X27237383Y-43161292D01*
X27237000Y-43153500D01*
X27237000Y-42952500D01*
X27237383Y-42944708D01*
X27238528Y-42936990D01*
X27240423Y-42929422D01*
X27243052Y-42922077D01*
X27246387Y-42915024D01*
X27250398Y-42908332D01*
X27255046Y-42902066D01*
X27260285Y-42896285D01*
X27266066Y-42891046D01*
X27272332Y-42886398D01*
X27279024Y-42882387D01*
X27286077Y-42879052D01*
X27293422Y-42876423D01*
X27300990Y-42874528D01*
X27308708Y-42873383D01*
X27316500Y-42873000D01*
X27475500Y-42873000D01*
X27483292Y-42873383D01*
X27483292Y-42873383D01*
G37*
D11*
X27396000Y-43053000D03*
D10*
G36*
X35541292Y-36889383D02*
G01*
X35549010Y-36890528D01*
X35556578Y-36892423D01*
X35563923Y-36895052D01*
X35570976Y-36898387D01*
X35577668Y-36902398D01*
X35583934Y-36907046D01*
X35589715Y-36912285D01*
X35594954Y-36918066D01*
X35599602Y-36924332D01*
X35603613Y-36931024D01*
X35606948Y-36938077D01*
X35609577Y-36945422D01*
X35611472Y-36952990D01*
X35612617Y-36960708D01*
X35613000Y-36968500D01*
X35613000Y-37127500D01*
X35612617Y-37135292D01*
X35611472Y-37143010D01*
X35609577Y-37150578D01*
X35606948Y-37157923D01*
X35603613Y-37164976D01*
X35599602Y-37171668D01*
X35594954Y-37177934D01*
X35589715Y-37183715D01*
X35583934Y-37188954D01*
X35577668Y-37193602D01*
X35570976Y-37197613D01*
X35563923Y-37200948D01*
X35556578Y-37203577D01*
X35549010Y-37205472D01*
X35541292Y-37206617D01*
X35533500Y-37207000D01*
X35332500Y-37207000D01*
X35324708Y-37206617D01*
X35316990Y-37205472D01*
X35309422Y-37203577D01*
X35302077Y-37200948D01*
X35295024Y-37197613D01*
X35288332Y-37193602D01*
X35282066Y-37188954D01*
X35276285Y-37183715D01*
X35271046Y-37177934D01*
X35266398Y-37171668D01*
X35262387Y-37164976D01*
X35259052Y-37157923D01*
X35256423Y-37150578D01*
X35254528Y-37143010D01*
X35253383Y-37135292D01*
X35253000Y-37127500D01*
X35253000Y-36968500D01*
X35253383Y-36960708D01*
X35254528Y-36952990D01*
X35256423Y-36945422D01*
X35259052Y-36938077D01*
X35262387Y-36931024D01*
X35266398Y-36924332D01*
X35271046Y-36918066D01*
X35276285Y-36912285D01*
X35282066Y-36907046D01*
X35288332Y-36902398D01*
X35295024Y-36898387D01*
X35302077Y-36895052D01*
X35309422Y-36892423D01*
X35316990Y-36890528D01*
X35324708Y-36889383D01*
X35332500Y-36889000D01*
X35533500Y-36889000D01*
X35541292Y-36889383D01*
X35541292Y-36889383D01*
G37*
D11*
X35433000Y-37048000D03*
D10*
G36*
X35541292Y-36199383D02*
G01*
X35549010Y-36200528D01*
X35556578Y-36202423D01*
X35563923Y-36205052D01*
X35570976Y-36208387D01*
X35577668Y-36212398D01*
X35583934Y-36217046D01*
X35589715Y-36222285D01*
X35594954Y-36228066D01*
X35599602Y-36234332D01*
X35603613Y-36241024D01*
X35606948Y-36248077D01*
X35609577Y-36255422D01*
X35611472Y-36262990D01*
X35612617Y-36270708D01*
X35613000Y-36278500D01*
X35613000Y-36437500D01*
X35612617Y-36445292D01*
X35611472Y-36453010D01*
X35609577Y-36460578D01*
X35606948Y-36467923D01*
X35603613Y-36474976D01*
X35599602Y-36481668D01*
X35594954Y-36487934D01*
X35589715Y-36493715D01*
X35583934Y-36498954D01*
X35577668Y-36503602D01*
X35570976Y-36507613D01*
X35563923Y-36510948D01*
X35556578Y-36513577D01*
X35549010Y-36515472D01*
X35541292Y-36516617D01*
X35533500Y-36517000D01*
X35332500Y-36517000D01*
X35324708Y-36516617D01*
X35316990Y-36515472D01*
X35309422Y-36513577D01*
X35302077Y-36510948D01*
X35295024Y-36507613D01*
X35288332Y-36503602D01*
X35282066Y-36498954D01*
X35276285Y-36493715D01*
X35271046Y-36487934D01*
X35266398Y-36481668D01*
X35262387Y-36474976D01*
X35259052Y-36467923D01*
X35256423Y-36460578D01*
X35254528Y-36453010D01*
X35253383Y-36445292D01*
X35253000Y-36437500D01*
X35253000Y-36278500D01*
X35253383Y-36270708D01*
X35254528Y-36262990D01*
X35256423Y-36255422D01*
X35259052Y-36248077D01*
X35262387Y-36241024D01*
X35266398Y-36234332D01*
X35271046Y-36228066D01*
X35276285Y-36222285D01*
X35282066Y-36217046D01*
X35288332Y-36212398D01*
X35295024Y-36208387D01*
X35302077Y-36205052D01*
X35309422Y-36202423D01*
X35316990Y-36200528D01*
X35324708Y-36199383D01*
X35332500Y-36199000D01*
X35533500Y-36199000D01*
X35541292Y-36199383D01*
X35541292Y-36199383D01*
G37*
D11*
X35433000Y-36358000D03*
D10*
G36*
X43110958Y-47940710D02*
G01*
X43125276Y-47942834D01*
X43139317Y-47946351D01*
X43152946Y-47951228D01*
X43166031Y-47957417D01*
X43178447Y-47964858D01*
X43190073Y-47973481D01*
X43200798Y-47983202D01*
X43210519Y-47993927D01*
X43219142Y-48005553D01*
X43226583Y-48017969D01*
X43232772Y-48031054D01*
X43237649Y-48044683D01*
X43241166Y-48058724D01*
X43243290Y-48073042D01*
X43244000Y-48087500D01*
X43244000Y-48432500D01*
X43243290Y-48446958D01*
X43241166Y-48461276D01*
X43237649Y-48475317D01*
X43232772Y-48488946D01*
X43226583Y-48502031D01*
X43219142Y-48514447D01*
X43210519Y-48526073D01*
X43200798Y-48536798D01*
X43190073Y-48546519D01*
X43178447Y-48555142D01*
X43166031Y-48562583D01*
X43152946Y-48568772D01*
X43139317Y-48573649D01*
X43125276Y-48577166D01*
X43110958Y-48579290D01*
X43096500Y-48580000D01*
X42801500Y-48580000D01*
X42787042Y-48579290D01*
X42772724Y-48577166D01*
X42758683Y-48573649D01*
X42745054Y-48568772D01*
X42731969Y-48562583D01*
X42719553Y-48555142D01*
X42707927Y-48546519D01*
X42697202Y-48536798D01*
X42687481Y-48526073D01*
X42678858Y-48514447D01*
X42671417Y-48502031D01*
X42665228Y-48488946D01*
X42660351Y-48475317D01*
X42656834Y-48461276D01*
X42654710Y-48446958D01*
X42654000Y-48432500D01*
X42654000Y-48087500D01*
X42654710Y-48073042D01*
X42656834Y-48058724D01*
X42660351Y-48044683D01*
X42665228Y-48031054D01*
X42671417Y-48017969D01*
X42678858Y-48005553D01*
X42687481Y-47993927D01*
X42697202Y-47983202D01*
X42707927Y-47973481D01*
X42719553Y-47964858D01*
X42731969Y-47957417D01*
X42745054Y-47951228D01*
X42758683Y-47946351D01*
X42772724Y-47942834D01*
X42787042Y-47940710D01*
X42801500Y-47940000D01*
X43096500Y-47940000D01*
X43110958Y-47940710D01*
X43110958Y-47940710D01*
G37*
D12*
X42949000Y-48260000D03*
D10*
G36*
X44080958Y-47940710D02*
G01*
X44095276Y-47942834D01*
X44109317Y-47946351D01*
X44122946Y-47951228D01*
X44136031Y-47957417D01*
X44148447Y-47964858D01*
X44160073Y-47973481D01*
X44170798Y-47983202D01*
X44180519Y-47993927D01*
X44189142Y-48005553D01*
X44196583Y-48017969D01*
X44202772Y-48031054D01*
X44207649Y-48044683D01*
X44211166Y-48058724D01*
X44213290Y-48073042D01*
X44214000Y-48087500D01*
X44214000Y-48432500D01*
X44213290Y-48446958D01*
X44211166Y-48461276D01*
X44207649Y-48475317D01*
X44202772Y-48488946D01*
X44196583Y-48502031D01*
X44189142Y-48514447D01*
X44180519Y-48526073D01*
X44170798Y-48536798D01*
X44160073Y-48546519D01*
X44148447Y-48555142D01*
X44136031Y-48562583D01*
X44122946Y-48568772D01*
X44109317Y-48573649D01*
X44095276Y-48577166D01*
X44080958Y-48579290D01*
X44066500Y-48580000D01*
X43771500Y-48580000D01*
X43757042Y-48579290D01*
X43742724Y-48577166D01*
X43728683Y-48573649D01*
X43715054Y-48568772D01*
X43701969Y-48562583D01*
X43689553Y-48555142D01*
X43677927Y-48546519D01*
X43667202Y-48536798D01*
X43657481Y-48526073D01*
X43648858Y-48514447D01*
X43641417Y-48502031D01*
X43635228Y-48488946D01*
X43630351Y-48475317D01*
X43626834Y-48461276D01*
X43624710Y-48446958D01*
X43624000Y-48432500D01*
X43624000Y-48087500D01*
X43624710Y-48073042D01*
X43626834Y-48058724D01*
X43630351Y-48044683D01*
X43635228Y-48031054D01*
X43641417Y-48017969D01*
X43648858Y-48005553D01*
X43657481Y-47993927D01*
X43667202Y-47983202D01*
X43677927Y-47973481D01*
X43689553Y-47964858D01*
X43701969Y-47957417D01*
X43715054Y-47951228D01*
X43728683Y-47946351D01*
X43742724Y-47942834D01*
X43757042Y-47940710D01*
X43771500Y-47940000D01*
X44066500Y-47940000D01*
X44080958Y-47940710D01*
X44080958Y-47940710D01*
G37*
D12*
X43919000Y-48260000D03*
D10*
G36*
X26727958Y-44130710D02*
G01*
X26742276Y-44132834D01*
X26756317Y-44136351D01*
X26769946Y-44141228D01*
X26783031Y-44147417D01*
X26795447Y-44154858D01*
X26807073Y-44163481D01*
X26817798Y-44173202D01*
X26827519Y-44183927D01*
X26836142Y-44195553D01*
X26843583Y-44207969D01*
X26849772Y-44221054D01*
X26854649Y-44234683D01*
X26858166Y-44248724D01*
X26860290Y-44263042D01*
X26861000Y-44277500D01*
X26861000Y-44622500D01*
X26860290Y-44636958D01*
X26858166Y-44651276D01*
X26854649Y-44665317D01*
X26849772Y-44678946D01*
X26843583Y-44692031D01*
X26836142Y-44704447D01*
X26827519Y-44716073D01*
X26817798Y-44726798D01*
X26807073Y-44736519D01*
X26795447Y-44745142D01*
X26783031Y-44752583D01*
X26769946Y-44758772D01*
X26756317Y-44763649D01*
X26742276Y-44767166D01*
X26727958Y-44769290D01*
X26713500Y-44770000D01*
X26418500Y-44770000D01*
X26404042Y-44769290D01*
X26389724Y-44767166D01*
X26375683Y-44763649D01*
X26362054Y-44758772D01*
X26348969Y-44752583D01*
X26336553Y-44745142D01*
X26324927Y-44736519D01*
X26314202Y-44726798D01*
X26304481Y-44716073D01*
X26295858Y-44704447D01*
X26288417Y-44692031D01*
X26282228Y-44678946D01*
X26277351Y-44665317D01*
X26273834Y-44651276D01*
X26271710Y-44636958D01*
X26271000Y-44622500D01*
X26271000Y-44277500D01*
X26271710Y-44263042D01*
X26273834Y-44248724D01*
X26277351Y-44234683D01*
X26282228Y-44221054D01*
X26288417Y-44207969D01*
X26295858Y-44195553D01*
X26304481Y-44183927D01*
X26314202Y-44173202D01*
X26324927Y-44163481D01*
X26336553Y-44154858D01*
X26348969Y-44147417D01*
X26362054Y-44141228D01*
X26375683Y-44136351D01*
X26389724Y-44132834D01*
X26404042Y-44130710D01*
X26418500Y-44130000D01*
X26713500Y-44130000D01*
X26727958Y-44130710D01*
X26727958Y-44130710D01*
G37*
D12*
X26566000Y-44450000D03*
D10*
G36*
X27697958Y-44130710D02*
G01*
X27712276Y-44132834D01*
X27726317Y-44136351D01*
X27739946Y-44141228D01*
X27753031Y-44147417D01*
X27765447Y-44154858D01*
X27777073Y-44163481D01*
X27787798Y-44173202D01*
X27797519Y-44183927D01*
X27806142Y-44195553D01*
X27813583Y-44207969D01*
X27819772Y-44221054D01*
X27824649Y-44234683D01*
X27828166Y-44248724D01*
X27830290Y-44263042D01*
X27831000Y-44277500D01*
X27831000Y-44622500D01*
X27830290Y-44636958D01*
X27828166Y-44651276D01*
X27824649Y-44665317D01*
X27819772Y-44678946D01*
X27813583Y-44692031D01*
X27806142Y-44704447D01*
X27797519Y-44716073D01*
X27787798Y-44726798D01*
X27777073Y-44736519D01*
X27765447Y-44745142D01*
X27753031Y-44752583D01*
X27739946Y-44758772D01*
X27726317Y-44763649D01*
X27712276Y-44767166D01*
X27697958Y-44769290D01*
X27683500Y-44770000D01*
X27388500Y-44770000D01*
X27374042Y-44769290D01*
X27359724Y-44767166D01*
X27345683Y-44763649D01*
X27332054Y-44758772D01*
X27318969Y-44752583D01*
X27306553Y-44745142D01*
X27294927Y-44736519D01*
X27284202Y-44726798D01*
X27274481Y-44716073D01*
X27265858Y-44704447D01*
X27258417Y-44692031D01*
X27252228Y-44678946D01*
X27247351Y-44665317D01*
X27243834Y-44651276D01*
X27241710Y-44636958D01*
X27241000Y-44622500D01*
X27241000Y-44277500D01*
X27241710Y-44263042D01*
X27243834Y-44248724D01*
X27247351Y-44234683D01*
X27252228Y-44221054D01*
X27258417Y-44207969D01*
X27265858Y-44195553D01*
X27274481Y-44183927D01*
X27284202Y-44173202D01*
X27294927Y-44163481D01*
X27306553Y-44154858D01*
X27318969Y-44147417D01*
X27332054Y-44141228D01*
X27345683Y-44136351D01*
X27359724Y-44132834D01*
X27374042Y-44130710D01*
X27388500Y-44130000D01*
X27683500Y-44130000D01*
X27697958Y-44130710D01*
X27697958Y-44130710D01*
G37*
D12*
X27536000Y-44450000D03*
D10*
G36*
X45906958Y-41765710D02*
G01*
X45921276Y-41767834D01*
X45935317Y-41771351D01*
X45948946Y-41776228D01*
X45962031Y-41782417D01*
X45974447Y-41789858D01*
X45986073Y-41798481D01*
X45996798Y-41808202D01*
X46006519Y-41818927D01*
X46015142Y-41830553D01*
X46022583Y-41842969D01*
X46028772Y-41856054D01*
X46033649Y-41869683D01*
X46037166Y-41883724D01*
X46039290Y-41898042D01*
X46040000Y-41912500D01*
X46040000Y-42207500D01*
X46039290Y-42221958D01*
X46037166Y-42236276D01*
X46033649Y-42250317D01*
X46028772Y-42263946D01*
X46022583Y-42277031D01*
X46015142Y-42289447D01*
X46006519Y-42301073D01*
X45996798Y-42311798D01*
X45986073Y-42321519D01*
X45974447Y-42330142D01*
X45962031Y-42337583D01*
X45948946Y-42343772D01*
X45935317Y-42348649D01*
X45921276Y-42352166D01*
X45906958Y-42354290D01*
X45892500Y-42355000D01*
X45547500Y-42355000D01*
X45533042Y-42354290D01*
X45518724Y-42352166D01*
X45504683Y-42348649D01*
X45491054Y-42343772D01*
X45477969Y-42337583D01*
X45465553Y-42330142D01*
X45453927Y-42321519D01*
X45443202Y-42311798D01*
X45433481Y-42301073D01*
X45424858Y-42289447D01*
X45417417Y-42277031D01*
X45411228Y-42263946D01*
X45406351Y-42250317D01*
X45402834Y-42236276D01*
X45400710Y-42221958D01*
X45400000Y-42207500D01*
X45400000Y-41912500D01*
X45400710Y-41898042D01*
X45402834Y-41883724D01*
X45406351Y-41869683D01*
X45411228Y-41856054D01*
X45417417Y-41842969D01*
X45424858Y-41830553D01*
X45433481Y-41818927D01*
X45443202Y-41808202D01*
X45453927Y-41798481D01*
X45465553Y-41789858D01*
X45477969Y-41782417D01*
X45491054Y-41776228D01*
X45504683Y-41771351D01*
X45518724Y-41767834D01*
X45533042Y-41765710D01*
X45547500Y-41765000D01*
X45892500Y-41765000D01*
X45906958Y-41765710D01*
X45906958Y-41765710D01*
G37*
D12*
X45720000Y-42060000D03*
D10*
G36*
X45906958Y-42735710D02*
G01*
X45921276Y-42737834D01*
X45935317Y-42741351D01*
X45948946Y-42746228D01*
X45962031Y-42752417D01*
X45974447Y-42759858D01*
X45986073Y-42768481D01*
X45996798Y-42778202D01*
X46006519Y-42788927D01*
X46015142Y-42800553D01*
X46022583Y-42812969D01*
X46028772Y-42826054D01*
X46033649Y-42839683D01*
X46037166Y-42853724D01*
X46039290Y-42868042D01*
X46040000Y-42882500D01*
X46040000Y-43177500D01*
X46039290Y-43191958D01*
X46037166Y-43206276D01*
X46033649Y-43220317D01*
X46028772Y-43233946D01*
X46022583Y-43247031D01*
X46015142Y-43259447D01*
X46006519Y-43271073D01*
X45996798Y-43281798D01*
X45986073Y-43291519D01*
X45974447Y-43300142D01*
X45962031Y-43307583D01*
X45948946Y-43313772D01*
X45935317Y-43318649D01*
X45921276Y-43322166D01*
X45906958Y-43324290D01*
X45892500Y-43325000D01*
X45547500Y-43325000D01*
X45533042Y-43324290D01*
X45518724Y-43322166D01*
X45504683Y-43318649D01*
X45491054Y-43313772D01*
X45477969Y-43307583D01*
X45465553Y-43300142D01*
X45453927Y-43291519D01*
X45443202Y-43281798D01*
X45433481Y-43271073D01*
X45424858Y-43259447D01*
X45417417Y-43247031D01*
X45411228Y-43233946D01*
X45406351Y-43220317D01*
X45402834Y-43206276D01*
X45400710Y-43191958D01*
X45400000Y-43177500D01*
X45400000Y-42882500D01*
X45400710Y-42868042D01*
X45402834Y-42853724D01*
X45406351Y-42839683D01*
X45411228Y-42826054D01*
X45417417Y-42812969D01*
X45424858Y-42800553D01*
X45433481Y-42788927D01*
X45443202Y-42778202D01*
X45453927Y-42768481D01*
X45465553Y-42759858D01*
X45477969Y-42752417D01*
X45491054Y-42746228D01*
X45504683Y-42741351D01*
X45518724Y-42737834D01*
X45533042Y-42735710D01*
X45547500Y-42735000D01*
X45892500Y-42735000D01*
X45906958Y-42735710D01*
X45906958Y-42735710D01*
G37*
D12*
X45720000Y-43030000D03*
D10*
G36*
X27616958Y-38923710D02*
G01*
X27631276Y-38925834D01*
X27645317Y-38929351D01*
X27658946Y-38934228D01*
X27672031Y-38940417D01*
X27684447Y-38947858D01*
X27696073Y-38956481D01*
X27706798Y-38966202D01*
X27716519Y-38976927D01*
X27725142Y-38988553D01*
X27732583Y-39000969D01*
X27738772Y-39014054D01*
X27743649Y-39027683D01*
X27747166Y-39041724D01*
X27749290Y-39056042D01*
X27750000Y-39070500D01*
X27750000Y-39415500D01*
X27749290Y-39429958D01*
X27747166Y-39444276D01*
X27743649Y-39458317D01*
X27738772Y-39471946D01*
X27732583Y-39485031D01*
X27725142Y-39497447D01*
X27716519Y-39509073D01*
X27706798Y-39519798D01*
X27696073Y-39529519D01*
X27684447Y-39538142D01*
X27672031Y-39545583D01*
X27658946Y-39551772D01*
X27645317Y-39556649D01*
X27631276Y-39560166D01*
X27616958Y-39562290D01*
X27602500Y-39563000D01*
X27307500Y-39563000D01*
X27293042Y-39562290D01*
X27278724Y-39560166D01*
X27264683Y-39556649D01*
X27251054Y-39551772D01*
X27237969Y-39545583D01*
X27225553Y-39538142D01*
X27213927Y-39529519D01*
X27203202Y-39519798D01*
X27193481Y-39509073D01*
X27184858Y-39497447D01*
X27177417Y-39485031D01*
X27171228Y-39471946D01*
X27166351Y-39458317D01*
X27162834Y-39444276D01*
X27160710Y-39429958D01*
X27160000Y-39415500D01*
X27160000Y-39070500D01*
X27160710Y-39056042D01*
X27162834Y-39041724D01*
X27166351Y-39027683D01*
X27171228Y-39014054D01*
X27177417Y-39000969D01*
X27184858Y-38988553D01*
X27193481Y-38976927D01*
X27203202Y-38966202D01*
X27213927Y-38956481D01*
X27225553Y-38947858D01*
X27237969Y-38940417D01*
X27251054Y-38934228D01*
X27264683Y-38929351D01*
X27278724Y-38925834D01*
X27293042Y-38923710D01*
X27307500Y-38923000D01*
X27602500Y-38923000D01*
X27616958Y-38923710D01*
X27616958Y-38923710D01*
G37*
D12*
X27455000Y-39243000D03*
D10*
G36*
X28586958Y-38923710D02*
G01*
X28601276Y-38925834D01*
X28615317Y-38929351D01*
X28628946Y-38934228D01*
X28642031Y-38940417D01*
X28654447Y-38947858D01*
X28666073Y-38956481D01*
X28676798Y-38966202D01*
X28686519Y-38976927D01*
X28695142Y-38988553D01*
X28702583Y-39000969D01*
X28708772Y-39014054D01*
X28713649Y-39027683D01*
X28717166Y-39041724D01*
X28719290Y-39056042D01*
X28720000Y-39070500D01*
X28720000Y-39415500D01*
X28719290Y-39429958D01*
X28717166Y-39444276D01*
X28713649Y-39458317D01*
X28708772Y-39471946D01*
X28702583Y-39485031D01*
X28695142Y-39497447D01*
X28686519Y-39509073D01*
X28676798Y-39519798D01*
X28666073Y-39529519D01*
X28654447Y-39538142D01*
X28642031Y-39545583D01*
X28628946Y-39551772D01*
X28615317Y-39556649D01*
X28601276Y-39560166D01*
X28586958Y-39562290D01*
X28572500Y-39563000D01*
X28277500Y-39563000D01*
X28263042Y-39562290D01*
X28248724Y-39560166D01*
X28234683Y-39556649D01*
X28221054Y-39551772D01*
X28207969Y-39545583D01*
X28195553Y-39538142D01*
X28183927Y-39529519D01*
X28173202Y-39519798D01*
X28163481Y-39509073D01*
X28154858Y-39497447D01*
X28147417Y-39485031D01*
X28141228Y-39471946D01*
X28136351Y-39458317D01*
X28132834Y-39444276D01*
X28130710Y-39429958D01*
X28130000Y-39415500D01*
X28130000Y-39070500D01*
X28130710Y-39056042D01*
X28132834Y-39041724D01*
X28136351Y-39027683D01*
X28141228Y-39014054D01*
X28147417Y-39000969D01*
X28154858Y-38988553D01*
X28163481Y-38976927D01*
X28173202Y-38966202D01*
X28183927Y-38956481D01*
X28195553Y-38947858D01*
X28207969Y-38940417D01*
X28221054Y-38934228D01*
X28234683Y-38929351D01*
X28248724Y-38925834D01*
X28263042Y-38923710D01*
X28277500Y-38923000D01*
X28572500Y-38923000D01*
X28586958Y-38923710D01*
X28586958Y-38923710D01*
G37*
D12*
X28425000Y-39243000D03*
D10*
G36*
X47987292Y-29904383D02*
G01*
X47995010Y-29905528D01*
X48002578Y-29907423D01*
X48009923Y-29910052D01*
X48016976Y-29913387D01*
X48023668Y-29917398D01*
X48029934Y-29922046D01*
X48035715Y-29927285D01*
X48040954Y-29933066D01*
X48045602Y-29939332D01*
X48049613Y-29946024D01*
X48052948Y-29953077D01*
X48055577Y-29960422D01*
X48057472Y-29967990D01*
X48058617Y-29975708D01*
X48059000Y-29983500D01*
X48059000Y-30142500D01*
X48058617Y-30150292D01*
X48057472Y-30158010D01*
X48055577Y-30165578D01*
X48052948Y-30172923D01*
X48049613Y-30179976D01*
X48045602Y-30186668D01*
X48040954Y-30192934D01*
X48035715Y-30198715D01*
X48029934Y-30203954D01*
X48023668Y-30208602D01*
X48016976Y-30212613D01*
X48009923Y-30215948D01*
X48002578Y-30218577D01*
X47995010Y-30220472D01*
X47987292Y-30221617D01*
X47979500Y-30222000D01*
X47778500Y-30222000D01*
X47770708Y-30221617D01*
X47762990Y-30220472D01*
X47755422Y-30218577D01*
X47748077Y-30215948D01*
X47741024Y-30212613D01*
X47734332Y-30208602D01*
X47728066Y-30203954D01*
X47722285Y-30198715D01*
X47717046Y-30192934D01*
X47712398Y-30186668D01*
X47708387Y-30179976D01*
X47705052Y-30172923D01*
X47702423Y-30165578D01*
X47700528Y-30158010D01*
X47699383Y-30150292D01*
X47699000Y-30142500D01*
X47699000Y-29983500D01*
X47699383Y-29975708D01*
X47700528Y-29967990D01*
X47702423Y-29960422D01*
X47705052Y-29953077D01*
X47708387Y-29946024D01*
X47712398Y-29939332D01*
X47717046Y-29933066D01*
X47722285Y-29927285D01*
X47728066Y-29922046D01*
X47734332Y-29917398D01*
X47741024Y-29913387D01*
X47748077Y-29910052D01*
X47755422Y-29907423D01*
X47762990Y-29905528D01*
X47770708Y-29904383D01*
X47778500Y-29904000D01*
X47979500Y-29904000D01*
X47987292Y-29904383D01*
X47987292Y-29904383D01*
G37*
D11*
X47879000Y-30063000D03*
D10*
G36*
X47987292Y-29214383D02*
G01*
X47995010Y-29215528D01*
X48002578Y-29217423D01*
X48009923Y-29220052D01*
X48016976Y-29223387D01*
X48023668Y-29227398D01*
X48029934Y-29232046D01*
X48035715Y-29237285D01*
X48040954Y-29243066D01*
X48045602Y-29249332D01*
X48049613Y-29256024D01*
X48052948Y-29263077D01*
X48055577Y-29270422D01*
X48057472Y-29277990D01*
X48058617Y-29285708D01*
X48059000Y-29293500D01*
X48059000Y-29452500D01*
X48058617Y-29460292D01*
X48057472Y-29468010D01*
X48055577Y-29475578D01*
X48052948Y-29482923D01*
X48049613Y-29489976D01*
X48045602Y-29496668D01*
X48040954Y-29502934D01*
X48035715Y-29508715D01*
X48029934Y-29513954D01*
X48023668Y-29518602D01*
X48016976Y-29522613D01*
X48009923Y-29525948D01*
X48002578Y-29528577D01*
X47995010Y-29530472D01*
X47987292Y-29531617D01*
X47979500Y-29532000D01*
X47778500Y-29532000D01*
X47770708Y-29531617D01*
X47762990Y-29530472D01*
X47755422Y-29528577D01*
X47748077Y-29525948D01*
X47741024Y-29522613D01*
X47734332Y-29518602D01*
X47728066Y-29513954D01*
X47722285Y-29508715D01*
X47717046Y-29502934D01*
X47712398Y-29496668D01*
X47708387Y-29489976D01*
X47705052Y-29482923D01*
X47702423Y-29475578D01*
X47700528Y-29468010D01*
X47699383Y-29460292D01*
X47699000Y-29452500D01*
X47699000Y-29293500D01*
X47699383Y-29285708D01*
X47700528Y-29277990D01*
X47702423Y-29270422D01*
X47705052Y-29263077D01*
X47708387Y-29256024D01*
X47712398Y-29249332D01*
X47717046Y-29243066D01*
X47722285Y-29237285D01*
X47728066Y-29232046D01*
X47734332Y-29227398D01*
X47741024Y-29223387D01*
X47748077Y-29220052D01*
X47755422Y-29217423D01*
X47762990Y-29215528D01*
X47770708Y-29214383D01*
X47778500Y-29214000D01*
X47979500Y-29214000D01*
X47987292Y-29214383D01*
X47987292Y-29214383D01*
G37*
D11*
X47879000Y-29373000D03*
D10*
G36*
X52051292Y-29341383D02*
G01*
X52059010Y-29342528D01*
X52066578Y-29344423D01*
X52073923Y-29347052D01*
X52080976Y-29350387D01*
X52087668Y-29354398D01*
X52093934Y-29359046D01*
X52099715Y-29364285D01*
X52104954Y-29370066D01*
X52109602Y-29376332D01*
X52113613Y-29383024D01*
X52116948Y-29390077D01*
X52119577Y-29397422D01*
X52121472Y-29404990D01*
X52122617Y-29412708D01*
X52123000Y-29420500D01*
X52123000Y-29579500D01*
X52122617Y-29587292D01*
X52121472Y-29595010D01*
X52119577Y-29602578D01*
X52116948Y-29609923D01*
X52113613Y-29616976D01*
X52109602Y-29623668D01*
X52104954Y-29629934D01*
X52099715Y-29635715D01*
X52093934Y-29640954D01*
X52087668Y-29645602D01*
X52080976Y-29649613D01*
X52073923Y-29652948D01*
X52066578Y-29655577D01*
X52059010Y-29657472D01*
X52051292Y-29658617D01*
X52043500Y-29659000D01*
X51842500Y-29659000D01*
X51834708Y-29658617D01*
X51826990Y-29657472D01*
X51819422Y-29655577D01*
X51812077Y-29652948D01*
X51805024Y-29649613D01*
X51798332Y-29645602D01*
X51792066Y-29640954D01*
X51786285Y-29635715D01*
X51781046Y-29629934D01*
X51776398Y-29623668D01*
X51772387Y-29616976D01*
X51769052Y-29609923D01*
X51766423Y-29602578D01*
X51764528Y-29595010D01*
X51763383Y-29587292D01*
X51763000Y-29579500D01*
X51763000Y-29420500D01*
X51763383Y-29412708D01*
X51764528Y-29404990D01*
X51766423Y-29397422D01*
X51769052Y-29390077D01*
X51772387Y-29383024D01*
X51776398Y-29376332D01*
X51781046Y-29370066D01*
X51786285Y-29364285D01*
X51792066Y-29359046D01*
X51798332Y-29354398D01*
X51805024Y-29350387D01*
X51812077Y-29347052D01*
X51819422Y-29344423D01*
X51826990Y-29342528D01*
X51834708Y-29341383D01*
X51842500Y-29341000D01*
X52043500Y-29341000D01*
X52051292Y-29341383D01*
X52051292Y-29341383D01*
G37*
D11*
X51943000Y-29500000D03*
D10*
G36*
X52051292Y-30031383D02*
G01*
X52059010Y-30032528D01*
X52066578Y-30034423D01*
X52073923Y-30037052D01*
X52080976Y-30040387D01*
X52087668Y-30044398D01*
X52093934Y-30049046D01*
X52099715Y-30054285D01*
X52104954Y-30060066D01*
X52109602Y-30066332D01*
X52113613Y-30073024D01*
X52116948Y-30080077D01*
X52119577Y-30087422D01*
X52121472Y-30094990D01*
X52122617Y-30102708D01*
X52123000Y-30110500D01*
X52123000Y-30269500D01*
X52122617Y-30277292D01*
X52121472Y-30285010D01*
X52119577Y-30292578D01*
X52116948Y-30299923D01*
X52113613Y-30306976D01*
X52109602Y-30313668D01*
X52104954Y-30319934D01*
X52099715Y-30325715D01*
X52093934Y-30330954D01*
X52087668Y-30335602D01*
X52080976Y-30339613D01*
X52073923Y-30342948D01*
X52066578Y-30345577D01*
X52059010Y-30347472D01*
X52051292Y-30348617D01*
X52043500Y-30349000D01*
X51842500Y-30349000D01*
X51834708Y-30348617D01*
X51826990Y-30347472D01*
X51819422Y-30345577D01*
X51812077Y-30342948D01*
X51805024Y-30339613D01*
X51798332Y-30335602D01*
X51792066Y-30330954D01*
X51786285Y-30325715D01*
X51781046Y-30319934D01*
X51776398Y-30313668D01*
X51772387Y-30306976D01*
X51769052Y-30299923D01*
X51766423Y-30292578D01*
X51764528Y-30285010D01*
X51763383Y-30277292D01*
X51763000Y-30269500D01*
X51763000Y-30110500D01*
X51763383Y-30102708D01*
X51764528Y-30094990D01*
X51766423Y-30087422D01*
X51769052Y-30080077D01*
X51772387Y-30073024D01*
X51776398Y-30066332D01*
X51781046Y-30060066D01*
X51786285Y-30054285D01*
X51792066Y-30049046D01*
X51798332Y-30044398D01*
X51805024Y-30040387D01*
X51812077Y-30037052D01*
X51819422Y-30034423D01*
X51826990Y-30032528D01*
X51834708Y-30031383D01*
X51842500Y-30031000D01*
X52043500Y-30031000D01*
X52051292Y-30031383D01*
X52051292Y-30031383D01*
G37*
D11*
X51943000Y-30190000D03*
D10*
G36*
X37700292Y-24769383D02*
G01*
X37708010Y-24770528D01*
X37715578Y-24772423D01*
X37722923Y-24775052D01*
X37729976Y-24778387D01*
X37736668Y-24782398D01*
X37742934Y-24787046D01*
X37748715Y-24792285D01*
X37753954Y-24798066D01*
X37758602Y-24804332D01*
X37762613Y-24811024D01*
X37765948Y-24818077D01*
X37768577Y-24825422D01*
X37770472Y-24832990D01*
X37771617Y-24840708D01*
X37772000Y-24848500D01*
X37772000Y-25007500D01*
X37771617Y-25015292D01*
X37770472Y-25023010D01*
X37768577Y-25030578D01*
X37765948Y-25037923D01*
X37762613Y-25044976D01*
X37758602Y-25051668D01*
X37753954Y-25057934D01*
X37748715Y-25063715D01*
X37742934Y-25068954D01*
X37736668Y-25073602D01*
X37729976Y-25077613D01*
X37722923Y-25080948D01*
X37715578Y-25083577D01*
X37708010Y-25085472D01*
X37700292Y-25086617D01*
X37692500Y-25087000D01*
X37491500Y-25087000D01*
X37483708Y-25086617D01*
X37475990Y-25085472D01*
X37468422Y-25083577D01*
X37461077Y-25080948D01*
X37454024Y-25077613D01*
X37447332Y-25073602D01*
X37441066Y-25068954D01*
X37435285Y-25063715D01*
X37430046Y-25057934D01*
X37425398Y-25051668D01*
X37421387Y-25044976D01*
X37418052Y-25037923D01*
X37415423Y-25030578D01*
X37413528Y-25023010D01*
X37412383Y-25015292D01*
X37412000Y-25007500D01*
X37412000Y-24848500D01*
X37412383Y-24840708D01*
X37413528Y-24832990D01*
X37415423Y-24825422D01*
X37418052Y-24818077D01*
X37421387Y-24811024D01*
X37425398Y-24804332D01*
X37430046Y-24798066D01*
X37435285Y-24792285D01*
X37441066Y-24787046D01*
X37447332Y-24782398D01*
X37454024Y-24778387D01*
X37461077Y-24775052D01*
X37468422Y-24772423D01*
X37475990Y-24770528D01*
X37483708Y-24769383D01*
X37491500Y-24769000D01*
X37692500Y-24769000D01*
X37700292Y-24769383D01*
X37700292Y-24769383D01*
G37*
D11*
X37592000Y-24928000D03*
D10*
G36*
X37700292Y-25459383D02*
G01*
X37708010Y-25460528D01*
X37715578Y-25462423D01*
X37722923Y-25465052D01*
X37729976Y-25468387D01*
X37736668Y-25472398D01*
X37742934Y-25477046D01*
X37748715Y-25482285D01*
X37753954Y-25488066D01*
X37758602Y-25494332D01*
X37762613Y-25501024D01*
X37765948Y-25508077D01*
X37768577Y-25515422D01*
X37770472Y-25522990D01*
X37771617Y-25530708D01*
X37772000Y-25538500D01*
X37772000Y-25697500D01*
X37771617Y-25705292D01*
X37770472Y-25713010D01*
X37768577Y-25720578D01*
X37765948Y-25727923D01*
X37762613Y-25734976D01*
X37758602Y-25741668D01*
X37753954Y-25747934D01*
X37748715Y-25753715D01*
X37742934Y-25758954D01*
X37736668Y-25763602D01*
X37729976Y-25767613D01*
X37722923Y-25770948D01*
X37715578Y-25773577D01*
X37708010Y-25775472D01*
X37700292Y-25776617D01*
X37692500Y-25777000D01*
X37491500Y-25777000D01*
X37483708Y-25776617D01*
X37475990Y-25775472D01*
X37468422Y-25773577D01*
X37461077Y-25770948D01*
X37454024Y-25767613D01*
X37447332Y-25763602D01*
X37441066Y-25758954D01*
X37435285Y-25753715D01*
X37430046Y-25747934D01*
X37425398Y-25741668D01*
X37421387Y-25734976D01*
X37418052Y-25727923D01*
X37415423Y-25720578D01*
X37413528Y-25713010D01*
X37412383Y-25705292D01*
X37412000Y-25697500D01*
X37412000Y-25538500D01*
X37412383Y-25530708D01*
X37413528Y-25522990D01*
X37415423Y-25515422D01*
X37418052Y-25508077D01*
X37421387Y-25501024D01*
X37425398Y-25494332D01*
X37430046Y-25488066D01*
X37435285Y-25482285D01*
X37441066Y-25477046D01*
X37447332Y-25472398D01*
X37454024Y-25468387D01*
X37461077Y-25465052D01*
X37468422Y-25462423D01*
X37475990Y-25460528D01*
X37483708Y-25459383D01*
X37491500Y-25459000D01*
X37692500Y-25459000D01*
X37700292Y-25459383D01*
X37700292Y-25459383D01*
G37*
D11*
X37592000Y-25618000D03*
D10*
G36*
X38716292Y-25459383D02*
G01*
X38724010Y-25460528D01*
X38731578Y-25462423D01*
X38738923Y-25465052D01*
X38745976Y-25468387D01*
X38752668Y-25472398D01*
X38758934Y-25477046D01*
X38764715Y-25482285D01*
X38769954Y-25488066D01*
X38774602Y-25494332D01*
X38778613Y-25501024D01*
X38781948Y-25508077D01*
X38784577Y-25515422D01*
X38786472Y-25522990D01*
X38787617Y-25530708D01*
X38788000Y-25538500D01*
X38788000Y-25697500D01*
X38787617Y-25705292D01*
X38786472Y-25713010D01*
X38784577Y-25720578D01*
X38781948Y-25727923D01*
X38778613Y-25734976D01*
X38774602Y-25741668D01*
X38769954Y-25747934D01*
X38764715Y-25753715D01*
X38758934Y-25758954D01*
X38752668Y-25763602D01*
X38745976Y-25767613D01*
X38738923Y-25770948D01*
X38731578Y-25773577D01*
X38724010Y-25775472D01*
X38716292Y-25776617D01*
X38708500Y-25777000D01*
X38507500Y-25777000D01*
X38499708Y-25776617D01*
X38491990Y-25775472D01*
X38484422Y-25773577D01*
X38477077Y-25770948D01*
X38470024Y-25767613D01*
X38463332Y-25763602D01*
X38457066Y-25758954D01*
X38451285Y-25753715D01*
X38446046Y-25747934D01*
X38441398Y-25741668D01*
X38437387Y-25734976D01*
X38434052Y-25727923D01*
X38431423Y-25720578D01*
X38429528Y-25713010D01*
X38428383Y-25705292D01*
X38428000Y-25697500D01*
X38428000Y-25538500D01*
X38428383Y-25530708D01*
X38429528Y-25522990D01*
X38431423Y-25515422D01*
X38434052Y-25508077D01*
X38437387Y-25501024D01*
X38441398Y-25494332D01*
X38446046Y-25488066D01*
X38451285Y-25482285D01*
X38457066Y-25477046D01*
X38463332Y-25472398D01*
X38470024Y-25468387D01*
X38477077Y-25465052D01*
X38484422Y-25462423D01*
X38491990Y-25460528D01*
X38499708Y-25459383D01*
X38507500Y-25459000D01*
X38708500Y-25459000D01*
X38716292Y-25459383D01*
X38716292Y-25459383D01*
G37*
D11*
X38608000Y-25618000D03*
D10*
G36*
X38716292Y-24769383D02*
G01*
X38724010Y-24770528D01*
X38731578Y-24772423D01*
X38738923Y-24775052D01*
X38745976Y-24778387D01*
X38752668Y-24782398D01*
X38758934Y-24787046D01*
X38764715Y-24792285D01*
X38769954Y-24798066D01*
X38774602Y-24804332D01*
X38778613Y-24811024D01*
X38781948Y-24818077D01*
X38784577Y-24825422D01*
X38786472Y-24832990D01*
X38787617Y-24840708D01*
X38788000Y-24848500D01*
X38788000Y-25007500D01*
X38787617Y-25015292D01*
X38786472Y-25023010D01*
X38784577Y-25030578D01*
X38781948Y-25037923D01*
X38778613Y-25044976D01*
X38774602Y-25051668D01*
X38769954Y-25057934D01*
X38764715Y-25063715D01*
X38758934Y-25068954D01*
X38752668Y-25073602D01*
X38745976Y-25077613D01*
X38738923Y-25080948D01*
X38731578Y-25083577D01*
X38724010Y-25085472D01*
X38716292Y-25086617D01*
X38708500Y-25087000D01*
X38507500Y-25087000D01*
X38499708Y-25086617D01*
X38491990Y-25085472D01*
X38484422Y-25083577D01*
X38477077Y-25080948D01*
X38470024Y-25077613D01*
X38463332Y-25073602D01*
X38457066Y-25068954D01*
X38451285Y-25063715D01*
X38446046Y-25057934D01*
X38441398Y-25051668D01*
X38437387Y-25044976D01*
X38434052Y-25037923D01*
X38431423Y-25030578D01*
X38429528Y-25023010D01*
X38428383Y-25015292D01*
X38428000Y-25007500D01*
X38428000Y-24848500D01*
X38428383Y-24840708D01*
X38429528Y-24832990D01*
X38431423Y-24825422D01*
X38434052Y-24818077D01*
X38437387Y-24811024D01*
X38441398Y-24804332D01*
X38446046Y-24798066D01*
X38451285Y-24792285D01*
X38457066Y-24787046D01*
X38463332Y-24782398D01*
X38470024Y-24778387D01*
X38477077Y-24775052D01*
X38484422Y-24772423D01*
X38491990Y-24770528D01*
X38499708Y-24769383D01*
X38507500Y-24769000D01*
X38708500Y-24769000D01*
X38716292Y-24769383D01*
X38716292Y-24769383D01*
G37*
D11*
X38608000Y-24928000D03*
D10*
G36*
X43104292Y-36015383D02*
G01*
X43112010Y-36016528D01*
X43119578Y-36018423D01*
X43126923Y-36021052D01*
X43133976Y-36024387D01*
X43140668Y-36028398D01*
X43146934Y-36033046D01*
X43152715Y-36038285D01*
X43157954Y-36044066D01*
X43162602Y-36050332D01*
X43166613Y-36057024D01*
X43169948Y-36064077D01*
X43172577Y-36071422D01*
X43174472Y-36078990D01*
X43175617Y-36086708D01*
X43176000Y-36094500D01*
X43176000Y-36295500D01*
X43175617Y-36303292D01*
X43174472Y-36311010D01*
X43172577Y-36318578D01*
X43169948Y-36325923D01*
X43166613Y-36332976D01*
X43162602Y-36339668D01*
X43157954Y-36345934D01*
X43152715Y-36351715D01*
X43146934Y-36356954D01*
X43140668Y-36361602D01*
X43133976Y-36365613D01*
X43126923Y-36368948D01*
X43119578Y-36371577D01*
X43112010Y-36373472D01*
X43104292Y-36374617D01*
X43096500Y-36375000D01*
X42937500Y-36375000D01*
X42929708Y-36374617D01*
X42921990Y-36373472D01*
X42914422Y-36371577D01*
X42907077Y-36368948D01*
X42900024Y-36365613D01*
X42893332Y-36361602D01*
X42887066Y-36356954D01*
X42881285Y-36351715D01*
X42876046Y-36345934D01*
X42871398Y-36339668D01*
X42867387Y-36332976D01*
X42864052Y-36325923D01*
X42861423Y-36318578D01*
X42859528Y-36311010D01*
X42858383Y-36303292D01*
X42858000Y-36295500D01*
X42858000Y-36094500D01*
X42858383Y-36086708D01*
X42859528Y-36078990D01*
X42861423Y-36071422D01*
X42864052Y-36064077D01*
X42867387Y-36057024D01*
X42871398Y-36050332D01*
X42876046Y-36044066D01*
X42881285Y-36038285D01*
X42887066Y-36033046D01*
X42893332Y-36028398D01*
X42900024Y-36024387D01*
X42907077Y-36021052D01*
X42914422Y-36018423D01*
X42921990Y-36016528D01*
X42929708Y-36015383D01*
X42937500Y-36015000D01*
X43096500Y-36015000D01*
X43104292Y-36015383D01*
X43104292Y-36015383D01*
G37*
D11*
X43017000Y-36195000D03*
D10*
G36*
X42414292Y-36015383D02*
G01*
X42422010Y-36016528D01*
X42429578Y-36018423D01*
X42436923Y-36021052D01*
X42443976Y-36024387D01*
X42450668Y-36028398D01*
X42456934Y-36033046D01*
X42462715Y-36038285D01*
X42467954Y-36044066D01*
X42472602Y-36050332D01*
X42476613Y-36057024D01*
X42479948Y-36064077D01*
X42482577Y-36071422D01*
X42484472Y-36078990D01*
X42485617Y-36086708D01*
X42486000Y-36094500D01*
X42486000Y-36295500D01*
X42485617Y-36303292D01*
X42484472Y-36311010D01*
X42482577Y-36318578D01*
X42479948Y-36325923D01*
X42476613Y-36332976D01*
X42472602Y-36339668D01*
X42467954Y-36345934D01*
X42462715Y-36351715D01*
X42456934Y-36356954D01*
X42450668Y-36361602D01*
X42443976Y-36365613D01*
X42436923Y-36368948D01*
X42429578Y-36371577D01*
X42422010Y-36373472D01*
X42414292Y-36374617D01*
X42406500Y-36375000D01*
X42247500Y-36375000D01*
X42239708Y-36374617D01*
X42231990Y-36373472D01*
X42224422Y-36371577D01*
X42217077Y-36368948D01*
X42210024Y-36365613D01*
X42203332Y-36361602D01*
X42197066Y-36356954D01*
X42191285Y-36351715D01*
X42186046Y-36345934D01*
X42181398Y-36339668D01*
X42177387Y-36332976D01*
X42174052Y-36325923D01*
X42171423Y-36318578D01*
X42169528Y-36311010D01*
X42168383Y-36303292D01*
X42168000Y-36295500D01*
X42168000Y-36094500D01*
X42168383Y-36086708D01*
X42169528Y-36078990D01*
X42171423Y-36071422D01*
X42174052Y-36064077D01*
X42177387Y-36057024D01*
X42181398Y-36050332D01*
X42186046Y-36044066D01*
X42191285Y-36038285D01*
X42197066Y-36033046D01*
X42203332Y-36028398D01*
X42210024Y-36024387D01*
X42217077Y-36021052D01*
X42224422Y-36018423D01*
X42231990Y-36016528D01*
X42239708Y-36015383D01*
X42247500Y-36015000D01*
X42406500Y-36015000D01*
X42414292Y-36015383D01*
X42414292Y-36015383D01*
G37*
D11*
X42327000Y-36195000D03*
D10*
G36*
X38716292Y-40191383D02*
G01*
X38724010Y-40192528D01*
X38731578Y-40194423D01*
X38738923Y-40197052D01*
X38745976Y-40200387D01*
X38752668Y-40204398D01*
X38758934Y-40209046D01*
X38764715Y-40214285D01*
X38769954Y-40220066D01*
X38774602Y-40226332D01*
X38778613Y-40233024D01*
X38781948Y-40240077D01*
X38784577Y-40247422D01*
X38786472Y-40254990D01*
X38787617Y-40262708D01*
X38788000Y-40270500D01*
X38788000Y-40429500D01*
X38787617Y-40437292D01*
X38786472Y-40445010D01*
X38784577Y-40452578D01*
X38781948Y-40459923D01*
X38778613Y-40466976D01*
X38774602Y-40473668D01*
X38769954Y-40479934D01*
X38764715Y-40485715D01*
X38758934Y-40490954D01*
X38752668Y-40495602D01*
X38745976Y-40499613D01*
X38738923Y-40502948D01*
X38731578Y-40505577D01*
X38724010Y-40507472D01*
X38716292Y-40508617D01*
X38708500Y-40509000D01*
X38507500Y-40509000D01*
X38499708Y-40508617D01*
X38491990Y-40507472D01*
X38484422Y-40505577D01*
X38477077Y-40502948D01*
X38470024Y-40499613D01*
X38463332Y-40495602D01*
X38457066Y-40490954D01*
X38451285Y-40485715D01*
X38446046Y-40479934D01*
X38441398Y-40473668D01*
X38437387Y-40466976D01*
X38434052Y-40459923D01*
X38431423Y-40452578D01*
X38429528Y-40445010D01*
X38428383Y-40437292D01*
X38428000Y-40429500D01*
X38428000Y-40270500D01*
X38428383Y-40262708D01*
X38429528Y-40254990D01*
X38431423Y-40247422D01*
X38434052Y-40240077D01*
X38437387Y-40233024D01*
X38441398Y-40226332D01*
X38446046Y-40220066D01*
X38451285Y-40214285D01*
X38457066Y-40209046D01*
X38463332Y-40204398D01*
X38470024Y-40200387D01*
X38477077Y-40197052D01*
X38484422Y-40194423D01*
X38491990Y-40192528D01*
X38499708Y-40191383D01*
X38507500Y-40191000D01*
X38708500Y-40191000D01*
X38716292Y-40191383D01*
X38716292Y-40191383D01*
G37*
D11*
X38608000Y-40350000D03*
D10*
G36*
X38716292Y-39501383D02*
G01*
X38724010Y-39502528D01*
X38731578Y-39504423D01*
X38738923Y-39507052D01*
X38745976Y-39510387D01*
X38752668Y-39514398D01*
X38758934Y-39519046D01*
X38764715Y-39524285D01*
X38769954Y-39530066D01*
X38774602Y-39536332D01*
X38778613Y-39543024D01*
X38781948Y-39550077D01*
X38784577Y-39557422D01*
X38786472Y-39564990D01*
X38787617Y-39572708D01*
X38788000Y-39580500D01*
X38788000Y-39739500D01*
X38787617Y-39747292D01*
X38786472Y-39755010D01*
X38784577Y-39762578D01*
X38781948Y-39769923D01*
X38778613Y-39776976D01*
X38774602Y-39783668D01*
X38769954Y-39789934D01*
X38764715Y-39795715D01*
X38758934Y-39800954D01*
X38752668Y-39805602D01*
X38745976Y-39809613D01*
X38738923Y-39812948D01*
X38731578Y-39815577D01*
X38724010Y-39817472D01*
X38716292Y-39818617D01*
X38708500Y-39819000D01*
X38507500Y-39819000D01*
X38499708Y-39818617D01*
X38491990Y-39817472D01*
X38484422Y-39815577D01*
X38477077Y-39812948D01*
X38470024Y-39809613D01*
X38463332Y-39805602D01*
X38457066Y-39800954D01*
X38451285Y-39795715D01*
X38446046Y-39789934D01*
X38441398Y-39783668D01*
X38437387Y-39776976D01*
X38434052Y-39769923D01*
X38431423Y-39762578D01*
X38429528Y-39755010D01*
X38428383Y-39747292D01*
X38428000Y-39739500D01*
X38428000Y-39580500D01*
X38428383Y-39572708D01*
X38429528Y-39564990D01*
X38431423Y-39557422D01*
X38434052Y-39550077D01*
X38437387Y-39543024D01*
X38441398Y-39536332D01*
X38446046Y-39530066D01*
X38451285Y-39524285D01*
X38457066Y-39519046D01*
X38463332Y-39514398D01*
X38470024Y-39510387D01*
X38477077Y-39507052D01*
X38484422Y-39504423D01*
X38491990Y-39502528D01*
X38499708Y-39501383D01*
X38507500Y-39501000D01*
X38708500Y-39501000D01*
X38716292Y-39501383D01*
X38716292Y-39501383D01*
G37*
D11*
X38608000Y-39660000D03*
D10*
G36*
X37827292Y-40191383D02*
G01*
X37835010Y-40192528D01*
X37842578Y-40194423D01*
X37849923Y-40197052D01*
X37856976Y-40200387D01*
X37863668Y-40204398D01*
X37869934Y-40209046D01*
X37875715Y-40214285D01*
X37880954Y-40220066D01*
X37885602Y-40226332D01*
X37889613Y-40233024D01*
X37892948Y-40240077D01*
X37895577Y-40247422D01*
X37897472Y-40254990D01*
X37898617Y-40262708D01*
X37899000Y-40270500D01*
X37899000Y-40429500D01*
X37898617Y-40437292D01*
X37897472Y-40445010D01*
X37895577Y-40452578D01*
X37892948Y-40459923D01*
X37889613Y-40466976D01*
X37885602Y-40473668D01*
X37880954Y-40479934D01*
X37875715Y-40485715D01*
X37869934Y-40490954D01*
X37863668Y-40495602D01*
X37856976Y-40499613D01*
X37849923Y-40502948D01*
X37842578Y-40505577D01*
X37835010Y-40507472D01*
X37827292Y-40508617D01*
X37819500Y-40509000D01*
X37618500Y-40509000D01*
X37610708Y-40508617D01*
X37602990Y-40507472D01*
X37595422Y-40505577D01*
X37588077Y-40502948D01*
X37581024Y-40499613D01*
X37574332Y-40495602D01*
X37568066Y-40490954D01*
X37562285Y-40485715D01*
X37557046Y-40479934D01*
X37552398Y-40473668D01*
X37548387Y-40466976D01*
X37545052Y-40459923D01*
X37542423Y-40452578D01*
X37540528Y-40445010D01*
X37539383Y-40437292D01*
X37539000Y-40429500D01*
X37539000Y-40270500D01*
X37539383Y-40262708D01*
X37540528Y-40254990D01*
X37542423Y-40247422D01*
X37545052Y-40240077D01*
X37548387Y-40233024D01*
X37552398Y-40226332D01*
X37557046Y-40220066D01*
X37562285Y-40214285D01*
X37568066Y-40209046D01*
X37574332Y-40204398D01*
X37581024Y-40200387D01*
X37588077Y-40197052D01*
X37595422Y-40194423D01*
X37602990Y-40192528D01*
X37610708Y-40191383D01*
X37618500Y-40191000D01*
X37819500Y-40191000D01*
X37827292Y-40191383D01*
X37827292Y-40191383D01*
G37*
D11*
X37719000Y-40350000D03*
D10*
G36*
X37827292Y-39501383D02*
G01*
X37835010Y-39502528D01*
X37842578Y-39504423D01*
X37849923Y-39507052D01*
X37856976Y-39510387D01*
X37863668Y-39514398D01*
X37869934Y-39519046D01*
X37875715Y-39524285D01*
X37880954Y-39530066D01*
X37885602Y-39536332D01*
X37889613Y-39543024D01*
X37892948Y-39550077D01*
X37895577Y-39557422D01*
X37897472Y-39564990D01*
X37898617Y-39572708D01*
X37899000Y-39580500D01*
X37899000Y-39739500D01*
X37898617Y-39747292D01*
X37897472Y-39755010D01*
X37895577Y-39762578D01*
X37892948Y-39769923D01*
X37889613Y-39776976D01*
X37885602Y-39783668D01*
X37880954Y-39789934D01*
X37875715Y-39795715D01*
X37869934Y-39800954D01*
X37863668Y-39805602D01*
X37856976Y-39809613D01*
X37849923Y-39812948D01*
X37842578Y-39815577D01*
X37835010Y-39817472D01*
X37827292Y-39818617D01*
X37819500Y-39819000D01*
X37618500Y-39819000D01*
X37610708Y-39818617D01*
X37602990Y-39817472D01*
X37595422Y-39815577D01*
X37588077Y-39812948D01*
X37581024Y-39809613D01*
X37574332Y-39805602D01*
X37568066Y-39800954D01*
X37562285Y-39795715D01*
X37557046Y-39789934D01*
X37552398Y-39783668D01*
X37548387Y-39776976D01*
X37545052Y-39769923D01*
X37542423Y-39762578D01*
X37540528Y-39755010D01*
X37539383Y-39747292D01*
X37539000Y-39739500D01*
X37539000Y-39580500D01*
X37539383Y-39572708D01*
X37540528Y-39564990D01*
X37542423Y-39557422D01*
X37545052Y-39550077D01*
X37548387Y-39543024D01*
X37552398Y-39536332D01*
X37557046Y-39530066D01*
X37562285Y-39524285D01*
X37568066Y-39519046D01*
X37574332Y-39514398D01*
X37581024Y-39510387D01*
X37588077Y-39507052D01*
X37595422Y-39504423D01*
X37602990Y-39502528D01*
X37610708Y-39501383D01*
X37618500Y-39501000D01*
X37819500Y-39501000D01*
X37827292Y-39501383D01*
X37827292Y-39501383D01*
G37*
D11*
X37719000Y-39660000D03*
D10*
G36*
X29714292Y-63574383D02*
G01*
X29722010Y-63575528D01*
X29729578Y-63577423D01*
X29736923Y-63580052D01*
X29743976Y-63583387D01*
X29750668Y-63587398D01*
X29756934Y-63592046D01*
X29762715Y-63597285D01*
X29767954Y-63603066D01*
X29772602Y-63609332D01*
X29776613Y-63616024D01*
X29779948Y-63623077D01*
X29782577Y-63630422D01*
X29784472Y-63637990D01*
X29785617Y-63645708D01*
X29786000Y-63653500D01*
X29786000Y-63854500D01*
X29785617Y-63862292D01*
X29784472Y-63870010D01*
X29782577Y-63877578D01*
X29779948Y-63884923D01*
X29776613Y-63891976D01*
X29772602Y-63898668D01*
X29767954Y-63904934D01*
X29762715Y-63910715D01*
X29756934Y-63915954D01*
X29750668Y-63920602D01*
X29743976Y-63924613D01*
X29736923Y-63927948D01*
X29729578Y-63930577D01*
X29722010Y-63932472D01*
X29714292Y-63933617D01*
X29706500Y-63934000D01*
X29547500Y-63934000D01*
X29539708Y-63933617D01*
X29531990Y-63932472D01*
X29524422Y-63930577D01*
X29517077Y-63927948D01*
X29510024Y-63924613D01*
X29503332Y-63920602D01*
X29497066Y-63915954D01*
X29491285Y-63910715D01*
X29486046Y-63904934D01*
X29481398Y-63898668D01*
X29477387Y-63891976D01*
X29474052Y-63884923D01*
X29471423Y-63877578D01*
X29469528Y-63870010D01*
X29468383Y-63862292D01*
X29468000Y-63854500D01*
X29468000Y-63653500D01*
X29468383Y-63645708D01*
X29469528Y-63637990D01*
X29471423Y-63630422D01*
X29474052Y-63623077D01*
X29477387Y-63616024D01*
X29481398Y-63609332D01*
X29486046Y-63603066D01*
X29491285Y-63597285D01*
X29497066Y-63592046D01*
X29503332Y-63587398D01*
X29510024Y-63583387D01*
X29517077Y-63580052D01*
X29524422Y-63577423D01*
X29531990Y-63575528D01*
X29539708Y-63574383D01*
X29547500Y-63574000D01*
X29706500Y-63574000D01*
X29714292Y-63574383D01*
X29714292Y-63574383D01*
G37*
D11*
X29627000Y-63754000D03*
D10*
G36*
X30404292Y-63574383D02*
G01*
X30412010Y-63575528D01*
X30419578Y-63577423D01*
X30426923Y-63580052D01*
X30433976Y-63583387D01*
X30440668Y-63587398D01*
X30446934Y-63592046D01*
X30452715Y-63597285D01*
X30457954Y-63603066D01*
X30462602Y-63609332D01*
X30466613Y-63616024D01*
X30469948Y-63623077D01*
X30472577Y-63630422D01*
X30474472Y-63637990D01*
X30475617Y-63645708D01*
X30476000Y-63653500D01*
X30476000Y-63854500D01*
X30475617Y-63862292D01*
X30474472Y-63870010D01*
X30472577Y-63877578D01*
X30469948Y-63884923D01*
X30466613Y-63891976D01*
X30462602Y-63898668D01*
X30457954Y-63904934D01*
X30452715Y-63910715D01*
X30446934Y-63915954D01*
X30440668Y-63920602D01*
X30433976Y-63924613D01*
X30426923Y-63927948D01*
X30419578Y-63930577D01*
X30412010Y-63932472D01*
X30404292Y-63933617D01*
X30396500Y-63934000D01*
X30237500Y-63934000D01*
X30229708Y-63933617D01*
X30221990Y-63932472D01*
X30214422Y-63930577D01*
X30207077Y-63927948D01*
X30200024Y-63924613D01*
X30193332Y-63920602D01*
X30187066Y-63915954D01*
X30181285Y-63910715D01*
X30176046Y-63904934D01*
X30171398Y-63898668D01*
X30167387Y-63891976D01*
X30164052Y-63884923D01*
X30161423Y-63877578D01*
X30159528Y-63870010D01*
X30158383Y-63862292D01*
X30158000Y-63854500D01*
X30158000Y-63653500D01*
X30158383Y-63645708D01*
X30159528Y-63637990D01*
X30161423Y-63630422D01*
X30164052Y-63623077D01*
X30167387Y-63616024D01*
X30171398Y-63609332D01*
X30176046Y-63603066D01*
X30181285Y-63597285D01*
X30187066Y-63592046D01*
X30193332Y-63587398D01*
X30200024Y-63583387D01*
X30207077Y-63580052D01*
X30214422Y-63577423D01*
X30221990Y-63575528D01*
X30229708Y-63574383D01*
X30237500Y-63574000D01*
X30396500Y-63574000D01*
X30404292Y-63574383D01*
X30404292Y-63574383D01*
G37*
D11*
X30317000Y-63754000D03*
D10*
G36*
X29714292Y-62558383D02*
G01*
X29722010Y-62559528D01*
X29729578Y-62561423D01*
X29736923Y-62564052D01*
X29743976Y-62567387D01*
X29750668Y-62571398D01*
X29756934Y-62576046D01*
X29762715Y-62581285D01*
X29767954Y-62587066D01*
X29772602Y-62593332D01*
X29776613Y-62600024D01*
X29779948Y-62607077D01*
X29782577Y-62614422D01*
X29784472Y-62621990D01*
X29785617Y-62629708D01*
X29786000Y-62637500D01*
X29786000Y-62838500D01*
X29785617Y-62846292D01*
X29784472Y-62854010D01*
X29782577Y-62861578D01*
X29779948Y-62868923D01*
X29776613Y-62875976D01*
X29772602Y-62882668D01*
X29767954Y-62888934D01*
X29762715Y-62894715D01*
X29756934Y-62899954D01*
X29750668Y-62904602D01*
X29743976Y-62908613D01*
X29736923Y-62911948D01*
X29729578Y-62914577D01*
X29722010Y-62916472D01*
X29714292Y-62917617D01*
X29706500Y-62918000D01*
X29547500Y-62918000D01*
X29539708Y-62917617D01*
X29531990Y-62916472D01*
X29524422Y-62914577D01*
X29517077Y-62911948D01*
X29510024Y-62908613D01*
X29503332Y-62904602D01*
X29497066Y-62899954D01*
X29491285Y-62894715D01*
X29486046Y-62888934D01*
X29481398Y-62882668D01*
X29477387Y-62875976D01*
X29474052Y-62868923D01*
X29471423Y-62861578D01*
X29469528Y-62854010D01*
X29468383Y-62846292D01*
X29468000Y-62838500D01*
X29468000Y-62637500D01*
X29468383Y-62629708D01*
X29469528Y-62621990D01*
X29471423Y-62614422D01*
X29474052Y-62607077D01*
X29477387Y-62600024D01*
X29481398Y-62593332D01*
X29486046Y-62587066D01*
X29491285Y-62581285D01*
X29497066Y-62576046D01*
X29503332Y-62571398D01*
X29510024Y-62567387D01*
X29517077Y-62564052D01*
X29524422Y-62561423D01*
X29531990Y-62559528D01*
X29539708Y-62558383D01*
X29547500Y-62558000D01*
X29706500Y-62558000D01*
X29714292Y-62558383D01*
X29714292Y-62558383D01*
G37*
D11*
X29627000Y-62738000D03*
D10*
G36*
X30404292Y-62558383D02*
G01*
X30412010Y-62559528D01*
X30419578Y-62561423D01*
X30426923Y-62564052D01*
X30433976Y-62567387D01*
X30440668Y-62571398D01*
X30446934Y-62576046D01*
X30452715Y-62581285D01*
X30457954Y-62587066D01*
X30462602Y-62593332D01*
X30466613Y-62600024D01*
X30469948Y-62607077D01*
X30472577Y-62614422D01*
X30474472Y-62621990D01*
X30475617Y-62629708D01*
X30476000Y-62637500D01*
X30476000Y-62838500D01*
X30475617Y-62846292D01*
X30474472Y-62854010D01*
X30472577Y-62861578D01*
X30469948Y-62868923D01*
X30466613Y-62875976D01*
X30462602Y-62882668D01*
X30457954Y-62888934D01*
X30452715Y-62894715D01*
X30446934Y-62899954D01*
X30440668Y-62904602D01*
X30433976Y-62908613D01*
X30426923Y-62911948D01*
X30419578Y-62914577D01*
X30412010Y-62916472D01*
X30404292Y-62917617D01*
X30396500Y-62918000D01*
X30237500Y-62918000D01*
X30229708Y-62917617D01*
X30221990Y-62916472D01*
X30214422Y-62914577D01*
X30207077Y-62911948D01*
X30200024Y-62908613D01*
X30193332Y-62904602D01*
X30187066Y-62899954D01*
X30181285Y-62894715D01*
X30176046Y-62888934D01*
X30171398Y-62882668D01*
X30167387Y-62875976D01*
X30164052Y-62868923D01*
X30161423Y-62861578D01*
X30159528Y-62854010D01*
X30158383Y-62846292D01*
X30158000Y-62838500D01*
X30158000Y-62637500D01*
X30158383Y-62629708D01*
X30159528Y-62621990D01*
X30161423Y-62614422D01*
X30164052Y-62607077D01*
X30167387Y-62600024D01*
X30171398Y-62593332D01*
X30176046Y-62587066D01*
X30181285Y-62581285D01*
X30187066Y-62576046D01*
X30193332Y-62571398D01*
X30200024Y-62567387D01*
X30207077Y-62564052D01*
X30214422Y-62561423D01*
X30221990Y-62559528D01*
X30229708Y-62558383D01*
X30237500Y-62558000D01*
X30396500Y-62558000D01*
X30404292Y-62558383D01*
X30404292Y-62558383D01*
G37*
D11*
X30317000Y-62738000D03*
D19*
X50584000Y-29931000D03*
X50584000Y-29281000D03*
X50584000Y-28631000D03*
X50584000Y-27981000D03*
X48984000Y-27981000D03*
X48984000Y-28631000D03*
X48984000Y-29281000D03*
X48984000Y-29931000D03*
D10*
G36*
X52248292Y-60907383D02*
G01*
X52256010Y-60908528D01*
X52263578Y-60910423D01*
X52270923Y-60913052D01*
X52277976Y-60916387D01*
X52284668Y-60920398D01*
X52290934Y-60925046D01*
X52296715Y-60930285D01*
X52301954Y-60936066D01*
X52306602Y-60942332D01*
X52310613Y-60949024D01*
X52313948Y-60956077D01*
X52316577Y-60963422D01*
X52318472Y-60970990D01*
X52319617Y-60978708D01*
X52320000Y-60986500D01*
X52320000Y-61187500D01*
X52319617Y-61195292D01*
X52318472Y-61203010D01*
X52316577Y-61210578D01*
X52313948Y-61217923D01*
X52310613Y-61224976D01*
X52306602Y-61231668D01*
X52301954Y-61237934D01*
X52296715Y-61243715D01*
X52290934Y-61248954D01*
X52284668Y-61253602D01*
X52277976Y-61257613D01*
X52270923Y-61260948D01*
X52263578Y-61263577D01*
X52256010Y-61265472D01*
X52248292Y-61266617D01*
X52240500Y-61267000D01*
X52081500Y-61267000D01*
X52073708Y-61266617D01*
X52065990Y-61265472D01*
X52058422Y-61263577D01*
X52051077Y-61260948D01*
X52044024Y-61257613D01*
X52037332Y-61253602D01*
X52031066Y-61248954D01*
X52025285Y-61243715D01*
X52020046Y-61237934D01*
X52015398Y-61231668D01*
X52011387Y-61224976D01*
X52008052Y-61217923D01*
X52005423Y-61210578D01*
X52003528Y-61203010D01*
X52002383Y-61195292D01*
X52002000Y-61187500D01*
X52002000Y-60986500D01*
X52002383Y-60978708D01*
X52003528Y-60970990D01*
X52005423Y-60963422D01*
X52008052Y-60956077D01*
X52011387Y-60949024D01*
X52015398Y-60942332D01*
X52020046Y-60936066D01*
X52025285Y-60930285D01*
X52031066Y-60925046D01*
X52037332Y-60920398D01*
X52044024Y-60916387D01*
X52051077Y-60913052D01*
X52058422Y-60910423D01*
X52065990Y-60908528D01*
X52073708Y-60907383D01*
X52081500Y-60907000D01*
X52240500Y-60907000D01*
X52248292Y-60907383D01*
X52248292Y-60907383D01*
G37*
D11*
X52161000Y-61087000D03*
D10*
G36*
X51558292Y-60907383D02*
G01*
X51566010Y-60908528D01*
X51573578Y-60910423D01*
X51580923Y-60913052D01*
X51587976Y-60916387D01*
X51594668Y-60920398D01*
X51600934Y-60925046D01*
X51606715Y-60930285D01*
X51611954Y-60936066D01*
X51616602Y-60942332D01*
X51620613Y-60949024D01*
X51623948Y-60956077D01*
X51626577Y-60963422D01*
X51628472Y-60970990D01*
X51629617Y-60978708D01*
X51630000Y-60986500D01*
X51630000Y-61187500D01*
X51629617Y-61195292D01*
X51628472Y-61203010D01*
X51626577Y-61210578D01*
X51623948Y-61217923D01*
X51620613Y-61224976D01*
X51616602Y-61231668D01*
X51611954Y-61237934D01*
X51606715Y-61243715D01*
X51600934Y-61248954D01*
X51594668Y-61253602D01*
X51587976Y-61257613D01*
X51580923Y-61260948D01*
X51573578Y-61263577D01*
X51566010Y-61265472D01*
X51558292Y-61266617D01*
X51550500Y-61267000D01*
X51391500Y-61267000D01*
X51383708Y-61266617D01*
X51375990Y-61265472D01*
X51368422Y-61263577D01*
X51361077Y-61260948D01*
X51354024Y-61257613D01*
X51347332Y-61253602D01*
X51341066Y-61248954D01*
X51335285Y-61243715D01*
X51330046Y-61237934D01*
X51325398Y-61231668D01*
X51321387Y-61224976D01*
X51318052Y-61217923D01*
X51315423Y-61210578D01*
X51313528Y-61203010D01*
X51312383Y-61195292D01*
X51312000Y-61187500D01*
X51312000Y-60986500D01*
X51312383Y-60978708D01*
X51313528Y-60970990D01*
X51315423Y-60963422D01*
X51318052Y-60956077D01*
X51321387Y-60949024D01*
X51325398Y-60942332D01*
X51330046Y-60936066D01*
X51335285Y-60930285D01*
X51341066Y-60925046D01*
X51347332Y-60920398D01*
X51354024Y-60916387D01*
X51361077Y-60913052D01*
X51368422Y-60910423D01*
X51375990Y-60908528D01*
X51383708Y-60907383D01*
X51391500Y-60907000D01*
X51550500Y-60907000D01*
X51558292Y-60907383D01*
X51558292Y-60907383D01*
G37*
D11*
X51471000Y-61087000D03*
D20*
X43675000Y-56653000D03*
D21*
X43725000Y-67328000D03*
D22*
X41275000Y-67453000D03*
X40175000Y-67453000D03*
X39075000Y-67453000D03*
X37975000Y-67453000D03*
X36875000Y-67453000D03*
X35775000Y-67453000D03*
X34675000Y-67453000D03*
D23*
X44075000Y-59078000D03*
D24*
X32450000Y-58228000D03*
D25*
X32125000Y-59728000D03*
D26*
X32375000Y-67328000D03*
D22*
X33575000Y-67453000D03*
D27*
X41783000Y-24029000D03*
D28*
X43258000Y-22479000D03*
X40308000Y-22479000D03*
D10*
G36*
X27682292Y-40206383D02*
G01*
X27690010Y-40207528D01*
X27697578Y-40209423D01*
X27704923Y-40212052D01*
X27711976Y-40215387D01*
X27718668Y-40219398D01*
X27724934Y-40224046D01*
X27730715Y-40229285D01*
X27735954Y-40235066D01*
X27740602Y-40241332D01*
X27744613Y-40248024D01*
X27747948Y-40255077D01*
X27750577Y-40262422D01*
X27752472Y-40269990D01*
X27753617Y-40277708D01*
X27754000Y-40285500D01*
X27754000Y-40486500D01*
X27753617Y-40494292D01*
X27752472Y-40502010D01*
X27750577Y-40509578D01*
X27747948Y-40516923D01*
X27744613Y-40523976D01*
X27740602Y-40530668D01*
X27735954Y-40536934D01*
X27730715Y-40542715D01*
X27724934Y-40547954D01*
X27718668Y-40552602D01*
X27711976Y-40556613D01*
X27704923Y-40559948D01*
X27697578Y-40562577D01*
X27690010Y-40564472D01*
X27682292Y-40565617D01*
X27674500Y-40566000D01*
X27515500Y-40566000D01*
X27507708Y-40565617D01*
X27499990Y-40564472D01*
X27492422Y-40562577D01*
X27485077Y-40559948D01*
X27478024Y-40556613D01*
X27471332Y-40552602D01*
X27465066Y-40547954D01*
X27459285Y-40542715D01*
X27454046Y-40536934D01*
X27449398Y-40530668D01*
X27445387Y-40523976D01*
X27442052Y-40516923D01*
X27439423Y-40509578D01*
X27437528Y-40502010D01*
X27436383Y-40494292D01*
X27436000Y-40486500D01*
X27436000Y-40285500D01*
X27436383Y-40277708D01*
X27437528Y-40269990D01*
X27439423Y-40262422D01*
X27442052Y-40255077D01*
X27445387Y-40248024D01*
X27449398Y-40241332D01*
X27454046Y-40235066D01*
X27459285Y-40229285D01*
X27465066Y-40224046D01*
X27471332Y-40219398D01*
X27478024Y-40215387D01*
X27485077Y-40212052D01*
X27492422Y-40209423D01*
X27499990Y-40207528D01*
X27507708Y-40206383D01*
X27515500Y-40206000D01*
X27674500Y-40206000D01*
X27682292Y-40206383D01*
X27682292Y-40206383D01*
G37*
D11*
X27595000Y-40386000D03*
D10*
G36*
X28372292Y-40206383D02*
G01*
X28380010Y-40207528D01*
X28387578Y-40209423D01*
X28394923Y-40212052D01*
X28401976Y-40215387D01*
X28408668Y-40219398D01*
X28414934Y-40224046D01*
X28420715Y-40229285D01*
X28425954Y-40235066D01*
X28430602Y-40241332D01*
X28434613Y-40248024D01*
X28437948Y-40255077D01*
X28440577Y-40262422D01*
X28442472Y-40269990D01*
X28443617Y-40277708D01*
X28444000Y-40285500D01*
X28444000Y-40486500D01*
X28443617Y-40494292D01*
X28442472Y-40502010D01*
X28440577Y-40509578D01*
X28437948Y-40516923D01*
X28434613Y-40523976D01*
X28430602Y-40530668D01*
X28425954Y-40536934D01*
X28420715Y-40542715D01*
X28414934Y-40547954D01*
X28408668Y-40552602D01*
X28401976Y-40556613D01*
X28394923Y-40559948D01*
X28387578Y-40562577D01*
X28380010Y-40564472D01*
X28372292Y-40565617D01*
X28364500Y-40566000D01*
X28205500Y-40566000D01*
X28197708Y-40565617D01*
X28189990Y-40564472D01*
X28182422Y-40562577D01*
X28175077Y-40559948D01*
X28168024Y-40556613D01*
X28161332Y-40552602D01*
X28155066Y-40547954D01*
X28149285Y-40542715D01*
X28144046Y-40536934D01*
X28139398Y-40530668D01*
X28135387Y-40523976D01*
X28132052Y-40516923D01*
X28129423Y-40509578D01*
X28127528Y-40502010D01*
X28126383Y-40494292D01*
X28126000Y-40486500D01*
X28126000Y-40285500D01*
X28126383Y-40277708D01*
X28127528Y-40269990D01*
X28129423Y-40262422D01*
X28132052Y-40255077D01*
X28135387Y-40248024D01*
X28139398Y-40241332D01*
X28144046Y-40235066D01*
X28149285Y-40229285D01*
X28155066Y-40224046D01*
X28161332Y-40219398D01*
X28168024Y-40215387D01*
X28175077Y-40212052D01*
X28182422Y-40209423D01*
X28189990Y-40207528D01*
X28197708Y-40206383D01*
X28205500Y-40206000D01*
X28364500Y-40206000D01*
X28372292Y-40206383D01*
X28372292Y-40206383D01*
G37*
D11*
X28285000Y-40386000D03*
D10*
G36*
X42469292Y-50747383D02*
G01*
X42477010Y-50748528D01*
X42484578Y-50750423D01*
X42491923Y-50753052D01*
X42498976Y-50756387D01*
X42505668Y-50760398D01*
X42511934Y-50765046D01*
X42517715Y-50770285D01*
X42522954Y-50776066D01*
X42527602Y-50782332D01*
X42531613Y-50789024D01*
X42534948Y-50796077D01*
X42537577Y-50803422D01*
X42539472Y-50810990D01*
X42540617Y-50818708D01*
X42541000Y-50826500D01*
X42541000Y-51027500D01*
X42540617Y-51035292D01*
X42539472Y-51043010D01*
X42537577Y-51050578D01*
X42534948Y-51057923D01*
X42531613Y-51064976D01*
X42527602Y-51071668D01*
X42522954Y-51077934D01*
X42517715Y-51083715D01*
X42511934Y-51088954D01*
X42505668Y-51093602D01*
X42498976Y-51097613D01*
X42491923Y-51100948D01*
X42484578Y-51103577D01*
X42477010Y-51105472D01*
X42469292Y-51106617D01*
X42461500Y-51107000D01*
X42302500Y-51107000D01*
X42294708Y-51106617D01*
X42286990Y-51105472D01*
X42279422Y-51103577D01*
X42272077Y-51100948D01*
X42265024Y-51097613D01*
X42258332Y-51093602D01*
X42252066Y-51088954D01*
X42246285Y-51083715D01*
X42241046Y-51077934D01*
X42236398Y-51071668D01*
X42232387Y-51064976D01*
X42229052Y-51057923D01*
X42226423Y-51050578D01*
X42224528Y-51043010D01*
X42223383Y-51035292D01*
X42223000Y-51027500D01*
X42223000Y-50826500D01*
X42223383Y-50818708D01*
X42224528Y-50810990D01*
X42226423Y-50803422D01*
X42229052Y-50796077D01*
X42232387Y-50789024D01*
X42236398Y-50782332D01*
X42241046Y-50776066D01*
X42246285Y-50770285D01*
X42252066Y-50765046D01*
X42258332Y-50760398D01*
X42265024Y-50756387D01*
X42272077Y-50753052D01*
X42279422Y-50750423D01*
X42286990Y-50748528D01*
X42294708Y-50747383D01*
X42302500Y-50747000D01*
X42461500Y-50747000D01*
X42469292Y-50747383D01*
X42469292Y-50747383D01*
G37*
D11*
X42382000Y-50927000D03*
D10*
G36*
X41779292Y-50747383D02*
G01*
X41787010Y-50748528D01*
X41794578Y-50750423D01*
X41801923Y-50753052D01*
X41808976Y-50756387D01*
X41815668Y-50760398D01*
X41821934Y-50765046D01*
X41827715Y-50770285D01*
X41832954Y-50776066D01*
X41837602Y-50782332D01*
X41841613Y-50789024D01*
X41844948Y-50796077D01*
X41847577Y-50803422D01*
X41849472Y-50810990D01*
X41850617Y-50818708D01*
X41851000Y-50826500D01*
X41851000Y-51027500D01*
X41850617Y-51035292D01*
X41849472Y-51043010D01*
X41847577Y-51050578D01*
X41844948Y-51057923D01*
X41841613Y-51064976D01*
X41837602Y-51071668D01*
X41832954Y-51077934D01*
X41827715Y-51083715D01*
X41821934Y-51088954D01*
X41815668Y-51093602D01*
X41808976Y-51097613D01*
X41801923Y-51100948D01*
X41794578Y-51103577D01*
X41787010Y-51105472D01*
X41779292Y-51106617D01*
X41771500Y-51107000D01*
X41612500Y-51107000D01*
X41604708Y-51106617D01*
X41596990Y-51105472D01*
X41589422Y-51103577D01*
X41582077Y-51100948D01*
X41575024Y-51097613D01*
X41568332Y-51093602D01*
X41562066Y-51088954D01*
X41556285Y-51083715D01*
X41551046Y-51077934D01*
X41546398Y-51071668D01*
X41542387Y-51064976D01*
X41539052Y-51057923D01*
X41536423Y-51050578D01*
X41534528Y-51043010D01*
X41533383Y-51035292D01*
X41533000Y-51027500D01*
X41533000Y-50826500D01*
X41533383Y-50818708D01*
X41534528Y-50810990D01*
X41536423Y-50803422D01*
X41539052Y-50796077D01*
X41542387Y-50789024D01*
X41546398Y-50782332D01*
X41551046Y-50776066D01*
X41556285Y-50770285D01*
X41562066Y-50765046D01*
X41568332Y-50760398D01*
X41575024Y-50756387D01*
X41582077Y-50753052D01*
X41589422Y-50750423D01*
X41596990Y-50748528D01*
X41604708Y-50747383D01*
X41612500Y-50747000D01*
X41771500Y-50747000D01*
X41779292Y-50747383D01*
X41779292Y-50747383D01*
G37*
D11*
X41692000Y-50927000D03*
D10*
G36*
X26793292Y-45540383D02*
G01*
X26801010Y-45541528D01*
X26808578Y-45543423D01*
X26815923Y-45546052D01*
X26822976Y-45549387D01*
X26829668Y-45553398D01*
X26835934Y-45558046D01*
X26841715Y-45563285D01*
X26846954Y-45569066D01*
X26851602Y-45575332D01*
X26855613Y-45582024D01*
X26858948Y-45589077D01*
X26861577Y-45596422D01*
X26863472Y-45603990D01*
X26864617Y-45611708D01*
X26865000Y-45619500D01*
X26865000Y-45820500D01*
X26864617Y-45828292D01*
X26863472Y-45836010D01*
X26861577Y-45843578D01*
X26858948Y-45850923D01*
X26855613Y-45857976D01*
X26851602Y-45864668D01*
X26846954Y-45870934D01*
X26841715Y-45876715D01*
X26835934Y-45881954D01*
X26829668Y-45886602D01*
X26822976Y-45890613D01*
X26815923Y-45893948D01*
X26808578Y-45896577D01*
X26801010Y-45898472D01*
X26793292Y-45899617D01*
X26785500Y-45900000D01*
X26626500Y-45900000D01*
X26618708Y-45899617D01*
X26610990Y-45898472D01*
X26603422Y-45896577D01*
X26596077Y-45893948D01*
X26589024Y-45890613D01*
X26582332Y-45886602D01*
X26576066Y-45881954D01*
X26570285Y-45876715D01*
X26565046Y-45870934D01*
X26560398Y-45864668D01*
X26556387Y-45857976D01*
X26553052Y-45850923D01*
X26550423Y-45843578D01*
X26548528Y-45836010D01*
X26547383Y-45828292D01*
X26547000Y-45820500D01*
X26547000Y-45619500D01*
X26547383Y-45611708D01*
X26548528Y-45603990D01*
X26550423Y-45596422D01*
X26553052Y-45589077D01*
X26556387Y-45582024D01*
X26560398Y-45575332D01*
X26565046Y-45569066D01*
X26570285Y-45563285D01*
X26576066Y-45558046D01*
X26582332Y-45553398D01*
X26589024Y-45549387D01*
X26596077Y-45546052D01*
X26603422Y-45543423D01*
X26610990Y-45541528D01*
X26618708Y-45540383D01*
X26626500Y-45540000D01*
X26785500Y-45540000D01*
X26793292Y-45540383D01*
X26793292Y-45540383D01*
G37*
D11*
X26706000Y-45720000D03*
D10*
G36*
X27483292Y-45540383D02*
G01*
X27491010Y-45541528D01*
X27498578Y-45543423D01*
X27505923Y-45546052D01*
X27512976Y-45549387D01*
X27519668Y-45553398D01*
X27525934Y-45558046D01*
X27531715Y-45563285D01*
X27536954Y-45569066D01*
X27541602Y-45575332D01*
X27545613Y-45582024D01*
X27548948Y-45589077D01*
X27551577Y-45596422D01*
X27553472Y-45603990D01*
X27554617Y-45611708D01*
X27555000Y-45619500D01*
X27555000Y-45820500D01*
X27554617Y-45828292D01*
X27553472Y-45836010D01*
X27551577Y-45843578D01*
X27548948Y-45850923D01*
X27545613Y-45857976D01*
X27541602Y-45864668D01*
X27536954Y-45870934D01*
X27531715Y-45876715D01*
X27525934Y-45881954D01*
X27519668Y-45886602D01*
X27512976Y-45890613D01*
X27505923Y-45893948D01*
X27498578Y-45896577D01*
X27491010Y-45898472D01*
X27483292Y-45899617D01*
X27475500Y-45900000D01*
X27316500Y-45900000D01*
X27308708Y-45899617D01*
X27300990Y-45898472D01*
X27293422Y-45896577D01*
X27286077Y-45893948D01*
X27279024Y-45890613D01*
X27272332Y-45886602D01*
X27266066Y-45881954D01*
X27260285Y-45876715D01*
X27255046Y-45870934D01*
X27250398Y-45864668D01*
X27246387Y-45857976D01*
X27243052Y-45850923D01*
X27240423Y-45843578D01*
X27238528Y-45836010D01*
X27237383Y-45828292D01*
X27237000Y-45820500D01*
X27237000Y-45619500D01*
X27237383Y-45611708D01*
X27238528Y-45603990D01*
X27240423Y-45596422D01*
X27243052Y-45589077D01*
X27246387Y-45582024D01*
X27250398Y-45575332D01*
X27255046Y-45569066D01*
X27260285Y-45563285D01*
X27266066Y-45558046D01*
X27272332Y-45553398D01*
X27279024Y-45549387D01*
X27286077Y-45546052D01*
X27293422Y-45543423D01*
X27300990Y-45541528D01*
X27308708Y-45540383D01*
X27316500Y-45540000D01*
X27475500Y-45540000D01*
X27483292Y-45540383D01*
X27483292Y-45540383D01*
G37*
D11*
X27396000Y-45720000D03*
D10*
G36*
X32690292Y-47318383D02*
G01*
X32698010Y-47319528D01*
X32705578Y-47321423D01*
X32712923Y-47324052D01*
X32719976Y-47327387D01*
X32726668Y-47331398D01*
X32732934Y-47336046D01*
X32738715Y-47341285D01*
X32743954Y-47347066D01*
X32748602Y-47353332D01*
X32752613Y-47360024D01*
X32755948Y-47367077D01*
X32758577Y-47374422D01*
X32760472Y-47381990D01*
X32761617Y-47389708D01*
X32762000Y-47397500D01*
X32762000Y-47598500D01*
X32761617Y-47606292D01*
X32760472Y-47614010D01*
X32758577Y-47621578D01*
X32755948Y-47628923D01*
X32752613Y-47635976D01*
X32748602Y-47642668D01*
X32743954Y-47648934D01*
X32738715Y-47654715D01*
X32732934Y-47659954D01*
X32726668Y-47664602D01*
X32719976Y-47668613D01*
X32712923Y-47671948D01*
X32705578Y-47674577D01*
X32698010Y-47676472D01*
X32690292Y-47677617D01*
X32682500Y-47678000D01*
X32523500Y-47678000D01*
X32515708Y-47677617D01*
X32507990Y-47676472D01*
X32500422Y-47674577D01*
X32493077Y-47671948D01*
X32486024Y-47668613D01*
X32479332Y-47664602D01*
X32473066Y-47659954D01*
X32467285Y-47654715D01*
X32462046Y-47648934D01*
X32457398Y-47642668D01*
X32453387Y-47635976D01*
X32450052Y-47628923D01*
X32447423Y-47621578D01*
X32445528Y-47614010D01*
X32444383Y-47606292D01*
X32444000Y-47598500D01*
X32444000Y-47397500D01*
X32444383Y-47389708D01*
X32445528Y-47381990D01*
X32447423Y-47374422D01*
X32450052Y-47367077D01*
X32453387Y-47360024D01*
X32457398Y-47353332D01*
X32462046Y-47347066D01*
X32467285Y-47341285D01*
X32473066Y-47336046D01*
X32479332Y-47331398D01*
X32486024Y-47327387D01*
X32493077Y-47324052D01*
X32500422Y-47321423D01*
X32507990Y-47319528D01*
X32515708Y-47318383D01*
X32523500Y-47318000D01*
X32682500Y-47318000D01*
X32690292Y-47318383D01*
X32690292Y-47318383D01*
G37*
D11*
X32603000Y-47498000D03*
D10*
G36*
X32000292Y-47318383D02*
G01*
X32008010Y-47319528D01*
X32015578Y-47321423D01*
X32022923Y-47324052D01*
X32029976Y-47327387D01*
X32036668Y-47331398D01*
X32042934Y-47336046D01*
X32048715Y-47341285D01*
X32053954Y-47347066D01*
X32058602Y-47353332D01*
X32062613Y-47360024D01*
X32065948Y-47367077D01*
X32068577Y-47374422D01*
X32070472Y-47381990D01*
X32071617Y-47389708D01*
X32072000Y-47397500D01*
X32072000Y-47598500D01*
X32071617Y-47606292D01*
X32070472Y-47614010D01*
X32068577Y-47621578D01*
X32065948Y-47628923D01*
X32062613Y-47635976D01*
X32058602Y-47642668D01*
X32053954Y-47648934D01*
X32048715Y-47654715D01*
X32042934Y-47659954D01*
X32036668Y-47664602D01*
X32029976Y-47668613D01*
X32022923Y-47671948D01*
X32015578Y-47674577D01*
X32008010Y-47676472D01*
X32000292Y-47677617D01*
X31992500Y-47678000D01*
X31833500Y-47678000D01*
X31825708Y-47677617D01*
X31817990Y-47676472D01*
X31810422Y-47674577D01*
X31803077Y-47671948D01*
X31796024Y-47668613D01*
X31789332Y-47664602D01*
X31783066Y-47659954D01*
X31777285Y-47654715D01*
X31772046Y-47648934D01*
X31767398Y-47642668D01*
X31763387Y-47635976D01*
X31760052Y-47628923D01*
X31757423Y-47621578D01*
X31755528Y-47614010D01*
X31754383Y-47606292D01*
X31754000Y-47598500D01*
X31754000Y-47397500D01*
X31754383Y-47389708D01*
X31755528Y-47381990D01*
X31757423Y-47374422D01*
X31760052Y-47367077D01*
X31763387Y-47360024D01*
X31767398Y-47353332D01*
X31772046Y-47347066D01*
X31777285Y-47341285D01*
X31783066Y-47336046D01*
X31789332Y-47331398D01*
X31796024Y-47327387D01*
X31803077Y-47324052D01*
X31810422Y-47321423D01*
X31817990Y-47319528D01*
X31825708Y-47318383D01*
X31833500Y-47318000D01*
X31992500Y-47318000D01*
X32000292Y-47318383D01*
X32000292Y-47318383D01*
G37*
D11*
X31913000Y-47498000D03*
D29*
X40088000Y-28739000D03*
X39588000Y-28739000D03*
X39088000Y-28739000D03*
X38588000Y-28739000D03*
X38088000Y-28739000D03*
X37588000Y-28739000D03*
X37088000Y-28739000D03*
X36588000Y-28739000D03*
X36088000Y-28739000D03*
X35588000Y-28739000D03*
X35088000Y-28739000D03*
X34588000Y-28739000D03*
D30*
X34073000Y-29254000D03*
X34073000Y-29754000D03*
X34073000Y-30254000D03*
X34073000Y-30754000D03*
X34073000Y-31254000D03*
X34073000Y-31754000D03*
X34073000Y-32254000D03*
X34073000Y-32754000D03*
X34073000Y-33254000D03*
X34073000Y-33754000D03*
X34073000Y-34254000D03*
X34073000Y-34754000D03*
D29*
X34588000Y-35269000D03*
X35088000Y-35269000D03*
X35588000Y-35269000D03*
X36088000Y-35269000D03*
X36588000Y-35269000D03*
X37088000Y-35269000D03*
X37588000Y-35269000D03*
X38088000Y-35269000D03*
X38588000Y-35269000D03*
X39088000Y-35269000D03*
X39588000Y-35269000D03*
X40088000Y-35269000D03*
D30*
X40603000Y-34754000D03*
X40603000Y-34254000D03*
X40603000Y-33754000D03*
X40603000Y-33254000D03*
X40603000Y-32754000D03*
X40603000Y-32254000D03*
X40603000Y-31754000D03*
X40603000Y-31254000D03*
X40603000Y-30754000D03*
X40603000Y-30254000D03*
X40603000Y-29754000D03*
X40603000Y-29254000D03*
D31*
X37338000Y-32004000D03*
M02*
